<?xml version="1.0" encoding="utf-8"?>
<svg version="1.1" xmlns:xlink="http://www.w3.org/1999/xlink" width="13px" height="13px" viewBox="228 402  13 13" xmlns="http://www.w3.org/2000/svg">
  <path d="M 234.5 402  C 238.14 402  241 404.86  241 408.5  C 241 412.14  238.14 415  234.5 415  C 230.86 415  228 412.14  228 408.5  C 228 404.86  230.86 402  234.5 402  Z " fill-rule="nonzero" fill="#ffffff" stroke="none" />
  <path d="M 234.5 402.5  C 237.86 402.5  240.5 405.14  240.5 408.5  C 240.5 411.86  237.86 414.5  234.5 414.5  C 231.14 414.5  228.5 411.86  228.5 408.5  C 228.5 405.14  231.14 402.5  234.5 402.5  Z " stroke-width="1" stroke="#797979" fill="none" />
  <path d="M 234.5 411.75  C 232.68 411.75  231.25 410.32  231.25 408.5  C 231.25 406.68  232.68 405.25  234.5 405.25  C 236.32 405.25  237.75 406.68  237.75 408.5  C 237.75 410.32  236.32 411.75  234.5 411.75  " fill-rule="nonzero" fill="#797979" stroke="none" />
</svg>