<?xml version="1.0" encoding="utf-8"?>
<svg version="1.1" xmlns:xlink="http://www.w3.org/1999/xlink" width="13px" height="13px" viewBox="228 377  13 13" xmlns="http://www.w3.org/2000/svg">
  <path d="M 234.5 377  C 238.14 377  241 379.86  241 383.5  C 241 387.14  238.14 390  234.5 390  C 230.86 390  228 387.14  228 383.5  C 228 379.86  230.86 377  234.5 377  Z " fill-rule="nonzero" fill="#f0f0f0" stroke="none" />
  <path d="M 234.5 377.5  C 237.86 377.5  240.5 380.14  240.5 383.5  C 240.5 386.86  237.86 389.5  234.5 389.5  C 231.14 389.5  228.5 386.86  228.5 383.5  C 228.5 380.14  231.14 377.5  234.5 377.5  Z " stroke-width="1" stroke="#797979" fill="none" />
  <path d="M 234.5 386.75  C 232.68 386.75  231.25 385.32  231.25 383.5  C 231.25 381.68  232.68 380.25  234.5 380.25  C 236.32 380.25  237.75 381.68  237.75 383.5  C 237.75 385.32  236.32 386.75  234.5 386.75  " fill-rule="nonzero" fill="#797979" stroke="none" />
</svg>