<?xml version="1.0" encoding="utf-8"?>
<svg version="1.1" xmlns:xlink="http://www.w3.org/1999/xlink" width="97px" height="93px" xmlns="http://www.w3.org/2000/svg">
  <g transform="matrix(1 0 0 1 0 -260 )">
    <path d="M 0 260  L 97 260  L 97 353  L 0 353  L 0 260  " fill-rule="nonzero" fill="#cccccc" stroke="none" />
    <path d="M 7 267  L 90 267  L 90 346  L 7 346  L 7 267  " fill-rule="nonzero" fill="#ffffff" stroke="none" />
    <path d="M 57.415000000000006 287.9  C 53.50900000000001 287.9  50.440000000000005 284.83099999999996  50.440000000000005 280.92499999999995  C 50.440000000000005 277.01899999999995  53.50900000000001 273.95  57.415000000000006 273.95  C 61.321000000000005 273.95  64.39 277.01899999999995  64.39 280.92499999999995  C 64.39 284.83099999999996  61.321000000000005 287.9  57.415000000000006 287.9  " fill-rule="nonzero" fill="#cccccc" stroke="none" />
    <path d="M 10 344  L 10 303.3  L 29.5 284.8  L 56.8 301.43092783505153  L 72.4 295.9  L 88 301.43092783505153  L 88 344  L 10 344  " fill-rule="nonzero" fill="#169bd5" stroke="none" />
  </g>
</svg>