<?xml version="1.0" encoding="utf-8"?>
<svg version="1.1" xmlns:xlink="http://www.w3.org/1999/xlink" width="24px" height="24px" xmlns="http://www.w3.org/2000/svg">
  <defs>
    <mask fill="white" id="clip3">
      <path d="M 0 12  C 0 6.811118064507525  3.1480596635340703 2.480797855433366  7.676331596666614 0.7768867667131758  C 9.012519053620878 0.2741023363315662  10.468881935492504 0  12 0  C 18.72 0  24 5.279999999999973  24 12  C 24 18.720000000000027  18.72 24  12 24  C 5.280000000000001 24  0 18.720000000000027  0 12  Z " fill-rule="evenodd" />
    </mask>
  </defs>
  <g transform="matrix(1 0 0 1 -227 -510 )">
    <path d="M 0 12  C 0 6.811118064507525  3.1480596635340703 2.480797855433366  7.676331596666614 0.7768867667131758  C 9.012519053620878 0.2741023363315662  10.468881935492504 0  12 0  C 18.72 0  24 5.279999999999973  24 12  C 24 18.720000000000027  18.72 24  12 24  C 5.280000000000001 24  0 18.720000000000027  0 12  Z " fill-rule="nonzero" fill="#ffffff" stroke="none" transform="matrix(1 0 0 1 227 510 )" />
    <path d="M 0 12  C 0 6.811118064507525  3.1480596635340703 2.480797855433366  7.676331596666614 0.7768867667131758  C 9.012519053620878 0.2741023363315662  10.468881935492504 0  12 0  C 18.72 0  24 5.279999999999973  24 12  C 24 18.720000000000027  18.72 24  12 24  C 5.280000000000001 24  0 18.720000000000027  0 12  Z " stroke-width="2" stroke="#797979" fill="none" transform="matrix(1 0 0 1 227 510 )" mask="url(#clip3)" />
  </g>
</svg>