<?xml version="1.0" encoding="utf-8"?>
<svg version="1.1" xmlns:xlink="http://www.w3.org/1999/xlink" width="13px" height="13px" viewBox="74 323  13 13" xmlns="http://www.w3.org/2000/svg">
  <path d="M 80.5 323  C 84.14 323  87 325.86  87 329.5  C 87 333.14  84.14 336  80.5 336  C 76.86 336  74 333.14  74 329.5  C 74 325.86  76.86 323  80.5 323  Z " fill-rule="nonzero" fill="#f0f0f0" stroke="none" />
  <path d="M 80.5 323.5  C 83.86 323.5  86.5 326.14  86.5 329.5  C 86.5 332.86  83.86 335.5  80.5 335.5  C 77.14 335.5  74.5 332.86  74.5 329.5  C 74.5 326.14  77.14 323.5  80.5 323.5  Z " stroke-width="1" stroke="#797979" fill="none" />
  <path d="M 80.5 332.75  C 78.68 332.75  77.25 331.32  77.25 329.5  C 77.25 327.68  78.68 326.25  80.5 326.25  C 82.32 326.25  83.75 327.68  83.75 329.5  C 83.75 331.32  82.32 332.75  80.5 332.75  " fill-rule="nonzero" fill="#797979" stroke="none" />
</svg>