<?xml version="1.0" encoding="utf-8"?>
<svg version="1.1" xmlns:xlink="http://www.w3.org/1999/xlink" width="13px" height="13px" viewBox="171 323  13 13" xmlns="http://www.w3.org/2000/svg">
  <path d="M 177.5 323  C 181.14 323  184 325.86  184 329.5  C 184 333.14  181.14 336  177.5 336  C 173.86 336  171 333.14  171 329.5  C 171 325.86  173.86 323  177.5 323  Z " fill-rule="nonzero" fill="#f0f0f0" stroke="none" />
  <path d="M 177.5 323.5  C 180.86 323.5  183.5 326.14  183.5 329.5  C 183.5 332.86  180.86 335.5  177.5 335.5  C 174.14 335.5  171.5 332.86  171.5 329.5  C 171.5 326.14  174.14 323.5  177.5 323.5  Z " stroke-width="1" stroke="#797979" fill="none" />
  <path d="M 177.5 332.75  C 175.68 332.75  174.25 331.32  174.25 329.5  C 174.25 327.68  175.68 326.25  177.5 326.25  C 179.32 326.25  180.75 327.68  180.75 329.5  C 180.75 331.32  179.32 332.75  177.5 332.75  " fill-rule="nonzero" fill="#797979" stroke="none" />
</svg>