<?xml version="1.0" encoding="utf-8"?>
<svg version="1.1" xmlns:xlink="http://www.w3.org/1999/xlink" width="12px" height="16px" xmlns="http://www.w3.org/2000/svg">
  <g transform="matrix(1 0 0 1 -9 -284 )">
    <path d="M 7.105590062111801 7.631262525050101  C 7.188405797101451 7.73814295257181  7.229813664596273 7.861055444221776  7.229813664596273 8  C 7.229813664596273 8.138944555778222  7.188405797101451 8.261857047428188  7.105590062111801 8.3687374749499  L 1.3167701863354038 15.839679358717435  C 1.2339544513457559 15.946559786239145  1.1387163561076605 16  1.031055900621118 16  C 0.9233954451345757 16  0.8281573498964803 15.946559786239145  0.7453416149068323 15.839679358717435  L 0.12422360248447205 15.03807615230461  C 0.041407867494824044 14.931195724782897  0 14.808283233132933  0 14.669338677354709  C 0 14.530394121576485  0.041407867494824044 14.40748162992652  0.12422360248447205 14.30060120240481  L 5.0062111801242235 8  L 0.12422360248447205 1.6993987975951903  C 0.041407867494824044 1.5925183700734795  0 1.469605878423513  0 1.330661322645291  C 0 1.1917167668670654  0.041407867494824044 1.068804275217099  0.12422360248447205 0.96192384769539  L 0.7453416149068323 0.1603206412825653  C 0.8281573498964803 0.053440213760854505  0.9233954451345757 0  1.031055900621118 0  C 1.1387163561076605 0  1.2339544513457559 0.053440213760854505  1.3167701863354038 0.1603206412825653  L 7.105590062111801 7.631262525050101  Z M 11.875776397515528 7.631262525050101  C 11.958592132505178 7.73814295257181  12 7.861055444221776  12 8  C 12 8.138944555778222  11.958592132505178 8.261857047428188  11.875776397515528 8.3687374749499  L 6.086956521739131 15.839679358717435  C 6.004140786749483 15.946559786239145  5.908902691511387 16  5.801242236024844 16  C 5.693581780538302 16  5.5983436853002075 15.946559786239145  5.515527950310559 15.839679358717435  L 4.894409937888199 15.03807615230461  C 4.811594202898552 14.931195724782897  4.770186335403727 14.808283233132933  4.770186335403727 14.669338677354709  C 4.770186335403727 14.530394121576485  4.811594202898552 14.40748162992652  4.894409937888199 14.30060120240481  L 9.77639751552795 8  L 4.894409937888199 1.6993987975951903  C 4.811594202898552 1.5925183700734795  4.770186335403727 1.469605878423513  4.770186335403727 1.330661322645291  C 4.770186335403727 1.1917167668670654  4.811594202898552 1.068804275217099  4.894409937888199 0.96192384769539  L 5.515527950310559 0.1603206412825653  C 5.5983436853002075 0.053440213760854505  5.693581780538302 0  5.801242236024844 0  C 5.908902691511387 0  6.004140786749483 0.053440213760854505  6.086956521739131 0.1603206412825653  L 11.875776397515528 7.631262525050101  Z " fill-rule="nonzero" fill="#000000" stroke="none" transform="matrix(1 0 0 1 9 284 )" />
  </g>
</svg>