<?xml version="1.0" encoding="utf-8"?>
<svg version="1.1" xmlns:xlink="http://www.w3.org/1999/xlink" width="12px" height="13px" xmlns="http://www.w3.org/2000/svg">
  <g transform="matrix(1 0 0 1 -496 -164 )">
    <path d="M 12 6.5  C 12 9.896250000000002  9.3 12.674999999999999  6 12.674999999999999  C 2.6999999999999997 12.674999999999999  0 9.896250000000002  0 6.5  C 0 3.1037499999999993  2.7 0.325  6 0.325  C 9.3 0.325  12 3.1037500000000002  12 6.5  Z M 11.00000000390625 6.499999999999998  C 11.00000000390625 3.6697916626464835  8.75000000390625 1.3541666626464834  6 1.354166662646485  C 3.2499999960937505 1.354166662646485  0.9999999960937498 3.6697916626464844  0.9999999960937498 6.5  C 0.9999999960937498 9.330208337353517  3.2499999960937496 11.645833337353515  6 11.645833337353515  C 8.75000000390625 11.645833337353515  11.00000000390625 9.330208337353517  11.00000000390625 6.499999999999998  Z " fill-rule="nonzero" fill="#fe5343" stroke="none" transform="matrix(1 0 0 1 496 164 )" />
  </g>
</svg>