<?xml version="1.0" encoding="utf-8"?>
<svg version="1.1" xmlns:xlink="http://www.w3.org/1999/xlink" width="463px" height="356px" xmlns="http://www.w3.org/2000/svg">
  <g transform="matrix(1 0 0 1 -103 -104 )">
    <path d="M 103 104  L 566 104  L 566 460  L 103 460  L 103 104  " fill-rule="nonzero" fill="#cccccc" stroke="none" />
    <path d="M 128 129  L 541 129  L 541 435  L 128 435  L 128 129  " fill-rule="nonzero" fill="#ffffff" stroke="none" />
    <path d="M 370.46 210.8  C 355.508 210.8  343.76 199.05200000000002  343.76 184.10000000000002  C 343.76 169.14800000000002  355.508 157.4  370.46 157.4  C 385.412 157.4  397.15999999999997 169.14800000000002  397.15999999999997 184.10000000000002  C 397.15999999999997 199.05200000000002  385.412 210.8  370.46 210.8  " fill-rule="nonzero" fill="#cccccc" stroke="none" />
    <path d="M 137 426  L 137 267.6  L 235.75 195.6  L 374 293.1343412526998  L 453 238.79999999999998  L 532 293.1343412526998  L 532 426  L 137 426  " fill-rule="nonzero" fill="#169bd5" stroke="none" />
  </g>
</svg>