<?xml version="1.0" encoding="utf-8"?>
<svg version="1.1" xmlns:xlink="http://www.w3.org/1999/xlink" width="75px" height="57px" xmlns="http://www.w3.org/2000/svg">
  <g transform="matrix(1 0 0 1 -21 -139 )">
    <path d="M 21 139  L 96 139  L 96 196  L 21 196  L 21 139  " fill-rule="nonzero" fill="#cccccc" stroke="none" />
    <path d="M 25 143  L 92 143  L 92 192  L 25 192  L 25 143  " fill-rule="nonzero" fill="#ffffff" stroke="none" />
    <path d="M 64.275 156.10000000000002  C 61.881 156.10000000000002  60 154.21900000000002  60 151.82500000000002  C 60 149.431  61.881 147.55  64.275 147.55  C 66.669 147.55  68.55 149.431  68.55 151.82500000000002  C 68.55 154.21900000000002  66.669 156.10000000000002  64.275 156.10000000000002  " fill-rule="nonzero" fill="#cccccc" stroke="none" />
    <path d="M 27 191  L 27 165.7  L 43 154.2  L 65.4 170.024  L 78.2 161.1  L 91 170.024  L 91 191  L 27 191  " fill-rule="nonzero" fill="#169bd5" stroke="none" />
    <path d="M 21.5 195.5  L 21.5 139.5  L 95.5 139.5  L 95.5 195.5  L 21.5 195.5  Z " stroke-width="1" stroke="#d9001b" fill="none" />
  </g>
</svg>