<?xml version="1.0" encoding="utf-8"?>
<svg version="1.1" xmlns:xlink="http://www.w3.org/1999/xlink" width="22px" height="22px" xmlns="http://www.w3.org/2000/svg">
  <g transform="matrix(1 0 0 1 -186 -122 )">
    <path d="M 20.7625 20.693749999999994  C 21.037499999999998 20.41875  21.037499999999998 20.075  20.7625 19.868750000000002  L 15.8125 14.987499999999997  C 17.11875 13.543749999999998  17.875 11.618749999999999  17.875 9.487499999999997  C 17.875 4.812499999999998  14.09375 1.0999999999999985  9.487499999999999 1.0999999999999985  C 4.812500000000001 1.0999999999999985  1.100000000000001 4.881249999999998  1.100000000000001 9.487499999999997  C 1.100000000000001 14.162499999999998  4.881250000000001 17.874999999999996  9.487499999999999 17.874999999999996  C 11.618750000000002 17.874999999999996  13.543750000000003 17.118749999999995  14.9875 15.812499999999998  L 19.9375 20.693749999999994  C 20.14375 20.899999999999995  20.556250000000002 20.899999999999995  20.7625 20.693749999999994  Z M 9.556249999999999 16.70625  C 5.5 16.775  2.2 13.475000000000001  2.2 9.487499999999999  C 2.2 5.5  5.4312499999999995 2.2000000000000006  9.487499999999999 2.2000000000000006  C 13.543750000000003 2.2000000000000006  16.775 5.431250000000001  16.775 9.487499999999999  C 16.775 11.412500000000001  16.018749999999997 13.200000000000003  14.78125 14.506250000000001  C 14.712499999999999 14.506250000000001  14.712499999999999 14.575000000000003  14.64375 14.575000000000003  C 14.575 14.643750000000002  14.575 14.643750000000002  14.575 14.712500000000002  C 13.26875 15.950000000000003  11.48125 16.70625  9.556249999999999 16.70625  Z " fill-rule="nonzero" fill="#2c2c2c" stroke="none" transform="matrix(1 0 0 1 186 122 )" />
  </g>
</svg>