<?xml version="1.0" encoding="utf-8"?>
<svg version="1.1" xmlns:xlink="http://www.w3.org/1999/xlink" width="20px" height="22px" xmlns="http://www.w3.org/2000/svg">
  <g transform="matrix(1 0 0 1 -462 -391 )">
    <path d="M 18.875 20.693749999999994  C 19.125 20.41875  19.125 20.075  18.875 19.868750000000002  L 14.375 14.987499999999997  C 15.5625 13.543749999999998  16.25 11.618749999999999  16.25 9.487499999999997  C 16.25 4.812499999999998  12.8125 1.0999999999999985  8.625 1.0999999999999985  C 4.375000000000001 1.0999999999999985  1.0000000000000009 4.881249999999998  1.0000000000000009 9.487499999999997  C 1.0000000000000009 14.162499999999998  4.437500000000001 17.874999999999996  8.625 17.874999999999996  C 10.562500000000002 17.874999999999996  12.312500000000002 17.118749999999995  13.625 15.812499999999998  L 18.125 20.693749999999994  C 18.3125 20.899999999999995  18.6875 20.899999999999995  18.875 20.693749999999994  Z M 8.6875 16.70625  C 5 16.775  2 13.475000000000001  2 9.487499999999999  C 2 5.5  4.9375 2.2000000000000006  8.625 2.2000000000000006  C 12.312500000000002 2.2000000000000006  15.25 5.431250000000001  15.25 9.487499999999999  C 15.25 11.412500000000001  14.562499999999998 13.200000000000003  13.4375 14.506250000000001  C 13.375 14.506250000000001  13.375 14.575000000000003  13.3125 14.575000000000003  C 13.25 14.643750000000002  13.25 14.643750000000002  13.25 14.712500000000002  C 12.0625 15.950000000000003  10.4375 16.70625  8.6875 16.70625  Z " fill-rule="nonzero" fill="#2c2c2c" stroke="none" transform="matrix(1 0 0 1 462 391 )" />
  </g>
</svg>