<?xml version="1.0" encoding="utf-8"?>
<svg version="1.1" xmlns:xlink="http://www.w3.org/1999/xlink" width="13px" height="13px" viewBox="66 519  13 13" xmlns="http://www.w3.org/2000/svg">
  <path d="M 72.5 519  C 76.14 519  79 521.86  79 525.5  C 79 529.14  76.14 532  72.5 532  C 68.86 532  66 529.14  66 525.5  C 66 521.86  68.86 519  72.5 519  Z " fill-rule="nonzero" fill="#f0f0f0" stroke="none" />
  <path d="M 72.5 519.5  C 75.86 519.5  78.5 522.14  78.5 525.5  C 78.5 528.86  75.86 531.5  72.5 531.5  C 69.14 531.5  66.5 528.86  66.5 525.5  C 66.5 522.14  69.14 519.5  72.5 519.5  Z " stroke-width="1" stroke="#797979" fill="none" />
  <path d="M 72.5 528.75  C 70.68 528.75  69.25 527.32  69.25 525.5  C 69.25 523.68  70.68 522.25  72.5 522.25  C 74.32 522.25  75.75 523.68  75.75 525.5  C 75.75 527.32  74.32 528.75  72.5 528.75  " fill-rule="nonzero" fill="#797979" stroke="none" />
</svg>