<?xml version="1.0" encoding="utf-8"?>
<svg version="1.1" xmlns:xlink="http://www.w3.org/1999/xlink" width="17px" height="17px" xmlns="http://www.w3.org/2000/svg">
  <g transform="matrix(1 0 0 1 -195 -79 )">
    <path d="M 16.04375 15.990624999999998  C 16.256249999999998 15.778125  16.256249999999998 15.5125  16.04375 15.353125  L 12.21875 11.581249999999999  C 13.228124999999999 10.465624999999998  13.8125 8.978124999999999  13.8125 7.331249999999999  C 13.8125 3.7187499999999987  10.890625 0.8499999999999989  7.33125 0.8499999999999989  C 3.718750000000001 0.8499999999999989  0.8500000000000008 3.7718749999999983  0.8500000000000008 7.331249999999999  C 0.8500000000000008 10.94375  3.7718750000000005 13.812499999999998  7.33125 13.812499999999998  C 8.978125 13.812499999999998  10.465625000000001 13.228124999999997  11.58125 12.218749999999998  L 15.40625 15.990624999999998  C 15.565625 16.15  15.884375 16.15  16.04375 15.990624999999998  Z M 7.3843749999999995 12.909375  C 4.25 12.962499999999999  1.7000000000000002 10.412500000000001  1.7000000000000002 7.33125  C 1.7000000000000002 4.25  4.1968749999999995 1.7000000000000006  7.33125 1.7000000000000006  C 10.465625000000001 1.7000000000000006  12.962499999999999 4.196875  12.962499999999999 7.33125  C 12.962499999999999 8.818750000000001  12.378124999999999 10.200000000000001  11.421875 11.209375000000001  C 11.368749999999999 11.209375000000001  11.368749999999999 11.262500000000001  11.315625 11.262500000000001  C 11.2625 11.315625000000002  11.2625 11.315625000000002  11.2625 11.36875  C 10.253125 12.325000000000001  8.871875 12.909375  7.3843749999999995 12.909375  Z " fill-rule="nonzero" fill="#2c2c2c" stroke="none" transform="matrix(1 0 0 1 195 79 )" />
  </g>
</svg>