<?xml version="1.0" encoding="utf-8"?>
<svg version="1.1" xmlns:xlink="http://www.w3.org/1999/xlink" width="31px" height="31px" xmlns="http://www.w3.org/2000/svg">
  <g transform="matrix(1 0 0 1 -114 -210 )">
    <path d="M 129.5 210  C 138.18 210  145 216.82  145 225.5  C 145 234.18  138.18 241  129.5 241  C 120.82 241  114 234.18  114 225.5  C 114 216.82  120.82 210  129.5 210  Z " fill-rule="nonzero" fill="#ffffff" stroke="none" />
    <path d="M 129.5 210.5  C 137.9 210.5  144.5 217.1  144.5 225.5  C 144.5 233.9  137.9 240.5  129.5 240.5  C 121.1 240.5  114.5 233.9  114.5 225.5  C 114.5 217.1  121.1 210.5  129.5 210.5  Z " stroke-width="1" stroke="#797979" fill="none" />
  </g>
</svg>