<?xml version="1.0" encoding="utf-8"?>
<svg version="1.1" xmlns:xlink="http://www.w3.org/1999/xlink" width="75px" height="57px" xmlns="http://www.w3.org/2000/svg">
  <g transform="matrix(1 0 0 1 -21 -209 )">
    <path d="M 21 209  L 96 209  L 96 266  L 21 266  L 21 209  " fill-rule="nonzero" fill="#cccccc" stroke="none" />
    <path d="M 25 213  L 92 213  L 92 262  L 25 262  L 25 213  " fill-rule="nonzero" fill="#ffffff" stroke="none" />
    <path d="M 64.275 226.10000000000002  C 61.881 226.10000000000002  60 224.21900000000002  60 221.82500000000002  C 60 219.431  61.881 217.55  64.275 217.55  C 66.669 217.55  68.55 219.431  68.55 221.82500000000002  C 68.55 224.21900000000002  66.669 226.10000000000002  64.275 226.10000000000002  " fill-rule="nonzero" fill="#cccccc" stroke="none" />
    <path d="M 27 261  L 27 235.7  L 43 224.2  L 65.4 240.024  L 78.2 231.1  L 91 240.024  L 91 261  L 27 261  " fill-rule="nonzero" fill="#169bd5" stroke="none" />
  </g>
</svg>