<?xml version="1.0" encoding="utf-8"?>
<svg version="1.1" xmlns:xlink="http://www.w3.org/1999/xlink" width="11px" height="13px" xmlns="http://www.w3.org/2000/svg">
  <g transform="matrix(1 0 0 1 -264 -298 )">
    <path d="M 10.810996563573882 6.200400801603207  C 10.93699885452463 6.287241148964595  11 6.387107548430193  11 6.5  C 11 6.612892451569805  10.93699885452463 6.712758851035403  10.810996563573882 6.799599198396793  L 2.0034364261168385 12.869739478957916  C 1.877434135166094 12.956579826319306  1.7325315005727377 13  1.5687285223367697 13  C 1.404925544100802 13  1.2600229095074458 12.956579826319306  1.134020618556701 12.869739478957916  L 0.18900343642611686 12.218436873747496  C 0.06300114547537232 12.131596526386105  0 12.031730126920507  0 11.918837675350701  C 0 11.805945223780894  0.06300114547537232 11.706078824315298  0.18900343642611686 11.619238476953909  L 7.616838487972508 6.5  L 0.18900343642611686 1.3807615230460921  C 0.06300114547537232 1.293921175684702  0 1.1940547762191045  0 1.081162324649299  C 0 0.9682698730794906  0.06300114547537232 0.8684034736138929  0.18900343642611686 0.7815631262525043  L 1.134020618556701 0.1302605210420843  C 1.2600229095074458 0.043420173680694285  1.404925544100802 0  1.5687285223367697 0  C 1.7325315005727377 0  1.877434135166094 0.043420173680694285  2.0034364261168385 0.1302605210420843  L 10.810996563573882 6.200400801603207  Z " fill-rule="nonzero" fill="#000000" stroke="none" transform="matrix(1 0 0 1 264 298 )" />
  </g>
</svg>