<?xml version="1.0" encoding="utf-8"?>
<svg version="1.1" xmlns:xlink="http://www.w3.org/1999/xlink" width="20px" height="20px" xmlns="http://www.w3.org/2000/svg">
  <g transform="matrix(1 0 0 1 -37 -93 )">
    <path d="M 47 93  C 52.6 93  57 97.4  57 103  C 57 108.6  52.6 113  47 113  C 41.4 113  37 108.6  37 103  C 37 97.4  41.4 93  47 93  Z " fill-rule="nonzero" fill="#ffffff" stroke="none" />
    <path d="M 47 93.5  C 52.32 93.5  56.5 97.68  56.5 103  C 56.5 108.32  52.32 112.5  47 112.5  C 41.68 112.5  37.5 108.32  37.5 103  C 37.5 97.68  41.68 93.5  47 93.5  Z " stroke-width="1" stroke="#797979" fill="none" />
  </g>
</svg>