<?xml version="1.0" encoding="utf-8"?>
<svg version="1.1" xmlns:xlink="http://www.w3.org/1999/xlink" width="13px" height="13px" viewBox="289 163  13 13" xmlns="http://www.w3.org/2000/svg">
  <path d="M 295.5 163  C 299.14 163  302 165.86  302 169.5  C 302 173.14  299.14 176  295.5 176  C 291.86 176  289 173.14  289 169.5  C 289 165.86  291.86 163  295.5 163  Z " fill-rule="nonzero" fill="#ffffff" stroke="none" />
  <path d="M 295.5 163.5  C 298.86 163.5  301.5 166.14  301.5 169.5  C 301.5 172.86  298.86 175.5  295.5 175.5  C 292.14 175.5  289.5 172.86  289.5 169.5  C 289.5 166.14  292.14 163.5  295.5 163.5  Z " stroke-width="1" stroke="#64cce1" fill="none" />
  <path d="M 295.5 172.75  C 293.68 172.75  292.25 171.32  292.25 169.5  C 292.25 167.68  293.68 166.25  295.5 166.25  C 297.32 166.25  298.75 167.68  298.75 169.5  C 298.75 171.32  297.32 172.75  295.5 172.75  " fill-rule="nonzero" fill="#64cce1" stroke="none" />
</svg>