<?xml version="1.0" encoding="utf-8"?>
<svg version="1.1" xmlns:xlink="http://www.w3.org/1999/xlink" width="13px" height="13px" viewBox="446 163  13 13" xmlns="http://www.w3.org/2000/svg">
  <path d="M 452.5 163  C 456.14 163  459 165.86  459 169.5  C 459 173.14  456.14 176  452.5 176  C 448.86 176  446 173.14  446 169.5  C 446 165.86  448.86 163  452.5 163  Z " fill-rule="nonzero" fill="#ffffff" stroke="none" />
  <path d="M 452.5 163.5  C 455.86 163.5  458.5 166.14  458.5 169.5  C 458.5 172.86  455.86 175.5  452.5 175.5  C 449.14 175.5  446.5 172.86  446.5 169.5  C 446.5 166.14  449.14 163.5  452.5 163.5  Z " stroke-width="1" stroke="#64cce1" fill="none" />
  <path d="M 452.5 172.75  C 450.68 172.75  449.25 171.32  449.25 169.5  C 449.25 167.68  450.68 166.25  452.5 166.25  C 454.32 166.25  455.75 167.68  455.75 169.5  C 455.75 171.32  454.32 172.75  452.5 172.75  " fill-rule="nonzero" fill="#64cce1" stroke="none" />
</svg>