<?xml version="1.0" encoding="utf-8"?>
<svg version="1.1" xmlns:xlink="http://www.w3.org/1999/xlink" width="13px" height="13px" xmlns="http://www.w3.org/2000/svg">
  <g transform="matrix(1 0 0 1 -58 -70 )">
    <path d="M 7.97265625 7.97265625  C 8.657552083333334 7.287760416666666  9 6.463541666666666  9 5.500000000000001  C 9 4.536458333333332  8.657552083333334 3.7122395833333326  7.97265625 3.02734375  C 7.287760416666667 2.3424479166666656  6.463541666666667 2  5.5 2  C 4.536458333333334 2  3.712239583333334 2.3424479166666656  3.02734375 3.02734375  C 2.342447916666667 3.7122395833333326  2 4.536458333333332  2 5.500000000000001  C 2 6.463541666666666  2.342447916666667 7.287760416666666  3.02734375 7.97265625  C 3.712239583333334 8.657552083333332  4.536458333333334 9  5.5 9  C 6.463541666666667 9  7.287760416666667 8.657552083333332  7.97265625 7.97265625  Z M 12.7109375 11.296875  C 12.903645833333334 11.489583333333334  13 11.723958333333334  13 12  C 13 12.270833333333334  12.901041666666668 12.505208333333334  12.703125 12.703125  C 12.505208333333334 12.901041666666666  12.270833333333334 13  12 13  C 11.71875 13  11.484375 12.901041666666666  11.296875 12.703125  L 8.6171875 10.03125  C 7.684895833333334 10.677083333333334  6.645833333333334 11  5.5 11  C 4.755208333333334 11  4.04296875 10.85546875  3.36328125 10.56640625  C 2.68359375 10.27734375  2.09765625 9.88671875  1.60546875 9.39453125  C 1.11328125 8.90234375  0.7226562500000001 8.31640625  0.43359375 7.63671875  C 0.14453125 6.95703125  0 6.244791666666665  0 5.500000000000001  C 0 4.755208333333331  0.14453125 4.04296875  0.43359375 3.36328125  C 0.7226562500000001 2.6835937499999996  1.11328125 2.097656250000001  1.60546875 1.60546875  C 2.09765625 1.1132812500000004  2.68359375 0.7226562499999998  3.36328125 0.43359375000000044  C 4.04296875 0.14453124999999967  4.755208333333334 0  5.5 0  C 6.244791666666667 0  6.95703125 0.14453124999999967  7.63671875 0.43359375000000044  C 8.31640625 0.7226562499999998  8.90234375 1.1132812500000004  9.39453125 1.60546875  C 9.88671875 2.097656250000001  10.27734375 2.6835937499999996  10.56640625 3.36328125  C 10.85546875 4.04296875  11 4.755208333333331  11 5.500000000000001  C 11 6.645833333333333  10.677083333333334 7.684895833333332  10.03125 8.6171875  L 12.7109375 11.296875  Z " fill-rule="nonzero" fill="#1e98d7" stroke="none" transform="matrix(1 0 0 1 58 70 )" />
  </g>
</svg>