<?xml version="1.0" encoding="utf-8"?>
<svg version="1.1" xmlns:xlink="http://www.w3.org/1999/xlink" width="8px" height="6px" xmlns="http://www.w3.org/2000/svg">
  <g transform="matrix(1 0 0 1 -174 -225 )">
    <path d="M 7.919839679358717 0.6185567010309276  C 7.973279893119573 0.6872852233676958  8 0.7663230240549821  8 0.8556701030927838  C 8 0.9450171821305835  7.973279893119573 1.0240549828178684  7.919839679358717 1.0927835051546393  L 4.18436873747495 5.896907216494845  C 4.130928523714095 5.9656357388316135  4.069472277889112 6  4 6  C 3.930527722110889 6  3.8690714762859058 5.9656357388316135  3.81563126252505 5.896907216494845  L 0.08016032064128256 1.0927835051546393  C 0.0267201068804276 1.0240549828178684  0 0.9450171821305835  0 0.8556701030927838  C 0 0.7663230240549821  0.0267201068804276 0.6872852233676958  0.08016032064128256 0.6185567010309276  L 0.48096192384769537 0.10309278350515494  C 0.5344021376085506 0.03436426116838409  0.5958583834335338 0  0.6653306613226453 0  C 0.734802939211757 0  0.7962591850367402 0.03436426116838409  0.8496993987975952 0.10309278350515494  L 4 4.154639175257731  L 7.150300601202405 0.10309278350515494  C 7.20374081496326 0.03436426116838409  7.2651970607882435 0  7.3346693386773545 0  C 7.404141616566467 0  7.4655978623914505 0.03436426116838409  7.519038076152305 0.10309278350515494  L 7.919839679358717 0.6185567010309276  Z " fill-rule="nonzero" fill="#000000" stroke="none" transform="matrix(1 0 0 1 174 225 )" />
  </g>
</svg>