<?xml version="1.0" encoding="utf-8"?>
<svg version="1.1" xmlns:xlink="http://www.w3.org/1999/xlink" width="7px" height="11px" xmlns="http://www.w3.org/2000/svg">
  <g transform="matrix(1 0 0 1 -313 -101 )">
    <path d="M 6.5701754385964914 0.05072408536585375  L 3.1162280701754383 0.05072408536585375  C 2.9042766859201996 0.05072408536585375  2.732456140350877 0.2384095942020302  2.732456140350877 0.4699314024390245  C 2.732456140350877 0.7014532106760185  2.9042766859201996 0.8891387195121953  3.1162280701754383 0.8891387195121953  L 4.271381578947368 0.8891387195121953  L 1.5089912280701747 10.11169969512195  L 0.4298245614035088 10.11169969512195  C 0.2178731771482702 10.11169969512195  0.046052631578947366 10.299385203958128  0.046052631578947366 10.53090701219512  C 0.046052631578947366 10.762428820432117  0.2178731771482702 10.950114329268294  0.4298245614035088 10.950114329268294  L 3.8837719298245617 10.950114329268294  C 4.0957233140798 10.950114329268294  4.267543859649123 10.762428820432117  4.267543859649123 10.53090701219512  C 4.267543859649123 10.299385203958128  4.0957233140798 10.11169969512195  3.8837719298245617 10.11169969512195  L 2.759703947368421 10.11169969512195  L 5.524396929824562 0.8891387195121956  L 6.5701754385964914 0.8891387195121956  C 6.78212682285173 0.8891387195121956  6.953947368421053 0.701453210676019  6.953947368421053 0.46993140243902476  C 6.953947368421053 0.23840959420203067  6.78212682285173 0.05072408536585399  6.5701754385964914 0.05072408536585399  Z " fill-rule="nonzero" fill="#000000" stroke="none" transform="matrix(1 0 0 1 313 101 )" />
  </g>
</svg>