<?xml version="1.0" encoding="utf-8"?>
<svg version="1.1" xmlns:xlink="http://www.w3.org/1999/xlink" width="22px" height="21px" xmlns="http://www.w3.org/2000/svg">
  <g transform="matrix(1 0 0 1 -289 -129 )">
    <path d="M 289 129  L 311 129  L 311 150  L 289 150  L 289 129  " fill-rule="nonzero" fill="#cccccc" stroke="none" />
    <path d="M 290 130  L 310 130  L 310 149  L 290 149  L 290 130  " fill-rule="nonzero" fill="#ffffff" stroke="none" />
    <path d="M 302.015 135.3  C 301.133 135.3  300.44 134.60700000000003  300.44 133.72500000000002  C 300.44 132.84300000000002  301.133 132.15  302.015 132.15  C 302.897 132.15  303.59 132.84300000000002  303.59 133.72500000000002  C 303.59 134.60700000000003  302.897 135.3  302.015 135.3  " fill-rule="nonzero" fill="#cccccc" stroke="none" />
    <path d="M 291 149  L 291 139.1  L 295.75 134.6  L 302.4 138.6909090909091  L 306.2 137.3  L 310 138.6909090909091  L 310 149  L 291 149  " fill-rule="nonzero" fill="#169bd5" stroke="none" />
  </g>
</svg>