<?xml version="1.0" encoding="utf-8"?>
<svg version="1.1" xmlns:xlink="http://www.w3.org/1999/xlink" width="19px" height="29px" xmlns="http://www.w3.org/2000/svg">
  <g transform="matrix(1 0 0 1 -12 -52 )">
    <path d="M 18.863994278941764 3.767716507457387  L 18.86399427894176 24.63027915553977  C 18.86399427894176 25.149248367187504  18.7619899856179 25.631889744318187  18.55798139897017 26.078203286931817  C 18.353972812322443 26.52451682954545  18.073461005681814 26.918933440696023  17.716445979048295 27.26145312038352  C 17.359430952414773 27.603972800071023  16.941213339666195 27.873836790127843  16.461793140802552 28.071045090553973  C 15.982372941938914 28.268253390980107  15.467251250532668 28.366857541193177  14.916428066583801 28  L 4.052970645419029 28  C 3.502147461470167 28.366857541193184  2.9870257700639162 28.268253390980114  2.5076055712002803 28.071045090553973  C 2.028185372336645 27.873836790127843  1.6099677595880661 27.603972800071023  1.2529527329545416 27.26145312038352  C 0.8959377063210185 26.918933440696026  0.6154258996803941 26.524516829545455  0.4114173130326667 26.078203286931817  C 0.20740872638494096 25.631889744318183  0.10540443306107732 25.149248367187493  0.10540443306107579 24.63027915553977  L 0.10540443306107579 3.767716507457387  C 0.10540443306107579 3.2487472958096597  0.20740872638494018 2.760916226562501  0.4114173130326667 2.30422329971591  C 0.6154258996803949 1.8475303728693189  0.89593770632102 1.4479240696022733  1.2529527329545416 1.1054043899147732  C 1.6099677595880646 0.7628847102272734  2.028185372336644 0.4930207201704553  2.5076055712002803 0.29581241974431877  C 2.9870257700639162 0.09860413991477292  3.502147461470168 0  4.052970645419032 0  L 14.916428066583807 0  C 15.467251250532671 0  15.982372941938921 0.09860413991477292  16.46179314080256 0.29581241974431877  C 16.941213339666195 0.49302069957386463  17.359430952414776 0.7628846896306829  17.7164459790483 1.1054043899147732  C 18.07346100568182 1.447924090198864  18.353972812322446 1.8475303934659093  18.55798139897017 2.30422329971591  C 18.7619899856179 2.76091620596591  18.86399427894177 3.2487472752130695  18.863994278941764 3.767716507457387  Z M 16.38528992080966 23  L 16.38528992080966 5.262347898792615  L 2.553507533558239 5.262347898792615  L 2.553507533558239 23  L 16.38528992080966 23  Z M 10.601646398259943 24.443450239346593  C 10.295633518288351 24.132068691761365  9.918217622869319 23.97637792826705  9.46939871200284 23.97637794886364  C 9.040980680042612 23.976377948863643  8.668664999289776 24.132068712357956  8.352451669744317 24.443450239346593  C 8.036238340198866 24.754831766335233  7.878131685546875 25.13886899325284  7.878131705788354 25.595561920099435  C 7.878131705788354 26.031496057883523  8.03623836044034 26.410343592684658  8.352451669744317 26.73210452450284  C 8.668664979048296 27.053865456321027  9.040980659801138 27.21474591193182  9.46939871200284 27.214745891335223  C 9.918217602627841 27.21474589133523  10.295633498046877 27.053865435724436  10.601646398259943 26.73210452450284  C 10.90765929847301 26.410343613281256  11.06066573845881 26.03149607848012  11.060665718217328 25.595561920099435  C 11.060665718217333 25.138869013849433  10.907659278231534 24.754831786931817  10.601646398259943 24.443450239346593  Z M 11.76449534215199 3.004831766335228  C 11.86649963547586 2.911417308238636  11.917501782137785 2.7816750053267048  11.917501782137784 2.615604857599432  C 11.917501782137784 2.4495347098721587  11.866499635475849 2.319792406960228  11.76449534215199 2.2263779488636364  C 11.662491048828127 2.1329634907670454  11.550286326171875 2.08625626171875  11.427881174183234 2.08625626171875  L 7.5415175378196 2.08625626171875  C 7.439513244495736 2.08625626171875  7.332408736505681 2.132963490767046  7.220204013849431 2.2263779488636364  C 7.107999291193183 2.3197924069602274  7.051896929865055 2.4495347098721587  7.0518969298650545 2.615604857599432  C 7.0518969298650545 2.7816750053267048  7.102899076526986 2.911417308238636  7.204903369850849 3.004831766335228  C 7.306907663174717 3.0982462244318185  7.419112385830966 3.1449534534801145  7.5415175378196 3.1449534534801136  L 11.427881174183234 3.1449534534801136  C 11.550286326171875 3.1449534534801145  11.662491048828127 3.0982462244318185  11.76449534215199 3.004831766335228  Z " fill-rule="nonzero" fill="#2c2c2c" stroke="none" fill-opacity="0.6823529411764706" transform="matrix(1 0 0 1 12 52 )" />
  </g>
</svg>