<?xml version="1.0" encoding="utf-8"?>
<svg version="1.1" xmlns:xlink="http://www.w3.org/1999/xlink" width="13px" height="13px" viewBox="15 26  13 13" xmlns="http://www.w3.org/2000/svg">
  <path d="M 21.5 26  C 25.14 26  28 28.86  28 32.5  C 28 36.14  25.14 39  21.5 39  C 17.86 39  15 36.14  15 32.5  C 15 28.86  17.86 26  21.5 26  Z " fill-rule="nonzero" fill="#f0f0f0" stroke="none" />
  <path d="M 21.5 26.5  C 24.86 26.5  27.5 29.14  27.5 32.5  C 27.5 35.86  24.86 38.5  21.5 38.5  C 18.14 38.5  15.5 35.86  15.5 32.5  C 15.5 29.14  18.14 26.5  21.5 26.5  Z " stroke-width="1" stroke="#797979" fill="none" />
  <path d="M 21.5 35.75  C 19.68 35.75  18.25 34.32  18.25 32.5  C 18.25 30.68  19.68 29.25  21.5 29.25  C 23.32 29.25  24.75 30.68  24.75 32.5  C 24.75 34.32  23.32 35.75  21.5 35.75  " fill-rule="nonzero" fill="#797979" stroke="none" />
</svg>