<?xml version="1.0" encoding="utf-8"?>
<svg version="1.1" xmlns:xlink="http://www.w3.org/1999/xlink" width="12px" height="14px" xmlns="http://www.w3.org/2000/svg">
  <g transform="matrix(1 0 0 1 -279 -55 )">
    <path d="M 7.636303636363635 7.5833333378906245  L 3.272667276988636 7.5833333378906245  L 3.272667276988636 5.833333337890625  L 7.636303636363635 5.833333337890625  L 7.636303636363635 5.812333337890626  C 8.57540505152392 5.667164499837196  9.272283582950203 4.806420929175011  9.272283582950203 3.791666668945313  C 9.272283582950203 2.776912408715613  8.57540505152392 1.91616883805343  7.636303636363635 1.771  L 7.636303636363635 1.75  L 3.272667276988636 1.75  L 3.272667276988636 12.25  L 7.6363036363636345 12.249999999999995  C 8.841455558100082 12.250000006835934  9.818288833104411 11.205331087734086  9.818288833104411 9.916666668945311  C 9.818288833104411 8.628002250156538  8.841455558100082 7.583333331054686  7.636470647024867 7.583333331054686  Z M 11.999773621498171 9.916666665986503  C 11.999773621498171 12.171759906744542  10.29041679881216 13.999901728552521  8.181758186079545 14  L 1 14  L 1 0  L 7.636303636363635 0  L 7.636303636363637 0.011666662109375  C 7.726792194687402 0.004221438482185388  7.817514697913768 0.0004947089358076233  7.90827066408073 0.0004947089358076233  C 9.866371138400057 0.0004947089358076233  11.453725205273912 1.698081697120347  11.453725205273912 3.7921613710451827  C 11.453725205273912 4.8358201770420335  11.051477325843997 5.8333323664332015  10.341758186079543 6.549666662109374  C 11.379545381929567 7.311164812309726  11.999773621498171 8.570687757887685  11.999773621498171 9.916666665986503  Z " fill-rule="nonzero" fill="#2c2c2c" stroke="none" transform="matrix(1 0 0 1 279 55 )" />
  </g>
</svg>