<?xml version="1.0" encoding="utf-8"?>
<svg version="1.1" xmlns:xlink="http://www.w3.org/1999/xlink" width="25px" height="19px" xmlns="http://www.w3.org/2000/svg">
  <g transform="matrix(1 0 0 1 -319 -86 )">
    <path d="M 16.54296875 10.23544034090909  C 16.62543402777778 10.149976325757574  16.666666666666664 10.048768939393938  16.666666666666664 9.931818181818182  C 16.666666666666664 9.805871212121213  16.627604166666668 9.702414772727273  16.549479166666668 9.621448863636363  L 11.966145833333334 4.871448863636363  C 11.888020833333334 4.790482954545453  11.788194444444446 4.75  11.666666666666666 4.75  C 11.54513888888889 4.75  11.445312500000002 4.790482954545453  11.3671875 4.871448863636363  L 6.796874999999999 9.607954545454545  C 6.7100694444444455 9.71590909090909  6.666666666666667 9.823863636363637  6.666666666666667 9.931818181818182  C 6.666666666666667 10.05776515151515  6.705729166666667 10.16122159090909  6.783854166666667 10.2421875  C 6.861979166666667 10.32315340909091  6.961805555555557 10.363636363636363  7.083333333333333 10.363636363636363  L 10 10.363636363636363  L 10 15.113636363636363  C 10 15.23058712121212  10.04123263888889 15.331794507575756  10.123697916666668 15.417258522727272  C 10.206163194444445 15.502722537878787  10.303819444444445 15.545454545454545  10.416666666666668 15.545454545454545  L 12.916666666666668 15.545454545454545  C 13.029513888888891 15.545454545454545  13.127170138888891 15.502722537878787  13.209635416666668 15.417258522727272  C 13.292100694444445 15.331794507575756  13.333333333333334 15.23058712121212  13.333333333333334 15.113636363636363  L 13.333333333333334 10.363636363636363  L 16.25 10.363636363636363  C 16.362847222222225 10.363636363636363  16.460503472222225 10.320904356060606  16.54296875 10.23544034090909  Z M 23.912760416666668 10.599786931818182  C 24.637586805555557 11.53989109848485  25.000000000000007 12.612689393939391  25 13.818181818181818  C 25.000000000000007 15.248579545454545  24.511718750000004 16.46981534090909  23.53515625 17.481889204545457  C 22.558593750000004 18.49396306818182  21.380208333333336 19  20 19  L 5.833333333333333 19  C 4.227430555555555 19  2.8537326388888893 18.408499053030305  1.7122395833333335 17.22549715909091  C 0.5707465277777778 16.042495265151512  0 14.618844696969699  0 12.954545454545455  C 0 11.785037878787875  0.3038194444444445 10.705492424242426  0.9114583333333334 9.71590909090909  C 1.519097222222222 8.726325757575754  2.3350694444444446 7.984138257575754  3.359375 7.489346590909091  C 3.342013888888889 7.2194602272727275  3.3333333333333335 7.026041666666666  3.3333333333333335 6.909090909090909  C 3.3333333333333335 5.001893939393938  3.9843749999999996 3.3735795454545463  5.286458333333333 2.024147727272728  C 6.588541666666667 0.6747159090909093  8.159722222222223 0  10 0  C 11.354166666666668 0  12.593315972222225 0.39133522727272785  13.717447916666666 1.1740056818181814  C 14.841579861111112 1.9566761363636371  15.659722222222221 2.995738636363637  16.171875 4.291193181818182  C 16.788194444444446 3.733428030303029  17.508680555555557 3.4545454545454537  18.333333333333332 3.4545454545454537  C 19.25347222222222 3.4545454545454537  20.0390625 3.791903409090909  20.690104166666668 4.466619318181818  C 21.341145833333332 5.1413352272727275  21.666666666666668 5.955492424242423  21.666666666666668 6.909090909090909  C 21.666666666666668 7.5928030303030285  21.48871527777778 8.213541666666666  21.1328125 8.771306818181818  C 22.261284722222225 9.050189393939394  23.18793402777778 9.659682765151514  23.912760416666668 10.599786931818182  Z " fill-rule="nonzero" fill="#000000" stroke="none" transform="matrix(1 0 0 1 319 86 )" />
  </g>
</svg>