<?xml version="1.0" encoding="utf-8"?>
<svg version="1.1" xmlns:xlink="http://www.w3.org/1999/xlink" width="3px" height="3px" xmlns="http://www.w3.org/2000/svg">
  <g transform="matrix(1 0 0 1 -528 -133 )">
    <path d="M 1.1939453125000004 0.7508789062500001  L 1.4811523437500007 0.6529296875000004  L 1.3832031250000014 0.9401367187500003  L 1.5641601562500007 1.18251953125  L 1.2620117187499993 1.1791992187500004  L 1.0860351562499986 1.4265625000000006  L 0.9963867187499993 1.1376953125000004  L 0.7058593749999993 1.0480468750000003  L 0.9548828124999993 0.8720703125000004  L 0.9499023437500007 0.5682617187500001  L 1.1939453125000004 0.7508789062500001  Z M 2.1286132812500007 0.7907226562499998  L 2.2913085937499993 0.7342773437499996  L 2.2365234375000007 0.89697265625  L 2.3377929687500014 1.0347656250000004  L 2.166796875000001 1.03310546875  L 2.067187500000001 1.1725585937500003  L 2.017382812500001 1.008203125  L 1.8530273437500018 0.9583984375000001  L 1.992480468750001 0.8587890625000001  L 1.9908203125000004 0.6877929687500002  L 2.1286132812500007 0.7907226562499998  Z M 1.23046875 1.8698242187500003  L 1.3931640624999986 1.8150390625000004  L 1.33837890625 1.9777343750000003  L 1.4413085937500014 2.11552734375  L 1.2686523437500004 2.1138671875000004  L 1.170703125000001 2.2533203125000005  L 1.1192382812500004 2.0889648437500004  L 0.9548828125000011 2.0391601562500004  L 1.095996093750001 1.9395507812500008  L 1.0926757812500014 1.7685546875000004  L 1.23046875 1.8698242187500003  Z " fill-rule="nonzero" fill="#2c2c2c" stroke="none" transform="matrix(1 0 0 1 528 133 )" />
  </g>
</svg>