<?xml version="1.0" encoding="utf-8"?>
<svg version="1.1" xmlns:xlink="http://www.w3.org/1999/xlink" width="14px" height="14px" xmlns="http://www.w3.org/2000/svg">
  <g transform="matrix(1 0 0 1 -681 -133 )">
    <path d="M 0.9286666621093753 8.215666662109374  C 0.8416333242187506 4.952733324218749  3.5877333242187497 2.2322999999999995  7.062533337890626 2.1391999999999998  C 7.120633337890624 2.137566662109375  7.17756667578125 2.1408333378906246  7.235433337890624 2.141066662109375  L 7.235433337890624 0.7746666621093748  C 7.235433337890624 0.400166662109375  7.6545000000000005 0.178266662109375  7.9643666621093745 0.3885  L 12.868566662109375 3.7191  C 12.996468280128306 3.8059654877553064  13.073044134845302 3.9505394025144853  13.073044134845302 4.105149999999999  C 13.073044134845302 4.259760597485514  12.996468280128306 4.404334512244693  12.868566662109375 4.491199999999999  L 7.963900000000001 7.821566662109374  C 7.654033337890624 8.03203332421875  7.234966662109374 7.810133324218749  7.234966662109374 7.4354000000000005  L 7.234966662109374 6.053600000000001  C 4.872000000000002 6.024900000000001  2.9068666621093753 7.6743333378906256  2.8118999999999996 9.807233337890626  C 2.7390999999999996 11.443366675781252  3.7883999999999993 12.89376667578125  5.3440333378906235 13.563666662109375  C 5.372266675781249 13.575800000000001  5.401899999999999 13.5996  5.399333337890624 13.648133337890627  C 5.397233337890624 13.6878  5.356866675781249 13.69946667578125  5.320933337890623 13.688733337890625  C 2.8310333378906254 12.956533337890624  0.9979666621093755 10.804966662109376  0.9286666621093753 8.215666662109374  Z " fill-rule="nonzero" fill="#040000" stroke="none" fill-opacity="0.6627450980392157" transform="matrix(1 0 0 1 681 133 )" />
  </g>
</svg>