<?xml version="1.0" encoding="utf-8"?>
<svg version="1.1" xmlns:xlink="http://www.w3.org/1999/xlink" width="16px" height="11px" xmlns="http://www.w3.org/2000/svg">
  <g transform="matrix(1 0 0 1 -159 -88 )">
    <path d="M 15 1.16875  C 15 0.9040625  14.775 0.6875  14.5 0.6875  L 1.5 0.6875  C 1.225 0.6875  1 0.9040625  1 1.16875  L 1 9.83125  C 1 10.0959375  1.225 10.3125  1.5 10.3125  L 14.5 10.3125  C 14.775 10.3125  15 10.0959375  15 9.83125  L 15 1.16875  Z M 4.5 5.5  C 3.675 5.5  3 4.850312499999999  3 4.05625  C 3 3.2621875  3.675 2.6125  4.5 2.6125  C 5.325 2.6125  6 3.2621875  6 4.05625  C 6 4.850312499999999  5.325 5.5  4.5 5.5  Z M 13 8.3875  L 9 8.3875  L 4.9625 8.3875  L 6.9750000000000005 5.01875  L 8.125 6.931718750000001  L 10.125 3.599062500000001  L 13 8.3875  Z " fill-rule="nonzero" fill="#81d3f8" stroke="none" fill-opacity="0.49019607843137253" transform="matrix(1 0 0 1 159 88 )" />
  </g>
</svg>