<?xml version="1.0" encoding="utf-8"?>
<svg version="1.1" xmlns:xlink="http://www.w3.org/1999/xlink" width="14px" height="14px" xmlns="http://www.w3.org/2000/svg">
  <g transform="matrix(1 0 0 1 -649 -88 )">
    <path d="M 13.071333337890625 8.215666662109374  C 13.158366675781249 4.952733324218749  10.41226667578125 2.2322999999999995  6.937466662109375 2.1391999999999998  C 6.879366662109375 2.137566662109375  6.82243332421875 2.1408333378906246  6.764566662109376 2.141066662109375  L 6.764566662109376 0.7746666621093748  C 6.764566662109376 0.400166662109375  6.3454999999999995 0.178266662109375  6.035633337890625 0.3885  L 1.1314333378906252 3.7191  C 1.003531719871694 3.8059654877553064  0.9269558651546981 3.9505394025144853  0.9269558651546981 4.105149999999999  C 0.9269558651546981 4.259760597485514  1.003531719871694 4.404334512244693  1.131433337890625 4.491199999999999  L 6.036099999999999 7.821566662109374  C 6.345966662109375 8.03203332421875  6.7650333378906256 7.810133324218749  6.7650333378906256 7.4354000000000005  L 6.7650333378906256 6.053600000000001  C 9.127999999999998 6.024900000000001  11.093133337890626 7.6743333378906256  11.1881 9.807233337890626  C 11.2609 11.443366675781252  10.2116 12.89376667578125  8.655966662109376 13.563666662109375  C 8.62773332421875 13.575800000000001  8.5981 13.5996  8.600666662109376 13.648133337890627  C 8.602766662109376 13.6878  8.64313332421875 13.69946667578125  8.679066662109376 13.688733337890625  C 11.168966662109375 12.956533337890624  13.002033337890625 10.804966662109376  13.071333337890625 8.215666662109374  Z " fill-rule="nonzero" fill="#040000" stroke="none" transform="matrix(1 0 0 1 649 88 )" />
  </g>
</svg>