<?xml version="1.0" encoding="utf-8"?>
<svg version="1.1" xmlns:xlink="http://www.w3.org/1999/xlink" width="11px" height="11px" xmlns="http://www.w3.org/2000/svg">
  <g transform="matrix(1 0 0 1 -528 -89 )">
    <path d="M 8.470019531249996 0.38173828124999654  C 8.270800781249996 0.20078124999999633  7.962011718749994 0.1874999999999969  7.76611328125 0.38339843750000036  C 7.520410156250001 0.6291015625000003  7.273046874999999 0.8748046875000002  7.027343749999999 1.1188476562500007  C 6.436328124999999 1.7082031250000007  5.845312499999999 2.2975585937500007  5.252636718750001 2.8869140625000007  C 4.537109375 3.59912109375  3.82158203125 4.31298828125  3.1060546875000004 5.025195312500001  C 2.48681640625 5.64111328125  1.8692382812500001 6.258691406250001  1.25 6.874609375  C 0.9495117187500002 7.175097656250001  0.6423828125000002 7.470605468750001  0.3468749999999998 7.774414062500002  L 0.3335937499999999 7.7876953125  C 0.14433593749999973 7.976953125000001  0.1426757812499999 8.30234375  0.3335937499999999 8.491601562500001  C 0.8083984374999998 8.96142578125  1.283203125 9.432910156250001  1.7580078124999998 9.902734375000001  C 1.8260742187499999 9.97080078125  1.8941406249999995 10.03720703125  1.9622070312499993 10.105273437500001  C 2.1531249999999993 10.29453125  2.4751953124999995 10.296191406250001  2.6661132812499995 10.105273437500001  C 2.9134765624999983 9.859570312500002  3.16083984375 9.612207031250001  3.408203124999999 9.366503906250001  C 4.0025390624999995 8.77548828125  4.596874999999999 8.182812500000002  5.192871093749998 7.591796875000002  L 7.351074218750001 5.4435546875000025  C 7.9736328125 4.824316406250002  8.59619140625 4.205078125000002  9.21708984375 3.5858398437500023  C 9.51923828125 3.285351562500002  9.8263671875 2.9881835937500028  10.1251953125 2.682714843750003  L 10.1384765625 2.6694335937500027  C 10.32607421875 2.483496093750003  10.334375 2.1498046875000023  10.1384765625 1.9655273437500034  C 9.65205078125 1.504003906250003  9.165624999999999 1.0441406250000034  8.67919921875 0.582617187500003  C 8.609472656249999 0.516210937500003  8.53974609375 0.45146484375000284  8.47001953125 0.3850585937500028  C 8.28076171875 0.20410156250000266  7.950390625 0.18085937500000293  7.76611328125 0.383398437500003  C 7.588476562499999 0.5776367187500027  7.563574218749999 0.8963867187500031  7.76611328125 1.0873046875000032  C 8.252539062499999 1.5488281250000029  8.73896484375 2.0086914062500023  9.225390625 2.4702148437500027  C 9.2951171875 2.5366210937500027  9.364843749999999 2.601367187500003  9.4345703125 2.667773437500003  L 9.4345703125 1.9638671875  C 9.18720703125 2.2095703125000004  8.939843750000001 2.4569335937499996  8.692480468749999 2.70263671875  C 8.09814453125 3.2936523437500007  7.50380859375 3.8863281250000004  6.907812499999999 4.477343749999999  L 4.7496093749999995 6.625585937499999  C 4.1270507812499995 7.24482421875  3.5044921874999995 7.864062499999999  2.8835937499999993 8.48330078125  C 2.5814453124999996 8.783789062499999  2.27099609375 9.079296874999999  1.9754882812499996 9.386425781249999  L 1.9622070312499993 9.399707031249998  L 2.6661132812499995 9.399707031249998  C 2.1913085937499988 8.929882812499999  1.7165039062499998 8.458398437499998  1.2416992187499991 7.9885742187499975  C 1.1736328124999993 7.920507812499997  1.1055664062499995 7.854101562499998  1.0374999999999988 7.786035156249998  L 1.0374999999999988 8.489941406249997  C 1.2832031249999991 8.244238281249997  1.5305664062499984 7.9985351562499964  1.7762695312499988 7.754492187499997  C 2.3672851562499995 7.165136718749996  2.9583007812499984 6.575781249999998  3.550976562499999 5.986425781249997  C 4.266503906249999 5.2742187499999975  4.982031249999999 4.5603515624999975  5.6975585937499975 3.8481445312499973  C 6.316796874999999 3.2322265624999966  6.9343749999999975 2.614648437499997  7.553613281249998 1.9987304687499963  C 7.854101562499998 1.6982421874999964  8.161230468749997 1.402734374999997  8.456738281249997 1.0989257812499966  L 8.470019531249996 1.0856445312499963  C 8.654296874999996 0.9013671874999969  8.667578124999995 0.5626953124999967  8.470019531249996 0.38173828124999654  Z " fill-rule="nonzero" fill="#2c2c2c" stroke="none" transform="matrix(1 0 0 1 528 89 )" />
  </g>
</svg>