<?xml version="1.0" encoding="utf-8"?>
<svg version="1.1" xmlns:xlink="http://www.w3.org/1999/xlink" width="13px" height="13px" viewBox="137 257  13 13" xmlns="http://www.w3.org/2000/svg">
  <path d="M 143.5 257  C 147.14 257  150 259.86  150 263.5  C 150 267.14  147.14 270  143.5 270  C 139.86 270  137 267.14  137 263.5  C 137 259.86  139.86 257  143.5 257  Z " fill-rule="nonzero" fill="#f0f0f0" stroke="none" />
  <path d="M 143.5 257.5  C 146.86 257.5  149.5 260.14  149.5 263.5  C 149.5 266.86  146.86 269.5  143.5 269.5  C 140.14 269.5  137.5 266.86  137.5 263.5  C 137.5 260.14  140.14 257.5  143.5 257.5  Z " stroke-width="1" stroke="#797979" fill="none" />
  <path d="M 143.5 266.75  C 141.68 266.75  140.25 265.32  140.25 263.5  C 140.25 261.68  141.68 260.25  143.5 260.25  C 145.32 260.25  146.75 261.68  146.75 263.5  C 146.75 265.32  145.32 266.75  143.5 266.75  " fill-rule="nonzero" fill="#797979" stroke="none" />
</svg>