<?xml version="1.0" encoding="utf-8"?>
<svg version="1.1" xmlns:xlink="http://www.w3.org/1999/xlink" width="23px" height="18px" xmlns="http://www.w3.org/2000/svg">
  <g transform="matrix(1 0 0 1 -97 -94 )">
    <path d="M 4.3125 9  L 7.1875 9  L 7.1875 15  L 4.3125 15  L 4.3125 9  Z M 9 2.999999999999999  L 11.5 2.999999999999999  L 11.5 15  L 9 15  L 9 2.999999999999999  Z M 1.4375 16.5  L 23 16.5  L 23 18  L 0 18  L 0 0  L 1.4375 0  L 1.4375 16.5  Z M 12.9375 6.000000000000001  L 15.8125 6.000000000000001  L 15.8125 15  L 12.9375 15  L 12.9375 6.000000000000001  Z M 17 1.5000000000000007  L 20 1.5000000000000007  L 20 15  L 17 15  L 17 1.5000000000000007  Z " fill-rule="nonzero" fill="#706d6d" stroke="none" transform="matrix(1 0 0 1 97 94 )" />
  </g>
</svg>