<?xml version="1.0" encoding="utf-8"?>
<svg version="1.1" xmlns:xlink="http://www.w3.org/1999/xlink" width="13px" height="13px" viewBox="153 151  13 13" xmlns="http://www.w3.org/2000/svg">
  <path d="M 159.5 151  C 163.14 151  166 153.86  166 157.5  C 166 161.14  163.14 164  159.5 164  C 155.86 164  153 161.14  153 157.5  C 153 153.86  155.86 151  159.5 151  Z " fill-rule="nonzero" fill="#ffffff" stroke="none" />
  <path d="M 159.5 151.5  C 162.86 151.5  165.5 154.14  165.5 157.5  C 165.5 160.86  162.86 163.5  159.5 163.5  C 156.14 163.5  153.5 160.86  153.5 157.5  C 153.5 154.14  156.14 151.5  159.5 151.5  Z " stroke-width="1" stroke="#64cce1" fill="none" />
  <path d="M 159.5 160.75  C 157.68 160.75  156.25 159.32  156.25 157.5  C 156.25 155.68  157.68 154.25  159.5 154.25  C 161.32 154.25  162.75 155.68  162.75 157.5  C 162.75 159.32  161.32 160.75  159.5 160.75  " fill-rule="nonzero" fill="#64cce1" stroke="none" />
</svg>