<?xml version="1.0" encoding="utf-8"?>
<svg version="1.1" xmlns:xlink="http://www.w3.org/1999/xlink" width="13px" height="13px" viewBox="228 368  13 13" xmlns="http://www.w3.org/2000/svg">
  <path d="M 234.5 368  C 238.14 368  241 370.86  241 374.5  C 241 378.14  238.14 381  234.5 381  C 230.86 381  228 378.14  228 374.5  C 228 370.86  230.86 368  234.5 368  Z " fill-rule="nonzero" fill="#f0f0f0" stroke="none" />
  <path d="M 234.5 368.5  C 237.86 368.5  240.5 371.14  240.5 374.5  C 240.5 377.86  237.86 380.5  234.5 380.5  C 231.14 380.5  228.5 377.86  228.5 374.5  C 228.5 371.14  231.14 368.5  234.5 368.5  Z " stroke-width="1" stroke="#797979" fill="none" />
  <path d="M 234.5 377.75  C 232.68 377.75  231.25 376.32  231.25 374.5  C 231.25 372.68  232.68 371.25  234.5 371.25  C 236.32 371.25  237.75 372.68  237.75 374.5  C 237.75 376.32  236.32 377.75  234.5 377.75  " fill-rule="nonzero" fill="#797979" stroke="none" />
</svg>