<?xml version="1.0" encoding="utf-8"?>
<svg version="1.1" xmlns:xlink="http://www.w3.org/1999/xlink" width="52px" height="52px" xmlns="http://www.w3.org/2000/svg">
  <g transform="matrix(1 0 0 1 -675 -403 )">
    <path d="M 701 403  C 715.56 403  727 414.44  727 429  C 727 443.56  715.56 455  701 455  C 686.44 455  675 443.56  675 429  C 675 414.44  686.44 403  701 403  Z " fill-rule="nonzero" fill="#ecc180" stroke="none" />
    <path d="M 701 403.5  C 715.28 403.5  726.5 414.72  726.5 429  C 726.5 443.28  715.28 454.5  701 454.5  C 686.72 454.5  675.5 443.28  675.5 429  C 675.5 414.72  686.72 403.5  701 403.5  Z " stroke-width="1" stroke="#797979" fill="none" />
  </g>
</svg>