<?xml version="1.0" encoding="utf-8"?>
<svg version="1.1" xmlns:xlink="http://www.w3.org/1999/xlink" width="16px" height="16px" xmlns="http://www.w3.org/2000/svg">
  <g transform="matrix(1 0 0 1 -18 -24 )">
    <path d="M 26 24  C 30.48 24  34 27.52  34 32  C 34 36.480000000000004  30.48 40  26 40  C 21.52 40  18 36.480000000000004  18 32  C 18 27.52  21.52 24  26 24  Z " fill-rule="nonzero" fill="#ffffff" stroke="none" />
    <path d="M 26 24.5  C 30.200000000000003 24.5  33.5 27.8  33.5 32  C 33.5 36.2  30.200000000000003 39.5  26 39.5  C 21.8 39.5  18.5 36.2  18.5 32  C 18.5 27.8  21.8 24.5  26 24.5  Z " stroke-width="1" stroke="#797979" fill="none" />
  </g>
</svg>