<?xml version="1.0" encoding="utf-8"?>
<svg version="1.1" xmlns:xlink="http://www.w3.org/1999/xlink" width="6px" height="9px" xmlns="http://www.w3.org/2000/svg">
  <g transform="matrix(1 0 0 1 -343 -160 )">
    <path d="M 3.70000000546875 8.059821428571427  L 3.0805000054687492 8.374821428571428  L 0.5149999945312509 2.4798214285714284  C 0.24937161764975502 1.8678136174122861  0.496916496464302 1.1409582981542905  1.0679999999999996 0.8560714344308036  C 1.342977142461725 0.710275456508507  1.6616419621713305 0.6913073103611935  1.9500000000000002 0.8035714285714286  C 2.234902270445998 0.9144497783174312  2.466717564416327 1.142575465340669  2.5939999945312504 1.4373214227120537  L 5.1595000054687485 7.328571428571429  L 4.525999994531251 7.6473214227120545  L 1.9500000000000002 1.7635714227120545  C 1.8996226362491209 1.6510117888154863  1.8105839230266412 1.563675028948548  1.7014999945312523 1.519821434430804  C 1.5898278804778785 1.4680947279115983  1.4631721140533727 1.4680947279115983  1.3515000000000006 1.519821434430804  C 1.1311180192863084 1.6315487645880045  1.0358644395060423 1.912624908844223  1.1380000054687507 2.149821434430804  L 3.70000000546875 8.059821428571427  Z " fill-rule="nonzero" fill="#2c2c2c" stroke="none" transform="matrix(1 0 0 1 343 160 )" />
  </g>
</svg>