<?xml version="1.0" encoding="utf-8"?>
<svg version="1.1" xmlns:xlink="http://www.w3.org/1999/xlink" width="15px" height="12px" xmlns="http://www.w3.org/2000/svg">
  <g transform="matrix(1 0 0 1 -339 -160 )">
    <path d="M 14.028125 11.351500005468754  L 13.368229172363279 11.645500005468747  C 13.25718362319098 11.33893724912599  13.186155821119472 11.02034083180886  13.156770827636718 10.696999994531254  C 12.978125 9.538499999999999  12.646354155273439 7.382499989062501  11.1515625 5.446999994531252  C 10.834375 5.037499994531252  10.670312500000001 5.097000000000001  10.571875000000002 5.131999994531251  C 10.441082183437604 5.16665194448044  10.326579452381244 5.243227254644259  10.24739582763672 5.349000000000002  L 9.561979172363278 5.107500000000002  C 9.703961190222351 4.800582853908766  9.98034308573832 4.569864054173696  10.316666672363283 4.477500000000001  C 10.830729172363283 4.291999994531253  11.308333344726563 4.477500000000001  11.73489582763672 5.030500005468751  C 13.3390625 7.109500005468751  13.6890625 9.381000000000004  13.87864582763672 10.599000000000004  C 13.907331954261 10.853281296378828  13.95732018697524 11.104929367452034  14.028125 11.351500005468754  Z M 2.062499999999999 8.24350000546875  L 1.384375 8.5095  C 0.34367063362081174 6.115772283704324  -0.1091641554374001 3.5242100151042166  0.060937500000000096 0.93550000546875  L 0.7901041723632818 1.0125000000000006  C 0.642050996095358 3.4840404717259226  1.0769895870412882 5.955787773310551  2.062499999999999 8.24350000546875  Z " fill-rule="nonzero" fill="#2c2c2c" stroke="none" transform="matrix(1 0 0 1 339 160 )" />
  </g>
</svg>