<?xml version="1.0" encoding="utf-8"?>
<svg version="1.1" xmlns:xlink="http://www.w3.org/1999/xlink" width="7px" height="11px" xmlns="http://www.w3.org/2000/svg">
  <g transform="matrix(1 0 0 1 -341 -205 )">
    <path d="M 5.311250000000001 4.729166662109373  L 4.754166662109375 4.942083337890624  L 3.374583337890625 1.4595833378906242  C 3.318375182112227 1.335925395178145  3.2892934674700527 1.2016664839628977  3.2892934674700527 1.0658333378906244  C 3.2892934674700527 0.5403123786013726  3.715312378601375 0.11429346747005063  4.240833337890626 0.11429346747005063  C 4.613973500452463 0.11429346747005063  4.952676839985516 0.33238904249938095  5.107083337890625 0.6720833378906237  L 6.585833337890625 4.367499999999998  L 6.043333337890626 4.583333337890623  L 4.585000000000001 0.9024999999999985  C 4.522925200122954 0.777241920795205  4.395212474268114 0.6979978390986706  4.2554166689453155 0.6979978390986706  C 4.0522667362915 0.6979978390986706  3.8875811769892987 0.862683398400871  3.8875811769892987 1.0658333310546855  C 3.8875811769892987 1.1224973457684966  3.900672301295373 1.1783952843366627  3.9258333378906265 1.2291666621093729  L 5.311250000000001 4.729166662109373  Z M 5.037083337890625 10.396250000000002  L 4.509166662109374 10.655833337890625  C 4.40708332421875 10.440000000000001  3.9258333242187504 10.253333337890625  3.4270833378906254 10.054999999999998  C 2.723315690717694 9.806588922816253  2.0554533648061835 9.466283154630013  1.4408333378906253 9.042916662109375  C 0.9800000000000004 8.710416662109374  -0.41999999999999993 7.68958332421875  0.18666666210937422 6.811666662109374  C 0.7000000000000002 6.067916662109376  1.5691666621093745 6.566666662109376  2.143749999999999 6.896249999999999  C 2.2662499999999994 6.966249999999999  2.4674999999999994 7.08  2.630833337890625 7.152916662109372  L 0.4054166621093742 2.3783333378906235  C 0.3465643428652978 2.2523126108136324  0.31606363181117025 2.114918991836026  0.31606363181117025 1.9758333378906237  C 0.31606363181117025 1.4504846031453411  0.7419429273640921 1.0246053075924193  1.2672916621093737 1.0246053075924193  C 1.6367715687714082 1.0246053075924193  1.9728259554705607 1.2385603030227275  2.129166662109373 1.5733333378906238  L 4.083333337890625 5.254166662109375  L 3.5670833378906237 5.528333337890624  L 1.607083337890625 1.8329166621093744  C 1.566302945342792 1.73910334878353  1.4896077487351276 1.665560014360552  1.3941666621093747 1.628749999999999  C 1.3545937787478577 1.6147947421156348  1.3129373752478681 1.6076649121228739  1.2709759367577096 1.6076649121228739  C 1.066400463191476 1.6076649121228739  0.9005592746483346 1.7735061006660153  0.9005592746483346 1.9780815742322488  C 0.9005592746483346 2.0306093587252585  0.9117311113029594 2.0825364788369667  0.933333337890625 2.130416662109374  L 3.441666662109375 7.499999999999999  L 3.2783333378906256 7.642916662109375  C 2.893333337890624 7.984166662109376  2.365416675781251 7.680833324218749  1.8550000000000004 7.389166662109377  C 1.178333337890625 7.0012500000000015  0.8458333378906246 6.872916662109377  0.665 7.132500000000001  C 0.48416666210937453 7.392083337890628  0.8925000000000001 7.914166662109377  1.782083337890625 8.561666662109376  C 2.357947028381613 8.953373609372713  2.9825440027209087 9.268123419819668  3.640000000000001 9.497916662109377  C 4.307916662109376 9.76333332421875  4.838750000000001 9.970416662109377  5.037083337890625 10.396250000000002  Z " fill-rule="nonzero" fill="#2c2c2c" stroke="none" transform="matrix(1 0 0 1 341 205 )" />
  </g>
</svg>