<?xml version="1.0" encoding="utf-8"?>
<svg version="1.1" xmlns:xlink="http://www.w3.org/1999/xlink" width="13px" height="13px" xmlns="http://www.w3.org/2000/svg">
  <g transform="matrix(1 0 0 1 -387 -38 )">
    <path d="M 10.130859375 7.422526041666668  C 10.23806423611111 7.315321180555555  10.291666666666666 7.188368055555555  10.291666666666666 7.041666666666668  L 10.291666666666666 5.958333333333334  C 10.291666666666666 5.811631944444444  10.23806423611111 5.684678819444444  10.130859375 5.577473958333334  C 10.02365451388889 5.470269097222222  9.89670138888889 5.416666666666666  9.75 5.416666666666666  L 7.583333333333334 5.416666666666666  L 7.583333333333334 3.25  C 7.583333333333334 3.10329861111111  7.529730902777779 2.97634548611111  7.422526041666666 2.869140625  C 7.315321180555556 2.761935763888889  7.188368055555556 2.708333333333334  7.041666666666666 2.708333333333334  L 5.958333333333333 2.708333333333334  C 5.811631944444445 2.708333333333334  5.684678819444445 2.761935763888889  5.577473958333333 2.869140625  C 5.470269097222222 2.97634548611111  5.416666666666667 3.10329861111111  5.416666666666667 3.25  L 5.416666666666667 5.416666666666666  L 3.25 5.416666666666666  C 3.103298611111111 5.416666666666666  2.976345486111111 5.470269097222222  2.869140625 5.577473958333334  C 2.7619357638888893 5.684678819444444  2.7083333333333335 5.811631944444444  2.7083333333333335 5.958333333333334  L 2.7083333333333335 7.041666666666668  C 2.7083333333333335 7.188368055555555  2.7619357638888893 7.315321180555555  2.869140625 7.422526041666668  C 2.976345486111111 7.529730902777778  3.103298611111111 7.583333333333332  3.25 7.583333333333332  L 5.416666666666667 7.583333333333332  L 5.416666666666667 9.75  C 5.416666666666667 9.89670138888889  5.470269097222222 10.02365451388889  5.577473958333333 10.130859375  C 5.684678819444445 10.23806423611111  5.811631944444445 10.291666666666666  5.958333333333333 10.291666666666666  L 7.041666666666666 10.291666666666666  C 7.188368055555556 10.291666666666666  7.315321180555556 10.23806423611111  7.422526041666666 10.130859375  C 7.529730902777779 10.02365451388889  7.583333333333334 9.89670138888889  7.583333333333334 9.75  L 7.583333333333334 7.583333333333332  L 9.75 7.583333333333332  C 9.89670138888889 7.583333333333332  10.02365451388889 7.529730902777778  10.130859375 7.422526041666668  Z M 12.128255208333334 3.2373046875  C 12.709418402777777 4.23318142361111  13 5.320746527777776  13 6.5  C 13 7.679253472222222  12.709418402777777 8.766818576388888  12.128255208333334 9.7626953125  C 11.54709201388889 10.75857204861111  10.75857204861111 11.54709201388889  9.7626953125 12.128255208333334  C 8.76681857638889 12.709418402777779  7.679253472222222 13  6.5 13  C 5.320746527777779 13  4.233181423611112 12.709418402777779  3.2373046875 12.128255208333334  C 2.2414279513888893 11.54709201388889  1.4529079861111112 10.75857204861111  0.8717447916666667 9.7626953125  C 0.2905815972222222 8.766818576388888  0 7.679253472222222  0 6.5  C 0 5.320746527777776  0.2905815972222222 4.23318142361111  0.8717447916666667 3.2373046875  C 1.4529079861111112 2.241427951388889  2.2414279513888893 1.4529079861111098  3.2373046875 0.8717447916666662  C 4.233181423611112 0.2905815972222211  5.320746527777779 0  6.5 0  C 7.679253472222222 0  8.76681857638889 0.2905815972222211  9.7626953125 0.8717447916666662  C 10.75857204861111 1.4529079861111098  11.54709201388889 2.241427951388889  12.128255208333334 3.2373046875  Z " fill-rule="nonzero" fill="#000000" stroke="none" transform="matrix(1 0 0 1 387 38 )" />
  </g>
</svg>