<?xml version="1.0" encoding="utf-8"?>
<svg version="1.1" xmlns:xlink="http://www.w3.org/1999/xlink" width="13px" height="13px" viewBox="155 386  13 13" xmlns="http://www.w3.org/2000/svg">
  <path d="M 161.5 386  C 165.14 386  168 388.86  168 392.5  C 168 396.14  165.14 399  161.5 399  C 157.86 399  155 396.14  155 392.5  C 155 388.86  157.86 386  161.5 386  Z " fill-rule="nonzero" fill="#f0f0f0" stroke="none" />
  <path d="M 161.5 386.5  C 164.86 386.5  167.5 389.14  167.5 392.5  C 167.5 395.86  164.86 398.5  161.5 398.5  C 158.14 398.5  155.5 395.86  155.5 392.5  C 155.5 389.14  158.14 386.5  161.5 386.5  Z " stroke-width="1" stroke="#797979" fill="none" />
  <path d="M 161.5 395.75  C 159.68 395.75  158.25 394.32  158.25 392.5  C 158.25 390.68  159.68 389.25  161.5 389.25  C 163.32 389.25  164.75 390.68  164.75 392.5  C 164.75 394.32  163.32 395.75  161.5 395.75  " fill-rule="nonzero" fill="#797979" stroke="none" />
</svg>