<?xml version="1.0" encoding="utf-8"?>
<svg version="1.1" xmlns:xlink="http://www.w3.org/1999/xlink" width="13px" height="13px" viewBox="155 361  13 13" xmlns="http://www.w3.org/2000/svg">
  <path d="M 161.5 361  C 165.14 361  168 363.86  168 367.5  C 168 371.14  165.14 374  161.5 374  C 157.86 374  155 371.14  155 367.5  C 155 363.86  157.86 361  161.5 361  Z " fill-rule="nonzero" fill="#f0f0f0" stroke="none" />
  <path d="M 161.5 361.5  C 164.86 361.5  167.5 364.14  167.5 367.5  C 167.5 370.86  164.86 373.5  161.5 373.5  C 158.14 373.5  155.5 370.86  155.5 367.5  C 155.5 364.14  158.14 361.5  161.5 361.5  Z " stroke-width="1" stroke="#797979" fill="none" />
  <path d="M 161.5 370.75  C 159.68 370.75  158.25 369.32  158.25 367.5  C 158.25 365.68  159.68 364.25  161.5 364.25  C 163.32 364.25  164.75 365.68  164.75 367.5  C 164.75 369.32  163.32 370.75  161.5 370.75  " fill-rule="nonzero" fill="#797979" stroke="none" />
</svg>