<?xml version="1.0" encoding="utf-8"?>
<svg version="1.1" xmlns:xlink="http://www.w3.org/1999/xlink" width="13px" height="13px" viewBox="155 315  13 13" xmlns="http://www.w3.org/2000/svg">
  <path d="M 161.5 315  C 165.14 315  168 317.86  168 321.5  C 168 325.14  165.14 328  161.5 328  C 157.86 328  155 325.14  155 321.5  C 155 317.86  157.86 315  161.5 315  Z " fill-rule="nonzero" fill="#f0f0f0" stroke="none" />
  <path d="M 161.5 315.5  C 164.86 315.5  167.5 318.14  167.5 321.5  C 167.5 324.86  164.86 327.5  161.5 327.5  C 158.14 327.5  155.5 324.86  155.5 321.5  C 155.5 318.14  158.14 315.5  161.5 315.5  Z " stroke-width="1" stroke="#797979" fill="none" />
  <path d="M 161.5 324.75  C 159.68 324.75  158.25 323.32  158.25 321.5  C 158.25 319.68  159.68 318.25  161.5 318.25  C 163.32 318.25  164.75 319.68  164.75 321.5  C 164.75 323.32  163.32 324.75  161.5 324.75  " fill-rule="nonzero" fill="#797979" stroke="none" />
</svg>