<?xml version="1.0" encoding="utf-8"?>
<svg version="1.1" xmlns:xlink="http://www.w3.org/1999/xlink" width="188px" height="162px" xmlns="http://www.w3.org/2000/svg">
  <g transform="matrix(1 0 0 1 -22 -159 )">
    <path d="M 22 159  L 210 159  L 210 321  L 22 321  L 22 159  " fill-rule="nonzero" fill="#cccccc" stroke="none" />
    <path d="M 33 170  L 199 170  L 199 310  L 33 310  L 33 170  " fill-rule="nonzero" fill="#ffffff" stroke="none" />
    <path d="M 131.91 207.60000000000002  C 125.106 207.60000000000002  119.76 202.25400000000002  119.76 195.45000000000002  C 119.76 188.64600000000002  125.106 183.3  131.91 183.3  C 138.714 183.3  144.06 188.64600000000002  144.06 195.45000000000002  C 144.06 202.25400000000002  138.714 207.60000000000002  131.91 207.60000000000002  " fill-rule="nonzero" fill="#cccccc" stroke="none" />
    <path d="M 37 306  L 37 233.39999999999998  L 76.5 200.39999999999998  L 131.8 237.7531914893617  L 163.4 220.2  L 195 237.7531914893617  L 195 306  L 37 306  " fill-rule="nonzero" fill="#169bd5" stroke="none" />
  </g>
</svg>