<?xml version="1.0" encoding="utf-8"?>
<svg version="1.1" xmlns:xlink="http://www.w3.org/1999/xlink" width="13px" height="13px" viewBox="1716 620  13 13" xmlns="http://www.w3.org/2000/svg">
  <path d="M 1722.5 620  C 1726.14 620  1729 622.86  1729 626.5  C 1729 630.14  1726.14 633  1722.5 633  C 1718.86 633  1716 630.14  1716 626.5  C 1716 622.86  1718.86 620  1722.5 620  Z " fill-rule="nonzero" fill="#f0f0f0" stroke="none" />
  <path d="M 1722.5 620.5  C 1725.86 620.5  1728.5 623.14  1728.5 626.5  C 1728.5 629.86  1725.86 632.5  1722.5 632.5  C 1719.14 632.5  1716.5 629.86  1716.5 626.5  C 1716.5 623.14  1719.14 620.5  1722.5 620.5  Z " stroke-width="1" stroke="#797979" fill="none" />
  <path d="M 1722.5 629.75  C 1720.68 629.75  1719.25 628.32  1719.25 626.5  C 1719.25 624.68  1720.68 623.25  1722.5 623.25  C 1724.32 623.25  1725.75 624.68  1725.75 626.5  C 1725.75 628.32  1724.32 629.75  1722.5 629.75  " fill-rule="nonzero" fill="#797979" stroke="none" />
</svg>