<?xml version="1.0" encoding="utf-8"?>
<svg version="1.1" xmlns:xlink="http://www.w3.org/1999/xlink" width="13px" height="13px" viewBox="228 403  13 13" xmlns="http://www.w3.org/2000/svg">
  <path d="M 234.5 403  C 238.14 403  241 405.86  241 409.5  C 241 413.14  238.14 416  234.5 416  C 230.86 416  228 413.14  228 409.5  C 228 405.86  230.86 403  234.5 403  Z " fill-rule="nonzero" fill="#f0f0f0" stroke="none" />
  <path d="M 234.5 403.5  C 237.86 403.5  240.5 406.14  240.5 409.5  C 240.5 412.86  237.86 415.5  234.5 415.5  C 231.14 415.5  228.5 412.86  228.5 409.5  C 228.5 406.14  231.14 403.5  234.5 403.5  Z " stroke-width="1" stroke="#797979" fill="none" />
  <path d="M 234.5 412.75  C 232.68 412.75  231.25 411.32  231.25 409.5  C 231.25 407.68  232.68 406.25  234.5 406.25  C 236.32 406.25  237.75 407.68  237.75 409.5  C 237.75 411.32  236.32 412.75  234.5 412.75  " fill-rule="nonzero" fill="#797979" stroke="none" />
</svg>