<?xml version="1.0" encoding="utf-8"?>
<svg version="1.1" xmlns:xlink="http://www.w3.org/1999/xlink" width="13px" height="13px" viewBox="228 378  13 13" xmlns="http://www.w3.org/2000/svg">
  <path d="M 234.5 378  C 238.14 378  241 380.86  241 384.5  C 241 388.14  238.14 391  234.5 391  C 230.86 391  228 388.14  228 384.5  C 228 380.86  230.86 378  234.5 378  Z " fill-rule="nonzero" fill="#ffffff" stroke="none" />
  <path d="M 234.5 378.5  C 237.86 378.5  240.5 381.14  240.5 384.5  C 240.5 387.86  237.86 390.5  234.5 390.5  C 231.14 390.5  228.5 387.86  228.5 384.5  C 228.5 381.14  231.14 378.5  234.5 378.5  Z " stroke-width="1" stroke="#797979" fill="none" />
  <path d="M 234.5 387.75  C 232.68 387.75  231.25 386.32  231.25 384.5  C 231.25 382.68  232.68 381.25  234.5 381.25  C 236.32 381.25  237.75 382.68  237.75 384.5  C 237.75 386.32  236.32 387.75  234.5 387.75  " fill-rule="nonzero" fill="#797979" stroke="none" />
</svg>