<?xml version="1.0" encoding="utf-8"?>
<svg version="1.1" xmlns:xlink="http://www.w3.org/1999/xlink" width="13px" height="13px" viewBox="320 433  13 13" xmlns="http://www.w3.org/2000/svg">
  <path d="M 326.5 433  C 330.14 433  333 435.86  333 439.5  C 333 443.14  330.14 446  326.5 446  C 322.86 446  320 443.14  320 439.5  C 320 435.86  322.86 433  326.5 433  Z " fill-rule="nonzero" fill="#ffffff" stroke="none" />
  <path d="M 326.5 433.5  C 329.86 433.5  332.5 436.14  332.5 439.5  C 332.5 442.86  329.86 445.5  326.5 445.5  C 323.14 445.5  320.5 442.86  320.5 439.5  C 320.5 436.14  323.14 433.5  326.5 433.5  Z " stroke-width="1" stroke="#797979" fill="none" />
  <path d="M 326.5 442.75  C 324.68 442.75  323.25 441.32  323.25 439.5  C 323.25 437.68  324.68 436.25  326.5 436.25  C 328.32 436.25  329.75 437.68  329.75 439.5  C 329.75 441.32  328.32 442.75  326.5 442.75  " fill-rule="nonzero" fill="#797979" stroke="none" />
</svg>