<?xml version="1.0" encoding="utf-8"?>
<svg version="1.1" xmlns:xlink="http://www.w3.org/1999/xlink" width="13px" height="13px" viewBox="10 241  13 13" xmlns="http://www.w3.org/2000/svg">
  <path d="M 16.5 241  C 20.14 241  23 243.86  23 247.5  C 23 251.14  20.14 254  16.5 254  C 12.86 254  10 251.14  10 247.5  C 10 243.86  12.86 241  16.5 241  Z " fill-rule="nonzero" fill="#f0f0f0" stroke="none" />
  <path d="M 16.5 241.5  C 19.86 241.5  22.5 244.14  22.5 247.5  C 22.5 250.86  19.86 253.5  16.5 253.5  C 13.14 253.5  10.5 250.86  10.5 247.5  C 10.5 244.14  13.14 241.5  16.5 241.5  Z " stroke-width="1" stroke="#797979" fill="none" />
  <path d="M 16.5 250.75  C 14.68 250.75  13.25 249.32  13.25 247.5  C 13.25 245.68  14.68 244.25  16.5 244.25  C 18.32 244.25  19.75 245.68  19.75 247.5  C 19.75 249.32  18.32 250.75  16.5 250.75  " fill-rule="nonzero" fill="#797979" stroke="none" />
</svg>