<?xml version="1.0" encoding="utf-8"?>
<svg version="1.1" xmlns:xlink="http://www.w3.org/1999/xlink" width="24px" height="24px" xmlns="http://www.w3.org/2000/svg">
  <g transform="matrix(1 0 0 1 -227 -442 )">
    <path d="M 239 442  C 245.72 442  251 447.28  251 454  C 251 460.72  245.72 466  239 466  C 232.28 466  227 460.72  227 454  C 227 447.28  232.28 442  239 442  Z " fill-rule="nonzero" fill="#ffffff" stroke="none" />
    <path d="M 239 442.5  C 245.44 442.5  250.5 447.56  250.5 454  C 250.5 460.44  245.44 465.5  239 465.5  C 232.56 465.5  227.5 460.44  227.5 454  C 227.5 447.56  232.56 442.5  239 442.5  Z " stroke-width="1" stroke="#797979" fill="none" />
  </g>
</svg>