<?xml version="1.0" encoding="utf-8"?>
<svg version="1.1" xmlns:xlink="http://www.w3.org/1999/xlink" width="13px" height="4px" xmlns="http://www.w3.org/2000/svg">
  <g transform="matrix(1 0 0 1 -189 -162 )">
    <path d="M 12.741477272727273 0.2916666666666665  C 12.913825757575758 0.4861111111111094  13 0.7222222222222214  13 1  L 13 3  C 13 3.2777777777777772  12.913825757575758 3.513888888888888  12.741477272727273 3.7083333333333335  C 12.569128787878789 3.9027777777777772  12.359848484848486 4  12.113636363636363 4  L 0.8863636363636362 4  C 0.6401515151515152 4  0.4308712121212122 3.9027777777777772  0.2585227272727273 3.7083333333333335  C 0.08617424242424242 3.513888888888888  0 3.2777777777777772  0 3  L 0 1  C 0 0.7222222222222214  0.08617424242424242 0.4861111111111094  0.2585227272727273 0.2916666666666665  C 0.4308712121212122 0.09722222222222143  0.6401515151515152 0  0.8863636363636362 0  L 12.113636363636363 0  C 12.359848484848486 0  12.569128787878789 0.09722222222222143  12.741477272727273 0.2916666666666665  Z " fill-rule="nonzero" fill="#000000" stroke="none" transform="matrix(1 0 0 1 189 162 )" />
  </g>
</svg>