<?xml version="1.0" encoding="utf-8"?>
<svg version="1.1" xmlns:xlink="http://www.w3.org/1999/xlink" width="13px" height="13px" viewBox="210 31  13 13" xmlns="http://www.w3.org/2000/svg">
  <path d="M 216.5 31  C 220.14 31  223 33.86  223 37.5  C 223 41.14  220.14 44  216.5 44  C 212.86 44  210 41.14  210 37.5  C 210 33.86  212.86 31  216.5 31  Z " fill-rule="nonzero" fill="#f0f0f0" stroke="none" />
  <path d="M 216.5 31.5  C 219.86 31.5  222.5 34.14  222.5 37.5  C 222.5 40.86  219.86 43.5  216.5 43.5  C 213.14 43.5  210.5 40.86  210.5 37.5  C 210.5 34.14  213.14 31.5  216.5 31.5  Z " stroke-width="1" stroke="#797979" fill="none" />
  <path d="M 216.5 40.75  C 214.68 40.75  213.25 39.32  213.25 37.5  C 213.25 35.68  214.68 34.25  216.5 34.25  C 218.32 34.25  219.75 35.68  219.75 37.5  C 219.75 39.32  218.32 40.75  216.5 40.75  " fill-rule="nonzero" fill="#797979" stroke="none" />
</svg>