<?xml version="1.0" encoding="utf-8"?>
<svg version="1.1" xmlns:xlink="http://www.w3.org/1999/xlink" width="13px" height="13px" viewBox="589 31  13 13" xmlns="http://www.w3.org/2000/svg">
  <path d="M 595.5 31  C 599.14 31  602 33.86  602 37.5  C 602 41.14  599.14 44  595.5 44  C 591.86 44  589 41.14  589 37.5  C 589 33.86  591.86 31  595.5 31  Z " fill-rule="nonzero" fill="#f0f0f0" stroke="none" />
  <path d="M 595.5 31.5  C 598.86 31.5  601.5 34.14  601.5 37.5  C 601.5 40.86  598.86 43.5  595.5 43.5  C 592.14 43.5  589.5 40.86  589.5 37.5  C 589.5 34.14  592.14 31.5  595.5 31.5  Z " stroke-width="1" stroke="#797979" fill="none" />
  <path d="M 595.5 40.75  C 593.68 40.75  592.25 39.32  592.25 37.5  C 592.25 35.68  593.68 34.25  595.5 34.25  C 597.32 34.25  598.75 35.68  598.75 37.5  C 598.75 39.32  597.32 40.75  595.5 40.75  " fill-rule="nonzero" fill="#797979" stroke="none" />
</svg>