<?xml version="1.0" encoding="utf-8"?>
<svg version="1.1" xmlns:xlink="http://www.w3.org/1999/xlink" width="13px" height="13px" viewBox="17 39  13 13" xmlns="http://www.w3.org/2000/svg">
  <path d="M 23.5 39  C 27.14 39  30 41.86  30 45.5  C 30 49.14  27.14 52  23.5 52  C 19.86 52  17 49.14  17 45.5  C 17 41.86  19.86 39  23.5 39  Z " fill-rule="nonzero" fill="#ffffff" stroke="none" />
  <path d="M 23.5 39.5  C 26.86 39.5  29.5 42.14  29.5 45.5  C 29.5 48.86  26.86 51.5  23.5 51.5  C 20.14 51.5  17.5 48.86  17.5 45.5  C 17.5 42.14  20.14 39.5  23.5 39.5  Z " stroke-width="1" stroke="#797979" fill="none" />
  <path d="M 23.5 48.75  C 21.68 48.75  20.25 47.32  20.25 45.5  C 20.25 43.68  21.68 42.25  23.5 42.25  C 25.32 42.25  26.75 43.68  26.75 45.5  C 26.75 47.32  25.32 48.75  23.5 48.75  " fill-rule="nonzero" fill="#797979" stroke="none" />
</svg>