<?xml version="1.0" encoding="utf-8"?>
<svg version="1.1" xmlns:xlink="http://www.w3.org/1999/xlink" width="13px" height="13px" viewBox="465 39  13 13" xmlns="http://www.w3.org/2000/svg">
  <path d="M 471.5 39  C 475.14 39  478 41.86  478 45.5  C 478 49.14  475.14 52  471.5 52  C 467.86 52  465 49.14  465 45.5  C 465 41.86  467.86 39  471.5 39  Z " fill-rule="nonzero" fill="#f0f0f0" stroke="none" />
  <path d="M 471.5 39.5  C 474.86 39.5  477.5 42.14  477.5 45.5  C 477.5 48.86  474.86 51.5  471.5 51.5  C 468.14 51.5  465.5 48.86  465.5 45.5  C 465.5 42.14  468.14 39.5  471.5 39.5  Z " stroke-width="1" stroke="#797979" fill="none" />
  <path d="M 471.5 48.75  C 469.68 48.75  468.25 47.32  468.25 45.5  C 468.25 43.68  469.68 42.25  471.5 42.25  C 473.32 42.25  474.75 43.68  474.75 45.5  C 474.75 47.32  473.32 48.75  471.5 48.75  " fill-rule="nonzero" fill="#797979" stroke="none" />
</svg>