<?xml version="1.0" encoding="utf-8"?>
<svg version="1.1" xmlns:xlink="http://www.w3.org/1999/xlink" width="13px" height="13px" viewBox="661 39  13 13" xmlns="http://www.w3.org/2000/svg">
  <path d="M 667.5 39  C 671.14 39  674 41.86  674 45.5  C 674 49.14  671.14 52  667.5 52  C 663.86 52  661 49.14  661 45.5  C 661 41.86  663.86 39  667.5 39  Z " fill-rule="nonzero" fill="#f0f0f0" stroke="none" />
  <path d="M 667.5 39.5  C 670.86 39.5  673.5 42.14  673.5 45.5  C 673.5 48.86  670.86 51.5  667.5 51.5  C 664.14 51.5  661.5 48.86  661.5 45.5  C 661.5 42.14  664.14 39.5  667.5 39.5  Z " stroke-width="1" stroke="#797979" fill="none" />
  <path d="M 667.5 48.75  C 665.68 48.75  664.25 47.32  664.25 45.5  C 664.25 43.68  665.68 42.25  667.5 42.25  C 669.32 42.25  670.75 43.68  670.75 45.5  C 670.75 47.32  669.32 48.75  667.5 48.75  " fill-rule="nonzero" fill="#797979" stroke="none" />
</svg>