<?xml version="1.0" encoding="utf-8"?>
<svg version="1.1" xmlns:xlink="http://www.w3.org/1999/xlink" width="14px" height="14px" xmlns="http://www.w3.org/2000/svg">
  <g transform="matrix(1 0 0 1 -322 -50 )">
    <path d="M 13.922468354430379 7.138449367088608  C 13.922468354430379 7.062302215189874  13.860166139240505 7  13.784018987341772 7  L 12.814873417721518 7  C 12.738726265822784 7  12.676424050632912 7.062302215189874  12.676424050632912 7.138449367088608  L 12.676424050632912 12.676424050632912  L 1.3235759493670887 12.676424050632912  L 1.3235759493670887 1.3235759493670887  L 6.861550632911392 1.3235759493670887  C 6.937697784810126 1.3235759493670887  7 1.2612737341772151  7 1.185126582278481  L 7 0.21598101265822786  C 7 0.13983386075949367  6.937697784810126 0.07753164556962025  6.861550632911392 0.07753164556962025  L 0.6313291139240506 0.07753164556962025  C 0.32500988924050633 0.07753164556962025  0.07753164556962025 0.32500988924050633  0 0.6313291139240506  L 0 13.368670886075948  C 0.07753164556962025 13.674990110759495  0.32500988924050633 13.922468354430379  0.6313291139240506 14  L 13.368670886075948 14  C 13.674990110759495 13.922468354430379  13.922468354430379 13.674990110759495  13.922468354430379 13.368670886075948  L 13.922468354430379 7.138449367088608  Z " fill-rule="nonzero" fill="#000000" stroke="none" transform="matrix(1 0 0 1 322 50 )" />
  </g>
</svg>