<?xml version="1.0" encoding="utf-8"?>
<svg version="1.1" xmlns:xlink="http://www.w3.org/1999/xlink" width="134px" height="26px" xmlns="http://www.w3.org/2000/svg">
  <defs>
    <mask fill="white" id="clip647">
      <path d="M 0 23  L 0 3  C 0 1.32000000000005  1.3199999999999932 0  3 0  L 35.45945945946045 0  L 131 0  C 132.68 0  134 1.32000000000005  134 3  L 134 23  C 134 24.67999999999995  132.68 26  131 26  L 3 26  C 1.3199999999999932 26  0 24.67999999999995  0 23  Z " fill-rule="evenodd" />
    </mask>
  </defs>
  <g transform="matrix(1 0 0 1 -376 -693 )">
    <path d="M 0 23  L 0 3  C 0 1.32000000000005  1.3199999999999932 0  3 0  L 35.45945945946045 0  L 131 0  C 132.68 0  134 1.32000000000005  134 3  L 134 23  C 134 24.67999999999995  132.68 26  131 26  L 3 26  C 1.3199999999999932 26  0 24.67999999999995  0 23  Z " fill-rule="nonzero" fill="#ffffff" stroke="none" transform="matrix(1 0 0 1 376 693 )" />
    <path d="M 0 23  L 0 3  C 0 1.32000000000005  1.3199999999999932 0  3 0  L 35.45945945946045 0  L 131 0  C 132.68 0  134 1.32000000000005  134 3  L 134 23  C 134 24.67999999999995  132.68 26  131 26  L 3 26  C 1.3199999999999932 26  0 24.67999999999995  0 23  Z " stroke-width="2" stroke="#d7d7d7" fill="none" transform="matrix(1 0 0 1 376 693 )" mask="url(#clip647)" />
  </g>
</svg>