<?xml version="1.0" encoding="utf-8"?>
<svg version="1.1" xmlns:xlink="http://www.w3.org/1999/xlink" width="13px" height="13px" viewBox="941 22  13 13" xmlns="http://www.w3.org/2000/svg">
  <path d="M 947.5 22  C 951.14 22  954 24.86  954 28.5  C 954 32.14  951.14 35  947.5 35  C 943.86 35  941 32.14  941 28.5  C 941 24.86  943.86 22  947.5 22  Z " fill-rule="nonzero" fill="#ffffff" stroke="none" />
  <path d="M 947.5 22.5  C 950.86 22.5  953.5 25.14  953.5 28.5  C 953.5 31.86  950.86 34.5  947.5 34.5  C 944.14 34.5  941.5 31.86  941.5 28.5  C 941.5 25.14  944.14 22.5  947.5 22.5  Z " stroke-width="1" stroke="#797979" fill="none" />
  <path d="M 947.5 31.75  C 945.68 31.75  944.25 30.32  944.25 28.5  C 944.25 26.68  945.68 25.25  947.5 25.25  C 949.32 25.25  950.75 26.68  950.75 28.5  C 950.75 30.32  949.32 31.75  947.5 31.75  " fill-rule="nonzero" fill="#797979" stroke="none" />
</svg>