<?xml version="1.0" encoding="utf-8"?>
<svg version="1.1" xmlns:xlink="http://www.w3.org/1999/xlink" width="13px" height="13px" viewBox="1061 22  13 13" xmlns="http://www.w3.org/2000/svg">
  <path d="M 1067.5 22  C 1071.14 22  1074 24.86  1074 28.5  C 1074 32.14  1071.14 35  1067.5 35  C 1063.86 35  1061 32.14  1061 28.5  C 1061 24.86  1063.86 22  1067.5 22  Z " fill-rule="nonzero" fill="#ffffff" stroke="none" />
  <path d="M 1067.5 22.5  C 1070.86 22.5  1073.5 25.14  1073.5 28.5  C 1073.5 31.86  1070.86 34.5  1067.5 34.5  C 1064.14 34.5  1061.5 31.86  1061.5 28.5  C 1061.5 25.14  1064.14 22.5  1067.5 22.5  Z " stroke-width="1" stroke="#797979" fill="none" />
  <path d="M 1067.5 31.75  C 1065.68 31.75  1064.25 30.32  1064.25 28.5  C 1064.25 26.68  1065.68 25.25  1067.5 25.25  C 1069.32 25.25  1070.75 26.68  1070.75 28.5  C 1070.75 30.32  1069.32 31.75  1067.5 31.75  " fill-rule="nonzero" fill="#797979" stroke="none" />
</svg>