<?xml version="1.0" encoding="utf-8"?>
<svg version="1.1" xmlns:xlink="http://www.w3.org/1999/xlink" width="13px" height="13px" viewBox="289 190  13 13" xmlns="http://www.w3.org/2000/svg">
  <path d="M 295.5 190  C 299.14 190  302 192.86  302 196.5  C 302 200.14  299.14 203  295.5 203  C 291.86 203  289 200.14  289 196.5  C 289 192.86  291.86 190  295.5 190  Z " fill-rule="nonzero" fill="#ffffff" stroke="none" />
  <path d="M 295.5 190.5  C 298.86 190.5  301.5 193.14  301.5 196.5  C 301.5 199.86  298.86 202.5  295.5 202.5  C 292.14 202.5  289.5 199.86  289.5 196.5  C 289.5 193.14  292.14 190.5  295.5 190.5  Z " stroke-width="1" stroke="#64cce1" fill="none" />
  <path d="M 295.5 199.75  C 293.68 199.75  292.25 198.32  292.25 196.5  C 292.25 194.68  293.68 193.25  295.5 193.25  C 297.32 193.25  298.75 194.68  298.75 196.5  C 298.75 198.32  297.32 199.75  295.5 199.75  " fill-rule="nonzero" fill="#64cce1" stroke="none" />
</svg>