<?xml version="1.0" encoding="utf-8"?>
<svg version="1.1" xmlns:xlink="http://www.w3.org/1999/xlink" width="13px" height="13px" viewBox="354 232  13 13" xmlns="http://www.w3.org/2000/svg">
  <path d="M 360.5 232  C 364.14 232  367 234.86  367 238.5  C 367 242.14  364.14 245  360.5 245  C 356.86 245  354 242.14  354 238.5  C 354 234.86  356.86 232  360.5 232  Z " fill-rule="nonzero" fill="#ffffff" stroke="none" />
  <path d="M 360.5 232.5  C 363.86 232.5  366.5 235.14  366.5 238.5  C 366.5 241.86  363.86 244.5  360.5 244.5  C 357.14 244.5  354.5 241.86  354.5 238.5  C 354.5 235.14  357.14 232.5  360.5 232.5  Z " stroke-width="1" stroke="#64cce1" fill="none" />
  <path d="M 360.5 241.75  C 358.68 241.75  357.25 240.32  357.25 238.5  C 357.25 236.68  358.68 235.25  360.5 235.25  C 362.32 235.25  363.75 236.68  363.75 238.5  C 363.75 240.32  362.32 241.75  360.5 241.75  " fill-rule="nonzero" fill="#64cce1" stroke="none" />
</svg>