<?xml version="1.0" encoding="utf-8"?>
<svg version="1.1" xmlns:xlink="http://www.w3.org/1999/xlink" width="13px" height="13px" viewBox="354 259  13 13" xmlns="http://www.w3.org/2000/svg">
  <path d="M 360.5 259  C 364.14 259  367 261.86  367 265.5  C 367 269.14  364.14 272  360.5 272  C 356.86 272  354 269.14  354 265.5  C 354 261.86  356.86 259  360.5 259  Z " fill-rule="nonzero" fill="#ffffff" stroke="none" />
  <path d="M 360.5 259.5  C 363.86 259.5  366.5 262.14  366.5 265.5  C 366.5 268.86  363.86 271.5  360.5 271.5  C 357.14 271.5  354.5 268.86  354.5 265.5  C 354.5 262.14  357.14 259.5  360.5 259.5  Z " stroke-width="1" stroke="#64cce1" fill="none" />
  <path d="M 360.5 268.75  C 358.68 268.75  357.25 267.32  357.25 265.5  C 357.25 263.68  358.68 262.25  360.5 262.25  C 362.32 262.25  363.75 263.68  363.75 265.5  C 363.75 267.32  362.32 268.75  360.5 268.75  " fill-rule="nonzero" fill="#64cce1" stroke="none" />
</svg>