<?xml version="1.0" encoding="utf-8"?>
<svg version="1.1" xmlns:xlink="http://www.w3.org/1999/xlink" width="13px" height="13px" viewBox="192 49  13 13" xmlns="http://www.w3.org/2000/svg">
  <path d="M 198.5 49  C 202.14 49  205 51.86  205 55.5  C 205 59.14  202.14 62  198.5 62  C 194.86 62  192 59.14  192 55.5  C 192 51.86  194.86 49  198.5 49  Z " fill-rule="nonzero" fill="#ffffff" stroke="none" />
  <path d="M 198.5 49.5  C 201.86 49.5  204.5 52.14  204.5 55.5  C 204.5 58.86  201.86 61.5  198.5 61.5  C 195.14 61.5  192.5 58.86  192.5 55.5  C 192.5 52.14  195.14 49.5  198.5 49.5  Z " stroke-width="1" stroke="#797979" fill="none" />
  <path d="M 198.5 58.75  C 196.68 58.75  195.25 57.32  195.25 55.5  C 195.25 53.68  196.68 52.25  198.5 52.25  C 200.32 52.25  201.75 53.68  201.75 55.5  C 201.75 57.32  200.32 58.75  198.5 58.75  " fill-rule="nonzero" fill="#797979" stroke="none" />
</svg>