<?xml version="1.0" encoding="utf-8"?>
<svg version="1.1" xmlns:xlink="http://www.w3.org/1999/xlink" width="32px" height="32px" xmlns="http://www.w3.org/2000/svg">
  <g transform="matrix(1 0 0 1 -157 -165 )">
    <path d="M 173 165  C 181.96 165  189 172.04  189 181  C 189 189.96  181.96 197  173 197  C 164.04 197  157 189.96  157 181  C 157 172.04  164.04 165  173 165  Z " fill-rule="nonzero" fill="#ffffff" stroke="none" />
    <path d="M 173 165.5  C 181.68 165.5  188.5 172.32  188.5 181  C 188.5 189.68  181.68 196.5  173 196.5  C 164.32 196.5  157.5 189.68  157.5 181  C 157.5 172.32  164.32 165.5  173 165.5  Z " stroke-width="1" stroke="#797979" fill="none" />
  </g>
</svg>