<?xml version="1.0" encoding="utf-8"?>
<svg version="1.1" xmlns:xlink="http://www.w3.org/1999/xlink" width="13px" height="13px" viewBox="219 109  13 13" xmlns="http://www.w3.org/2000/svg">
  <path d="M 225.5 109  C 229.14 109  232 111.86  232 115.5  C 232 119.14  229.14 122  225.5 122  C 221.86 122  219 119.14  219 115.5  C 219 111.86  221.86 109  225.5 109  Z " fill-rule="nonzero" fill="#f0f0f0" stroke="none" />
  <path d="M 225.5 109.5  C 228.86 109.5  231.5 112.14  231.5 115.5  C 231.5 118.86  228.86 121.5  225.5 121.5  C 222.14 121.5  219.5 118.86  219.5 115.5  C 219.5 112.14  222.14 109.5  225.5 109.5  Z " stroke-width="1" stroke="#797979" fill="none" />
  <path d="M 225.5 118.75  C 223.68 118.75  222.25 117.32  222.25 115.5  C 222.25 113.68  223.68 112.25  225.5 112.25  C 227.32 112.25  228.75 113.68  228.75 115.5  C 228.75 117.32  227.32 118.75  225.5 118.75  " fill-rule="nonzero" fill="#797979" stroke="none" />
</svg>