<?xml version="1.0" encoding="utf-8"?>
<svg version="1.1" xmlns:xlink="http://www.w3.org/1999/xlink" width="11px" height="11px" xmlns="http://www.w3.org/2000/svg">
  <g transform="matrix(1 0 0 1 -319 -152 )">
    <path d="M 2.7179667968750003 1.643833984375  L 8.0713037109375 1.6474326171875  L 10.8025048828125 4.198165039062499  L 10.8073173828125 11  L 2.717966796875 11  L 2.717966796875 9.753755859375  L 0.92434375 9.753755859375  C 0.520244140625 9.753755859375  0.1926396484375001 9.4261298828125  0.1926396484375001 9.021955078125  L 0.1926396484375001 0.7318544921875001  C 0.1926396484375 0.3277333984375  0.520244140625 5.37109375E-05  0.92434375 5.37109375E-05  L 7.4972197265625 5.37109375E-05  C 7.901254882812499 5.37109375E-05  8.2288701171875 0.32772265624999997  8.2288701171875 0.7318544921874999  L 8.2288701171875 1.4636552734375  L 7.3913876953125 1.4629033203125  L 7.3913876953125 1.0517998046875  C 7.3913876953125 0.9165449218749999  7.2816025390625 0.8076083984374998  7.1471640625 0.8076083984374998  L 1.2125566406250003 0.8083818359374999  C 1.0772910156250004 0.8083818359374999  0.9683867187500004 0.9181132812499999  0.9683867187500004 1.0525517578124999  L 0.9683867187500004 8.653369140625  C 0.9683867187500004 8.7885703125  1.0772910156250004 8.89758203125  1.2125566406250003 8.89758203125  L 2.7179667968750003 8.89758203125  L 2.7179667968750003 7.060549804687501  L 2.7229082031250003 7.060549804687501  L 2.7179667968750003 1.643833984375  Z M 10.301736328125001 4.5983974609375  L 7.7738095703125 2.1362451171875  L 7.7738095703125 4.5983974609375  L 10.301736328125001 4.5983974609375  Z M 3.223580078125 7.060549804687501  L 3.223580078125 10.507578125  L 10.301736328125001 10.507578125  L 10.301736328125001 5.0908515625  L 7.2682392578125 5.0908515625  L 7.2682392578125 2.1362451171875003  L 3.2235908203125 2.1362451171875003  L 3.2235908203125 7.060549804687501  Z M 9.34316796875 6.199670898437501  L 9.34316796875 6.7076259765624995  L 4.25953515625 6.7076259765624995  L 4.25953515625 6.199670898437501  L 9.34316796875 6.199670898437501  Z M 9.34316796875 7.7238369140625  L 4.25953515625 7.7238369140625  L 4.25953515625 7.215785156250001  L 9.34316796875 7.215785156250001  L 9.34316796875 7.723847656250001  Z M 9.34316796875 8.231802734375  L 9.34316796875 8.7397685546875  L 4.25953515625 8.7397685546875  L 4.25953515625 8.231802734375  L 9.34316796875 8.231802734375  Z " fill-rule="nonzero" fill="#2c2c2c" stroke="none" transform="matrix(1 0 0 1 319 152 )" />
  </g>
</svg>