<?xml version="1.0" encoding="utf-8"?>
<svg version="1.1" xmlns:xlink="http://www.w3.org/1999/xlink" width="12px" height="10px" xmlns="http://www.w3.org/2000/svg">
  <g transform="matrix(1 0 0 1 -292 -153 )">
    <path d="M 8.880666671875 0.6786666718749998  L 8.934666671875 0.6280000000000001  C 9.126162967437683 0.47096340447775153  9.403761884315669 0.4777686895762221  9.587333328125 0.6440000000000001  L 9.638 0.697333328125  L 11.571333328125 3.055333328125  C 11.644761577904406 3.144766246898734  11.684897083284913 3.256899033840388  11.684897083284913 3.3726140061907985  C 11.684897083284913 3.622567622675141  11.5003137132916 3.834121492488504  11.252666671875 3.8680000000000003  L 11.184 4  L 0.786666671875 4  C 0.5105841710239214 3.8719153593008375  0.28681996064724036 3.6480825373229964  0.28681996064724036 3.3720000234974483  C 0.28681996064724036 3.122193642189118  0.4711918076547392 2.9107169247599103  0.7186666718749999 2.8766666718750002  L 0.786666671875 2.872  L 10.128 2.872  L 8.864666671875 1.3319999999999999  C 8.707244813952883 1.1403879046595469  8.714054071360593 0.8623432293945617  8.880666671875 0.6786666718749998  Z M 3.0906666718749998 9.306666671875  L 3.0373333281250003 9.357333328125  C 2.8457212327845474 9.514755186047116  2.5676765575195626 9.507945928639407  2.3840000000000003 9.341333328125  L 2.3333333281249997 9.286666671875  L 0.4006666718749998 6.928666671875  C 0.32723842209559306 6.839233753101265  0.28710291671508603 6.727100966159611  0.28710291671508603 6.611385993809201  C 0.28710291671508603 6.3614323773248564  0.4716862867083993 6.149878507511495  0.7193333281249998 6.116  L 0.7873333281249999 6  L 11.185333328125 6  C 11.461157001470294 6.112449750250425  11.684518043405088 6.336175295290337  11.684518043405088 6.611999335310383  C 11.684518043405088 6.8618075048568254  11.5001436279933 7.073285159854661  11.252666671875 7.107333328125  L 11.185333328125 7.112  L 1.843333328125 7.112  L 3.106666671875 8.653333328125  C 3.2640885388346916 8.844945426175302  3.2572792813337657 9.122990111896177  3.0906666718749998 9.306666671875  Z " fill-rule="nonzero" fill="#2c2c2c" stroke="none" transform="matrix(1 0 0 1 292 153 )" />
  </g>
</svg>