<?xml version="1.0" standalone="no"?><!DOCTYPE svg PUBLIC "-//W3C//DTD SVG 1.1//EN" "http://www.w3.org/Graphics/SVG/1.1/DTD/svg11.dtd"><svg t="1699423692462" class="icon" viewBox="0 0 1024 1024" version="1.1" xmlns="http://www.w3.org/2000/svg" p-id="7026" xmlns:xlink="http://www.w3.org/1999/xlink" width="200" height="200"><path d="M469.333333 170.666667C304.384 170.666667 170.666667 304.384 170.666667 469.333333s133.717333 298.666667 298.666666 298.666667 298.666667-133.717333 298.666667-298.666667S634.282667 170.666667 469.333333 170.666667zM85.333333 469.333333c0-212.074667 171.925333-384 384-384s384 171.925333 384 384-171.925333 384-384 384S85.333333 681.408 85.333333 469.333333z" fill="#000000" p-id="7027"></path><path d="M725.333333 665.002667l211.2 211.2L876.16 936.533333l-211.2-211.2L725.333333 665.002667zM362.666667 469.333333v170.666667h-85.333334v-170.666667h85.333334zM512 298.666667v341.333333h-85.333333V298.666667h85.333333zM661.333333 384v256h-85.333333V384h85.333333z" fill="#000000" p-id="7028"></path></svg>