<?xml version="1.0" encoding="utf-8"?>
<svg version="1.1" xmlns:xlink="http://www.w3.org/1999/xlink" width="16px" height="16px" xmlns="http://www.w3.org/2000/svg">
  <g transform="matrix(1 0 0 1 -18 -217 )">
    <path d="M 26 217  C 30.48 217  34 220.52  34 225  C 34 229.48  30.48 233  26 233  C 21.52 233  18 229.48  18 225  C 18 220.52  21.52 217  26 217  Z " fill-rule="nonzero" fill="#f2f2f2" stroke="none" />
    <path d="M 26 217.5  C 30.200000000000003 217.5  33.5 220.8  33.5 225  C 33.5 229.2  30.200000000000003 232.5  26 232.5  C 21.8 232.5  18.5 229.2  18.5 225  C 18.5 220.8  21.8 217.5  26 217.5  Z " stroke-width="1" stroke="#797979" fill="none" />
  </g>
</svg>