<?xml version="1.0" encoding="utf-8"?>
<svg version="1.1" xmlns:xlink="http://www.w3.org/1999/xlink" width="12px" height="10px" xmlns="http://www.w3.org/2000/svg">
  <g transform="matrix(1 0 0 1 -338 -222 )">
    <path d="M 11.2225 9.459583337890628  L 10.694583337890624 9.704583337890623  C 10.605746898552784 9.449114374271659  10.548924656895577 9.183617359840715  10.525416662109375 8.914166662109377  C 10.3825 7.94875  10.11708332421875 6.152083324218751  8.92125 4.539166662109376  C 8.6675 4.197916662109376  8.53625 4.247500000000001  8.457500000000001 4.276666662109376  C 8.352865746750084 4.305543287067033  8.261263561904995 4.369356045536882  8.197916662109375 4.457500000000001  L 7.649583337890624 4.256250000000001  C 7.763168952177882 4.000485711590638  7.984274468590657 3.808220045144747  8.253333337890625 3.731250000000001  C 8.664583337890626 3.5766666621093766  9.04666667578125 3.731250000000001  9.387916662109376 4.192083337890626  C 10.67125 5.924583337890627  10.95125 7.817500000000003  11.102916662109376 8.832500000000003  C 11.1258655634088 9.04440108031569  11.165856149580192 9.254107806210028  11.2225 9.459583337890628  Z M 1.6499999999999995 6.869583337890624  L 1.1075 7.0912500000000005  C 0.2749365068966494 5.096476903086936  -0.08733132434992008 2.936841679253514  0.04875000000000007 0.779583337890625  L 0.6320833378906254 0.8437500000000004  C 0.5136407968762864 2.903367059771602  0.8615916696330306 4.963156477758792  1.6499999999999995 6.869583337890624  Z " fill-rule="nonzero" fill="#2c2c2c" stroke="none" transform="matrix(1 0 0 1 338 222 )" />
  </g>
</svg>