<?xml version="1.0" encoding="utf-8"?>
<svg version="1.1" xmlns:xlink="http://www.w3.org/1999/xlink" width="13px" height="13px" viewBox="177 150  13 13" xmlns="http://www.w3.org/2000/svg">
  <path d="M 183.5 150  C 187.14 150  190 152.86  190 156.5  C 190 160.14  187.14 163  183.5 163  C 179.86 163  177 160.14  177 156.5  C 177 152.86  179.86 150  183.5 150  Z " fill-rule="nonzero" fill="#ffffff" stroke="none" />
  <path d="M 183.5 150.5  C 186.86 150.5  189.5 153.14  189.5 156.5  C 189.5 159.86  186.86 162.5  183.5 162.5  C 180.14 162.5  177.5 159.86  177.5 156.5  C 177.5 153.14  180.14 150.5  183.5 150.5  Z " stroke-width="1" stroke="#797979" fill="none" />
  <path d="M 183.5 159.75  C 181.68 159.75  180.25 158.32  180.25 156.5  C 180.25 154.68  181.68 153.25  183.5 153.25  C 185.32 153.25  186.75 154.68  186.75 156.5  C 186.75 158.32  185.32 159.75  183.5 159.75  " fill-rule="nonzero" fill="#797979" stroke="none" />
</svg>