<?xml version="1.0" encoding="utf-8"?>
<svg version="1.1" xmlns:xlink="http://www.w3.org/1999/xlink" width="13px" height="13px" viewBox="43 150  13 13" xmlns="http://www.w3.org/2000/svg">
  <path d="M 49.5 150  C 53.14 150  56 152.86  56 156.5  C 56 160.14  53.14 163  49.5 163  C 45.86 163  43 160.14  43 156.5  C 43 152.86  45.86 150  49.5 150  Z " fill-rule="nonzero" fill="#f0f0f0" stroke="none" />
  <path d="M 49.5 150.5  C 52.86 150.5  55.5 153.14  55.5 156.5  C 55.5 159.86  52.86 162.5  49.5 162.5  C 46.14 162.5  43.5 159.86  43.5 156.5  C 43.5 153.14  46.14 150.5  49.5 150.5  Z " stroke-width="1" stroke="#797979" fill="none" />
  <path d="M 49.5 159.75  C 47.68 159.75  46.25 158.32  46.25 156.5  C 46.25 154.68  47.68 153.25  49.5 153.25  C 51.32 153.25  52.75 154.68  52.75 156.5  C 52.75 158.32  51.32 159.75  49.5 159.75  " fill-rule="nonzero" fill="#797979" stroke="none" />
</svg>