<?xml version="1.0" encoding="utf-8"?>
<svg version="1.1" xmlns:xlink="http://www.w3.org/1999/xlink" width="13px" height="13px" viewBox="762 116  13 13" xmlns="http://www.w3.org/2000/svg">
  <path d="M 768.5 116  C 772.14 116  775 118.86  775 122.5  C 775 126.14  772.14 129  768.5 129  C 764.86 129  762 126.14  762 122.5  C 762 118.86  764.86 116  768.5 116  Z " fill-rule="nonzero" fill="#ffffff" stroke="none" />
  <path d="M 768.5 116.5  C 771.86 116.5  774.5 119.14  774.5 122.5  C 774.5 125.86  771.86 128.5  768.5 128.5  C 765.14 128.5  762.5 125.86  762.5 122.5  C 762.5 119.14  765.14 116.5  768.5 116.5  Z " stroke-width="1" stroke="#797979" fill="none" />
  <path d="M 768.5 125.75  C 766.68 125.75  765.25 124.32  765.25 122.5  C 765.25 120.68  766.68 119.25  768.5 119.25  C 770.32 119.25  771.75 120.68  771.75 122.5  C 771.75 124.32  770.32 125.75  768.5 125.75  " fill-rule="nonzero" fill="#797979" stroke="none" />
</svg>