<svg t="1708305260116" class="icon" viewBox="0 0 1024 1024" version="1.1" xmlns="http://www.w3.org/2000/svg" p-id="6476" width="200" height="200"><path d="M203.3152 204.8H128a25.6 25.6 0 1 1 0-51.2h256A76.8 76.8 0 0 1 460.8 76.8h102.4A76.8 76.8 0 0 1 640 153.6h256a25.6 25.6 0 1 1 0 51.2h-75.3152a76.4928 76.4928 0 0 1 19.2512 57.7536l-9.5232 111.2576a25.6 25.6 0 0 1-50.9952-4.352L788.992 256a25.6 25.6 0 0 0-25.6-25.6H260.5568a25.6 25.6 0 0 0-25.4976 27.8016l52.6848 614.4a25.6 25.6 0 0 0 25.4976 23.3984h397.5168a25.6 25.6 0 0 0 25.4976-23.3984l30.7712-359.0144a25.6 25.6 0 0 1 51.0464 4.352l-30.7712 359.0144a76.8 76.8 0 0 1-76.544 70.2464H313.2416a76.8 76.8 0 0 1-76.544-70.2464l-52.6336-614.4c-1.8944-21.9648 5.632-42.496 19.2512-57.7536zM588.8 153.6a25.6 25.6 0 0 0-25.6-25.6H460.8a25.6 25.6 0 0 0-25.6 25.6h153.6zM512 358.4a25.6 25.6 0 0 1 25.6 25.6v358.4a25.6 25.6 0 1 1-51.2 0v-358.4A25.6 25.6 0 0 1 512 358.4z m142.9504 0.3072a23.9616 23.9616 0 0 1 23.9616 25.5488l-22.9888 352.1024a27.3408 27.3408 0 0 1-27.2384 25.5488 23.9616 23.9616 0 0 1-23.9616-25.5488l22.9888-352.1024a27.3408 27.3408 0 0 1 27.2384-25.6zM369.0496 358.4c14.3872 0 26.3168 11.1616 27.2384 25.5488l22.9888 352.1024a23.9616 23.9616 0 0 1-23.9616 25.6 27.3408 27.3408 0 0 1-27.2384-25.6L345.088 384A23.9616 23.9616 0 0 1 369.0496 358.4z" fill="#ffffff" p-id="6477"></path></svg>