<?xml version="1.0" encoding="utf-8"?>
<svg version="1.1" xmlns:xlink="http://www.w3.org/1999/xlink" width="11px" height="14px" xmlns="http://www.w3.org/2000/svg">
  <g transform="matrix(1 0 0 1 -405 -103 )">
    <path d="M 4 13.76570251862282  L 4 0.02076233194040692  L 3.188928529986213 0.02076233194040692  L 3.188928529986213 12.330791401707849  C 2.360279124540441 11.231270471475291  1.2676717715992645 10.363265590933864  0.01176779785156277 9.834052570857557  L 0.01176779785156277 10.819190652252905  C 1.367779859834559 11.477379483103197  2.484650291532629 12.589189489462209  3.188928529986213 13.970414841478924  L 3.188928529986213 13.973721527525436  L 4.055491317210478 13.973721527525436  L 4.055491317210478 13.766306465752178  C 4.055648216337316 13.766019960483284  4.0555689611098344 13.765862050327033  4 13.76570251862282  Z M 10.988230227481615 3.178886064680232  C 9.631951032571234 2.520680461936773  8.51496897690717 1.4086327875181686  7.810596918083641 0.02712093023255797  L 7.810596918083641 0.020761918604650997  L 7 0.020761918604651142  L 7 13.97370523255814  L 7.810597139246324 13.97370523255814  L 7.810597139246324 1.666760537790698  C 8.639293462775735 2.7665354151526165  9.73205934196921 3.634716122365553  10.988230227481615 4.163912863372093  L 10.988230227481615 3.178886064680232  Z " fill-rule="nonzero" fill="#000000" stroke="none" transform="matrix(1 0 0 1 405 103 )" />
  </g>
</svg>