<?xml version="1.0" encoding="utf-8"?>
<svg version="1.1" xmlns:xlink="http://www.w3.org/1999/xlink" width="13px" height="13px" viewBox="153 124  13 13" xmlns="http://www.w3.org/2000/svg">
  <path d="M 159.5 124  C 163.14 124  166 126.86  166 130.5  C 166 134.14  163.14 137  159.5 137  C 155.86 137  153 134.14  153 130.5  C 153 126.86  155.86 124  159.5 124  Z " fill-rule="nonzero" fill="#ffffff" stroke="none" />
  <path d="M 159.5 124.5  C 162.86 124.5  165.5 127.14  165.5 130.5  C 165.5 133.86  162.86 136.5  159.5 136.5  C 156.14 136.5  153.5 133.86  153.5 130.5  C 153.5 127.14  156.14 124.5  159.5 124.5  Z " stroke-width="1" stroke="#64cce1" fill="none" />
  <path d="M 159.5 133.75  C 157.68 133.75  156.25 132.32  156.25 130.5  C 156.25 128.68  157.68 127.25  159.5 127.25  C 161.32 127.25  162.75 128.68  162.75 130.5  C 162.75 132.32  161.32 133.75  159.5 133.75  " fill-rule="nonzero" fill="#64cce1" stroke="none" />
</svg>