<?xml version="1.0" encoding="utf-8"?>
<svg version="1.1" xmlns:xlink="http://www.w3.org/1999/xlink" width="13px" height="13px" viewBox="231 124  13 13" xmlns="http://www.w3.org/2000/svg">
  <path d="M 237.5 124  C 241.14 124  244 126.86  244 130.5  C 244 134.14  241.14 137  237.5 137  C 233.86 137  231 134.14  231 130.5  C 231 126.86  233.86 124  237.5 124  Z " fill-rule="nonzero" fill="#ffffff" stroke="none" />
  <path d="M 237.5 124.5  C 240.86 124.5  243.5 127.14  243.5 130.5  C 243.5 133.86  240.86 136.5  237.5 136.5  C 234.14 136.5  231.5 133.86  231.5 130.5  C 231.5 127.14  234.14 124.5  237.5 124.5  Z " stroke-width="1" stroke="#64cce1" fill="none" />
  <path d="M 237.5 133.75  C 235.68 133.75  234.25 132.32  234.25 130.5  C 234.25 128.68  235.68 127.25  237.5 127.25  C 239.32 127.25  240.75 128.68  240.75 130.5  C 240.75 132.32  239.32 133.75  237.5 133.75  " fill-rule="nonzero" fill="#64cce1" stroke="none" />
</svg>