<?xml version="1.0" encoding="utf-8"?>
<svg version="1.1" xmlns:xlink="http://www.w3.org/1999/xlink" width="556px" height="309px" xmlns="http://www.w3.org/2000/svg">
  <g transform="matrix(1 0 0 1 -29 -20 )">
    <path d="M 29 20  L 585 20  L 585 329  L 29 329  L 29 20  " fill-rule="nonzero" fill="#cccccc" stroke="none" />
    <path d="M 51 42  L 563 42  L 563 307  L 51 307  L 51 42  " fill-rule="nonzero" fill="#ffffff" stroke="none" />
    <path d="M 341.295 112.69999999999999  C 328.317 112.69999999999999  318.12 102.50299999999999  318.12 89.52499999999999  C 318.12 76.547  328.317 66.35  341.295 66.35  C 354.273 66.35  364.47 76.547  364.47 89.52499999999999  C 364.47 102.50299999999999  354.273 112.69999999999999  341.295 112.69999999999999  " fill-rule="nonzero" fill="#cccccc" stroke="none" />
    <path d="M 59 300  L 59 162.5  L 183.25 100  L 357.2 216.636690647482  L 456.6 137.5  L 556 216.636690647482  L 556 300  L 59 300  " fill-rule="nonzero" fill="#169bd5" stroke="none" />
  </g>
</svg>