<?xml version="1.0" encoding="utf-8"?>
<svg version="1.1" xmlns:xlink="http://www.w3.org/1999/xlink" width="13px" height="13px" viewBox="191 74  13 13" xmlns="http://www.w3.org/2000/svg">
  <path d="M 197.5 74  C 201.14 74  204 76.86  204 80.5  C 204 84.14  201.14 87  197.5 87  C 193.86 87  191 84.14  191 80.5  C 191 76.86  193.86 74  197.5 74  Z " fill-rule="nonzero" fill="#ffffff" stroke="none" />
  <path d="M 197.5 74.5  C 200.86 74.5  203.5 77.14  203.5 80.5  C 203.5 83.86  200.86 86.5  197.5 86.5  C 194.14 86.5  191.5 83.86  191.5 80.5  C 191.5 77.14  194.14 74.5  197.5 74.5  Z " stroke-width="1" stroke="#797979" fill="none" />
  <path d="M 197.5 83.75  C 195.68 83.75  194.25 82.32  194.25 80.5  C 194.25 78.68  195.68 77.25  197.5 77.25  C 199.32 77.25  200.75 78.68  200.75 80.5  C 200.75 82.32  199.32 83.75  197.5 83.75  " fill-rule="nonzero" fill="#797979" stroke="none" />
</svg>