<?xml version="1.0" encoding="utf-8"?>
<svg version="1.1" xmlns:xlink="http://www.w3.org/1999/xlink" width="13px" height="13px" viewBox="66 47  13 13" xmlns="http://www.w3.org/2000/svg">
  <path d="M 72.5 47  C 76.14 47  79 49.86  79 53.5  C 79 57.14  76.14 60  72.5 60  C 68.86 60  66 57.14  66 53.5  C 66 49.86  68.86 47  72.5 47  Z " fill-rule="nonzero" fill="#ffffff" stroke="none" />
  <path d="M 72.5 47.5  C 75.86 47.5  78.5 50.14  78.5 53.5  C 78.5 56.86  75.86 59.5  72.5 59.5  C 69.14 59.5  66.5 56.86  66.5 53.5  C 66.5 50.14  69.14 47.5  72.5 47.5  Z " stroke-width="1" stroke="#64cce1" fill="none" />
  <path d="M 72.5 56.75  C 70.68 56.75  69.25 55.32  69.25 53.5  C 69.25 51.68  70.68 50.25  72.5 50.25  C 74.32 50.25  75.75 51.68  75.75 53.5  C 75.75 55.32  74.32 56.75  72.5 56.75  " fill-rule="nonzero" fill="#64cce1" stroke="none" />
</svg>