<?xml version="1.0" encoding="utf-8"?>
<svg version="1.1" xmlns:xlink="http://www.w3.org/1999/xlink" width="13px" height="13px" viewBox="223 47  13 13" xmlns="http://www.w3.org/2000/svg">
  <path d="M 229.5 47  C 233.14 47  236 49.86  236 53.5  C 236 57.14  233.14 60  229.5 60  C 225.86 60  223 57.14  223 53.5  C 223 49.86  225.86 47  229.5 47  Z " fill-rule="nonzero" fill="#ffffff" stroke="none" />
  <path d="M 229.5 47.5  C 232.86 47.5  235.5 50.14  235.5 53.5  C 235.5 56.86  232.86 59.5  229.5 59.5  C 226.14 59.5  223.5 56.86  223.5 53.5  C 223.5 50.14  226.14 47.5  229.5 47.5  Z " stroke-width="1" stroke="#64cce1" fill="none" />
  <path d="M 229.5 56.75  C 227.68 56.75  226.25 55.32  226.25 53.5  C 226.25 51.68  227.68 50.25  229.5 50.25  C 231.32 50.25  232.75 51.68  232.75 53.5  C 232.75 55.32  231.32 56.75  229.5 56.75  " fill-rule="nonzero" fill="#64cce1" stroke="none" />
</svg>