<?xml version="1.0" encoding="utf-8"?>
<svg version="1.1" xmlns:xlink="http://www.w3.org/1999/xlink" width="13px" height="13px" viewBox="145 47  13 13" xmlns="http://www.w3.org/2000/svg">
  <path d="M 151.5 47  C 155.14 47  158 49.86  158 53.5  C 158 57.14  155.14 60  151.5 60  C 147.86 60  145 57.14  145 53.5  C 145 49.86  147.86 47  151.5 47  Z " fill-rule="nonzero" fill="#ffffff" stroke="none" />
  <path d="M 151.5 47.5  C 154.86 47.5  157.5 50.14  157.5 53.5  C 157.5 56.86  154.86 59.5  151.5 59.5  C 148.14 59.5  145.5 56.86  145.5 53.5  C 145.5 50.14  148.14 47.5  151.5 47.5  Z " stroke-width="1" stroke="#64cce1" fill="none" />
  <path d="M 151.5 56.75  C 149.68 56.75  148.25 55.32  148.25 53.5  C 148.25 51.68  149.68 50.25  151.5 50.25  C 153.32 50.25  154.75 51.68  154.75 53.5  C 154.75 55.32  153.32 56.75  151.5 56.75  " fill-rule="nonzero" fill="#64cce1" stroke="none" />
</svg>