<?xml version="1.0" encoding="utf-8"?>
<svg version="1.1" xmlns:xlink="http://www.w3.org/1999/xlink" width="25px" height="25px" xmlns="http://www.w3.org/2000/svg">
  <g transform="matrix(1 0 0 1 -533 -385 )">
    <path d="M 545.5 385  C 552.5 385  558 390.5  558 397.5  C 558 404.5  552.5 410  545.5 410  C 538.5 410  533 404.5  533 397.5  C 533 390.5  538.5 385  545.5 385  Z " fill-rule="nonzero" fill="#ffffff" stroke="none" />
    <path d="M 545.5 385.5  C 552.22 385.5  557.5 390.78  557.5 397.5  C 557.5 404.22  552.22 409.5  545.5 409.5  C 538.78 409.5  533.5 404.22  533.5 397.5  C 533.5 390.78  538.78 385.5  545.5 385.5  Z " stroke-width="1" stroke="#d7d7d7" fill="none" />
  </g>
</svg>