<?xml version="1.0" encoding="utf-8"?>
<svg version="1.1" xmlns:xlink="http://www.w3.org/1999/xlink" width="13px" height="13px" viewBox="137 227  13 13" xmlns="http://www.w3.org/2000/svg">
  <path d="M 143.5 227  C 147.14 227  150 229.86  150 233.5  C 150 237.14  147.14 240  143.5 240  C 139.86 240  137 237.14  137 233.5  C 137 229.86  139.86 227  143.5 227  Z " fill-rule="nonzero" fill="#f0f0f0" stroke="none" />
  <path d="M 143.5 227.5  C 146.86 227.5  149.5 230.14  149.5 233.5  C 149.5 236.86  146.86 239.5  143.5 239.5  C 140.14 239.5  137.5 236.86  137.5 233.5  C 137.5 230.14  140.14 227.5  143.5 227.5  Z " stroke-width="1" stroke="#797979" fill="none" />
  <path d="M 143.5 236.75  C 141.68 236.75  140.25 235.32  140.25 233.5  C 140.25 231.68  141.68 230.25  143.5 230.25  C 145.32 230.25  146.75 231.68  146.75 233.5  C 146.75 235.32  145.32 236.75  143.5 236.75  " fill-rule="nonzero" fill="#797979" stroke="none" />
</svg>