<?xml version="1.0" encoding="utf-8"?>
<svg version="1.1" xmlns:xlink="http://www.w3.org/1999/xlink" width="12px" height="8px" xmlns="http://www.w3.org/2000/svg">
  <g transform="matrix(1 0 0 1 -192 -96 )">
    <path d="M 11.751648000000001 2.319979428571429  C 11.751624000000001 2.032659428571429  11.529300000000001 1.7997360000000004  11.25504 1.7997360000000004  L 9.696192 2.352489142857143  L 9.696192 0.9169451428571429  C 9.696192 0.6296251428571428  9.473916000000001 0.3967017142857142  9.199644 0.3967017142857142  L 7.857203999999999 0.3967017142857142  L 2.976468 0.3967017142857142  L 0.8648399999999999 0.3967017142857142  C 0.59058 0.3967017142857142  0.36824399999999985 0.6296125714285716  0.36824399999999985 0.9169451428571429  L 0.36824399999999985 5.206392  L 0.36824399999999985 6.835460571428572  L 0.36172799999999994 7.136986285714286  C 0.36172799999999994 7.4242560000000015  0.5840519999999999 7.657229714285718  0.8583239999999999 7.657229714285718  L 6.508559999999999 7.657229714285713  L 9.199656 7.657229714285713  C 9.473916 7.657229714285713  9.696204 7.424268571428572  9.696204 7.136986285714286  L 9.696204 6.964166857142857  L 9.696204 6.141681142857144  L 11.255052 6.694384000000001  C 11.529312 6.694384000000001  11.751648000000001 6.461473142857145  11.751648000000001 6.174190857142859  L 11.751648000000001 2.319979428571429  Z M 6.7010760000000005 4.029932571428572  C 6.7022520000000005 4.112074285714286  6.66618 4.1892  6.603816 4.2387942857142855  L 4.7318880000000005 5.718589714285714  C 4.688616 5.752633142857143  4.636488 5.770182857142857  4.584408 5.770182857142857  C 4.547111999999999 5.770182857142857  4.509803999999999 5.761156571428572  4.475148 5.743154285714286  C 4.392227999999999 5.7000720000000005  4.339656 5.610902857142858  4.339656 5.513776  L 4.339656 2.644284571428571  C 4.339656 2.548641142857143  4.390812 2.460490285714285  4.472064 2.4164400000000006  C 4.552836 2.372854857142857  4.65108 2.379882285714286  4.7258640000000005 2.434957714285715  L 6.59784 3.824653714285714  C 6.661619999999999 3.8721862857142852  6.6998999999999995 3.9483439999999996  6.7010760000000005 4.029932571428572  Z " fill-rule="nonzero" fill="#2c2c2c" stroke="none" transform="matrix(1 0 0 1 192 96 )" />
  </g>
</svg>