<?xml version="1.0" encoding="utf-8"?>
<svg version="1.1" xmlns:xlink="http://www.w3.org/1999/xlink" width="10px" height="15px" xmlns="http://www.w3.org/2000/svg">
  <g transform="matrix(1 0 0 1 -231 -93 )">
    <path d="M 8.385416666666666 2.109375  L 1.6145833333333335 2.109375  C 1.3652897135416668 2.109375  1.1631944444444444 2.3192431640625  1.1631944444444444 2.578125  L 1.1631944444444444 12.421875  C 1.1631944444444444 12.6807568359375  1.3652897135416668 12.890625  1.6145833333333335 12.890625  L 8.385416666666666 12.890625  C 8.634710286458333 12.890625  8.836805555555555 12.6807568359375  8.836805555555555 12.421875  L 8.836805555555555 2.578125  C 8.836805555555555 2.3192431640625  8.634710286458333 2.109375  8.385416666666666 2.109375  Z M 0.034722222222222224 2.578125  C 0.034722222222222224 1.67203125  0.7420486111111114 0.9375  1.6145833333333335 0.9375  L 8.385416666666666 0.9375  C 9.25795138888889 0.9375  9.965277777777779 1.67203125  9.965277777777779 2.578125  L 9.965277777777779 12.421875  C 9.965277777777779 13.32796875  9.25795138888889 14.0625  8.385416666666666 14.0625  L 1.6145833333333335 14.0625  C 0.7420486111111114 14.0625  0.034722222222222224 13.32796875  0.034722222222222224 12.421875  L 0.034722222222222224 2.578125  Z M 7.28515625 4.74609375  L 2.71484375 4.74609375  C 2.4032302517361113 4.74609375  2.150607638888889 4.4837548828125  2.150607638888889 4.16015625  C 2.150607638888889 3.8365576171874998  2.4032302517361113 3.57421875  2.71484375 3.57421875  L 7.28515625 3.57421875  C 7.59676974826389 3.57421875  7.849392361111112 3.8365576171874998  7.849392361111112 4.16015625  C 7.849392361111112 4.4837548828125  7.59676974826389 4.74609375  7.28515625 4.74609375  Z M 7.28515625 8.0859375  L 2.71484375 8.0859375  C 2.4032302517361113 8.0859375  2.150607638888889 7.8235986328125  2.150607638888889 7.5  C 2.150607638888889 7.1764013671875  2.4032302517361113 6.9140625  2.71484375 6.9140625  L 7.28515625 6.9140625  C 7.59676974826389 6.9140625  7.849392361111112 7.1764013671875  7.849392361111112 7.5  C 7.849392361111112 7.8235986328125  7.59676974826389 8.0859375  7.28515625 8.0859375  Z M 5.310329861111112 11.42578125  L 2.71484375 11.42578125  C 2.4032302517361113 11.42578125  2.150607638888889 11.163442382812502  2.150607638888889 10.83984375  C 2.150607638888889 10.516245117187498  2.4032302517361113 10.25390625  2.71484375 10.25390625  L 5.310329861111112 10.25390625  C 5.621943359375 10.25390625  5.874565972222222 10.516245117187498  5.874565972222222 10.83984375  C 5.874565972222222 11.163442382812502  5.621943359375 11.42578125  5.310329861111112 11.42578125  Z " fill-rule="nonzero" fill="#81d3f8" stroke="none" fill-opacity="0.49019607843137253" transform="matrix(1 0 0 1 231 93 )" />
  </g>
</svg>