<?xml version="1.0" encoding="utf-8"?>
<svg version="1.1" xmlns:xlink="http://www.w3.org/1999/xlink" width="14px" height="14px" xmlns="http://www.w3.org/2000/svg">
  <g transform="matrix(1 0 0 1 -433 -95 )">
    <path d="M 3.7012500000000004 0.830375  L 5.718125000000001 6.125  L 4.962125 6.125  L 4.42225 4.676  L 2.2172500000000004 4.676  L 1.7088750000000001 6.125  L 0.9528749999999999 6.125  L 2.9697500000000003 0.830375  L 3.7012500000000004 0.830375  Z M 2.4333750000000003 4.077500000000001  L 4.210500000000001 4.077500000000001  L 3.4107499999999997 1.876875  C 3.3739180254738126 1.7560795336298747  3.346420453110059 1.6326329853585513  3.3285 1.507625  L 3.3110000000000004 1.507625  C 3.2865 1.666875  3.2585 1.789375  3.2261249999999997 1.876875  L 2.4333750000000003 4.077500000000001  Z M 11.045124999999999 13.124999999999998  L 9.13675 13.125  L 9.13675 7.772625  L 10.996125 7.772625  C 11.55175 7.772625  11.99625 7.884625  12.327000000000002 8.109499999999999  C 12.659500000000001 8.334374999999998  12.825750000000001 8.63275  12.825750000000001 9.002874999999998  C 12.825750000000001 9.297749999999997  12.726875000000001 9.557624999999996  12.529125 9.784249999999997  C 12.331374999999998 10.009999999999998  12.060125000000001 10.169249999999998  11.713625 10.264625  L 11.713625 10.278624999999998  C 12.144124999999999 10.319749999999999  12.488 10.457125  12.746125 10.691625  C 13.003374999999998 10.926125  13.131124999999999 11.221874999999997  13.131124999999999 11.581499999999998  C 13.131124999999999 12.042624999999997  12.936 12.415375  12.544874999999998 12.699749999999998  C 12.156374999999999 12.98325  11.655000000000001 13.124999999999998  11.045124999999999 13.124999999999998  Z M 9.954875000000001 8.37725  L 9.954875000000001 10.052874999999998  L 10.698624999999998 10.052874999999998  C 11.093250000000003 10.052874999999998  11.403875000000001 9.9715  11.627875 9.809624999999999  C 11.848127633769169 9.656651499559478  11.975397779909084 9.402111207279647  11.965625 9.134125000000001  C 11.965625 8.630125  11.568374999999998 8.378124999999999  10.773 8.378124999999999  L 9.954875000000001 8.378124999999999  Z M 10.799249999999999 10.654875  L 9.954875000000001 10.654875  L 9.954875000000001 12.520375  L 10.934875 12.520375  C 11.361875 12.520375  11.692625 12.437249999999999  11.926250000000001 12.270125000000002  C 12.153986262381846 12.112947773845951  12.28539997650587 11.850120345597912  12.2745 11.573624999999998  C 12.2745 10.961125000000001  11.78275 10.654875  10.799249999999999 10.654875  Z M 8.137500000000001 11.0075  L 6.125 11.733750000000002  L 6.212499999999999 11.2175  C 4.241313154579508 10.717861644716434  2.8020112670119444 9.025804303722373  2.625 7  L 3.5 7  C 3.681121931730586 8.60083634327513  4.8171636427446005 9.93083639519398  6.369999999999998 10.359999999999998  L 6.50125 9.625  L 8.137500000000001 11.0075  Z " fill-rule="nonzero" fill="#212121" stroke="none" transform="matrix(1 0 0 1 433 95 )" />
  </g>
</svg>