<?xml version="1.0" encoding="utf-8"?>
<svg version="1.1" xmlns:xlink="http://www.w3.org/1999/xlink" width="16px" height="17px" xmlns="http://www.w3.org/2000/svg">
  <g transform="matrix(1 0 0 1 -484 -93 )">
    <path d="M 3.528888890625 8.776029633072918  C 3.498666671875 9.218533333333333  3.317333328125 10.292177782942707  2.304 11.060829633072917  C 1.4951111093750005 11.674340749348957  0.5795555625000002 11.622333333333334  0 11.49363703359375  C 2.2142222187500002 12.337214816536457  2.3395555625000006 14.153948149869791  2.2124444375000003 15.175585183463541  C 3.0302222187500005 12.513511116276039  5.981333328124999 13.090881483203125  6.519111109374999 13.220459266145834  C 3.7226666718750003 12.47648889921875  3.528888890625 9.571125932812503  3.5297777812500004 8.77602963307292  Z M 13.935999999999998 2.3641333333333323  C 13.6 2.4434666666666667  12.760888890625 2.430244449609375  11.9635555625 1.860807400520833  C 11.328 1.405962950911458  11.178666671875002 0.45660740052083293  11.14577778125 0  C 11.009777781250003 1.8237851834635412  9.67022221875 2.5977259328124993  8.881777781250001 2.7378814832031244  C 11.100444453125002 2.7290666666666663  11.281777781250002 5.154022217057291  11.295111109375 5.488103700260416  C 11.208888890625 3.237681483203124  13.342222218749999 2.547481483203124  13.936888890625 2.364133333333332  Z M 16 9.216770366927083  C 15.104888890625 8.370548149869792  15.629333328125 7.250185183463543  15.792888890625003 6.955770366927083  C 15.587537747223948 7.275705437576455  15.252754378710156 7.491999367714643  14.874666671875001 7.549007400520833  C 14.450666671875002 7.609829617578125  14.123555562500002 7.402681467708334  13.936000000000002 7.23696296640625  C 14.583111109375002 8.00208889921875  14.256000000000002 8.698459266145834  14.000888890625001 9.049288883723959  C 14.867555562500002 8.211881483203125  15.866666671875 9.091600000000001  16 9.216770366927083  Z M 6.024 8.802474067187502  L 7.3395555625 7.490829633072917  L 5.74222221875 6.000244449609375  C 5.55461339043987 5.824700781255317  5.259088654400815 5.832983821979952  5.081777781250001 6.018755550390624  L 4.441777781250001 6.690444449609375  C 4.359801612507234 6.7761059279622105  4.314100839029887 6.889697867395953  4.314100839029887 7.007792940328932  C 4.314100839029887 7.134522032315993  4.3667074999821835 7.255662718505688  4.459555562500001 7.342740733854166  L 6.023111109375002 8.802474067187502  Z M 7.826666671874999 7.9465555503906256  L 6.511111109374999 9.257318516796875  L 13.45422221875 15.740614816536459  C 13.640888890624998 15.916029633072919  13.936888890625 15.908096299739583  14.114666671875 15.72298518346354  L 14.754666671875 15.051296299739583  C 14.836864068568056 14.965733413297015  14.882713648091364 14.852088853400776  14.882713648091364 14.73391405960901  C 14.882713648091364 14.607120105161492  14.829953062052857 14.485945468120983  14.736888890625 14.399000000000001  L 7.8275555625 7.9465555503906256  Z " fill-rule="nonzero" fill="#333333" stroke="none" transform="matrix(1 0 0 1 484 93 )" />
  </g>
</svg>