<?xml version="1.0" encoding="utf-8"?>
<svg version="1.1" xmlns:xlink="http://www.w3.org/1999/xlink" width="14px" height="14px" xmlns="http://www.w3.org/2000/svg">
  <g transform="matrix(1 0 0 1 -504 -62 )">
    <path d="M 0 12.444450520833334  L 0 14  L 14 14  L 14 12.444450520833334  L 0 12.444450520833334  Z M 3.111117187499999 7  L 0 3.8888828124999995  L 0 10.1111171875  L 3.111117187499999 7  Z M 6.222216145833334 9.333333333333332  L 6.222216145833334 10.8888828125  L 14 10.8888828125  L 14 9.333333333333332  L 6.222216145833334 9.333333333333332  Z M 14 0  L 0 0  L 0 1.5555494791666664  L 14 1.5555494791666664  L 14 0  Z M 6.222216145833334 3.111117187500001  L 6.222216145833334 4.666666666666666  L 14 4.666666666666666  L 14 3.111117187500001  L 6.222216145833334 3.111117187500001  Z M 6.222216145833334 6.222216145833334  L 6.222216145833334 7.7777838541666675  L 14 7.7777838541666675  L 14 6.222216145833334  L 6.222216145833334 6.222216145833334  Z " fill-rule="nonzero" fill="#81d3f8" stroke="none" fill-opacity="0.49019607843137253" transform="matrix(1 0 0 1 504 62 )" />
  </g>
</svg>