<?xml version="1.0" encoding="utf-8"?>
<svg version="1.1" xmlns:xlink="http://www.w3.org/1999/xlink" width="16px" height="14px" xmlns="http://www.w3.org/2000/svg">
  <g transform="matrix(1 0 0 1 -593 -61 )">
    <path d="M 8.01596805763473 2.333333333333333  L 8.01596805763473 0.7777777838541663  L 16 0.7777777838541663  L 16 2.333333333333333  L 8.01596805763473 2.333333333333333  Z M 6.419161676646707 3.1111111171875003  L 4.023952095808383 3.1111111171875003  L 4.023952095808383 6.222222216145834  L 2.427145714820359 6.222222216145834  L 2.427145714820359 3.1111111171875003  L 0.03193613398203588 3.1111111171875003  L 3.2255488959580836 0  L 6.419161676646707 3.1111111171875003  Z M 4.023952095808383 7.777777783854168  L 4.023952095808383 10.8888888828125  L 6.419161676646707 10.8888888828125  L 3.225548895958084 14  L 0.03193613398203622 10.8888888828125  L 2.4271457148203597 10.8888888828125  L 2.4271457148203597 7.777777783854168  L 4.023952095808383 7.777777783854168  Z M 8.01596805763473 13.222222216145832  L 8.015968057634732 11.666666666666668  L 16 11.666666666666668  L 16 13.222222216145832  L 8.01596805763473 13.222222216145832  Z M 6.419161676646707 7.777777783854166  L 6.419161676646708 6.222222216145833  L 16 6.222222216145833  L 16 7.777777783854166  L 6.419161676646707 7.777777783854166  Z " fill-rule="nonzero" fill="#000000" stroke="none" transform="matrix(1 0 0 1 593 61 )" />
  </g>
</svg>