<?xml version="1.0" encoding="utf-8"?>
<svg version="1.1" xmlns:xlink="http://www.w3.org/1999/xlink" width="3px" height="4px" xmlns="http://www.w3.org/2000/svg">
  <g transform="matrix(1 0 0 1 -529 -97 )">
    <path d="M 0.2703124999999993 1.02197265625  C 0.12255859375 1.1830078124999996  0.10097656249999964 1.4519531249999993  0.2703124999999993 1.6096679687499993  C 0.7517578124999993 2.0579101562499993  1.23486328125 2.5078125  1.71630859375 2.9560546875  C 1.7843750000000007 3.0191406250000004  1.8541015624999986 3.0838867187499996  1.9221679687499993 3.14697265625  C 2.08154296875 3.2947265624999993  2.3538085937499993 3.3163085937499996  2.5098632812499986 3.14697265625  C 2.6576171874999996 2.9859375000000004  2.67919921875 2.7186523437499996  2.5098632812499986 2.5592773437500007  C 2.0284179687499986 2.1110351562500007  1.5453124999999996 1.6611328125  1.0638671874999996 1.212890625  C 0.9958007812499989 1.1498046874999996  0.9260742187499993 1.0850585937500004  0.8580078124999986 1.02197265625  C 0.6986328124999996 0.8742187500000007  0.4263671874999986 0.8526367187500004  0.2703124999999993 1.02197265625  Z " fill-rule="nonzero" fill="#2c2c2c" stroke="none" transform="matrix(1 0 0 1 529 97 )" />
  </g>
</svg>