<?xml version="1.0" encoding="utf-8"?>
<svg version="1.1" xmlns:xlink="http://www.w3.org/1999/xlink" width="9px" height="9px" xmlns="http://www.w3.org/2000/svg">
  <g transform="matrix(1 0 0 1 -270 -94 )">
    <path d="M 7.747915158482142 5.2761288164062545  C 8.866376311941963 4.158500248325893  8.866376311941963 2.330081055803571  7.748732360491072 1.2124525329241074  L 7.700458228794641 1.1641784012276788  C 6.582829690848213 0.04653444977678582  4.754441340401785 0.04653444977678582  3.6367973889508916 1.1641784012276788  L 1.047848705357143 3.7538825876116078  C -0.06979524609375012 4.871526539062501  -0.1313443677455361 6.485464285714287  0.986299583705357 7.603832897879466  L 1.0338027991071423 7.650611467633929  C 1.0845592433035711 7.7013524983258925  1.1372429481026787 7.749194916294641  1.1910213431919643 7.795079231584823  C 1.2299520887276785 7.838558316964285  1.2756822237723209 7.8757776662946455  1.3265157656250008 7.905210845424108  C 1.3269012237723214 7.90551920591518  1.3273020954241082 7.905842994977679  1.3276875385044637 7.906151355468751  C 1.4088793409598215 7.95259072265625  1.50276026953125 7.979387424107143  1.6029471897321432 7.979387424107143  C 1.9082567561383939 7.979387424107143  2.155748383928571 7.731864954241072  2.155748383928571 7.426586229910717  C 2.155748383928571 7.340414373883931  2.1360131919642855 7.258852526785715  2.10082904296875 7.186140683035717  C 2.0277471696428564 7.022045651785717  1.8909422075892852 6.922151663504467  1.7963212198660714 6.827515262276789  L 1.7488025758928565 6.780767534598217  C 1.1419300396205352 6.173894998325895  1.3723846372767845 5.2922099229910735  1.9792571886160717 4.685337371651788  L 4.569732276227677 2.0963732594866094  C 5.175109265624998 1.4894698811383948  6.162084667968749 1.4894698811383948  6.768988031249998 2.0963732594866094  L 6.817292989955355 2.1438764748883954  C 7.424180954799107 2.7507952667410738  7.424180954799107 3.7385415703125022  6.817292989955355 4.344674047433038  L 5.676922737723213 5.485815215959822  C 5.521785634486607 5.600757289620537  5.4211824140625 5.785127136160715  5.4211824140625 5.993009628348217  C 5.4211824140625 6.341412837053573  5.703626912946428 6.6238727645089295  6.052045550223216 6.6238727645089295  C 6.173309044084823 6.6238727645089295  6.286539706473215 6.589582869977681  6.382687083147323 6.5302847829241095  C 6.383411728794643 6.531518224888396  6.384090133928572 6.532659170758931  6.384814779575894 6.533908041294646  L 6.4024993577008935 6.517580258370539  C 6.4569869849330335 6.481100998325896  6.505384454799108 6.436311358258932  6.546072867187499 6.385107786830362  L 7.747915158482142 5.2761288164062545  Z " fill-rule="nonzero" fill="#81d3f8" stroke="none" fill-opacity="0.49019607843137253" transform="matrix(1 0 0 1 270 94 )" />
  </g>
</svg>