<?xml version="1.0" encoding="utf-8"?>
<svg version="1.1" xmlns:xlink="http://www.w3.org/1999/xlink" width="71px" height="62px" xmlns="http://www.w3.org/2000/svg">
  <g transform="matrix(1 0 0 1 -277 -357 )">
    <path d="M 277 357  L 348 357  L 348 419  L 277 419  L 277 357  " fill-rule="nonzero" fill="#cccccc" stroke="none" />
    <path d="M 281 361  L 344 361  L 344 415  L 281 415  L 281 361  " fill-rule="nonzero" fill="#ffffff" stroke="none" />
    <path d="M 318.57000000000005 375.6  C 315.966 375.6  313.92 373.55400000000003  313.92 370.95000000000005  C 313.92 368.346  315.966 366.3  318.57000000000005 366.3  C 321.17400000000004 366.3  323.22 368.346  323.22 370.95000000000005  C 323.22 373.55400000000003  321.17400000000004 375.6  318.57000000000005 375.6  " fill-rule="nonzero" fill="#cccccc" stroke="none" />
    <path d="M 283 414  L 283 385.95  L 298 373.2  L 319 387.2788732394366  L 331 380.85  L 343 387.2788732394366  L 343 414  L 283 414  " fill-rule="nonzero" fill="#169bd5" stroke="none" />
  </g>
</svg>