<?xml version="1.0" encoding="utf-8"?>
<svg version="1.1" xmlns:xlink="http://www.w3.org/1999/xlink" width="13px" height="13px" viewBox="268 214  13 13" xmlns="http://www.w3.org/2000/svg">
  <path d="M 274.5 214  C 278.14 214  281 216.86  281 220.5  C 281 224.14  278.14 227  274.5 227  C 270.86 227  268 224.14  268 220.5  C 268 216.86  270.86 214  274.5 214  Z " fill-rule="nonzero" fill="#ffffff" stroke="none" />
  <path d="M 274.5 214.5  C 277.86 214.5  280.5 217.14  280.5 220.5  C 280.5 223.86  277.86 226.5  274.5 226.5  C 271.14 226.5  268.5 223.86  268.5 220.5  C 268.5 217.14  271.14 214.5  274.5 214.5  Z " stroke-width="1" stroke="#64cce1" fill="none" />
  <path d="M 274.5 223.75  C 272.68 223.75  271.25 222.32  271.25 220.5  C 271.25 218.68  272.68 217.25  274.5 217.25  C 276.32 217.25  277.75 218.68  277.75 220.5  C 277.75 222.32  276.32 223.75  274.5 223.75  " fill-rule="nonzero" fill="#64cce1" stroke="none" />
</svg>