<?xml version="1.0" encoding="utf-8"?>
<svg version="1.1" xmlns:xlink="http://www.w3.org/1999/xlink" width="13px" height="13px" viewBox="347 214  13 13" xmlns="http://www.w3.org/2000/svg">
  <path d="M 353.5 214  C 357.14 214  360 216.86  360 220.5  C 360 224.14  357.14 227  353.5 227  C 349.86 227  347 224.14  347 220.5  C 347 216.86  349.86 214  353.5 214  Z " fill-rule="nonzero" fill="#ffffff" stroke="none" />
  <path d="M 353.5 214.5  C 356.86 214.5  359.5 217.14  359.5 220.5  C 359.5 223.86  356.86 226.5  353.5 226.5  C 350.14 226.5  347.5 223.86  347.5 220.5  C 347.5 217.14  350.14 214.5  353.5 214.5  Z " stroke-width="1" stroke="#64cce1" fill="none" />
  <path d="M 353.5 223.75  C 351.68 223.75  350.25 222.32  350.25 220.5  C 350.25 218.68  351.68 217.25  353.5 217.25  C 355.32 217.25  356.75 218.68  356.75 220.5  C 356.75 222.32  355.32 223.75  353.5 223.75  " fill-rule="nonzero" fill="#64cce1" stroke="none" />
</svg>