<?xml version="1.0" encoding="utf-8"?>
<svg version="1.1" xmlns:xlink="http://www.w3.org/1999/xlink" width="13px" height="13px" viewBox="425 214  13 13" xmlns="http://www.w3.org/2000/svg">
  <path d="M 431.5 214  C 435.14 214  438 216.86  438 220.5  C 438 224.14  435.14 227  431.5 227  C 427.86 227  425 224.14  425 220.5  C 425 216.86  427.86 214  431.5 214  Z " fill-rule="nonzero" fill="#ffffff" stroke="none" />
  <path d="M 431.5 214.5  C 434.86 214.5  437.5 217.14  437.5 220.5  C 437.5 223.86  434.86 226.5  431.5 226.5  C 428.14 226.5  425.5 223.86  425.5 220.5  C 425.5 217.14  428.14 214.5  431.5 214.5  Z " stroke-width="1" stroke="#64cce1" fill="none" />
  <path d="M 431.5 223.75  C 429.68 223.75  428.25 222.32  428.25 220.5  C 428.25 218.68  429.68 217.25  431.5 217.25  C 433.32 217.25  434.75 218.68  434.75 220.5  C 434.75 222.32  433.32 223.75  431.5 223.75  " fill-rule="nonzero" fill="#64cce1" stroke="none" />
</svg>