<?xml version="1.0" encoding="utf-8"?>
<svg version="1.1" xmlns:xlink="http://www.w3.org/1999/xlink" width="13px" height="13px" viewBox="268 241  13 13" xmlns="http://www.w3.org/2000/svg">
  <path d="M 274.5 241  C 278.14 241  281 243.86  281 247.5  C 281 251.14  278.14 254  274.5 254  C 270.86 254  268 251.14  268 247.5  C 268 243.86  270.86 241  274.5 241  Z " fill-rule="nonzero" fill="#ffffff" stroke="none" />
  <path d="M 274.5 241.5  C 277.86 241.5  280.5 244.14  280.5 247.5  C 280.5 250.86  277.86 253.5  274.5 253.5  C 271.14 253.5  268.5 250.86  268.5 247.5  C 268.5 244.14  271.14 241.5  274.5 241.5  Z " stroke-width="1" stroke="#64cce1" fill="none" />
  <path d="M 274.5 250.75  C 272.68 250.75  271.25 249.32  271.25 247.5  C 271.25 245.68  272.68 244.25  274.5 244.25  C 276.32 244.25  277.75 245.68  277.75 247.5  C 277.75 249.32  276.32 250.75  274.5 250.75  " fill-rule="nonzero" fill="#64cce1" stroke="none" />
</svg>