<?xml version="1.0" encoding="utf-8"?>
<svg version="1.1" xmlns:xlink="http://www.w3.org/1999/xlink" width="13px" height="13px" viewBox="275 232  13 13" xmlns="http://www.w3.org/2000/svg">
  <path d="M 281.5 232  C 285.14 232  288 234.86  288 238.5  C 288 242.14  285.14 245  281.5 245  C 277.86 245  275 242.14  275 238.5  C 275 234.86  277.86 232  281.5 232  Z " fill-rule="nonzero" fill="#ffffff" stroke="none" />
  <path d="M 281.5 232.5  C 284.86 232.5  287.5 235.14  287.5 238.5  C 287.5 241.86  284.86 244.5  281.5 244.5  C 278.14 244.5  275.5 241.86  275.5 238.5  C 275.5 235.14  278.14 232.5  281.5 232.5  Z " stroke-width="1" stroke="#64cce1" fill="none" />
  <path d="M 281.5 241.75  C 279.68 241.75  278.25 240.32  278.25 238.5  C 278.25 236.68  279.68 235.25  281.5 235.25  C 283.32 235.25  284.75 236.68  284.75 238.5  C 284.75 240.32  283.32 241.75  281.5 241.75  " fill-rule="nonzero" fill="#64cce1" stroke="none" />
</svg>