<?xml version="1.0" encoding="utf-8"?>
<svg version="1.1" xmlns:xlink="http://www.w3.org/1999/xlink" width="51px" height="49px" xmlns="http://www.w3.org/2000/svg">
  <g transform="matrix(1 0 0 1 -17 -123 )">
    <path d="M 42.5 123  C 56.78 123  68 133.78  68 147.5  C 68 161.22  56.78 172  42.5 172  C 28.22 172  17 161.22  17 147.5  C 17 133.78  28.22 123  42.5 123  Z " fill-rule="nonzero" fill="#ffffff" stroke="none" />
    <path d="M 42.5 123.5  C 56.5 123.5  67.5 134.06  67.5 147.5  C 67.5 160.94  56.5 171.5  42.5 171.5  C 28.5 171.5  17.5 160.94  17.5 147.5  C 17.5 134.06  28.5 123.5  42.5 123.5  Z " stroke-width="1" stroke="#797979" fill="none" />
  </g>
</svg>