<?xml version="1.0" encoding="utf-8"?>
<svg version="1.1" xmlns:xlink="http://www.w3.org/1999/xlink" width="13px" height="13px" viewBox="282 31  13 13" xmlns="http://www.w3.org/2000/svg">
  <path d="M 288.5 31  C 292.14 31  295 33.86  295 37.5  C 295 41.14  292.14 44  288.5 44  C 284.86 44  282 41.14  282 37.5  C 282 33.86  284.86 31  288.5 31  Z " fill-rule="nonzero" fill="#ffffff" stroke="none" />
  <path d="M 288.5 31.5  C 291.86 31.5  294.5 34.14  294.5 37.5  C 294.5 40.86  291.86 43.5  288.5 43.5  C 285.14 43.5  282.5 40.86  282.5 37.5  C 282.5 34.14  285.14 31.5  288.5 31.5  Z " stroke-width="1" stroke="#797979" fill="none" />
  <path d="M 288.5 40.75  C 286.68 40.75  285.25 39.32  285.25 37.5  C 285.25 35.68  286.68 34.25  288.5 34.25  C 290.32 34.25  291.75 35.68  291.75 37.5  C 291.75 39.32  290.32 40.75  288.5 40.75  " fill-rule="nonzero" fill="#797979" stroke="none" />
</svg>