<?xml version="1.0" encoding="utf-8"?>
<svg version="1.1" xmlns:xlink="http://www.w3.org/1999/xlink" width="13px" height="13px" viewBox="465 31  13 13" xmlns="http://www.w3.org/2000/svg">
  <path d="M 471.5 31  C 475.14 31  478 33.86  478 37.5  C 478 41.14  475.14 44  471.5 44  C 467.86 44  465 41.14  465 37.5  C 465 33.86  467.86 31  471.5 31  Z " fill-rule="nonzero" fill="#ffffff" stroke="none" />
  <path d="M 471.5 31.5  C 474.86 31.5  477.5 34.14  477.5 37.5  C 477.5 40.86  474.86 43.5  471.5 43.5  C 468.14 43.5  465.5 40.86  465.5 37.5  C 465.5 34.14  468.14 31.5  471.5 31.5  Z " stroke-width="1" stroke="#797979" fill="none" />
  <path d="M 471.5 40.75  C 469.68 40.75  468.25 39.32  468.25 37.5  C 468.25 35.68  469.68 34.25  471.5 34.25  C 473.32 34.25  474.75 35.68  474.75 37.5  C 474.75 39.32  473.32 40.75  471.5 40.75  " fill-rule="nonzero" fill="#797979" stroke="none" />
</svg>