<?xml version="1.0" encoding="utf-8"?>
<svg version="1.1" xmlns:xlink="http://www.w3.org/1999/xlink" width="13px" height="13px" viewBox="401 31  13 13" xmlns="http://www.w3.org/2000/svg">
  <path d="M 407.5 31  C 411.14 31  414 33.86  414 37.5  C 414 41.14  411.14 44  407.5 44  C 403.86 44  401 41.14  401 37.5  C 401 33.86  403.86 31  407.5 31  Z " fill-rule="nonzero" fill="#ffffff" stroke="none" />
  <path d="M 407.5 31.5  C 410.86 31.5  413.5 34.14  413.5 37.5  C 413.5 40.86  410.86 43.5  407.5 43.5  C 404.14 43.5  401.5 40.86  401.5 37.5  C 401.5 34.14  404.14 31.5  407.5 31.5  Z " stroke-width="1" stroke="#797979" fill="none" />
  <path d="M 407.5 40.75  C 405.68 40.75  404.25 39.32  404.25 37.5  C 404.25 35.68  405.68 34.25  407.5 34.25  C 409.32 34.25  410.75 35.68  410.75 37.5  C 410.75 39.32  409.32 40.75  407.5 40.75  " fill-rule="nonzero" fill="#797979" stroke="none" />
</svg>