<?xml version="1.0" encoding="utf-8"?>
<svg version="1.1" xmlns:xlink="http://www.w3.org/1999/xlink" width="13px" height="13px" viewBox="527 31  13 13" xmlns="http://www.w3.org/2000/svg">
  <path d="M 533.5 31  C 537.14 31  540 33.86  540 37.5  C 540 41.14  537.14 44  533.5 44  C 529.86 44  527 41.14  527 37.5  C 527 33.86  529.86 31  533.5 31  Z " fill-rule="nonzero" fill="#ffffff" stroke="none" />
  <path d="M 533.5 31.5  C 536.86 31.5  539.5 34.14  539.5 37.5  C 539.5 40.86  536.86 43.5  533.5 43.5  C 530.14 43.5  527.5 40.86  527.5 37.5  C 527.5 34.14  530.14 31.5  533.5 31.5  Z " stroke-width="1" stroke="#797979" fill="none" />
  <path d="M 533.5 40.75  C 531.68 40.75  530.25 39.32  530.25 37.5  C 530.25 35.68  531.68 34.25  533.5 34.25  C 535.32 34.25  536.75 35.68  536.75 37.5  C 536.75 39.32  535.32 40.75  533.5 40.75  " fill-rule="nonzero" fill="#797979" stroke="none" />
</svg>