<?xml version="1.0" encoding="utf-8"?>
<svg version="1.1" xmlns:xlink="http://www.w3.org/1999/xlink" width="13px" height="13px" viewBox="661 31  13 13" xmlns="http://www.w3.org/2000/svg">
  <path d="M 667.5 31  C 671.14 31  674 33.86  674 37.5  C 674 41.14  671.14 44  667.5 44  C 663.86 44  661 41.14  661 37.5  C 661 33.86  663.86 31  667.5 31  Z " fill-rule="nonzero" fill="#f0f0f0" stroke="none" />
  <path d="M 667.5 31.5  C 670.86 31.5  673.5 34.14  673.5 37.5  C 673.5 40.86  670.86 43.5  667.5 43.5  C 664.14 43.5  661.5 40.86  661.5 37.5  C 661.5 34.14  664.14 31.5  667.5 31.5  Z " stroke-width="1" stroke="#797979" fill="none" />
  <path d="M 667.5 40.75  C 665.68 40.75  664.25 39.32  664.25 37.5  C 664.25 35.68  665.68 34.25  667.5 34.25  C 669.32 34.25  670.75 35.68  670.75 37.5  C 670.75 39.32  669.32 40.75  667.5 40.75  " fill-rule="nonzero" fill="#797979" stroke="none" />
</svg>