<?xml version="1.0" encoding="utf-8"?>
<svg version="1.1" xmlns:xlink="http://www.w3.org/1999/xlink" width="10px" height="10px" xmlns="http://www.w3.org/2000/svg">
  <g transform="matrix(1 0 0 1 -347 -47 )">
    <path d="M 0.08735795454545196 7.488991477272727  C 0.06249999999999871 7.515624999999999  0.04651988636363378 7.551136363636362  0.04651988636363637 7.588423295454545  L 0.012784090909090908 9.699573863636363  C 0.011008522727272726 9.857599431818182  0.13884943181818182 9.98721590909091  0.296875 9.98721590909091  L 0.30397727272727276 9.98721590909091  L 2.3991477272727275 9.935724431818182  C 2.434659090909091 9.933948863636363  2.4701704545454546 9.919744318181818  2.495028409090908 9.894886363636363  L 9.879616477272727 2.52627840909091  C 9.93465909090909 2.4712357954545467  9.93465909090909 2.3806818181818197  9.879616477272727 2.325639204545456  L 7.672585227272727 0.12038352272727273  C 7.644176136363637 0.09197443181818182  7.6086647727272725 0.07954545454545453  7.57137784090909 0.07954545454545453  C 7.5340909090909065 0.07954545454545453  7.498579545454543 0.09375  7.4701704545454515 0.12038352272727273  L 0.08735795454545196 7.488991477272727  Z M 1.161576704545456 8.831321022727273  L 1.1740056818181819 8.007457386363637  L 7.57137784090909 1.6242897727272725  L 8.373934659090912 2.4250710227272725  L 1.973011363636365 8.811789772727272  L 1.161576704545456 8.831321022727273  Z " fill-rule="nonzero" fill="#1e98d7" stroke="none" transform="matrix(1 0 0 1 347 47 )" />
  </g>
</svg>