<?xml version="1.0" encoding="utf-8"?>
<svg version="1.1" xmlns:xlink="http://www.w3.org/1999/xlink" width="5px" height="5px" xmlns="http://www.w3.org/2000/svg">
  <g transform="matrix(1 0 0 1 -529 -102 )">
    <path d="M 0.7484375000000014 2.6758789062499986  C 0.7567382812500014 2.8584960937499986  0.89453125 3.0062499999999996  1.0804687500000014 3.0079101562499986  L 2.1512695312500014 3.0228515624999996  C 2.3255859375000014 3.0245117187499986  2.4916015625000014 2.8684570312499993  2.4833007812500014 2.6908203124999996  C 2.4750000000000014 2.5082031249999996  2.337207031250001 2.3621093749999993  2.1512695312500014 2.3587890624999996  L 1.0804687500000014 2.3438476562499986  C 0.9061523437500014 2.3421874999999996  0.7401367187500014 2.498242187499999  0.7484375000000014 2.6758789062499986  Z M 3.7516601562500007 0.23046875  C 3.5723632812500004 0.23876953125  3.4196289062500007 0.3765624999999986  3.4196289062500007 0.5625  L 3.4196289062500007 3.7682617187500007  C 3.4196289062500007 3.9425781250000007  3.5723632812500004 4.108593750000001  3.7516601562500007 4.100292968750001  C 3.9309570312499993 4.091992187500001  4.083691406250001 3.9541992187500004  4.083691406250001 3.7682617187500007  L 4.083691406250001 2.6875  L 4.083691406250001 0.9625976562500007  L 4.083691406250001 0.5625  C 4.083691406250001 0.38818359375  3.9309570312499993 0.22216796875  3.7516601562500007 0.23046875  Z " fill-rule="nonzero" fill="#2c2c2c" stroke="none" transform="matrix(1 0 0 1 529 102 )" />
  </g>
</svg>