<?xml version="1.0" encoding="utf-8"?>
<svg version="1.1" xmlns:xlink="http://www.w3.org/1999/xlink" width="13px" height="13px" viewBox="155 340  13 13" xmlns="http://www.w3.org/2000/svg">
  <path d="M 161.5 340  C 165.14 340  168 342.86  168 346.5  C 168 350.14  165.14 353  161.5 353  C 157.86 353  155 350.14  155 346.5  C 155 342.86  157.86 340  161.5 340  Z " fill-rule="nonzero" fill="#ffffff" stroke="none" />
  <path d="M 161.5 340.5  C 164.86 340.5  167.5 343.14  167.5 346.5  C 167.5 349.86  164.86 352.5  161.5 352.5  C 158.14 352.5  155.5 349.86  155.5 346.5  C 155.5 343.14  158.14 340.5  161.5 340.5  Z " stroke-width="1" stroke="#797979" fill="none" />
  <path d="M 161.5 349.75  C 159.68 349.75  158.25 348.32  158.25 346.5  C 158.25 344.68  159.68 343.25  161.5 343.25  C 163.32 343.25  164.75 344.68  164.75 346.5  C 164.75 348.32  163.32 349.75  161.5 349.75  " fill-rule="nonzero" fill="#797979" stroke="none" />
</svg>