<?xml version="1.0" encoding="utf-8"?>
<svg version="1.1" xmlns:xlink="http://www.w3.org/1999/xlink" width="13px" height="13px" viewBox="764 118  13 13" xmlns="http://www.w3.org/2000/svg">
  <path d="M 770.5 118  C 774.14 118  777 120.86  777 124.5  C 777 128.14  774.14 131  770.5 131  C 766.86 131  764 128.14  764 124.5  C 764 120.86  766.86 118  770.5 118  Z " fill-rule="nonzero" fill="#ffffff" stroke="none" />
  <path d="M 770.5 118.5  C 773.86 118.5  776.5 121.14  776.5 124.5  C 776.5 127.86  773.86 130.5  770.5 130.5  C 767.14 130.5  764.5 127.86  764.5 124.5  C 764.5 121.14  767.14 118.5  770.5 118.5  Z " stroke-width="1" stroke="#797979" fill="none" />
  <path d="M 770.5 127.75  C 768.68 127.75  767.25 126.32  767.25 124.5  C 767.25 122.68  768.68 121.25  770.5 121.25  C 772.32 121.25  773.75 122.68  773.75 124.5  C 773.75 126.32  772.32 127.75  770.5 127.75  " fill-rule="nonzero" fill="#797979" stroke="none" />
</svg>