<?xml version="1.0" encoding="utf-8"?>
<svg version="1.1" xmlns:xlink="http://www.w3.org/1999/xlink" width="183px" height="132px" xmlns="http://www.w3.org/2000/svg">
  <g transform="matrix(1 0 0 1 -19 -52 )">
    <path d="M 19 52  L 202 52  L 202 184  L 19 184  L 19 52  " fill-rule="nonzero" fill="#cccccc" stroke="none" />
    <path d="M 28 61  L 193 61  L 193 175  L 28 175  L 28 61  " fill-rule="nonzero" fill="#ffffff" stroke="none" />
    <path d="M 124.06 91.6  C 118.51599999999999 91.6  114.16 87.244  114.16 81.69999999999999  C 114.16 76.15599999999999  118.51599999999999 71.8  124.06 71.8  C 129.604 71.8  133.96 76.15599999999999  133.96 81.69999999999999  C 133.96 87.244  129.604 91.6  124.06 91.6  " fill-rule="nonzero" fill="#cccccc" stroke="none" />
    <path d="M 32 172  L 32 113.15  L 71.5 86.39999999999999  L 126.8 125.69180327868852  L 158.4 102.45  L 190 125.69180327868852  L 190 172  L 32 172  " fill-rule="nonzero" fill="#169bd5" stroke="none" />
  </g>
</svg>