<?xml version="1.0" encoding="utf-8"?>
<svg version="1.1" xmlns:xlink="http://www.w3.org/1999/xlink" width="98px" height="75px" xmlns="http://www.w3.org/2000/svg">
  <g transform="matrix(1 0 0 1 -29 -381 )">
    <path d="M 29 381  L 127 381  L 127 456  L 29 456  L 29 381  " fill-rule="nonzero" fill="#cccccc" stroke="none" />
    <path d="M 34 386  L 122 386  L 122 451  L 34 451  L 34 386  " fill-rule="nonzero" fill="#ffffff" stroke="none" />
    <path d="M 85.58500000000001 403.5  C 82.435 403.5  79.96000000000001 401.025  79.96000000000001 397.875  C 79.96000000000001 394.725  82.435 392.25  85.58500000000001 392.25  C 88.73500000000001 392.25  91.21000000000001 394.725  91.21000000000001 397.875  C 91.21000000000001 401.025  88.73500000000001 403.5  85.58500000000001 403.5  " fill-rule="nonzero" fill="#cccccc" stroke="none" />
    <path d="M 36 449  L 36 415.45  L 57 400.2  L 86.4 420.98979591836735  L 103.2 409.35  L 120 420.98979591836735  L 120 449  L 36 449  " fill-rule="nonzero" fill="#169bd5" stroke="none" />
  </g>
</svg>