<?xml version="1.0" encoding="utf-8"?>
<svg version="1.1" xmlns:xlink="http://www.w3.org/1999/xlink" width="11px" height="10px" xmlns="http://www.w3.org/2000/svg">
  <g transform="matrix(1 0 0 1 -267 -150 )">
    <path d="M 0.09609374999999716 7.488991477272727  C 0.06874999999999858 7.515624999999999  0.05117187499999716 7.551136363636362  0.051171875 7.588423295454545  L 0.0140625 9.699573863636363  C 0.012109374999999999 9.857599431818182  0.152734375 9.98721590909091  0.3265625 9.98721590909091  L 0.33437500000000003 9.98721590909091  L 2.6390625 9.935724431818182  C 2.678125 9.933948863636363  2.7171875 9.919744318181818  2.7445312499999988 9.894886363636363  L 10.867578125 2.52627840909091  C 10.928125 2.4712357954545467  10.928125 2.3806818181818197  10.867578125 2.325639204545456  L 8.43984375 0.12038352272727273  C 8.40859375 0.09197443181818182  8.36953125 0.07954545454545453  8.328515625 0.07954545454545453  C 8.287499999999998 0.07954545454545453  8.248437499999998 0.09375  8.217187499999996 0.12038352272727273  L 0.09609374999999716 7.488991477272727  Z M 1.2777343750000014 8.831321022727273  L 1.29140625 8.007457386363637  L 8.328515625 1.6242897727272725  L 9.211328125000003 2.4250710227272725  L 2.1703125000000014 8.811789772727272  L 1.2777343750000014 8.831321022727273  Z " fill-rule="nonzero" fill="#1e98d7" stroke="none" transform="matrix(1 0 0 1 267 150 )" />
  </g>
</svg>