<?xml version="1.0" encoding="utf-8"?>
<svg version="1.1" xmlns:xlink="http://www.w3.org/1999/xlink" width="13px" height="13px" viewBox="67 49  13 13" xmlns="http://www.w3.org/2000/svg">
  <path d="M 73.5 49  C 77.14 49  80 51.86  80 55.5  C 80 59.14  77.14 62  73.5 62  C 69.86 62  67 59.14  67 55.5  C 67 51.86  69.86 49  73.5 49  Z " fill-rule="nonzero" fill="#ffffff" stroke="none" />
  <path d="M 73.5 49.5  C 76.86 49.5  79.5 52.14  79.5 55.5  C 79.5 58.86  76.86 61.5  73.5 61.5  C 70.14 61.5  67.5 58.86  67.5 55.5  C 67.5 52.14  70.14 49.5  73.5 49.5  Z " stroke-width="1" stroke="#797979" fill="none" />
  <path d="M 73.5 58.75  C 71.68 58.75  70.25 57.32  70.25 55.5  C 70.25 53.68  71.68 52.25  73.5 52.25  C 75.32 52.25  76.75 53.68  76.75 55.5  C 76.75 57.32  75.32 58.75  73.5 58.75  " fill-rule="nonzero" fill="#797979" stroke="none" />
</svg>