<?xml version="1.0" encoding="utf-8"?>
<svg version="1.1" xmlns:xlink="http://www.w3.org/1999/xlink" width="13px" height="13px" viewBox="327 24  13 13" xmlns="http://www.w3.org/2000/svg">
  <path d="M 333.5 24  C 337.14 24  340 26.86  340 30.5  C 340 34.14  337.14 37  333.5 37  C 329.86 37  327 34.14  327 30.5  C 327 26.86  329.86 24  333.5 24  Z " fill-rule="nonzero" fill="#ffffff" stroke="none" />
  <path d="M 333.5 24.5  C 336.86 24.5  339.5 27.14  339.5 30.5  C 339.5 33.86  336.86 36.5  333.5 36.5  C 330.14 36.5  327.5 33.86  327.5 30.5  C 327.5 27.14  330.14 24.5  333.5 24.5  Z " stroke-width="1" stroke="#797979" fill="none" />
  <path d="M 333.5 33.75  C 331.68 33.75  330.25 32.32  330.25 30.5  C 330.25 28.68  331.68 27.25  333.5 27.25  C 335.32 27.25  336.75 28.68  336.75 30.5  C 336.75 32.32  335.32 33.75  333.5 33.75  " fill-rule="nonzero" fill="#797979" stroke="none" />
</svg>