<?xml version="1.0" encoding="utf-8"?>
<svg version="1.1" xmlns:xlink="http://www.w3.org/1999/xlink" width="15px" height="15px" xmlns="http://www.w3.org/2000/svg">
  <g transform="matrix(1 0 0 1 -156 -46 )">
    <path d="M 1 13.5  L 7 13.5  L 9.625 9  L 3.625 9  L 1 13.5  Z M 14.54296875 0.24023437499999967  C 14.707031250000002 0.4003906249999989  14.830729166666668 0.6132812499999984  14.9140625 0.87890625  C 14.9921875 1.1445312499999982  15.016927083333334 1.4238281250000007  14.98828125 1.7167968750000007  C 14.959635416666668 2.009765625000001  14.880208333333334 2.2656249999999996  14.75 2.4843750000000004  L 7.750000000000001 14.484375  C 7.552083333333333 14.828125  7.302083333333334 15  7 15  L 1 15  C 0.8020833333333334 15  0.62109375 14.919921875000002  0.45703125 14.759765625  C 0.29296875 14.599609375  0.16927083333333337 14.386718750000002  0.0859375 14.12109375  C 0.0078124999999999965 13.855468749999998  -0.016927083333333336 13.576171875  0.01171875 13.283203125  C 0.040364583333333336 12.990234375  0.11979166666666666 12.734375  0.25 12.515625  L 7.25 0.5156250000000007  C 7.447916666666668 0.17187499999999856  7.697916666666668 0  8 0  L 14 0  C 14.197916666666668 0  14.378906250000002 0.08007812499999878  14.54296875 0.24023437499999967  Z " fill-rule="nonzero" fill="#000000" stroke="none" transform="matrix(1 0 0 1 156 46 )" />
  </g>
</svg>