<?xml version="1.0" encoding="utf-8"?>
<svg version="1.1" xmlns:xlink="http://www.w3.org/1999/xlink" width="17px" height="15px" xmlns="http://www.w3.org/2000/svg">
  <g transform="matrix(1 0 0 1 -135 -71 )">
    <path d="M 7.928251121076233 11.25  L 8.461883408071749 11.25  L 9.56726457399103 10.014204545454545  L 8.11883408071749 8.394886363636363  L 7.013452914798207 9.630681818181818  L 7.013452914798207 10.227272727272728  L 7.928251121076233 10.227272727272728  L 7.928251121076233 11.25  Z M 12.64517937219731 3.9311079545454546  C 12.75317638266069 3.8103693181818166  12.756352765321376 3.6931818181818166  12.654708520179373 3.5795454545454546  C 12.55306427503737 3.4659090909090895  12.44824364723468 3.4694602272727257  12.3402466367713 3.590198863636364  L 9.005044843049328 7.318892045454545  C 8.89704783258595 7.439630681818182  8.893871449925262 7.55681818181818  8.995515695067263 7.670454545454545  C 9.097159940209268 7.784090909090909  9.201980568011958 7.780539772727271  9.309977578475337 7.659801136363638  L 12.64517937219731 3.9311079545454546  Z M 13.22645739910314 9.59872159090909  C 13.353512705530644 9.65553977272727  13.417040358744394 9.758522727272728  13.417040358744394 9.907670454545455  L 13.417040358744394 11.931818181818182  C 13.417040358744394 12.776988636363637  13.148636023916294 13.499644886363637  12.61182735426009 14.099786931818182  C 12.075018684603888 14.699928977272727  11.428624813153961 15  10.672645739910315 15  L 2.7443946188340806 15  C 1.9884155455904335 15  1.3420216741405082 14.699928977272727  0.8052130044843049 14.099786931818182  C 0.2684043348281016 13.499644886363637  0 12.776988636363637  0 11.931818181818182  L 0 3.068181818181819  C 0 2.223011363636362  0.2684043348281016 1.5003551136363629  0.8052130044843049 0.9002130681818188  C 1.3420216741405082 0.30007102272727126  1.9884155455904335 0  2.7443946188340806 0  L 10.672645739910315 0  C 11.072869955156952 0  11.444506726457398 0.08877840909090828  11.78755605381166 0.2663352272727265  C 11.882847533632287 0.31605113636363535  11.940022421524663 0.3977272727272724  11.959080717488789 0.5113636363636359  C 11.978139013452914 0.6321022727272724  11.949551569506726 0.7350852272727265  11.873318385650224 0.8203125  L 11.406390134529147 1.3423295454545454  C 11.317451420029895 1.4417613636363629  11.215807174887892 1.4701704545454546  11.10145739910314 1.4275568181818188  C 10.95534379671151 1.3849431818181812  10.812406576980568 1.3636363636363642  10.672645739910315 1.3636363636363642  L 2.7443946188340806 1.3636363636363642  C 2.3251121076233185 1.3636363636363642  1.9661808669656207 1.5305397727272712  1.6676008968609866 1.8643465909090906  C 1.3690209267563531 2.1981534090909083  1.2197309417040358 2.599431818181819  1.2197309417040358 3.068181818181819  L 1.2197309417040358 11.931818181818182  C 1.2197309417040358 12.400568181818182  1.3690209267563531 12.801846590909088  1.6676008968609866 13.13565340909091  C 1.9661808669656207 13.469460227272727  2.3251121076233185 13.636363636363637  2.7443946188340806 13.636363636363637  L 10.672645739910315 13.636363636363637  C 11.091928251121075 13.636363636363637  11.450859491778774 13.469460227272727  11.749439461883409 13.13565340909091  C 12.048019431988044 12.801846590909088  12.197309417040358 12.400568181818182  12.197309417040358 11.931818181818182  L 12.197309417040358 10.589488636363637  C 12.197309417040358 10.49715909090909  12.225896860986548 10.41903409090909  12.283071748878925 10.355113636363637  L 12.89293721973094 9.673295454545455  C 12.988228699551568 9.566761363636363  13.099402092675637 9.541903409090908  13.22645739910314 9.59872159090909  Z M 6.098654708520179 9.204545454545455  L 12.502242152466367 2.0454545454545454  L 15.24663677130045 5.113636363636364  L 8.84304932735426 12.272727272727272  L 6.098654708520179 12.272727272727272  L 6.098654708520179 9.204545454545455  Z M 17 2.7272727272727266  C 17 3.0113636363636354  16.911061285500747 3.2528409090909083  16.73318385650224 3.4517045454545454  L 15.856502242152466 4.431818181818182  L 13.112107623318385 1.3636363636363642  L 13.988789237668161 0.3835227272727265  C 14.166666666666668 0.1846590909090895  14.382660687593424 0.08522727272727348  14.636771300448432 0.08522727272727348  C 14.890881913303438 0.08522727272727348  15.106875934230196 0.1846590909090895  15.2847533632287 0.3835227272727265  L 16.73318385650224 2.002840909090909  C 16.911061285500747 2.201704545454543  17 2.4431818181818175  17 2.7272727272727266  Z " fill-rule="nonzero" fill="#000000" stroke="none" transform="matrix(1 0 0 1 135 71 )" />
  </g>
</svg>