<?xml version="1.0" encoding="utf-8"?>
<svg version="1.1" xmlns:xlink="http://www.w3.org/1999/xlink" width="12px" height="15px" xmlns="http://www.w3.org/2000/svg">
  <g transform="matrix(1 0 0 1 -155 -71 )">
    <path d="M 4.286931818181818 5.712890625  C 4.338068181818182 5.771484375  4.363636363636363 5.846354166666666  4.363636363636363 5.937500000000001  L 4.363636363636363 11.5625  C 4.363636363636363 11.653645833333334  4.338068181818182 11.728515625  4.286931818181818 11.787109375  C 4.235795454545454 11.845703125  4.170454545454546 11.875  4.090909090909091 11.875  L 3.545454545454546 11.875  C 3.4659090909090917 11.875  3.4005681818181825 11.845703125  3.3494318181818183 11.787109375  C 3.298295454545454 11.728515625  3.2727272727272725 11.653645833333334  3.2727272727272725 11.5625  L 3.2727272727272725 5.937500000000001  C 3.2727272727272725 5.846354166666666  3.298295454545454 5.771484375  3.3494318181818183 5.712890625  C 3.4005681818181825 5.654296875  3.4659090909090917 5.625  3.545454545454546 5.625  L 4.090909090909091 5.625  C 4.170454545454546 5.625  4.235795454545454 5.654296875  4.286931818181818 5.712890625  Z M 6.46875 5.712890625  C 6.519886363636363 5.771484375  6.545454545454545 5.846354166666666  6.545454545454545 5.937500000000001  L 6.545454545454545 11.5625  C 6.545454545454545 11.653645833333334  6.519886363636363 11.728515625  6.46875 11.787109375  C 6.417613636363637 11.845703125  6.352272727272728 11.875  6.2727272727272725 11.875  L 5.7272727272727275 11.875  C 5.647727272727273 11.875  5.582386363636363 11.845703125  5.53125 11.787109375  C 5.480113636363637 11.728515625  5.454545454545454 11.653645833333334  5.454545454545454 11.5625  L 5.454545454545454 5.937500000000001  C 5.454545454545454 5.846354166666666  5.480113636363637 5.771484375  5.53125 5.712890625  C 5.582386363636363 5.654296875  5.647727272727273 5.625  5.7272727272727275 5.625  L 6.2727272727272725 5.625  C 6.352272727272728 5.625  6.417613636363637 5.654296875  6.46875 5.712890625  Z M 8.650568181818182 5.712890625  C 8.701704545454545 5.771484375  8.727272727272727 5.846354166666666  8.727272727272727 5.937500000000001  L 8.727272727272727 11.5625  C 8.727272727272727 11.653645833333334  8.701704545454545 11.728515625  8.650568181818182 11.787109375  C 8.599431818181818 11.845703125  8.53409090909091 11.875  8.454545454545455 11.875  L 7.909090909090908 11.875  C 7.829545454545455 11.875  7.764204545454545 11.845703125  7.713068181818182 11.787109375  C 7.661931818181818 11.728515625  7.636363636363637 11.653645833333334  7.636363636363637 11.5625  L 7.636363636363637 5.937500000000001  C 7.636363636363637 5.846354166666666  7.661931818181818 5.771484375  7.713068181818182 5.712890625  C 7.764204545454545 5.654296875  7.829545454545455 5.625  7.909090909090908 5.625  L 8.454545454545455 5.625  C 8.53409090909091 5.625  8.599431818181818 5.654296875  8.650568181818182 5.712890625  Z M 9.758522727272727 13.4033203125  C 9.798295454545455 13.282877604166668  9.818181818181818 13.151041666666668  9.818181818181818 13.0078125  L 9.818181818181818 3.75  L 2.1818181818181817 3.75  L 2.1818181818181817 13.0078125  C 2.1818181818181817 13.151041666666668  2.201704545454546 13.282877604166668  2.241477272727273 13.4033203125  C 2.28125 13.523763020833332  2.3224431818181817 13.611653645833332  2.3650568181818183 13.6669921875  C 2.4076704545454546 13.722330729166668  2.4375 13.75  2.4545454545454546 13.75  L 9.545454545454545 13.75  C 9.5625 13.75  9.592329545454545 13.722330729166668  9.634943181818182 13.6669921875  C 9.677556818181818 13.611653645833332  9.718750000000002 13.523763020833332  9.758522727272727 13.4033203125  Z M 4.5085227272727275 1.3574218749999996  L 4.090909090909091 2.4999999999999996  L 7.909090909090908 2.4999999999999996  L 7.5 1.3574218749999996  C 7.460227272727274 1.2988281249999996  7.411931818181818 1.2630208333333326  7.355113636363637 1.2500000000000004  L 4.653409090909091 1.2500000000000004  C 4.596590909090909 1.2630208333333326  4.548295454545455 1.2988281249999996  4.5085227272727275 1.3574218749999996  Z M 11.923295454545455 2.5878906249999996  C 11.974431818181818 2.6464843749999996  12 2.7213541666666656  12 2.8125  L 12 3.4374999999999996  C 12 3.528645833333332  11.974431818181818 3.603515625  11.923295454545455 3.662109375  C 11.872159090909092 3.720703125  11.806818181818183 3.75  11.727272727272727 3.75  L 10.909090909090908 3.75  L 10.909090909090908 13.0078125  C 10.909090909090908 13.548177083333332  10.775568181818183 14.015299479166668  10.508522727272727 14.4091796875  C 10.241477272727273 14.803059895833334  9.920454545454545 15  9.545454545454545 15  L 2.4545454545454546 15  C 2.0795454545454546 15  1.7585227272727275 14.8095703125  1.4914772727272727 14.4287109375  C 1.2244318181818183 14.0478515625  1.0909090909090908 13.587239583333334  1.0909090909090908 13.046875  L 1.0909090909090908 3.75  L 0.2727272727272727 3.75  C 0.19318181818181818 3.75  0.12784090909090912 3.720703125  0.07670454545454546 3.662109375  C 0.025568181818181816 3.603515625  0 3.528645833333332  0 3.4374999999999996  L 0 2.8125  C 0 2.7213541666666656  0.025568181818181816 2.6464843749999996  0.07670454545454546 2.5878906249999996  C 0.12784090909090912 2.5292968749999996  0.19318181818181818 2.4999999999999996  0.2727272727272727 2.4999999999999996  L 2.90625 2.4999999999999996  L 3.502840909090909 0.8691406250000006  C 3.5880681818181825 0.628255208333332  3.7414772727272734 0.42317708333333204  3.9630681818181817 0.25390625000000056  C 4.184659090909092 0.08463541666666574  4.409090909090909 0  4.636363636363637 0  L 7.363636363636363 0  C 7.590909090909092 0  7.815340909090908 0.08463541666666574  8.036931818181818 0.25390625000000056  C 8.258522727272727 0.42317708333333204  8.411931818181818 0.628255208333332  8.497159090909092 0.8691406250000006  L 9.09375 2.4999999999999996  L 11.727272727272727 2.4999999999999996  C 11.806818181818183 2.4999999999999996  11.872159090909092 2.5292968749999996  11.923295454545455 2.5878906249999996  Z " fill-rule="nonzero" fill="#000000" stroke="none" transform="matrix(1 0 0 1 155 71 )" />
  </g>
</svg>