<?xml version="1.0" encoding="utf-8"?>
<svg version="1.1" xmlns:xlink="http://www.w3.org/1999/xlink" width="12px" height="24px" xmlns="http://www.w3.org/2000/svg">
  <g transform="matrix(1 0 0 1 -23 -20 )">
    <path d="M 11.79381443298969 1.442885771543085  C 11.931271477663232 1.6032064128256485  12 1.787575150300598  12 1.9959919839679365  C 12 2.2044088176352696  11.931271477663232 2.3887775551102193  11.79381443298969 2.5490981963927855  L 3.6907216494845363 12  L 11.79381443298969 21.450901803607216  C 11.931271477663232 21.61122244488978  12 21.795591182364728  12 22.004008016032063  C 12 22.2124248496994  11.931271477663232 22.396793587174347  11.79381443298969 22.557114228456914  L 10.762886597938145 23.759519038076153  C 10.625429553264606 23.919839679358716  10.467353951890036 24  10.288659793814432 24  C 10.109965635738833 24  9.951890034364263 23.919839679358716  9.814432989690722 23.759519038076153  L 0.2061855670103093 12.553106212424849  C 0.0687285223367698 12.392785571142284  0 12.208416833667332  0 12  C 0 11.791583166332664  0.0687285223367698 11.607214428857715  0.2061855670103093 11.446893787575151  L 9.814432989690722 0.24048096192384794  C 9.951890034364263 0.08016032064128176  10.109965635738833 0  10.288659793814432 0  C 10.467353951890036 0  10.625429553264606 0.08016032064128176  10.762886597938145 0.24048096192384794  L 11.79381443298969 1.442885771543085  Z " fill-rule="nonzero" fill="#000000" stroke="none" transform="matrix(1 0 0 1 23 20 )" />
  </g>
</svg>