<?xml version="1.0" encoding="utf-8"?>
<svg version="1.1" xmlns:xlink="http://www.w3.org/1999/xlink" width="16px" height="16px" xmlns="http://www.w3.org/2000/svg">
  <g transform="matrix(1 0 0 1 -770 -414 )">
    <path d="M 778 414  C 782.48 414  786 417.52  786 422  C 786 426.48  782.48 430  778 430  C 773.52 430  770 426.48  770 422  C 770 417.52  773.52 414  778 414  Z " fill-rule="nonzero" fill="#ffffff" stroke="none" />
    <path d="M 778 414.5  C 782.2 414.5  785.5 417.8  785.5 422  C 785.5 426.2  782.2 429.5  778 429.5  C 773.8 429.5  770.5 426.2  770.5 422  C 770.5 417.8  773.8 414.5  778 414.5  Z " stroke-width="1" stroke="#797979" fill="none" />
  </g>
</svg>