<?xml version="1.0" encoding="utf-8"?>
<svg version="1.1" xmlns:xlink="http://www.w3.org/1999/xlink" width="4px" height="9px" xmlns="http://www.w3.org/2000/svg">
  <g transform="matrix(1 0 0 1 -1051 -145 )">
    <path d="M 2.4166666621093746 1.91125  C 2.3611502278348073 1.964779169181913  2.2866932842110828 1.9941424705464996  2.209583337890625 1.992916662109375  C 2.131636616532125 1.9925930817056798  2.0570625030944276 1.9610828936226339  2.0024999999999995 1.9054166621093755  L 1.334583337890625 1.2258333378906254  L 0.6666666621093746 1.8908333378906246  C 0.5529057389630179 2.003919388839412  0.3691775852557324 2.003919388839412  0.25541666210937475 1.8908333378906246  C 0.20020046834704264 1.8360680798340123  0.16914214433395802 1.761519284062583  0.16914214433395802 1.683749999999999  C 0.16914214433395802 1.6059807159374162  0.20020046834704264 1.531431920165987  0.25541666210937475 1.4766666621093743  L 1.1449999999999996 0.6016666621093743  C 1.2583896402976604 0.49954557127836186  1.4313289697032303 0.5020887987269109  1.5416666621093746 0.6074999999999999  L 2.4166666621093746 1.5  C 2.529752713058162 1.6137609231463572  2.529752713058162 1.7974890768536422  2.4166666621093746 1.91125  Z M 2.4837500000000006 8.141250000000001  L 2.4837500000000006 8.152916662109376  C 2.2632824965440417 8.149344244185674  2.05333771976274 8.058018266999293  1.9004166621093752 7.899166662109376  C 1.738639305541966 7.741111395924335  1.6474342151819776 7.5244963889114995  1.6474342151819776 7.298325258422301  C 1.6474342151819776 6.835844196104423  2.021273386016759 6.460361766165825  2.4837500000000006 6.458333337890625  C 2.9292575252105664 6.484573703644568  3.2771048183152853 6.853512034843391  3.2771048183152853 7.299791668945312  C 3.2771048183152853 7.746071303047234  2.9292575252105673 8.115009634246059  2.4837500000000006 8.141250000000001  Z M 2.486666662109375 7.0533333378906224  L 2.4837500000000006 7.053333337890626  C 2.341517432641271 7.053324359359468  2.225764785529604 7.16777641088904  2.2241666621093756 7.3100000000000005  C 2.227189983215836 7.450967631774333  2.3399088656547145 7.564967408557678  2.4808333378906244 7.569583337890624  C 2.5487040070247495 7.567409086494683  2.6136890427707264 7.54162137067361  2.6645833378906243 7.496666662109375  C 2.713516262079491 7.448088975150293  2.740846294838086 7.381866195506536  2.740416662109375 7.312916662109373  C 2.743278692894777 7.244952312657793  2.7167061666226804 7.179052446705819  2.6674999999999995 7.132083337890624  C 2.620116577855237 7.082796299528191  2.5550271179398276 7.054450890279378  2.486666662109375 7.0533333378906224  Z " fill-rule="nonzero" fill="#2c2c2c" stroke="none" transform="matrix(1 0 0 1 1051 145 )" />
  </g>
</svg>