<svg t="1708305208425" class="icon" viewBox="0 0 1024 1024" version="1.1" xmlns="http://www.w3.org/2000/svg" p-id="5300" width="200" height="200"><path d="M897.706667 969.386667H126.293333c-51.2 0-92.16-40.96-92.16-92.16V153.6c0-51.2 40.96-92.16 92.16-92.16h250.88c17.066667 0 34.133333 8.533333 46.08 20.48l98.986667 119.466667c1.706667 1.706667 3.413333 3.413333 6.826667 3.413333h370.346666c51.2 0 92.16 40.96 92.16 92.16v580.266667c-1.706667 49.493333-42.666667 92.16-93.866666 92.16zM126.293333 112.64C104.106667 112.64 85.333333 129.706667 85.333333 153.6v723.626667c0 22.186667 18.773333 40.96 40.96 40.96h769.706667c22.186667 0 40.96-18.773333 40.96-40.96v-580.266667c0-22.186667-18.773333-40.96-40.96-40.96H527.36c-17.066667 0-34.133333-8.533333-46.08-20.48l-98.986667-119.466667c-1.706667-1.706667-3.413333-3.413333-6.826666-3.413333H126.293333z" fill="#ffffff" p-id="5301"></path><path d="M711.68 607.573333H310.613333c-13.653333 0-25.6-11.946667-25.6-25.6s11.946667-25.6 25.6-25.6h401.066667c13.653333 0 25.6 11.946667 25.6 25.6s-10.24 25.6-25.6 25.6z" fill="#ffffff" p-id="5302"></path><path d="M600.746667 720.213333c-6.826667 0-13.653333-1.706667-18.773334-6.826666-10.24-10.24-10.24-25.6 0-35.84l93.866667-93.866667-93.866667-93.866667c-10.24-10.24-10.24-25.6 0-35.84s25.6-10.24 35.84 0l112.64 112.64c5.12 5.12 6.826667 11.946667 6.826667 18.773334s-3.413333 13.653333-6.826667 18.773333L617.813333 716.8c-3.413333 0-10.24 3.413333-17.066666 3.413333z" fill="#ffffff" p-id="5303"></path><path d="M692.906667 402.773333H413.013333c-6.826667 0-15.36-3.413333-18.773333-8.533333l-75.093333-90.453333c-5.12-5.12-11.946667-8.533333-18.773334-8.533334H109.226667c-27.306667 0-51.2 22.186667-51.2 51.2v547.84c0 27.306667 22.186667 51.2 51.2 51.2h583.68c27.306667 0 51.2-22.186667 51.2-51.2V453.973333c0-27.306667-22.186667-51.2-51.2-51.2z" fill="#ffffff" opacity=".3" p-id="5304"></path></svg>