<svg t="1708305301572" class="icon" viewBox="0 0 1024 1024" version="1.1" xmlns="http://www.w3.org/2000/svg" p-id="7553" width="200" height="200"><path d="M766.608 131.52a32 32 0 0 1 14.928 40.8l-1.056 2.288L547.952 628l72.528 141.408 2.432 5.04C641.248 810.736 676.416 832 720 832a112 112 0 1 0-42.944-215.472 32 32 0 0 1-24.56-59.104 175.552 175.552 0 0 1 67.52-13.424c97.2 0 176 78.8 176 176 0 97.216-78.8 176-176 176-69.68 0-128.4-36.88-156.8-97.984L512 698.128l-51.216 99.888C432.4 859.12 373.664 896 304 896c-97.2 0-176-78.8-176-176s78.8-176 176-176c23.44 0 46.288 4.592 67.52 13.424a32 32 0 1 1-24.576 59.104A112 112 0 1 0 304 832c43.584 0 78.768-21.28 97.088-57.552l2.432-5.056 72.512-141.392-232.496-453.392-1.056-2.272a32 32 0 0 1 58-26.928L512 557.856 723.52 145.392a32 32 0 0 1 43.088-13.872z" fill="#ffffff" p-id="7554"></path></svg>