<?xml version="1.0" encoding="utf-8"?>
<svg version="1.1" xmlns:xlink="http://www.w3.org/1999/xlink" width="9px" height="9px" xmlns="http://www.w3.org/2000/svg">
  <g transform="matrix(1 0 0 1 -267 -136 )">
    <path d="M 7.921561771205354 1.2004803532366104  L 7.874012270089285 1.1529771378348213  C 7.780902257812499 1.0598979525669638  7.681655832589286 0.9759925597098209  7.5793874564732135 0.8981927377232142  C 7.473942949218749 0.7971269765625002  7.331016987723213 0.7347760965401775  7.173443827566965 0.7347760965401775  C 6.8500333828125 0.7347760965401775  6.587879127790178 0.9969457801339285  6.587879127790178 1.3203407963169638  C 6.587879127790178 1.4634363515625002  6.639283135044643 1.5945057723214284  6.724560736607143 1.6962190965401787  C 6.765588366629465 1.7451407762276783  6.814325023995535 1.7872630814732142  6.8690439291294645 1.8206124659598215  C 6.9242562020089276 1.8661421651785712  6.97845089732143 1.910978060825892  7.029130243861607 1.9616574073660704  L 7.077404375558038 2.009946952566963  C 7.684292340401786 2.616079429687499  7.503114023437501 3.66037938783482  6.896226073660716 4.267282766183034  L 4.3065064737723215 6.856231479910713  C 3.6996339375 7.4623639570312505  2.7129977226562496 7.4623639570312505  2.1060943593749997 6.856231479910713  L 2.0574347845982137 6.807541063058036  C 1.4505159927455353 6.200668526785716  1.4505159927455353 5.213307666294645  2.0574347845982137 4.607899849888394  L 3.2015516484375004 3.4641684441964307  C 3.3483475446428583 3.3476537260044665  3.4425830892857143 3.1678168058035743  3.4425830892857143 2.9658702907366097  C 3.4425830892857143 2.614614724888396  3.15784128515625 2.3298729207589304  2.8065857193080355 2.3298729207589304  C 2.6740361651785713 2.3298729207589304  2.550999575892857 2.3704534084821454  2.4491166579241064 2.4398195273437517  C 2.4487928839285713 2.4391411372767875  2.448453681361606 2.438493574218752  2.4481144787946425 2.437799755580359  L 2.4359187505580344 2.449209169084824  C 2.3908824341517847 2.481587216517858  2.350163179687499 2.519562038504466  2.314994444196428 2.5623627338169657  L 1.1260108577008923 3.6749341205357178  C 0.008366906249999266 4.793348973214288  0.008366906249999266 6.622523653459824  1.1260108577008923 7.73938127511161  L 1.1742849893973206 7.78763997823661  C 2.291928940848213 8.904513028459826  4.120317291294642 8.904513028459826  5.237961242745536 7.78763997823661  L 7.826909941406249 5.197920378348218  C 8.94301207533482 4.080338095982146  9.037648491629465 2.3173534034598244  7.921561771205354 1.2004803532366104  Z " fill-rule="nonzero" fill="#81d3f8" stroke="none" fill-opacity="0.49019607843137253" transform="matrix(1 0 0 1 267 136 )" />
  </g>
</svg>