<?xml version="1.0" encoding="utf-8"?>
<svg version="1.1" xmlns:xlink="http://www.w3.org/1999/xlink" width="52px" height="52px" xmlns="http://www.w3.org/2000/svg">
  <g transform="matrix(1 0 0 1 -663 -310 )">
    <path d="M 689 310  C 703.56 310  715 321.44  715 336  C 715 350.56  703.56 362  689 362  C 674.44 362  663 350.56  663 336  C 663 321.44  674.44 310  689 310  Z " fill-rule="nonzero" fill="#81d3f8" stroke="none" />
    <path d="M 689 310.5  C 703.28 310.5  714.5 321.72  714.5 336  C 714.5 350.28  703.28 361.5  689 361.5  C 674.72 361.5  663.5 350.28  663.5 336  C 663.5 321.72  674.72 310.5  689 310.5  Z " stroke-width="1" stroke="#797979" fill="none" />
  </g>
</svg>