<?xml version="1.0" encoding="utf-8"?>
<svg version="1.1" xmlns:xlink="http://www.w3.org/1999/xlink" width="10px" height="12px" xmlns="http://www.w3.org/2000/svg">
  <defs>
    <mask fill="white" id="clip403">
      <path d="M 9.789822048611112 2.0859375  C 9.792209201388891 1.9582031249999998  9.687174479166668 1.8539062499999999  9.557074652777777 1.8539062499999999  L 6.930013020833334 1.8539062499999999  L 6.930013020833334 1.0148437499999998  C 6.930013020833334 0.8871093749999999  6.8249782986111125 0.783984375  6.694878472222222 0.783984375  L 3.306315104166667 0.783984375  C 3.1762152777777786 0.783984375  3.0711805555555562 0.8871093749999999  3.0711805555555562 1.0148437499999998  L 3.0711805555555562 1.8539062499999999  L 0.442925347222222 1.8539062499999999  C 0.31282552083333304 1.8539062499999999  0.20779079861111088 1.95703125  0.20779079861111088 2.0847656249999997  L 0.20779079861111088 3.6175781249999996  C 0.20779079861111088 3.7453125  0.31282552083333304 3.8484374999999997  0.442925347222222 3.8484374999999997  L 1.5983072916666665 3.8484374999999997  L 1.5983072916666665 10.9828125  C 1.5983072916666665 11.110546874999999  1.703342013888889 11.213671875  1.8334418402777775 11.213671875  L 3.9782986111111107 11.213671875  C 4.108398437499999 11.213671875  4.213433159722221 11.110546875  4.213433159722221 10.9828125  C 4.213433159722221 10.855078124999997  4.108398437499999 10.751953124999998  3.9782986111111107 10.751953124999998  L 2.0685763888888884 10.751953124999998  L 2.0685763888888884 3.8496093749999987  L 7.929036458333333 3.8496093749999987  L 7.929036458333333 5.1949218749999995  C 7.929036458333333 5.322656249999999  8.034071180555554 5.425781249999999  8.164171006944445 5.425781249999999  C 8.294270833333336 5.425781249999999  8.399305555555557 5.322656249999999  8.399305555555557 5.1949218749999995  L 8.399305555555557 3.849609375  L 9.5546875 3.849609375  C 9.68478732638889 3.849609375  9.789822048611112 3.7464843749999996  9.789822048611112 3.6187500000000004  L 9.789822048611112 2.0859375  Z M 9.320746527777779 2.3167968749999996  L 9.320746527777779 3.3878906250000003  L 0.6792534722222222 3.3878906250000003  L 0.6792534722222222 2.3179687500000004  L 3.306315104166667 2.3179687500000004  C 3.436414930555556 2.3179687500000004  3.5414496527777777 2.21484375  3.5414496527777777 2.0871093750000003  L 3.5414496527777777 1.2480468750000002  L 6.458550347222223 1.2480468750000002  L 6.458550347222223 2.0859375  C 6.458550347222223 2.213671875  6.563585069444445 2.3167968749999996  6.693684895833335 2.3167968749999996  L 9.320746527777779 2.3167968749999996  Z " fill-rule="evenodd" />
    </mask>
  </defs>
  <g transform="matrix(1 0 0 1 -321 -133 )">
    <path d="M 9.789822048611112 2.0859375  C 9.792209201388891 1.9582031249999998  9.687174479166668 1.8539062499999999  9.557074652777777 1.8539062499999999  L 6.930013020833334 1.8539062499999999  L 6.930013020833334 1.0148437499999998  C 6.930013020833334 0.8871093749999999  6.8249782986111125 0.783984375  6.694878472222222 0.783984375  L 3.306315104166667 0.783984375  C 3.1762152777777786 0.783984375  3.0711805555555562 0.8871093749999999  3.0711805555555562 1.0148437499999998  L 3.0711805555555562 1.8539062499999999  L 0.442925347222222 1.8539062499999999  C 0.31282552083333304 1.8539062499999999  0.20779079861111088 1.95703125  0.20779079861111088 2.0847656249999997  L 0.20779079861111088 3.6175781249999996  C 0.20779079861111088 3.7453125  0.31282552083333304 3.8484374999999997  0.442925347222222 3.8484374999999997  L 1.5983072916666665 3.8484374999999997  L 1.5983072916666665 10.9828125  C 1.5983072916666665 11.110546874999999  1.703342013888889 11.213671875  1.8334418402777775 11.213671875  L 3.9782986111111107 11.213671875  C 4.108398437499999 11.213671875  4.213433159722221 11.110546875  4.213433159722221 10.9828125  C 4.213433159722221 10.855078124999997  4.108398437499999 10.751953124999998  3.9782986111111107 10.751953124999998  L 2.0685763888888884 10.751953124999998  L 2.0685763888888884 3.8496093749999987  L 7.929036458333333 3.8496093749999987  L 7.929036458333333 5.1949218749999995  C 7.929036458333333 5.322656249999999  8.034071180555554 5.425781249999999  8.164171006944445 5.425781249999999  C 8.294270833333336 5.425781249999999  8.399305555555557 5.322656249999999  8.399305555555557 5.1949218749999995  L 8.399305555555557 3.849609375  L 9.5546875 3.849609375  C 9.68478732638889 3.849609375  9.789822048611112 3.7464843749999996  9.789822048611112 3.6187500000000004  L 9.789822048611112 2.0859375  Z M 9.320746527777779 2.3167968749999996  L 9.320746527777779 3.3878906250000003  L 0.6792534722222222 3.3878906250000003  L 0.6792534722222222 2.3179687500000004  L 3.306315104166667 2.3179687500000004  C 3.436414930555556 2.3179687500000004  3.5414496527777777 2.21484375  3.5414496527777777 2.0871093750000003  L 3.5414496527777777 1.2480468750000002  L 6.458550347222223 1.2480468750000002  L 6.458550347222223 2.0859375  C 6.458550347222223 2.213671875  6.563585069444445 2.3167968749999996  6.693684895833335 2.3167968749999996  L 9.320746527777779 2.3167968749999996  Z " fill-rule="nonzero" fill="#81d3f8" stroke="none" fill-opacity="0.49019607843137253" transform="matrix(1 0 0 1 321 133 )" />
    <path d="M 9.789822048611112 2.0859375  C 9.792209201388891 1.9582031249999998  9.687174479166668 1.8539062499999999  9.557074652777777 1.8539062499999999  L 6.930013020833334 1.8539062499999999  L 6.930013020833334 1.0148437499999998  C 6.930013020833334 0.8871093749999999  6.8249782986111125 0.783984375  6.694878472222222 0.783984375  L 3.306315104166667 0.783984375  C 3.1762152777777786 0.783984375  3.0711805555555562 0.8871093749999999  3.0711805555555562 1.0148437499999998  L 3.0711805555555562 1.8539062499999999  L 0.442925347222222 1.8539062499999999  C 0.31282552083333304 1.8539062499999999  0.20779079861111088 1.95703125  0.20779079861111088 2.0847656249999997  L 0.20779079861111088 3.6175781249999996  C 0.20779079861111088 3.7453125  0.31282552083333304 3.8484374999999997  0.442925347222222 3.8484374999999997  L 1.5983072916666665 3.8484374999999997  L 1.5983072916666665 10.9828125  C 1.5983072916666665 11.110546874999999  1.703342013888889 11.213671875  1.8334418402777775 11.213671875  L 3.9782986111111107 11.213671875  C 4.108398437499999 11.213671875  4.213433159722221 11.110546875  4.213433159722221 10.9828125  C 4.213433159722221 10.855078124999997  4.108398437499999 10.751953124999998  3.9782986111111107 10.751953124999998  L 2.0685763888888884 10.751953124999998  L 2.0685763888888884 3.8496093749999987  L 7.929036458333333 3.8496093749999987  L 7.929036458333333 5.1949218749999995  C 7.929036458333333 5.322656249999999  8.034071180555554 5.425781249999999  8.164171006944445 5.425781249999999  C 8.294270833333336 5.425781249999999  8.399305555555557 5.322656249999999  8.399305555555557 5.1949218749999995  L 8.399305555555557 3.849609375  L 9.5546875 3.849609375  C 9.68478732638889 3.849609375  9.789822048611112 3.7464843749999996  9.789822048611112 3.6187500000000004  L 9.789822048611112 2.0859375  Z " stroke-width="4" stroke="#000000" fill="none" transform="matrix(1 0 0 1 321 133 )" mask="url(#clip403)" />
    <path d="M 9.320746527777779 2.3167968749999996  L 9.320746527777779 3.3878906250000003  L 0.6792534722222222 3.3878906250000003  L 0.6792534722222222 2.3179687500000004  L 3.306315104166667 2.3179687500000004  C 3.436414930555556 2.3179687500000004  3.5414496527777777 2.21484375  3.5414496527777777 2.0871093750000003  L 3.5414496527777777 1.2480468750000002  L 6.458550347222223 1.2480468750000002  L 6.458550347222223 2.0859375  C 6.458550347222223 2.213671875  6.563585069444445 2.3167968749999996  6.693684895833335 2.3167968749999996  L 9.320746527777779 2.3167968749999996  Z " stroke-width="4" stroke="#000000" fill="none" transform="matrix(1 0 0 1 321 133 )" mask="url(#clip403)" />
  </g>
</svg>