<?xml version="1.0" encoding="utf-8"?>
<svg version="1.1" xmlns:xlink="http://www.w3.org/1999/xlink" width="14px" height="11px" xmlns="http://www.w3.org/2000/svg">
  <g transform="matrix(1 0 0 1 -389 -56 )">
    <path d="M 13.889105902777779 5.992108319256757  C 13.919487847222221 5.993559966216216  13.927083333333332 5.973236908783784  13.927083333333332 5.948558910472973  L 13.927083333333332 5.0499894425675675  C 13.927083333333332 5.025311444256757  13.919487847222221 5.006440033783784  13.892144097222221 5.006440033783784  L 7.905381944444444 5.006440033783784  L 7.897786458333333 5.004988386824325  C 7.735243055555556 4.9745038006756745  7.569661458333333 4.944019214527027  7.404079861111111 4.914986275337838  C 7.147352430555556 4.869985219594595  7.051649305555556 4.852565456081082  6.921006944444445 4.82788745777027  C 6.114366319444445 4.676916173986487  5.623697916666666 4.527396537162162  5.2256944444444455 4.308197846283784  C 4.649956597222223 3.9873838682432425  4.370442708333334 3.5504381334459456  4.370442708333334 2.972682643581081  C 4.370442708333334 2.396378800675676  4.619574652777779 1.915883657094594  5.0889756944444455 1.5834565033783785  C 5.546223958333334 1.2597392314189184  6.194878472222223 1.089896537162162  6.9620225694444455 1.089896537162162  C 7.840060763888891 1.089896537162162  8.520616319444443 1.3119985219594594  8.983940972222221 1.7503959037162162  C 9.22092013888889 1.9739495354729726  9.395616319444443 2.2483108108108105  9.500434027777779 2.566221494932432  C 9.524739583333332 2.637352195945945  9.547526041666668 2.73170924831081  9.5703125 2.8391311233108105  C 9.57790798611111 2.8754222972972974  9.611328125000002 2.9015519425675675  9.650824652777779 2.9015519425675675  L 10.790147569444443 2.9015519425675675  C 10.83420138888889 2.9015519425675675  10.872178819444443 2.8681640625  10.872178819444443 2.826066300675676  L 10.872178819444443 2.814453125  C 10.856987847222221 2.7157411317567566  10.852430555555557 2.638803842905405  10.841796875 2.5836412584459465  C 10.730902777777779 1.9478198902027026  10.416449652777779 1.39329075168919  9.93185763888889 0.9752164273648649  C 9.252821180555557 0.3829444679054054  8.248697916666668 0.06938872466216217  7.030381944444444 0.06938872466216217  C 5.915364583333334 0.06938872466216217  4.912760416666666 0.33504011824324353  4.206380208333334 0.8169869087837838  C 3.814453125 1.0869932432432432  3.513671875 1.41796875  3.313151041666667 1.8026551942567568  C 3.1095920138888893 2.19750316722973  3.0047743055555554 2.654771959459459  3.0047743055555554 3.1599451013513518  C 3.0047743055555554 3.588180954391892  3.08984375 3.951092694256757  3.2660590277777777 4.270455025337838  C 3.3906249999999996 4.495460304054054  3.5592447916666665 4.6943359375  3.7825520833333335 4.878695101351352  L 3.937499999999999 5.006440033783784  L 0.12152777777777779 5.006440033783784  C 0.09418402777777792 5.006440033783784  0.05772569444444445 5.026763091216216  0.05772569444444445 5.051441089527027  L 0.05772569444444445 5.9500105574324325  C 0.05772569444444445 5.976140202702702  0.09418402777777779 5.993559966216216  0.12152777777777779 5.993559966216216  L 6.907335069444445 5.993559966216216  L 6.914930555555555 5.996463260135137  C 6.934678819444445 6.000818201013514  6.954427083333334 6.005173141891893  6.97265625 6.0080764358108105  C 6.984809027777779 6.010979729729732  6.995442708333334 6.012431376689188  7.007595486111111 6.015334670608109  C 7.508897569444444 6.1111433699324325  7.792968750000002 6.1735641891891895  8.055772569444443 6.244694890202702  C 8.424913194444443 6.344858530405404  8.705946180555555 6.449377111486486  8.936848958333332 6.572767103040541  C 9.524739583333332 6.889226140202702  9.81032986111111 7.345043285472973  9.81032986111111 7.966348184121621  C 9.81032986111111 8.516522381756758  9.558159722222221 9.008630701013514  9.099392361111112 9.351219383445946  C 8.610243055555557 9.71703441722973  7.888671875 9.911555109797296  7.010633680555556 9.911555109797296  C 6.317925347222221 9.911555109797296  5.725477430555555 9.782358530405405  5.248480902777779 9.5283203125  C 4.7790798611111125 9.277185388513514  4.452473958333334 8.91427364864865  4.279296875 8.449746621621621  C 4.265625000000001 8.414907094594595  4.251953125 8.365551097972975  4.235243055555557 8.306033572635135  C 4.226128472222221 8.27264569256757  4.192708333333334 8.24361275337838  4.156250000000001 8.24361275337838  L 2.9090711805555567 8.24361275337838  C 2.8634982638888897 8.24361275337838  2.8224826388888897 8.287162162162165  2.8224826388888897 8.330711570945947  L 2.8224826388888897 8.342324746621621  C 2.8224826388888897 8.374260979729732  2.8300781250000013 8.401842271959461  2.8331163194444455 8.420713682432432  C 2.9318576388888897 9.130569045608109  3.2949218750000013 9.71267947635135  3.910156250000001 10.14817356418919  C 4.633246527777779 10.659153293918921  5.657118055555557 10.929159628378379  6.8663194444444455 10.929159628378379  C 8.166666666666668 10.929159628378379  9.257378472222221 10.637378589527026  10.01540798611111 10.087204391891891  C 10.395182291666668 9.812843116554054  10.688368055555557 9.474609375  10.885850694444443 9.081213048986486  C 11.084852430555557 8.683461782094595  11.186631944444443 8.233451224662163  11.186631944444443 7.744246199324325  C 11.186631944444443 7.2797191722972965  11.098524305555557 6.893581081081081  10.91623263888889 6.561153927364865  C 10.82964409722222 6.400021114864865  10.71875 6.250501478040542  10.586588541666664 6.1154983108108105  L 10.46657986111111 5.992108319256757  L 13.889105902777779 5.992108319256757  Z " fill-rule="nonzero" fill="#2c2c2c" stroke="none" transform="matrix(1 0 0 1 389 56 )" />
  </g>
</svg>