<?xml version="1.0" encoding="utf-8"?>
<svg version="1.1" xmlns:xlink="http://www.w3.org/1999/xlink" width="15px" height="15px" xmlns="http://www.w3.org/2000/svg">
  <g transform="matrix(1 0 0 1 -691 -55 )">
    <path d="M 4.921892904897837 1.4844167668269235  L 13.515583233173079 1.4844167668269235  C 13.990199645414034 1.4844167668269228  14.374952267690803 1.8691693891036971  14.374952267690803 2.343785801344651  C 14.374952267690803 2.8184022135856033  13.99019964541403 3.2031548358623794  13.515583233173079 3.2031548358623794  L 4.921892904897838 3.2031548358623794  C 4.447276492656885 3.2031548358623794  4.06252387038011 2.818402213585605  4.06252387038011 2.343785801344651  C 4.06252387038011 1.8691693891036971  4.447276492656885 1.4844167668269228  4.921892904897838 1.4844167668269228  Z M 4.921892904897837 6.640630973933294  L 13.515583233173079 6.640630973933292  C 13.990199640746662 6.640630973933292  14.374952259239786 7.025383592426416  14.374952259239786 7.5  C 14.374952259239786 7.974616407573583  13.990199640746662 8.359369026066707  13.515583233173079 8.359369026066707  L 4.921892904897838 8.359369026066707  C 4.447276497324254 8.359369026066707  4.062523878831131 7.974616407573583  4.062523878831131 7.500000000000002  C 4.062523878831131 7.025383592426417  4.447276497324254 6.640630973933295  4.921892904897838 6.640630973933295  Z M 4.921892904897837 11.796845164137622  L 13.515583233173079 11.796845164137618  C 13.99019964541403 11.796845164137622  14.374952267690809 12.181597786414395  14.374952267690809 12.656214198655348  C 14.374952267690809 13.130830610896306  13.990199645414034 13.515583233173075  13.515583233173079 13.515583233173075  L 4.921892904897838 13.515583233173075  C 4.4472764926568855 13.515583233173075  4.06252387038011 13.1308306108963  4.06252387038011 12.656214198655348  C 4.06252387038011 12.181597786414395  4.447276492656885 11.796845164137622  4.921892904897838 11.796845164137622  Z M 1.6391032019981968 1.535978917518029  L 0.92582690241887 1.535978917518029  L 0.92582690241887 1.1320754713792067  C 1.057412605972475 1.1419291890933427  1.1895509532222361 1.1419291890933427  1.3211366567758411 1.1320754713792067  C 1.4329320825032323 1.1087943252846706  1.5349064326517456 1.0518086609336772  1.613322126652644 0.968795361328125  C 1.6699151387919444 0.9077494989651821  1.7111566906865976 0.8341038718234108  1.7336337946965146 0.7539531005859379  C 1.7384916742659264 0.7139963228666443  1.7384916742659264 0.6735982102613609  1.7336337946965146 0.6336414325420675  L 2.283629967322716 0.6336414325420675  L 2.283629967322716 3.632839357346755  L 1.6391032019981968 3.632839357346755  L 1.6391032019981968 1.535978917518029  Z M 0.9000458270733175 8.187495224233775  L 0.92582690241887 8.196088916015624  C 1.0668959037852002 7.932597301154704  1.27423682561271 7.710446310985654  1.5273852257361777 7.551562133789063  C 1.7154911752723614 7.425024822999561  1.89361634957806 7.28424848148841  2.0601940317007212 7.1304713209885815  C 2.1785017579679162 7.014996907021282  2.246445778091845 6.857490311050418  2.2492552170973554 6.692193107722355  C 2.2539766989245513 6.577287107019777  2.2173935522517874 6.464489070945756  2.146130932617188 6.3742265625  C 2.068721294423551 6.2854059775991376  1.9543333279561685 6.237744329591433  1.8367580791766824 6.2453212195763195  C 1.6701042462050093 6.2079654676491804  1.4995624081397219 6.289683431139802  1.424260941256009 6.4429760967548075  C 1.3783201356411383 6.560735768984637  1.3549961656712506 6.686102115457294  1.3555114239032444 6.812504775766225  L 0.7969215425931483 6.812504775766226  C 0.7959402594796032 6.595811556707566  0.842894465870109 6.3815829983479  0.9344205942007203 6.185165377103365  C 1.099141369906766 5.87025351552371  1.440711875932639 5.689221148875137  1.793789620267427 5.72969979717548  C 2.0737292465003168 5.715309929627427  2.348205131349171 5.810913886110961  2.5586280705378597 5.996104191706731  C 2.749354606217109 6.179788596628211  2.8525416257644642 6.436192708601914  2.842219848632811 6.700786799504206  C 2.846066415514963 6.917859534060663  2.7764101635259193 7.12985682324093  2.6445649714543262 7.3023451228215155  C 2.5180857606014517 7.451907589778538  2.3704337013081624 7.582188815887133  2.2062867581881003 7.6890611853966355  L 1.9656634390024033 7.860934987229566  L 1.6562905855618975 8.092964631535455  C 1.6021342600495927 8.139800238729917  1.5557277383822048 8.194907978575024  1.5187915339543256 8.256244741586539  L 2.8422198486328116 8.256244741586539  L 2.8422198486328116 8.78045985576923  L 0.7625467923677888 8.78045985576923  C 0.765186138026511 8.575214651578401  0.8120866626283018 8.372956124099426  0.9000458270733175 8.187495224233775  Z M 0.7797341759314896 12.991368118990385  L 1.3555114239032444 13.017149194335936  C 1.3526559207994122 13.120659816598248  1.3732196267447636 13.223478357880614  1.4156672494741585 13.317928355994594  C 1.4891351561928605 13.466439024959179  1.6458511786118657 13.555017641373807  1.8109770038311297 13.541364291616588  C 1.9097082274064388 13.544527584837878  2.006612862933654 13.514244886607871  2.0859750901442298 13.455427390700118  C 2.176199762537782 13.364599867857534  2.2231357305612427 13.239437294667285  2.214880449969951 13.111679787034255  C 2.2321485559104097 12.93879598625138  2.134510123423168 12.774902896044464  1.9742571307842542 12.707776340895434  C 1.8389348186524308 12.64493869804241  1.6933643834480334 12.607090384660218  1.5445726092998795 12.596058364633414  L 1.5445726092998795 12.16637384314904  C 1.6817375397861067 12.170919918969808  1.8185890159025782 12.150537786544142  1.9484760554387024 12.106218017578128  C 2.088413545133428 12.039867398008541  2.168618725356885 11.88991857773878  2.1461309326171873 11.736689321664661  C 2.150607881158439 11.632241501932564  2.113528457147595 11.530273087422062  2.0430066481370193 11.453097543569712  C 1.9689526003876259 11.376790340607062  1.8656162247292103 11.336082070288501  1.7594148700420675 11.341379567307692  C 1.6398579250067562 11.33300575245605  1.5239418772161206 11.384523998029511  1.4500420166015624 11.478878618915264  C 1.3787289841002024 11.585086722243261  1.3454153899927055 11.712284080479803  1.355511423903245 11.839813606144832  L 0.7969215425931487 11.839813606144832  C 0.801664698148566 11.693585802572757  0.8277202686381501 11.548832661656183  0.8742647686298075 11.4101291015625  C 0.928070906038442 11.286332337215436  1.007095334685372 11.175112763935909  1.1062943960336542 11.083568864558295  C 1.1861626584790153 11.01135895554669  1.2796607945586973 10.955844441918503  1.3812924992487978 10.920288754507208  C 1.5097972315928299 10.884295154463821  1.6433652372840577 10.86977689049265  1.7766022536057686 10.877320295597956  C 2.0307331028762383 10.864554153953728  2.2809404497354735 10.943888193982966  2.481284844501202 11.100756248121996  C 2.6582806449094103 11.249329462578382  2.7566260696666682 11.471399767287723  2.747689255934495 11.702314571439302  C 2.751866555912953 11.869169995970143  2.693643474786333 12.031581735263666  2.5844091289813695 12.157780151367188  C 2.529118388317754 12.225197801520165  2.4583629097598707 12.278264413337777  2.378160560021033 12.312466586538463  C 2.4682565695467154 12.33220862283631  2.549608947590249 12.38041743462606  2.6101902043269227 12.449965621243987  C 2.767321291610793 12.599195672674519  2.8519742637857814 12.809260449084242  2.8422198486328116 13.025742869215744  C 2.844995940642083 13.278060548933123  2.749449128682744 13.521550821641139  2.575815454101562 13.704644418569712  C 2.3665334040770634 13.911167659225931  2.078485181293961 14.01762026075444  1.7851959284855765 13.996829888446515  C 1.4443111719979786 14.018911151681024  1.117262015653512 13.858657062434954  0.9258269024188698 13.57573905874399  C 0.8303998881236384 13.395701603575304  0.7802573719682103 13.195131527351222  0.7797341759314896 12.991368118990385  Z " fill-rule="nonzero" fill="#81d3f8" stroke="none" fill-opacity="0.49019607843137253" transform="matrix(1 0 0 1 691 55 )" />
  </g>
</svg>