<?xml version="1.0" encoding="utf-8"?>
<svg version="1.1" xmlns:xlink="http://www.w3.org/1999/xlink" width="15px" height="14px" xmlns="http://www.w3.org/2000/svg">
  <g transform="matrix(1 0 0 1 -545 -54 )">
    <path d="M 14.959456986171181 1.6441182424794896  L 0.05006885315851733 1.6441182424794896  L 0.05006885315851733 0  L 14.959456986171181 0  L 14.959456986171181 1.6441182424794896  Z M 3.2813406534261715 5.656374009115771  L 3.2802766830233314 5.656374009115771  L 3.2802766830233314 4.056165644484958  L 11.77180788514129 4.056165644484958  L 11.77180788514129 5.656374009115771  L 3.2813406534261715 5.656374009115771  Z M 11.732441052968445 9.891592138559705  L 3.2802766830233314 9.891592138559705  L 3.2802766830233314 8.291383773928896  L 11.732441052968445 8.291383773928896  L 11.732441052968445 9.891592138559705  Z M 14.929665873077443 14  L 0.02985345914389335 14  L 0.02985345914389335 12.387917170464906  L 14.929665873077443 12.387917170464906  L 14.929665873077443 14  Z M 2.411014565837196 6.948275558796718  L 0.017085828856261656 9.00934392707384  L 0.017085828856261656 4.886140382862352  L 2.411014565837196 6.948275558796718  Z M 14.845612371263991 4.856269826800366  L 14.845612371263991 9.005076696444851  L 12.571912071607287 6.930139857793986  L 14.845612371263991 4.856269826800366  Z " fill-rule="nonzero" fill="#81d3f8" stroke="none" fill-opacity="0.49019607843137253" transform="matrix(1 0 0 1 545 54 )" />
  </g>
</svg>