<?xml version="1.0" encoding="utf-8"?>
<svg version="1.1" xmlns:xlink="http://www.w3.org/1999/xlink" width="15px" height="15px" xmlns="http://www.w3.org/2000/svg">
  <g transform="matrix(1 0 0 1 -362 -87 )">
    <path d="M 9.637500000000001 0.6278571386718742  L 9.6375 4.913571430664062  L 13.915714291992186 4.913571430664062  L 13.915714291992186 6  L 2.6592857080078125 6  L 2.6592857080078125 4.913571430664062  L 6.951428569335938 4.913571430664062  L 6.951428569335938 0.6278571386718742  L 9.637500000000001 0.6278571386718742  Z M 0.8710714306640625 14.588571430664063  L 0.8732142919921865 14.588571430664063  C 1.3553571533203115 13.928571430664062  1.7046428613281241 13.362857138671874  1.9189285693359364 12.891428569335938  C 2.240357138671874 12.18321427734375  2.4042857080078113 12.063214277343748  2.546785708007812 10.987499999999999  C 2.643214277343749 10.269642861328125  2.694642846679687 8.962499999999999  2.705357138671874 7  L 13.903928569335937 7  L 13.903928569335937 14.587499999999999  L 11.792142861328124 14.587499999999999  C 11.290714291992186 14.122499999999997  10.952142861328124 13.708928569335937  10.774285708007811 13.345714291992186  C 10.598571416015625 12.9825  10.436785708007813 12.364285722656248  10.287857138671873 11.49107143066406  C 10.037142846679687 12.369642861328124  9.798214277343748 12.987857138671874  9.572142861328125 13.345714291992186  C 9.344999999999999 13.703571430664061  8.931428569335937 14.117142861328125  8.329285708007811 14.588571430664063  L 0.8710714306640625 14.588571430664063  Z " fill-rule="nonzero" fill="#81d3f8" stroke="none" fill-opacity="0.49019607843137253" transform="matrix(1 0 0 1 362 87 )" />
  </g>
</svg>