<?xml version="1.0" encoding="utf-8"?>
<svg version="1.1" xmlns:xlink="http://www.w3.org/1999/xlink" width="15px" height="15px" xmlns="http://www.w3.org/2000/svg">
  <g transform="matrix(1 0 0 1 -84 -86 )">
    <path d="M 11.410456938872544 9.354951616936626  C 11.410456938872544 9.456342154116735  11.385306852346858 9.556149412518218  11.337259615384616 9.64543269230769  C 10.56848768243112 10.97069287336991  9.153465061793533 11.787680529627176  7.6213701923076895 11.790865384615383  C 6.089223685850313 11.787869480440209  4.673923191320582 10.971457684618144  3.904254807692308 9.646658653846155  C 3.8502293605740605 9.553327267656847  3.821780927621147 9.447395432120306  3.821780927621147 9.339555288461536  C 3.821780927621147 9.000999912143836  4.0962342871438375 8.726546552621146  4.434789663461539 8.726546552621146  C 4.653549421899543 8.726546552621146  4.855730880349042 8.843123990038729  4.965324519230769 9.032451923076923  C 5.51524869985142 9.979160791531827  6.526532690500387 10.562638745979651  7.6213701923076895 10.564903846153843  C 8.715904228476502 10.562703717522387  9.726852245148779 9.979150256039892  10.276189903846154 9.032451923076923  C 10.387908989232821 8.851869969207991  10.585129763732104 8.741970847705858  10.797476169641774 8.741970847705858  C 11.136016100427478 8.741970847705858  11.410456938872544 9.016411686150922  11.410456938872544 9.354951616936626  Z M 4.435096153846154 6.887019230769231  L 4.435096153846154 5.048076923076923  C 4.435096153846154 4.709536992291221  4.709536992291221 4.435096153846154  5.048076923076923 4.435096153846154  C 5.386616853862626 4.435096153846154  5.6610576923076925 4.709536992291221  5.6610576923076925 5.048076923076923  L 5.6610576923076925 6.887019230769231  C 5.6610576923076925 7.2255591615549335  5.386616853862626 7.5  5.048076923076923 7.5  C 4.709536992291221 7.5  4.435096153846154 7.2255591615549335  4.435096153846154 6.887019230769231  Z M 9.338942307692308 6.887019230769231  L 9.338942307692308 5.048076923076923  C 9.338942307692308 4.709536992291221  9.613383146137375 4.435096153846154  9.951923076923077 4.435096153846154  C 10.290463007708778 4.435096153846154  10.564903846153847 4.709536992291221  10.564903846153847 5.048076923076923  L 10.564903846153847 6.887019230769231  C 10.564903846153847 7.2255591615549335  10.290463007708778 7.5  9.951923076923077 7.5  C 9.613383146137375 7.5  9.338942307692308 7.2255591615549335  9.338942307692308 6.887019230769231  Z M 14.855769230769232 7.5  C 14.855769230769232 3.4445192307692314  11.555480769230769 0.14423076923076925  7.5 0.14423076923076925  C 3.44390625 0.14423076923076925  0.14423076923076925 3.445132211538461  0.14423076923076925 7.5  C 0.14423076923076925 11.55609375  3.44390625 14.855769230769232  7.5 14.855769230769232  C 11.555480769230769 14.855769230769232  14.855769230769232 11.55609375  14.855769230769232 7.5  Z " fill-rule="nonzero" fill="#81d3f8" stroke="none" fill-opacity="0.49019607843137253" transform="matrix(1 0 0 1 84 86 )" />
  </g>
</svg>