<?xml version="1.0" encoding="utf-8"?>
<svg version="1.1" xmlns:xlink="http://www.w3.org/1999/xlink" width="22px" height="21px" xmlns="http://www.w3.org/2000/svg">
  <g transform="matrix(1 0 0 1 -293 -85 )">
    <path d="M 293 85  L 315 85  L 315 106  L 293 106  L 293 85  " fill-rule="nonzero" fill="#cccccc" stroke="none" />
    <path d="M 294 86  L 314 86  L 314 105  L 294 105  L 294 86  " fill-rule="nonzero" fill="#ffffff" stroke="none" />
    <path d="M 306.015 91.30000000000001  C 305.133 91.30000000000001  304.44 90.60700000000001  304.44 89.72500000000001  C 304.44 88.843  305.133 88.15  306.015 88.15  C 306.897 88.15  307.59 88.843  307.59 89.72500000000001  C 307.59 90.60700000000001  306.897 91.30000000000001  306.015 91.30000000000001  " fill-rule="nonzero" fill="#cccccc" stroke="none" />
    <path d="M 295 105  L 295 95.1  L 299.75 90.6  L 306.4 94.69090909090909  L 310.2 93.3  L 314 94.69090909090909  L 314 105  L 295 105  " fill-rule="nonzero" fill="#169bd5" stroke="none" />
  </g>
</svg>