<?xml version="1.0" encoding="utf-8"?>
<svg version="1.1" xmlns:xlink="http://www.w3.org/1999/xlink" width="4px" height="5px" xmlns="http://www.w3.org/2000/svg">
  <g transform="matrix(1 0 0 1 -529 -140 )">
    <path d="M 0.47617187500000036 4.063769531249999  C 0.6587890625000004 4.105273437499999  0.8264648437500011 4.008984375000001  0.8845703124999993 3.8313476562499993  L 1.2332031249999993 2.7605468749999993  C 1.4191406250000007 2.1877929687499993  1.6067382812499993 1.61669921875  1.7926757812500007 1.0439453125  C 1.8358398437500014 0.9127929687500007  1.8773437500000014 0.7816406250000014  1.9205078125000004 0.6521484374999993  L 1.2796875000000014 0.6521484374999993  C 1.4025390625000007 1.0107421875  1.525390625 1.3709960937499996  1.648242187500001 1.7295898437499986  C 1.8441406250000014 2.3023437499999986  2.0400390625000018 2.8750976562499986  2.2342773437500014 3.4478515624999986  L 2.3687500000000004 3.84130859375  C 2.4251953125000014 4.005664062499999  2.5995117187500014 4.130175781249999  2.777148437500001 4.07373046875  C 2.9398437500000014 4.020605468749999  3.0693359375000018 3.84130859375  3.009570312500001 3.6653320312499993  C 2.8867187500000018 3.3067382812499986  2.7638671875000025 2.9464843750000007  2.6410156250000014 2.587890625  C 2.445117187500001 2.01513671875  2.2492187500000007 1.4423828125  2.054980468750001 0.86962890625  L 1.9205078125000004 0.4761718749999986  C 1.8740234375000018 0.34169921874999964  1.7511718750000007 0.22548828124999964  1.6000976562500018 0.23212890624999893  C 1.449023437500001 0.23876953124999822  1.3261718750000018 0.33173828124999893  1.2796875000000032 0.4761718749999986  L 0.9310546875000032 1.5469726562499986  C 0.7451171875000018 2.1197265624999986  0.5575195312500032 2.6908203124999996  0.3715820312500018 3.2635742187499996  C 0.32841796875000107 3.394726562499999  0.28691406250000107 3.5258789062499982  0.24375000000000036 3.6553710937499986  C 0.1906250000000007 3.8213867187499986  0.3068359375000007 4.025585937499999  0.47617187500000036 4.063769531249999  Z " fill-rule="nonzero" fill="#2c2c2c" stroke="none" transform="matrix(1 0 0 1 529 140 )" />
  </g>
</svg>