<?xml version="1.0" encoding="utf-8"?>
<svg version="1.1" xmlns:xlink="http://www.w3.org/1999/xlink" width="14px" height="14px" xmlns="http://www.w3.org/2000/svg">
  <g transform="matrix(1 0 0 1 -557 -133 )">
    <path d="M 3.939951417004049 4.021123886639678  C 3.5958070718238417 4.364770770027702  3.275675398023453 4.731652160917228  2.981817004048583 5.1191773279352235  C 3.067471188073141 5.255472100314831  3.112911826609416 5.413177434601172  3.112911826609416 5.574152290460472  C 3.112911826609416 6.046389291125506  2.7300880985295115 6.429213019205411  2.2578510978644766 6.429213019205411  C 2.2211384073967917 6.429213019205411  2.1844638257891926 6.426848590312036  2.148055060728745 6.422134412955465  C 1.936697256570366 6.818790154420109  1.7583461681819286 7.232169499227124  1.6148080971659922 7.658085829959513  C 2.0967514170040484 8.62834655870445  2.7835983805668016 9.59207773279352  3.6599578947368414 10.468281781376518  C 4.530720647773279 11.339199999999998  5.487922267206478 12.022937651821861  6.45211983805668 12.504414574898785  C 7.610804858299593 12.119792712550609  8.813953036437246 11.399365182186235  9.892262348178136 10.375779757085022  C 9.73206982603676 10.215446415908673  9.64208643259018 9.998072241071284  9.64208643259018 9.771426207700335  C 9.64208643259018 9.299189207035301  10.024910160670085 8.916365478955395  10.497147161335121 8.916365478955395  C 10.692427668987019 8.916365478955395  10.881824833980488 8.983208969447611  11.033846153846152 9.10578137651822  C 11.715096356275302 8.212476113360324  12.198905263157894 7.275018623481783  12.475167611336033 6.372385425101216  C 11.995867206477731 5.4327514170040505  11.324722267206479 4.501668016194333  10.475569230769231 3.652670445344131  C 9.621596761133603 2.7985425101214596  8.68445020242915 2.1244437246963583  7.739219433198381 1.6445214574898803  C 6.459115789473684 2.0378493927125523  5.115737651821862 2.8453376518218643  3.939951417004049 4.021123886639678  Z M 2.2589543947382884 4.719918472245249  C 2.442019020554449 4.719918472245249  2.6202509734016504 4.77867128986963  2.7674299595141703 4.887533603238868  C 3.060722371099138 4.504865603925298  3.3789800253199767 4.141995788318084  3.7201230769230773 3.801295546558705  C 4.833878542510122 2.6875400809716607  6.099368421052632 1.8900016194331992  7.334697975708503 1.451122267206478  C 5.179167611336034 0.4849036437246969  3.0363854251012157 0.5385392712550613  1.7911060728744954 1.7838186234817819  C 0.5591967611336045 3.0157279352226727  0.493590283400811 5.125862348178138  1.4276275303643735 7.257761943319839  C 1.549265946650454 6.938774665301366  1.6896366236612352 6.62724935733476  1.8480064777327945 6.324812955465587  C 1.5741465403769008 6.174723458779221  1.403893665993349 5.887270927272106  1.403893665993349 5.574979200990189  C 1.403893665993349 5.102742200325155  1.7867173940732535 4.719918472245249  2.2589543947382884 4.719918472245249  Z M 3.4401295546558694 10.688110121457491  C 2.6285991902834 9.87657975708502  1.9728453441295537 8.989182186234817  1.4867044534412952 8.086393522267208  C 1.0744097165991902 9.645557894736843  1.3017004048582996 11.056563562753038  2.181324696356275 11.936187854251013  C 3.0743190283400805 12.829182186234819  4.490455060728744 13.03501862348178  6.023967611336031 12.631896356275304  C 5.127397570850201 12.146843724696357  4.2465295546558695 11.49451012145749  3.4401295546558694 10.688110121457491  Z M 1.2805570850202428 7.681561133603239  C 0.15685182186234808 5.342114979757087  0.17644048582995944 2.958827530364374  1.5712777327935221 1.5639902834008113  C 2.981972469635627 0.1532955465587062  5.403504453441295 0.1492534412955482  7.768136032388663 1.3115141700404878  C 9.463643724696356 0.8217975708502028  11.060275303643722 1.0277894736842108  12.074843724696354 2.0423578947368424  C 13.080706072874493 3.0482202429149794  13.29758056680162 4.64080971659919  12.808174898785426 6.343002429149797  C 13.97914170040486 8.713075303643723  13.978364372469638 11.143002429149798  12.56424939271255 12.556961943319838  C 11.165680971659919 13.955685829959513  8.773221052631579 13.971698785425101  6.428022672064778 12.838821052631577  C 4.672194331983808 13.389169230769228  3.0068469635627553 13.201677732793522  1.9611854251012162 12.156016194331983  C 0.9307595141700418 11.12559028340081  0.7182380566801634 9.465995141700404  1.280246153846155 7.681561133603239  Z M 8.178254251012147 1.5251238866396775  C 9.05197085020243 2.006445344129556  9.909208097165992 2.64634170040486  10.69555303643725 3.4326866396761146  C 11.477078542510123 4.21421214574899  12.113865587044536 5.06554170040486  12.593943319838058 5.933506072874495  C 12.939076923076925 4.459225910931177  12.708676923076924 3.115847773279354  11.855170850202429 2.2623417004048605  C 10.993580566801619 1.400751417004051  9.646782186234818 1.1792129554655895  8.178254251012147 1.5252793522267227  Z M 12.344421052631578 12.337133603238865  C 13.59312064777328 11.088434008097165  13.64349149797571 8.93756761133603  12.669188663967612 6.77612955465587  C 12.364631578947368 7.6358542510121445  11.884864777327934 8.513146558704452  11.240304453441293 9.347841295546559  C 11.314112937621154 9.477026768126082  11.352935392623404 9.62323549216889  11.352935392623404 9.772019156132794  C 11.352935392623404 10.244256156797828  10.9701116645435 10.627079884877734  10.497874663878465 10.627079884877734  C 10.379741149910618 10.627079884877734  10.262889199198629 10.602601005412815  10.154688259109312 10.555187044534414  C 9.125972469635627 11.543326315789475  7.979102834008099 12.266085829959515  6.851666396761134 12.692372469635627  C 8.98994008097166 13.635115789473685  11.108936032388664 13.57261862348178  12.344421052631578 12.337133603238865  Z M 7.622107972155966 6.429130020228798  C 7.622107972155966 6.790083067067563  7.373636191954689 7.103546055177344  7.022212145748989 7.185936842105263  L 7.022212145748989 8.91657975708502  L 6.711280971659919 8.91657975708502  L 6.711280971659919 7.195264777327936  C 6.3388933326512955 7.130482455445463  6.067050932014085 6.807266237129367  6.067050932014085 6.429285678218063  C 6.067050932014085 6.000083137553556  6.414846126098913 5.6520705828621765  6.844048582995952 5.6518024291498  C 7.274086401174234 5.651802085006127  7.622107972155966 5.999823655987858  7.622107972155966 6.429130020228798  Z M 8.299828340080975 8.377736032388665  L 8.299828340080975 8.91657975708502  L 8.554170040485833 8.91657975708502  L 8.554170040485833 10.471235627530364  L 5.133927125506075 10.471235627530364  L 5.133927125506075 8.91657975708502  L 5.450455060728748 8.91657975708502  L 5.450455060728748 8.416446963562752  C 4.773246963562755 7.965441295546558  4.3565991902834025 7.212521457489879  4.3565991902834025 6.389175708502024  C 4.3565991902834025 5.036780566801618  5.470821052631581 3.941680971659919  6.844048582995954 3.941680971659919  C 8.217120647773282 3.941680971659919  9.331497975708505 5.036780566801619  9.331497975708505 6.38902024291498  C 9.331497975708505 7.263980566801619  8.985276113360328 7.9327935222672075  8.299828340080975 8.377736032388665  Z M 5.761386234817813 8.916579757085017  L 7.988897165991904 8.91657975708502  L 7.988897165991904 8.204080971659918  L 8.063987044534414 8.158685020242913  C 8.704194331983807 7.771731174089067  9.020566801619434 7.188579757085018  9.020566801619434 6.389020242914977  C 9.020566801619434 5.209813765182186  8.046574898785426 4.252612145748987  6.844048582995952 4.252612145748987  C 5.6413668016194345 4.252612145748987  4.667530364372469 5.209813765182186  4.667530364372469 6.389020242914977  C 4.667530364372469 7.132612145748986  5.057438056680162 7.810597570850202  5.687384615384615 8.199261538461537  L 5.761386234817813 8.244812955465584  L 5.761386234817813 8.916579757085017  Z M 8.243238866396762 9.538442105263158  L 8.243238866396762 9.227510931174088  L 5.444858299595144 9.227510931174088  L 5.444858299595144 9.538442105263158  L 8.243238866396762 9.538442105263158  Z M 8.243238866396762 10.160304453441295  L 8.243238866396762 9.849373279352228  L 5.444858299595144 9.849373279352228  L 5.444858299595144 10.160304453441295  L 8.243238866396762 10.160304453441295  Z M 6.844048582995954 6.895527125506073  C 7.101632401540518 6.895527125506073  7.3104453441295565 6.686714182917033  7.3104453441295565 6.429130364372469  C 7.3104453441295565 6.171546545827905  7.101632401540518 5.962733603238866  6.844048582995954 5.962733603238866  C 6.58646476445139 5.962733603238866  6.377651821862351 6.171546545827905  6.377651821862351 6.429130364372469  C 6.377651821862351 6.686714182917033  6.58646476445139 6.895527125506073  6.844048582995954 6.895527125506073  Z M 10.497489910975162 10.31577004048583  C 10.798004365943822 10.31577004048583  11.041619465631031 10.072154940798619  11.041619465631031 9.771640485829959  C 11.041619465631031 9.471126030861303  10.798004365943822 9.227510931174088  10.497489910975162 9.227510931174088  C 10.196975423573855 9.22751093117409  9.953360323886642 9.471126030861303  9.953360323886642 9.771640485829959  C 9.953360323886642 10.072154940798619  10.196975423573855 10.315770040485834  10.497489878542513 10.315770040485834  Z M 2.2578137651821883 6.118199190283401  C 2.5583282201508464 6.118199190283401  2.8019433198380588 5.874584090596189  2.8019433198380588 5.57406963562753  C 2.8019433198380588 5.273555180658872  2.5583282201508464 5.0299400809716595  2.2578137651821883 5.0299400809716595  C 1.9572993102135299 5.0299400809716595  1.7136842105263175 5.273555180658872  1.7136842105263175 5.57406963562753  C 1.7136842105263175 5.874584090596189  1.9572993102135299 6.118199190283401  2.2578137651821883 6.118199190283401  Z " fill-rule="nonzero" fill="#2c2c2c" stroke="none" transform="matrix(1 0 0 1 557 133 )" />
  </g>
</svg>