<?xml version="1.0" encoding="utf-8"?>
<svg version="1.1" xmlns:xlink="http://www.w3.org/1999/xlink" width="20px" height="21px" xmlns="http://www.w3.org/2000/svg">
  <g transform="matrix(1 0 0 1 -304 -91 )">
    <path d="M 17.75 9.291666657226562  C 17.75 14.004166628906251  14.004166657226563 17.75  9.291666657226562 17.75  C 4.579166657226562 17.75  0.8333333144531236 14.004166657226563  0.833333342773436 9.291666657226562  C 0.8333333710937492 4.579166657226562  4.579166685546873 0.8333333144531238  9.291666657226562 0.833333342773436  C 14.004166628906251 0.833333371093749  17.75 4.579166685546873  17.75 9.291666657226562  Z M 3.2499999999999973 9.29166665722656  C 3.2499999999999973 12.674999971679686  5.908333342773435 15.333333314453125  9.291666657226562 15.333333342773436  C 12.674999999999997 15.333333342773436  15.333333314453125 12.674999999999997  15.333333342773436 9.29166665722656  C 15.333333371093747 5.908333314453122  12.674999999999997 3.2499999999999973  9.29166665722656 3.2499999999999973  C 5.908333314453122 3.2499999999999973  3.2499999999999973 5.908333342773434  3.2499999999999973 9.29166665722656  Z M 14.729166657226564 17.025  L 16.420833342773438 15.333333342773436  L 19.804166657226563 18.71666665722656  L 18.1125 20.40833334277344  L 14.729166657226564 17.025  Z " fill-rule="nonzero" fill="#ffffff" stroke="none" transform="matrix(1 0 0 1 304 91 )" />
  </g>
</svg>