<?xml version="1.0" encoding="utf-8"?>
<svg version="1.1" xmlns:xlink="http://www.w3.org/1999/xlink" width="6px" height="6px" xmlns="http://www.w3.org/2000/svg">
  <defs>
    <mask fill="white" id="clip683">
      <path d="M 5.7046875 4.703203125  L 3.5790234375 2.580117187500001  L 5.702109374999999 0.45703125  C 5.8013671875 0.3577734374999991  5.8013671875 0.19664062499999913  5.702109374999999 0.09738281250000042  C 5.602851562499998 -0.0018750000000004265  5.441718749999998 -0.0018750000000004265  5.3424609375 0.09738281250000042  L 3.219375000000001 2.2204687499999993  L 1.0962890625 0.09867187500000085  C 0.9970312499999991 -0.0005859375000000001  0.8358984374999991 -0.0005859375000000001  0.7366406250000004 0.09867187500000085  C 0.6373828124999996 0.19792968750000173  0.6373828124999996 0.3590625000000017  0.7366406250000004 0.4583203125000004  L 2.859726562499999 2.581406249999999  L 0.7366406249999984 4.703203125  C 0.6373828124999985 4.802460937500001  0.6373828124999985 4.963593750000001  0.7366406249999984 5.062851562499999  C 0.7869140624999988 5.113124999999998  0.8513671874999988 5.137617187499998  0.9171093749999982 5.137617187499998  C 0.9828515624999987 5.137617187499998  1.0473046874999987 5.113124999999998  1.0975781249999983 5.062851562499999  L 3.220664062499999 2.939765624999998  L 5.34375 5.062851562499999  C 5.3940234375 5.113124999999998  5.4584765625 5.137617187499998  5.524218749999999 5.137617187499998  C 5.589960937500001 5.137617187499998  5.654414062500001 5.113124999999998  5.7046875 5.062851562499999  C 5.803945312500002 4.963593749999998  5.803945312500002 4.802460937499998  5.7046875 4.703203125  Z " fill-rule="evenodd" />
    </mask>
  </defs>
  <g transform="matrix(1 0 0 1 -326 -140 )">
    <path d="M 5.7046875 4.703203125  L 3.5790234375 2.580117187500001  L 5.702109374999999 0.45703125  C 5.8013671875 0.3577734374999991  5.8013671875 0.19664062499999913  5.702109374999999 0.09738281250000042  C 5.602851562499998 -0.0018750000000004265  5.441718749999998 -0.0018750000000004265  5.3424609375 0.09738281250000042  L 3.219375000000001 2.2204687499999993  L 1.0962890625 0.09867187500000085  C 0.9970312499999991 -0.0005859375000000001  0.8358984374999991 -0.0005859375000000001  0.7366406250000004 0.09867187500000085  C 0.6373828124999996 0.19792968750000173  0.6373828124999996 0.3590625000000017  0.7366406250000004 0.4583203125000004  L 2.859726562499999 2.581406249999999  L 0.7366406249999984 4.703203125  C 0.6373828124999985 4.802460937500001  0.6373828124999985 4.963593750000001  0.7366406249999984 5.062851562499999  C 0.7869140624999988 5.113124999999998  0.8513671874999988 5.137617187499998  0.9171093749999982 5.137617187499998  C 0.9828515624999987 5.137617187499998  1.0473046874999987 5.113124999999998  1.0975781249999983 5.062851562499999  L 3.220664062499999 2.939765624999998  L 5.34375 5.062851562499999  C 5.3940234375 5.113124999999998  5.4584765625 5.137617187499998  5.524218749999999 5.137617187499998  C 5.589960937500001 5.137617187499998  5.654414062500001 5.113124999999998  5.7046875 5.062851562499999  C 5.803945312500002 4.963593749999998  5.803945312500002 4.802460937499998  5.7046875 4.703203125  Z " fill-rule="nonzero" fill="#81d3f8" stroke="none" fill-opacity="0.49019607843137253" transform="matrix(1 0 0 1 326 140 )" />
    <path d="M 5.7046875 4.703203125  L 3.5790234375 2.580117187500001  L 5.702109374999999 0.45703125  C 5.8013671875 0.3577734374999991  5.8013671875 0.19664062499999913  5.702109374999999 0.09738281250000042  C 5.602851562499998 -0.0018750000000004265  5.441718749999998 -0.0018750000000004265  5.3424609375 0.09738281250000042  L 3.219375000000001 2.2204687499999993  L 1.0962890625 0.09867187500000085  C 0.9970312499999991 -0.0005859375000000001  0.8358984374999991 -0.0005859375000000001  0.7366406250000004 0.09867187500000085  C 0.6373828124999996 0.19792968750000173  0.6373828124999996 0.3590625000000017  0.7366406250000004 0.4583203125000004  L 2.859726562499999 2.581406249999999  L 0.7366406249999984 4.703203125  C 0.6373828124999985 4.802460937500001  0.6373828124999985 4.963593750000001  0.7366406249999984 5.062851562499999  C 0.7869140624999988 5.113124999999998  0.8513671874999988 5.137617187499998  0.9171093749999982 5.137617187499998  C 0.9828515624999987 5.137617187499998  1.0473046874999987 5.113124999999998  1.0975781249999983 5.062851562499999  L 3.220664062499999 2.939765624999998  L 5.34375 5.062851562499999  C 5.3940234375 5.113124999999998  5.4584765625 5.137617187499998  5.524218749999999 5.137617187499998  C 5.589960937500001 5.137617187499998  5.654414062500001 5.113124999999998  5.7046875 5.062851562499999  C 5.803945312500002 4.963593749999998  5.803945312500002 4.802460937499998  5.7046875 4.703203125  Z " stroke-width="4" stroke="#000000" fill="none" transform="matrix(1 0 0 1 326 140 )" mask="url(#clip683)" />
  </g>
</svg>