<?xml version="1.0" encoding="utf-8"?>
<svg version="1.1" xmlns:xlink="http://www.w3.org/1999/xlink" width="12px" height="10px" xmlns="http://www.w3.org/2000/svg">
  <g transform="matrix(1 0 0 1 -292 -153 )">
    <path d="M 8.882 0.6680000000000019  L 8.940666671875 0.6120000000000001  C 9.130739013148187 0.4574592725571347  9.40478682046735 0.46338615618226964  9.588000000000001 0.6259999999999999  L 9.644 0.6846666718750001  L 11.592 3.0846666718750004  C 11.664697124630028 3.173878746784828  11.704394856880995 3.2854371742822437  11.704394856880995 3.40051830322696  C 11.704394856880995 3.6472105759358735  11.524471840109374 3.857035337105991  11.280666671875 3.894666671875001  L 11.204 4  L 0.8040000000000003 4  C 0.8038332014054075 3.900000166930764  0.803666402738914 3.9000002503961593  0.8034996040607898 3.9000002503961593  C 0.5273572291453932 3.9000002503961593  0.3034996040607898 3.676142625311556  0.3034996040607898 3.4000002503961593  C 0.3034996040607898 3.151989137120376  0.4853008836886503 2.9414600813140757  0.7306666718750003 2.9053333281250016  L 0.8040000000000003 2.9000000000000012  L 10.154666671875 2.9000000000000012  L 8.868 1.3153333281250017  C 8.713459272557134 1.1252609868518162  8.71938615618227 0.8512131795326527  8.882 0.6680000000000019  Z M 3.1186666718750002 9.332  L 3.0599999999999996 9.388  C 2.8700459711383752 9.542161854427377  2.596437455251129 9.536238371141444  2.413333328125 9.374  L 2.356666671875 9.315333328125  L 0.40866667187499983 6.915333328125  C 0.3359695472449715 6.826121253215172  0.29627181499400645 6.714562825717758  0.29627181499400645 6.59948169677304  C 0.29627181499400645 6.352789424064127  0.47619483176562616 6.142964662894009  0.7199999999999998 6.105333328124999  L 0.7966666718749997 6  L 11.196666671875 6  C 11.197058251328963 6.099999079989061  11.19744983172873 6.099998619983115  11.197841412263466 6.099998619983115  C 11.473983787178863 6.099998619983115  11.697841412263466 6.323856245067718  11.697841412263466 6.599998619983115  C 11.697841412263466 6.848012676125826  11.51603593186284 7.0585432958231955  11.270666671875 7.094666671875  L 11.197333328125 7.1  L 1.847333328125 7.1006666718750004  L 3.1333333281250004 8.684666671875  C 3.287686623764146 8.874900688649593  3.2814774330229133 9.148951981525888  3.1186666718750002 9.332  Z " fill-rule="nonzero" fill="#2c2c2c" stroke="none" transform="matrix(1 0 0 1 292 153 )" />
  </g>
</svg>