<?xml version="1.0" encoding="utf-8"?>
<svg version="1.1" xmlns:xlink="http://www.w3.org/1999/xlink" width="9px" height="14px" xmlns="http://www.w3.org/2000/svg">
  <g transform="matrix(1 0 0 1 -341 -155 )">
    <path d="M 6.828750000000001 6.018939388139202  L 6.1124999941406255 6.28992424822443  L 4.338750005859375 1.8576515209517037  C 4.266482377001435 1.7002686847721844  4.229091601032925 1.5293937068618697  4.229091601032925 1.3565151573153402  C 4.229091601032925 0.6876703000381106  4.77683020105891 0.14546441314370082  5.452500005859376 0.14546441314370082  C 5.932251643438882 0.14546441314370082  6.367727365695664 0.42304059954466666  6.566250005859375 0.8553787936789756  L 8.467500005859375 5.558636363636361  L 7.770000005859377 5.83333333913352  L 5.895000000000001 1.1486363636363617  C 5.815189543015226 0.9892169901029882  5.6509874669161455 0.8883608861255807  5.4712500029296915 0.8883608861255807  C 5.210057232374785 0.8883608861255807  4.998318656129099 1.0979606888738358  4.998318656129099 1.3565151486150542  C 4.998318656129099 1.4286329855235411  5.01515010166548 1.4997758164284798  5.047500005859376 1.5643939335937473  L 6.828750000000001 6.018939388139202  Z M 6.4762500058593755 13.231590909090912  L 5.797499994140624 13.561969702769886  C 5.666249988281249 13.287272727272729  5.047499988281251 13.04969697549716  4.406250005859375 12.797272727272725  C 3.501405888065607 12.481113174493414  2.642725754750807 12.04799674225638  1.8525000058593752 11.509166660866478  C 1.2600000000000007 11.085984842684658  -0.5399999999999999 9.786742412642045  0.239999994140624 8.66939393359375  C 0.9000000000000001 7.722803024502842  2.0174999941406244 8.357575751775569  2.7562499999999988 8.777045454545453  C 2.9137499999999994 8.866136363636363  3.1724999999999994 9.010909090909092  3.3825000058593746 9.103712115411929  L 0.521249994140624 3.0269697027698843  C 0.4455827265410972 2.8665796864900774  0.4063675266143617 2.6917150805185788  0.4063675266143617 2.5146969754971575  C 0.4063675266143617 1.8460713130940705  0.9539266208966899 1.3040431187539883  1.6293749941406235 1.3040431187539883  C 2.104420588420382 1.3040431187539883  2.5364905141764353 1.5763494765743804  2.737499994140623 2.0024242482244303  L 5.250000005859375 6.687121206321023  L 4.586250005859373 7.036060611860794  L 2.066250005859375 2.3328030245028404  C 2.0138180725835895 2.213404262088129  1.9152099626594499 2.1198036546407026  1.7924999941406248 2.0729545454545444  C 1.7416205726758172 2.0551933081471714  1.6880623396044019 2.0461189790654757  1.6341119186884838 2.0461189790654757  C 1.371086309817612 2.0461189790654757  1.1578619245478587 2.2571895826658377  1.1578619245478587 2.51755836720468  C 1.1578619245478587 2.5844119111048744  1.1722257145323765 2.6505009730652302  1.200000005859375 2.711439388139203  L 4.424999994140625 9.545454545454545  L 4.215000005859376 9.727348479048295  C 3.720000005859374 10.161666660866478  3.041250011718751 9.775606049005681  2.3850000000000007 9.404393933593752  C 1.5150000058593753 8.91068181818182  1.0875000058593745 8.747348479048298  0.855 9.077727272727275  C 0.6224999941406244 9.408106066406253  1.1475 10.07257575177557  2.291250005859375 10.896666660866478  C 3.0316461793477876 11.395202775565272  3.8346994320697396 11.79579344340685  4.6800000000000015 12.088257569957388  C 5.538749994140627 12.426060594460228  6.221250000000001 12.689621206321025  6.4762500058593755 13.231590909090912  Z " fill-rule="nonzero" fill="#2c2c2c" stroke="none" transform="matrix(1 0 0 1 341 155 )" />
  </g>
</svg>