<?xml version="1.0" encoding="utf-8"?>
<svg version="1.1" xmlns:xlink="http://www.w3.org/1999/xlink" width="15px" height="12px" xmlns="http://www.w3.org/2000/svg">
  <g transform="matrix(1 0 0 1 -653 -56 )">
    <path d="M 0 3.2727272727272725  L 0 0  L 3.4615384615384617 0  L 3.4615384615384617 3.2727272727272725  L 0 3.2727272727272725  Z M 0 7.636363636363637  L 0 4.363636363636363  L 3.4615384615384617 4.363636363636363  L 3.4615384615384617 7.636363636363637  L 0 7.636363636363637  Z M 0 11.863636363636363  L 0 8.727272727272727  L 3.4615384615384617 8.727272727272727  L 3.4615384615384617 11.863636363636363  L 0 11.863636363636363  Z M 5.769230769230769 2.1818181818181817  L 5.769230769230769 1.0909090909090908  L 15 1.0909090909090908  L 15 2.1818181818181817  L 5.769230769230769 2.1818181818181817  Z M 5.769230769230769 6.545454545454545  L 5.769230769230769 5.454545454545454  L 15 5.454545454545454  L 15 6.545454545454545  L 5.769230769230769 6.545454545454545  Z M 5.769230769230769 10.909090909090908  L 5.769230769230769 9.818181818181818  L 15 9.818181818181818  L 15 10.909090909090908  L 5.769230769230769 10.909090909090908  Z " fill-rule="nonzero" fill="#81d3f8" stroke="none" fill-opacity="0.49019607843137253" transform="matrix(1 0 0 1 653 56 )" />
  </g>
</svg>