<?xml version="1.0" encoding="utf-8"?>
<svg version="1.1" xmlns:xlink="http://www.w3.org/1999/xlink" width="18px" height="19px" xmlns="http://www.w3.org/2000/svg">
  <g transform="matrix(1 0 0 1 -821 -117 )">
    <path d="M 17.575757575757574 14.2020202020202  C 17.858585858585858 14.500561167227831  18 14.863075196408527  18 15.289562289562289  C 18 15.71604938271605  17.858585858585858 16.078563411896745  17.575757575757574 16.377104377104377  L 15.515151515151514 18.552188552188554  C 15.232323232323235 18.850729517396186  14.88888888888889 19  14.484848484848484 19  C 14.080808080808083 19  13.737373737373739 18.850729517396186  13.454545454545455 18.552188552188554  L 9 13.850168350168351  L 4.545454545454546 18.552188552188554  C 4.262626262626263 18.850729517396186  3.9191919191919196 19  3.515151515151515 19  C 3.1111111111111116 19  2.767676767676768 18.850729517396186  2.484848484848485 18.552188552188554  L 0.42424242424242425 16.377104377104377  C 0.14141414141414155 16.078563411896745  0 15.71604938271605  0 15.289562289562289  C 0 14.863075196408527  0.14141414141414155 14.500561167227831  0.42424242424242425 14.2020202020202  L 4.878787878787879 9.5  L 0.42424242424242425 4.797979797979798  C 0.14141414141414155 4.499438832772165  0 4.13692480359147  0 3.71043771043771  C 0 3.2839506172839505  0.14141414141414155 2.9214365881032522  0.42424242424242425 2.6228956228956237  L 2.484848484848485 0.4478114478114479  C 2.767676767676768 0.14927048260381526  3.1111111111111116 0  3.515151515151515 0  C 3.9191919191919196 0  4.262626262626263 0.14927048260381526  4.545454545454546 0.4478114478114479  L 9 5.1498316498316505  L 13.454545454545455 0.4478114478114479  C 13.737373737373739 0.14927048260381526  14.080808080808083 0  14.484848484848484 0  C 14.88888888888889 0  15.232323232323235 0.14927048260381526  15.515151515151514 0.4478114478114479  L 17.575757575757574 2.6228956228956237  C 17.858585858585858 2.9214365881032522  18 3.2839506172839505  18 3.71043771043771  C 18 4.13692480359147  17.858585858585858 4.499438832772165  17.575757575757574 4.797979797979798  L 13.121212121212121 9.5  L 17.575757575757574 14.2020202020202  Z " fill-rule="nonzero" fill="#d9001b" stroke="none" transform="matrix(1 0 0 1 821 117 )" />
  </g>
</svg>