<?xml version="1.0" encoding="utf-8"?>
<svg version="1.1" xmlns:xlink="http://www.w3.org/1999/xlink" width="13px" height="13px" viewBox="189 330  13 13" xmlns="http://www.w3.org/2000/svg">
  <path d="M 195.5 330  C 199.14 330  202 332.86  202 336.5  C 202 340.14  199.14 343  195.5 343  C 191.86 343  189 340.14  189 336.5  C 189 332.86  191.86 330  195.5 330  Z " fill-rule="nonzero" fill="#f0f0f0" stroke="none" />
  <path d="M 195.5 330.5  C 198.86 330.5  201.5 333.14  201.5 336.5  C 201.5 339.86  198.86 342.5  195.5 342.5  C 192.14 342.5  189.5 339.86  189.5 336.5  C 189.5 333.14  192.14 330.5  195.5 330.5  Z " stroke-width="1" stroke="#797979" fill="none" />
  <path d="M 195.5 339.75  C 193.68 339.75  192.25 338.32  192.25 336.5  C 192.25 334.68  193.68 333.25  195.5 333.25  C 197.32 333.25  198.75 334.68  198.75 336.5  C 198.75 338.32  197.32 339.75  195.5 339.75  " fill-rule="nonzero" fill="#797979" stroke="none" />
</svg>