<?xml version="1.0" encoding="utf-8"?>
<svg version="1.1" xmlns:xlink="http://www.w3.org/1999/xlink" width="13px" height="14px" xmlns="http://www.w3.org/2000/svg">
  <g transform="matrix(1 0 0 1 -673 -160 )">
    <path d="M 679.5 160  C 683.14 160  686 163.08  686 167  C 686 170.92  683.14 174  679.5 174  C 675.86 174  673 170.92  673 167  C 673 163.08  675.86 160  679.5 160  Z " fill-rule="nonzero" fill="#ffffff" stroke="none" />
    <path d="M 679.5 160.5  C 682.86 160.5  685.5 163.36  685.5 167  C 685.5 170.64  682.86 173.5  679.5 173.5  C 676.14 173.5  673.5 170.64  673.5 167  C 673.5 163.36  676.14 160.5  679.5 160.5  Z " stroke-width="1" stroke="#797979" fill="none" />
  </g>
</svg>