<?xml version="1.0" encoding="utf-8"?>
<svg version="1.1" xmlns:xlink="http://www.w3.org/1999/xlink" width="19px" height="20px" xmlns="http://www.w3.org/2000/svg">
  <g transform="matrix(1 0 0 1 -822 -151 )">
    <path d="M 19 10  C 19 15.225000000000001  14.725 19.5  9.5 19.5  C 4.2749999999999995 19.5  0 15.225000000000001  0 10  C 0 4.7749999999999995  4.275 0.5  9.5 0.5  C 14.725 0.5  19 4.775  19 10  Z M 17.416666672851562 9.999999999999998  C 17.416666672851562 5.645833327148436  13.854166672851562 2.083333327148436  9.5 2.083333327148438  C 5.145833327148438 2.083333327148438  1.583333327148437 5.645833327148438  1.583333327148437 10  C 1.583333327148437 14.354166672851562  5.145833327148437 17.916666672851562  9.5 17.916666672851562  C 13.854166672851562 17.916666672851562  17.416666672851562 14.354166672851562  17.416666672851562 9.999999999999998  Z " fill-rule="nonzero" fill="#fe5343" stroke="none" transform="matrix(1 0 0 1 822 151 )" />
  </g>
</svg>