<?xml version="1.0" encoding="utf-8"?>
<svg version="1.1" xmlns:xlink="http://www.w3.org/1999/xlink" width="16px" height="16px" xmlns="http://www.w3.org/2000/svg">
  <g transform="matrix(1 0 0 1 -323 -188 )">
    <path d="M 331 188  C 335.48 188  339 191.52  339 196  C 339 200.48  335.48 204  331 204  C 326.52 204  323 200.48  323 196  C 323 191.52  326.52 188  331 188  Z " fill-rule="nonzero" fill="#ffffff" stroke="none" />
    <path d="M 331 188.5  C 335.2 188.5  338.5 191.8  338.5 196  C 338.5 200.2  335.2 203.5  331 203.5  C 326.8 203.5  323.5 200.2  323.5 196  C 323.5 191.8  326.8 188.5  331 188.5  Z " stroke-width="1" stroke="#797979" fill="none" />
  </g>
</svg>