<?xml version="1.0" encoding="utf-8"?>
<svg version="1.1" xmlns:xlink="http://www.w3.org/1999/xlink" width="13px" height="13px" viewBox="74 151  13 13" xmlns="http://www.w3.org/2000/svg">
  <path d="M 80.5 151  C 84.14 151  87 153.86  87 157.5  C 87 161.14  84.14 164  80.5 164  C 76.86 164  74 161.14  74 157.5  C 74 153.86  76.86 151  80.5 151  Z " fill-rule="nonzero" fill="#ffffff" stroke="none" />
  <path d="M 80.5 151.5  C 83.86 151.5  86.5 154.14  86.5 157.5  C 86.5 160.86  83.86 163.5  80.5 163.5  C 77.14 163.5  74.5 160.86  74.5 157.5  C 74.5 154.14  77.14 151.5  80.5 151.5  Z " stroke-width="1" stroke="#64cce1" fill="none" />
  <path d="M 80.5 160.75  C 78.68 160.75  77.25 159.32  77.25 157.5  C 77.25 155.68  78.68 154.25  80.5 154.25  C 82.32 154.25  83.75 155.68  83.75 157.5  C 83.75 159.32  82.32 160.75  80.5 160.75  " fill-rule="nonzero" fill="#64cce1" stroke="none" />
</svg>