<?xml version="1.0" encoding="utf-8"?>
<svg version="1.1" xmlns:xlink="http://www.w3.org/1999/xlink" width="13px" height="13px" viewBox="301 111  13 13" xmlns="http://www.w3.org/2000/svg">
  <path d="M 307.5 111  C 311.14 111  314 113.86  314 117.5  C 314 121.14  311.14 124  307.5 124  C 303.86 124  301 121.14  301 117.5  C 301 113.86  303.86 111  307.5 111  Z " fill-rule="nonzero" fill="#ffffff" stroke="none" />
  <path d="M 307.5 111.5  C 310.86 111.5  313.5 114.14  313.5 117.5  C 313.5 120.86  310.86 123.5  307.5 123.5  C 304.14 123.5  301.5 120.86  301.5 117.5  C 301.5 114.14  304.14 111.5  307.5 111.5  Z " stroke-width="1" stroke="#797979" fill="none" />
  <path d="M 307.5 120.75  C 305.68 120.75  304.25 119.32  304.25 117.5  C 304.25 115.68  305.68 114.25  307.5 114.25  C 309.32 114.25  310.75 115.68  310.75 117.5  C 310.75 119.32  309.32 120.75  307.5 120.75  " fill-rule="nonzero" fill="#797979" stroke="none" />
</svg>