<?xml version="1.0" encoding="utf-8"?>
<svg version="1.1" xmlns:xlink="http://www.w3.org/1999/xlink" width="20px" height="20px" xmlns="http://www.w3.org/2000/svg">
  <g transform="matrix(1 0 0 1 -599 -162 )">
    <path d="M 16.419270833333332 11.419270833333336  C 16.58420138888889 11.254340277777777  16.666666666666668 11.059027777777777  16.666666666666668 10.833333333333336  L 16.666666666666668 9.166666666666668  C 16.666666666666668 8.940972222222221  16.58420138888889 8.745659722222221  16.419270833333332 8.580729166666668  C 16.25434027777778 8.41579861111111  16.05902777777778 8.333333333333332  15.833333333333332 8.333333333333332  L 11.666666666666668 8.333333333333332  L 11.666666666666668 4.166666666666668  C 11.666666666666668 3.940972222222221  11.584201388888891 3.745659722222221  11.419270833333332 3.5807291666666674  C 11.254340277777779 3.4157986111111094  11.059027777777779 3.3333333333333326  10.833333333333332 3.3333333333333326  L 9.166666666666666 3.3333333333333326  C 8.940972222222223 3.3333333333333326  8.745659722222223 3.4157986111111094  8.580729166666666 3.5807291666666674  C 8.41579861111111 3.745659722222221  8.333333333333334 3.940972222222221  8.333333333333334 4.166666666666668  L 8.333333333333334 8.333333333333332  L 4.166666666666667 8.333333333333332  C 3.9409722222222228 8.333333333333332  3.7456597222222228 8.41579861111111  3.580729166666667 8.580729166666668  C 3.4157986111111116 8.745659722222221  3.333333333333333 8.940972222222221  3.333333333333333 9.166666666666668  L 3.333333333333333 10.833333333333336  C 3.333333333333333 11.059027777777777  3.4157986111111116 11.254340277777777  3.580729166666667 11.419270833333336  C 3.7456597222222228 11.58420138888889  3.9409722222222228 11.666666666666664  4.166666666666667 11.666666666666664  L 8.333333333333334 11.666666666666664  L 8.333333333333334 15.833333333333332  C 8.333333333333334 16.05902777777778  8.41579861111111 16.25434027777778  8.580729166666666 16.419270833333332  C 8.745659722222223 16.58420138888889  8.940972222222223 16.666666666666668  9.166666666666666 16.666666666666668  L 10.833333333333332 16.666666666666668  C 11.059027777777779 16.666666666666668  11.254340277777779 16.58420138888889  11.419270833333332 16.419270833333332  C 11.584201388888891 16.25434027777778  11.666666666666668 16.05902777777778  11.666666666666668 15.833333333333332  L 11.666666666666668 11.666666666666664  L 15.833333333333332 11.666666666666664  C 16.05902777777778 11.666666666666664  16.25434027777778 11.58420138888889  16.419270833333332 11.419270833333336  Z M 18.899739583333332 1.1002604166666674  C 19.63324652777778 1.8337673611111094  20 2.717013888888886  20 3.75  L 20 16.25  C 20 17.28298611111111  19.63324652777778 18.16623263888889  18.899739583333332 18.899739583333332  C 18.16623263888889 19.63324652777778  17.282986111111114 20  16.25 20  L 3.75 20  C 2.717013888888889 20  1.8337673611111114 19.63324652777778  1.1002604166666667 18.899739583333332  C 0.36675347222222215 18.16623263888889  0 17.28298611111111  0 16.25  L 0 3.75  C 0 2.717013888888886  0.36675347222222215 1.8337673611111094  1.1002604166666667 1.1002604166666674  C 1.8337673611111114 0.366753472222221  2.717013888888889 0  3.75 0  L 16.25 0  C 17.282986111111114 0  18.16623263888889 0.366753472222221  18.899739583333332 1.1002604166666674  Z " fill-rule="nonzero" fill="#000000" stroke="none" transform="matrix(1 0 0 1 599 162 )" />
  </g>
</svg>