<?xml version="1.0" encoding="utf-8"?>
<svg version="1.1" xmlns:xlink="http://www.w3.org/1999/xlink" width="13px" height="13px" viewBox="189 319  13 13" xmlns="http://www.w3.org/2000/svg">
  <path d="M 195.5 319  C 199.14 319  202 321.86  202 325.5  C 202 329.14  199.14 332  195.5 332  C 191.86 332  189 329.14  189 325.5  C 189 321.86  191.86 319  195.5 319  Z " fill-rule="nonzero" fill="#ffffff" stroke="none" />
  <path d="M 195.5 319.5  C 198.86 319.5  201.5 322.14  201.5 325.5  C 201.5 328.86  198.86 331.5  195.5 331.5  C 192.14 331.5  189.5 328.86  189.5 325.5  C 189.5 322.14  192.14 319.5  195.5 319.5  Z " stroke-width="1" stroke="#797979" fill="none" />
  <path d="M 195.5 328.75  C 193.68 328.75  192.25 327.32  192.25 325.5  C 192.25 323.68  193.68 322.25  195.5 322.25  C 197.32 322.25  198.75 323.68  198.75 325.5  C 198.75 327.32  197.32 328.75  195.5 328.75  " fill-rule="nonzero" fill="#797979" stroke="none" />
</svg>