<?xml version="1.0" encoding="utf-8"?>
<svg version="1.1" xmlns:xlink="http://www.w3.org/1999/xlink" width="13px" height="13px" viewBox="94 319  13 13" xmlns="http://www.w3.org/2000/svg">
  <path d="M 100.5 319  C 104.14 319  107 321.86  107 325.5  C 107 329.14  104.14 332  100.5 332  C 96.86 332  94 329.14  94 325.5  C 94 321.86  96.86 319  100.5 319  Z " fill-rule="nonzero" fill="#ffffff" stroke="none" />
  <path d="M 100.5 319.5  C 103.86 319.5  106.5 322.14  106.5 325.5  C 106.5 328.86  103.86 331.5  100.5 331.5  C 97.14 331.5  94.5 328.86  94.5 325.5  C 94.5 322.14  97.14 319.5  100.5 319.5  Z " stroke-width="1" stroke="#797979" fill="none" />
  <path d="M 100.5 328.75  C 98.68 328.75  97.25 327.32  97.25 325.5  C 97.25 323.68  98.68 322.25  100.5 322.25  C 102.32 322.25  103.75 323.68  103.75 325.5  C 103.75 327.32  102.32 328.75  100.5 328.75  " fill-rule="nonzero" fill="#797979" stroke="none" />
</svg>