<?xml version="1.0" encoding="utf-8"?>
<svg version="1.1" xmlns:xlink="http://www.w3.org/1999/xlink" width="13px" height="13px" viewBox="179 427  13 13" xmlns="http://www.w3.org/2000/svg">
  <path d="M 185.5 427  C 189.14 427  192 429.86  192 433.5  C 192 437.14  189.14 440  185.5 440  C 181.86 440  179 437.14  179 433.5  C 179 429.86  181.86 427  185.5 427  Z " fill-rule="nonzero" fill="#f0f0f0" stroke="none" />
  <path d="M 185.5 427.5  C 188.86 427.5  191.5 430.14  191.5 433.5  C 191.5 436.86  188.86 439.5  185.5 439.5  C 182.14 439.5  179.5 436.86  179.5 433.5  C 179.5 430.14  182.14 427.5  185.5 427.5  Z " stroke-width="1" stroke="#797979" fill="none" />
  <path d="M 185.5 436.75  C 183.68 436.75  182.25 435.32  182.25 433.5  C 182.25 431.68  183.68 430.25  185.5 430.25  C 187.32 430.25  188.75 431.68  188.75 433.5  C 188.75 435.32  187.32 436.75  185.5 436.75  " fill-rule="nonzero" fill="#797979" stroke="none" />
</svg>