<?xml version="1.0" encoding="utf-8"?>
<svg version="1.1" xmlns:xlink="http://www.w3.org/1999/xlink" width="29px" height="29px" xmlns="http://www.w3.org/2000/svg">
  <g transform="matrix(1 0 0 1 -138 -297 )">
    <path d="M 13.067193647904793 25.790513822798264  L 15.93280635209521 25.790513822798264  L 15.93280635209521 28.656126462624297  L 13.067193647904793 28.656126462624297  L 13.067193647904793 25.790513822798264  Z M 0.1719367365056221 14.328063263494302  C 0.1719367365056221 6.4146739102449954  6.5866106467506915 0  14.5 0  C 22.41338935324931 0  28.828063263494375 6.4146739102449954  28.828063263494375 14.328063263494302  C 28.831456682474975 18.928658434277725  26.622650997009767 23.25030428061821  22.891946637517794 25.94239128196026  L 22.51798418412638 26.204594830877166  L 20.913241095525553 23.83043480779475  C 24.071030740668352 21.69939451916463  25.96372857858002 18.13873423912298  25.96372857858002 14.329145264609416  C 25.96372857858002 7.998608589468923  20.83181463005209 2.866694640941065  14.501277954911673 2.866694640941065  C 8.170741279771256 2.866694640941065  3.0388273312433243 7.998608589468923  3.0388273312433243 14.329145264609416  C 3.0388273312433243 18.045241169782898  4.8403189764698595 21.53074332985469  7.871837919477995 23.679990098987886  L 8.208547447620731 23.912104731889233  L 6.6338932750355335 26.304891281960227  C 2.5984491479737866 23.65737736371514  0.16895449476891145 19.154462579358377  0.1719367365056221 14.328063263494302  Z M 8.420602738813914 12.895256911399171  L 14.5 6.815859714577396  L 20.579397261186088 12.895256911399171  L 18.551976276189635 14.921245081676107  L 16 12.300642278497852  L 16 22.92490118297231  L 13 22.92490118297231  L 13 12.300642278497852  L 10.448023723810365 14.922677896395623  L 8.420602738813914 12.895256911399171  Z " fill-rule="nonzero" fill="#1296db" stroke="none" transform="matrix(1 0 0 1 138 297 )" />
  </g>
</svg>