<?xml version="1.0" encoding="utf-8"?>
<svg version="1.1" xmlns:xlink="http://www.w3.org/1999/xlink" width="19px" height="30px" xmlns="http://www.w3.org/2000/svg">
  <g transform="matrix(1 0 0 1 -341 -293 )">
    <path d="M 17.200078628021817 29.98684210526316  L 17.20754716981132 30  L 2.041902504053657 30  C 0.9947938587544404 29.990574313393605  0.14504490417595597 29.160834841523254  0.14339622641509508 28.135964912280702  C 0.14421851328434696 27.112235538217938  0.9914799753187856 26.282313623348536  2.037421371978183 26  L 15.515172967644457 26  C 15.706590338739481 27.647409176065942  16.29092660046188 28.932722798648882  17.200078628021817 29.98684210526316  Z M 15.500235849056601 24.43567252604166  L 15.501729571418041 24  L 0.939544013487618 24  C 0.5006686864935865 24.43421050739156  0.1448899487765332 24.085987535466803  0.1448899487765332 23.65643273711623  L 0.1448899487765332 21.95760235060307  C 0.14488760755353075 21.956570196044474  0.1448864369409473 21.955538039259867  0.1448864369409473 21.954505882157573  C 0.1448864369409473 21.18421399423568  0.7828806684320664 20.559769040052313  1.5698864369409484 20.559769040052313  C 1.577356507411147 20.559769040052313  1.5848264624103043 20.559826531494203  1.5922956091538916 20.559941509046055  C 3.5548358660707233 20.474420291329352  5.466584352909948 19.922459202782804  7.162342778965213 18.951754385964918  C 8.328930840949292 18.28801168448465  10.287185557930425 16.89035087719299  10.28718552292158 14.978070175438601  L 10.28718552292158 14.777777789199567  C 10.28718552292158 13.368421052631582  10.28718552292158 13.033625753837724  8.29606919405955 11.108187123081144  C 6.794781631622813 9.987503685872623  5.923038253994587 8.238219791915776  5.944968541789504 6.390350877192982  C 5.939066494129909 4.71579777888911  6.625448654451013 3.110109417081489  7.847955986512377 1.9385964912280702  C 9.078495008926073 0.753079496568863  10.738384683638 0.09239683924882744  12.465015711600826 0.10087719298245665  C 14.19103972239296 0.0910688511507676  15.850900704027756 0.7501633018291243  17.08207547169811 1.9342105263157896  C 18.30475181783131 3.1068136750038478  18.99109059905027 4.713455155995633  18.985062881412148 6.388888877467105  C 19.004742062118783 8.236596053994386  18.132813858707006 9.985139966756243  16.632468541789503 11.106725157620614  C 14.840015711600826 13.007309964364035  14.638364768204598 13.359649122807015  14.638364768204598 14.599415193256577  L 14.638364768204598 14.973684210526313  C 14.638364768204598 16.574561403508767  16.063364768204597 18.171052631578945  18.548899382738796 19.359649122807017  C 16.851841206750805 20.559656536152108  15.746104914403979 22.400706962264334  15.500235849056601 24.43567252604166  Z " fill-rule="nonzero" fill="#13227a" stroke="none" transform="matrix(1 0 0 1 341 293 )" />
  </g>
</svg>