<?xml version="1.0" encoding="utf-8"?>
<svg version="1.1" xmlns:xlink="http://www.w3.org/1999/xlink" width="12px" height="12px" xmlns="http://www.w3.org/2000/svg">
  <g transform="matrix(1 0 0 1 -357 -312 )">
    <path d="M 11.858823529411758 6.0161764590992615  C 11.858823529411758 9.264910287978523  9.225204405625583 11.898529411764702  5.9764705767463155 11.898529411764702  C 2.7277367613272228 11.898529392729152  0.09411765854779014 9.264910274518353  0.09411765854779014 6.0161764590992615  C 0.09411767758334039 2.7674426571403368  2.7277367747873917 0.13382355993628306  5.9764705767463155 0.13382354090073284  C 9.22520439216542 0.13382354090073284  11.858823510376208 2.767442643680168  11.858823529411758 6.0161764590992615  Z M 3.19558824678308 4.522058823529411  C 3.0376931574422503 4.359311869572525  2.820870007988368 4.267069260075389  2.5941176470588214 4.266176470588232  C 2.3897188601745314 4.264926540807071  2.1932944378215664 4.345402312483092  2.0485294232536706 4.4897058708639666  C 1.9044009030570956 4.63507206549837  1.824436988396093 4.832069249040449  1.8264705882352907 5.036764694393382  C 1.8271488763331747 5.262543825689185  1.9182486448758378 5.478640941254004  2.079411776194849 5.636764694393383  L 4.90147058823529 8.460294106158088  C 5.060844467936005 8.619422911931641  5.276264492649644 8.70970924581898  5.501470588235286 8.71176469439338  C 5.706166028626436 8.713798303379935  5.9031632114716315 8.633834401413418  6.048529411764702 8.489705893841908  C 6.095798373459488 8.459167011366876  6.139674140005986 8.423672006101114  6.179411753216906 8.383823540900732  L 9.89852940027573 4.664705893841917  C 10.046767204930564 4.5171652098420125  10.129892396269941 4.316499944878033  10.129411764705878 4.1073529411764715  C 10.129892396269941 3.89820593747491  10.046767204930553 3.6975406725109363  9.89852940027573 3.549999988511032  C 9.750536761133151 3.4015381713201593  9.549329899948376 3.3184079747106656  9.339705882352938 3.3191176585477935  C 9.130081864757486 3.3184079747106607  8.928875003572724 3.401538171320149  8.78088236443014 3.549999988511032  L 5.502941187959548 6.827941164981619  L 3.19558824678308 4.522058823529411  Z " fill-rule="nonzero" fill="#13227a" stroke="none" transform="matrix(1 0 0 1 357 312 )" />
  </g>
</svg>