<?xml version="1.0" encoding="utf-8"?>
<svg version="1.1" xmlns:xlink="http://www.w3.org/1999/xlink" width="25px" height="28px" xmlns="http://www.w3.org/2000/svg">
  <g transform="matrix(1 0 0 1 -231 -294 )">
    <path d="M 24.996815557065215 8.186511075949367  C 24.997523211050723 7.7064378955696204  24.806102807971016 7.254400712025317  24.458290874094203 6.914161392405063  L 18.076667232789855 0.6739022943037976  C 17.729209125905797 0.3340090981012658  17.267111073369566 0.14710245253164558  16.775999207427535 0.14710245253164558  L 1.9131425498188404 0.14710245253164558  C 1.4216768568840565 0.14710245253164558  0.959578804347826 0.33435522151898733  0.6117668704710145 0.6745945411392404  C 0.2643087635869565 1.0148338607594942  0.07288836050724637 1.4668710443037973  0 1.9476364715189873  L 0 26.055478639240505  C 0.08208786231884058 27.047468354430382  0.9075662364130435 27.854628164556964  1.9216343976449275 27.854628164556964  L 14.803767549818842 27.854628164556964  C 15.428979846014492 27.854628164556964  15.936013926630435 27.358633306962027  15.936013926630435 26.747033227848103  C 15.936013926630435 26.135433148734176  15.428979846014492 25.639438291139243  14.803767549818842 25.639438291139243  L 2.3462267889492754 25.639438291139243  L 2.338088768115942 2.362292325949367  L 15.90204653532609 2.362292325949367  L 15.900277400362322 2.3913666930379747  L 15.903461843297107 7.231902689873417  C 15.904169497282613 8.22354628164557  16.72964787137682 9.03035996835443  17.74336220561595 9.03035996835443  L 22.695170969202906 9.03035996835443  L 22.732322803442027 9.028975474683541  L 22.73090749547102 16.766564477848103  C 22.73090749547102 17.378164556962023  23.237587749094207 17.874159414556964  23.863153872282613 17.874159414556964  C 24.48836616847826 17.874159414556964  24.995400249094207 17.378510680379744  24.995400249094207 16.766564477848103  L 24.996815557065215 8.186511075949367  Z M 21.15390058876812 6.815516218354429  L 18.167954596920293 6.815516218354429  L 18.165831634963773 3.8935423259493653  L 21.15390058876812 6.815516218354429  Z " fill-rule="nonzero" fill="#8eeb94" stroke="none" transform="matrix(1 0 0 1 231 294 )" />
  </g>
</svg>