<?xml version="1.0" encoding="utf-8"?>
<svg version="1.1" xmlns:xlink="http://www.w3.org/1999/xlink" width="28px" height="29px" xmlns="http://www.w3.org/2000/svg">
  <g transform="matrix(1 0 0 1 -49 -297 )">
    <path d="M 6.499543655166185 0  L 18.425311836163296 0  L 18.425311836163296 2.1385193606198487  L 24.38819592666185 2.1385193606198487  C 24.593908884879262 2.138451847185144  24.77027317972341 2.283143723275261  24.80730148572977 2.4823597602592717  L 24.814116212066473 2.557836909769917  L 24.814116212066473 10.754655881911058  C 26.70653925474219 11.790289797035353  27.879801133697736 13.754685308179056  27.87903864703757 15.886263736263734  C 27.87997303278701 18.017665514227552  26.707062349708657 19.982018966751674  24.81496804100434 21.017871590616412  L 24.81411621206648 28.555523432134272  C 24.81418479138926 28.758047345306142  24.667214546420063 28.931677574792992  24.464861574241333 28.96813186813187  L 24.38819592666185 29  L 0.53665956466763 29  C 0.33094661638701456 28.974908466344914  0.1545823250844447 28.83021660625651  0.11755400559971102 28.631000581644916  L 0.11073927926300588 28.555523432134272  L 0.11073927926300588 2.557836909769917  C 0.11067068466941848 2.3553129848648484  0.2576409331801936 2.1816827380978396  0.45999391708815035 2.1452284426510992  L 0.53665956466763 2.1385193606198487  L 6.499543655166185 2.1385193606198487  L 6.499543655166185 0  Z M 6.499543655166185 5  L 6.499543655166185 2.977154427798764  L 1 2.977154427798764  L 1 28  L 23.96227564125722 28  L 23.96227564125722 21.401966451322117  C 23.30771960914438 21.63692286545475  22.616403041115632 21.757128393822974  21.9196962481365 21.757128393822974  C 18.626486299945494 21.757128393822974  15.95681215763795 19.128840487238016  15.95681215763795 15.886683048055461  C 15.95681215763795 12.644525608872904  18.626486299945494 10.016237702287945  21.9196962481365 10.016237702287945  C 22.616403041115635 10.016237702287945  23.30771960914437 10.136443230656166  23.96227564125722 10.371399644788804  L 23.96227564125722 2.977154427798764  L 18.425311836163296 2.977154427798764  L 18.425311836163296 5  L 6.499543655166185 5  Z M 3.0921813087066488 16.3953152225704  L 9.055065399205205 16.3953152225704  C 9.290294709089027 16.3953152225704  9.480985716221095 16.583050070055016  9.480985716221095 16.814632740599247  L 9.480985716221097 22.68507808636676  C 9.4809857162211 22.824850592376382  9.480985716221095 22.545305580357148  9.480985716221095 22.685078086366765  C 9.480985716221095 22.916660756910996  9.290294709089027 23.10439560439561  9.055065430816471 23.10439560439561  L 3.0921813087066488 23.10439560439561  C 2.856952030434092 23.10439560439561  2.666261023302024 22.916660756910993  2.666261023302024 22.68507808636676  L 2.666261023302024 16.814632740599247  C 2.666261023302024 16.583050070055016  2.8569520304340954 16.3953152225704  3.0921813087066488 16.3953152225704  Z M 8.629145113800579 22.26576056833791  L 8.629145113800579 17.23395025862809  L 3.518101625722544 17.23395025862809  L 3.518101625722544 22.26576056833791  L 8.629145113800579 22.26576056833791  Z M 10.758746572434971 20.16917294707246  L 16.367264988258672 20.16917294707246  L 16.367264988258672 21.007807983130153  L 10.758746572434971 21.007807983130153  L 10.758746572434971 20.16917294707246  Z M 21.916154556539016 10.854453426553919  C 19.09340316489311 10.854453426553919  16.80511103684971 13.107271638169644  16.80511103684971 15.886263736263738  C 16.80511103684971 18.665255834357836  19.09340316489311 20.918074045973558  21.916154556539016 20.918074045973558  C 24.738905948184918 20.918074045973558  27.027198076228323 18.665255834357836  27.027198076228323 15.886263736263738  C 27.027198076228323 13.107271638169644  24.738905948184918 10.854453426553919  21.916154556539016 10.854453426553919  Z M 24.55089746658237 13.891989592633927  L 25.1446303603685 14.429554654232485  L 21.002981448699423 18.574927698961194  L 21.001277759212428 18.574089075377753  L 18.413386072976877 16.160497382597875  L 19.02671128522399 15.578484679773357  L 20.98338909862717 17.41509544235062  L 24.55089746658237 13.892828216217378  Z M 10.758746572434971 17.653267776656936  L 14.70191665462428 17.653267776656936  L 14.70191665462428 18.49190284383585  L 10.758746572434971 18.49190284383585  L 10.758746572434971 17.653267776656936  Z M 3.0921813087066488 8.008964706387362  L 9.055065399205205 8.008964706387362  C 9.290294709089027 8.008964706387362  9.480985716221097 8.196699553871978  9.480985716221097 8.42828222441621  L 9.480985716221097 14.298727601304945  C 9.4809857162211 14.158955095295328  9.480985716221095 14.438500107314558  9.480985716221095 14.298727601304941  C 9.480985716221095 14.53031027184917  9.290294709089027 14.718045119333786  9.055065430816471 14.718045119333786  L 3.0921813087066488 14.718045119333786  C 2.8569520304340963 14.718045119333786  2.6662610233020247 14.53031027184917  2.666261023302024 14.298727601304943  L 2.666261023302024 8.42828225553743  C 2.6662610233020225 8.19669955387198  2.856952030434093 8.008964706387363  3.0921813087066465 8.008964706387363  C 2.8082344517702307 8.008964706387363  3.3761281656430646 8.008964706387363  3.0921813087066488 8.008964706387362  Z M 8.629145113800579 13.879410052154876  L 8.629145113800579 8.847599773566277  L 3.518101625722544 8.847599773566277  L 3.518101625722544 13.879410052154876  L 8.629145113800579 13.879410052154876  Z M 10.758746572434971 11.782822430889421  L 16.367264988258672 11.782822430889421  L 16.367264988258672 12.621457498068336  L 10.758746572434971 12.621457498068336  L 10.758746572434971 11.782822430889421  Z M 10.758746572434971 9.266917291595124  L 18.425311836163296 9.266917291595124  L 18.425311836163296 10.105552327652816  L 10.758746572434971 10.105552327652816  L 10.758746572434971 9.266917291595124  Z M 17.573471265354048 4.235107013006525  L 17.573471265354048 1  L 7.351384225975433 1  L 7.351384225975433 4.235107013006525  L 17.573471265354048 4.235107013006525  Z " fill-rule="nonzero" fill="#76a4f5" stroke="none" transform="matrix(1 0 0 1 49 297 )" />
  </g>
</svg>