<?xml version="1.0" encoding="utf-8"?>
<svg version="1.1" xmlns:xlink="http://www.w3.org/1999/xlink" width="10px" height="18px" xmlns="http://www.w3.org/2000/svg">
  <g transform="matrix(1 0 0 1 -235 -299 )">
    <path d="M 0.7489346590909091 1.1465033373786384  C 0.7507102272727273 1.74859678398058  1.2592329545454546 2.2356644417475726  1.8852982954545454 2.2356644417475726  L 1.888494318181817 2.2356644417475726  L 6.460582386363633 2.2237181432038837  C 7.0880681818181825 2.2220115291262137  7.595525568181816 1.7318719660194175  7.59375 1.1284132281553387  C 7.591974431818182 0.5263197815533981  7.083451704545455 0.03925212378640652  6.457386363636363 0.03925212378640652  L 6.454190340909091 0.03925212378640652  L 1.8821022727272727 0.05119842233009585  C 1.2546164772727273 0.05290503640776699  0.7471590909090922 0.5430445995145632  0.7489346590909091 1.1465033373786384  Z M 8.703480113636367 6.60425515776699  C 9.331321022727273 6.60425515776699  9.839843750000002 6.115139563106796  9.839843750000002 5.512022148058253  C 9.839843750000002 4.9089047330097095  9.33096590909091 4.419789138349515  8.703480113636367 4.419789138349515  L 1.911221590909091 4.419789138349515  C 1.2837357954545456 4.419789138349515  0.7748579545454546 4.9089047330097095  0.7748579545454546 5.512022148058253  C 0.7748579545454546 6.115139563106796  1.2837357954545456 6.60425515776699  1.911221590909091 6.60425515776699  L 8.703480113636367 6.60425515776699  Z M 3.3533380681818183 11.718294902912625  C 1.584872159090909 11.718294902912625  0.14666193181818182 13.100993628640776  0.14666193181818182 14.800098604368932  C 0.14666193181818182 16.49954490291262  1.5852272727272725 17.881902305825243  3.3533380681818183 17.881902305825243  C 5.121448863636363 17.881902305825243  6.559659090909092 16.499203580097088  6.559659090909092 14.800098604368932  C 6.559659090909092 13.100993628640776  5.1210937500000036 11.718294902912625  3.3533380681818183 11.718294902912625  Z M 3.3533380681818183 12.400940533980586  C 4.729403409090909 12.400940533980586  5.849431818181818 13.477131371359224  5.849431818181818 14.800098604368932  C 5.849431818181818 16.12306583737864  4.729758522727275 17.19925667475728  3.3533380681818183 17.19925667475728  C 1.9769176136363622 17.19925667475728  0.8568892045454546 16.12306583737864  0.8568892045454546 14.800098604368932  C 0.8568892045454546 13.477131371359224  1.9765624999999987 12.400940533980586  3.3533380681818183 12.400940533980586  Z " fill-rule="nonzero" fill="#8eeb94" stroke="none" transform="matrix(1 0 0 1 235 299 )" />
  </g>
</svg>