<?xml version="1.0" encoding="utf-8"?>
<svg version="1.1" xmlns:xlink="http://www.w3.org/1999/xlink" width="4px" height="4px" xmlns="http://www.w3.org/2000/svg">
  <g transform="matrix(1 0 0 1 -237 -313 )">
    <path d="M 2.8234375 3.869921875  L 2.8234375 1.77578125  C 3.059765625000003 2.016015625  3.28515625 2.2562499999999943  3.498828125000003 2.496875  L 3.914453125 2.084765625  C 3.6449218750000028 1.817578125  3.343359375 1.539453125  3.010546875000003 1.24921875  L 2.8234375 1.415234375  L 2.8234375 0.10859375  L 2.2703125 0.10859375  L 2.2703125 3.869921875  L 2.8234375 3.869921875  Z M 1.3652343750000029 2.099609375  C 1.3152343750000057 2.066796875  1.2632812500000028 2.034375  1.209765625 2.002734375  L 1.209765625 1.8234375  C 1.3609375 1.6390625  1.4945312500000028 1.458984375  1.61015625 1.28359375  L 1.61015625 0.8257812499999944  L 0.98828125 0.8257812499999944  L 1.323828125 0.6273437499999943  C 1.194140625 0.4441406249999943  1.04296875 0.2511718749999943  0.869921875 0.047656249999994314  L 0.43124999999999714 0.2957031249999943  C 0.5812499999999972 0.4878906249999943  0.7105468749999971 0.6644531249999943  0.818359375 0.8257812499999944  L 0.13359375 0.8257812499999944  L 0.13359375 1.321875  L 0.9917968750000028 1.321875  C 0.7375000000000028 1.6550781249999944  0.42734375000000285 1.969140625  0.060937500000002844 2.2640625  C 0.12460937500000142 2.44453125  0.18164062500000142 2.6367187499999942  0.23242187500000142 2.840234375  C 0.39023437500000285 2.694140625  0.538671875 2.550390625  0.6789062500000028 2.408984375  L 0.6789062500000028 3.869921875  L 1.2089843750000029 3.869921875  L 1.2089843750000029 2.5328125  C 1.382031250000003 2.6625  1.563671875 2.8031249999999943  1.754296875 2.9542968749999945  L 2.07109375 2.557421875  L 1.6992187500000029 2.311328125  C 1.844140625 2.137109375  1.9871093750000028 1.955859375  2.128515625000003 1.767578125  L 1.7468750000000028 1.52734375  C 1.626171875000003 1.71796875  1.4988281250000028 1.908984375  1.3652343750000029 2.099609375  Z " fill-rule="nonzero" fill="#8eeb94" stroke="none" transform="matrix(1 0 0 1 237 313 )" />
  </g>
</svg>