<?xml version="1.0" encoding="utf-8"?>
<svg version="1.1" xmlns:xlink="http://www.w3.org/1999/xlink" width="8px" height="10px" xmlns="http://www.w3.org/2000/svg">
  <g transform="matrix(1 0 0 1 -247 -311 )">
    <path d="M 4.958899456521739 0.8326099537037063  C 4.587296195652169 0.3038194444444471  3.8811141304347827 0.19603587962963226  3.3848505434782608 0.5920862268518519  L 0.45584239130434534 2.9282407407407405  C -0.017663043478265812 3.3058449074074074  -0.11413043478261117 4.023075810185185  0.24048913043478012 4.526909722222222  C 0.5978260869565168 5.035083912037037  1.27683423913043 5.138888888888888  1.7540760869565217 4.758029513888889  L 1.846467391304348 4.684244791666671  L 4.9650135869565215 9.117838541666671  C 5.077445652173908 9.27770543981482  5.290421195652174 9.310257523148152  5.440557065217392 9.19053819444445  L 5.689198369565218 8.992332175925931  L 6.078125 9.545355902777779  C 6.388247282608695 9.986255787037043  6.977241847826087 10.076316550925926  7.391304347826087 9.74609375  L 7.547554347826087 9.621672453703704  C 7.990149456521739 9.268663194444445  8.080842391304348 8.597728587962962  7.748980978260869 8.12644675925926  L 7.414402173913044 7.650824652777778  L 7.663043478260869 7.4526186342592595  C 7.813179347826087 7.332899305555555  7.84375 7.106119791666662  7.731317934782608 6.946252893518519  L 4.597146739130435 2.490596064814815  L 4.752038043478261 2.3668981481481484  C 5.206182065217392 2.0044849537037037  5.298913043478261 1.3165509259259287  4.958899456521739 0.8326099537037063  Z M 4.054008152173913 2.9235387731481532  L 6.984375 7.090205439814815  L 6.735733695652169 7.288411458333334  C 6.585597826086956 7.408130787037032  6.555027173913039 7.634910300925926  6.667459239130435 7.794777199074074  L 7.205502717391305 8.559751157407407  C 7.3125 8.712022569444445  7.283288043478261 8.928313078703704  7.140625 9.04224537037037  L 6.984375 9.166666666666666  C 6.870244565217392 9.2578125  6.707880434782608 9.232855902777779  6.622282608695652 9.111328125  L 6.029551630434782 8.268590856481486  C 5.917119565217392 8.108723958333337  5.7041440217391255 8.076171875  5.554008152173913 8.19589120370371  L 5.305366847826082 8.394097222222229  L 2.3902853260869565 4.250217013888894  L 4.054008152173913 2.9235387731481532  Z M 4.415760869565218 1.2655526620370292  C 4.530910326086956 1.4304832175925821  4.499660326086956 1.6644965277777675  4.345108695652174 1.7874710648148149  L 3.9181385869565166 2.12782118055555  L 1.7109374999999951 3.8881655092592537  L 1.3464673913043428 4.178964120370365  C 1.1691576086956448 4.3203848379629575  0.9167798913043429 4.281684027777772  0.7839673913043453 4.092881944444439  C 0.6538722826086907 3.908058449074069  0.6895380434782584 3.6451099537036984  0.8631114130434758 3.506582754629624  L 3.7924592391304346 1.1704282407407327  C 3.98879076086956 1.0138165509259154  4.268682065217392 1.0564959490740662  4.415760869565218 1.2655526620370292  Z M 1.9840353260869565 0.2564380787037116  C 1.814538043478261 0.015190972222232748  1.4932065217391304 -0.03399884259258207  1.2669836956521738 0.1468460648148148  L 0.8203125000000024 0.5031105324074101  C 0.5689538043478286 0.7034866898148149  0.5176630434782633 1.0832609953703702  0.7061820652173938 1.3509114583333388  L 1.3216711956521763 2.2262008101851904  L 2.633491847826087 1.1798321759259338  L 1.9840353260869565 0.2564380787037116  Z " fill-rule="nonzero" fill="#8eeb94" stroke="none" transform="matrix(1 0 0 1 247 311 )" />
  </g>
</svg>