<?xml version="1.0" encoding="utf-8"?>
<svg version="1.1" xmlns:xlink="http://www.w3.org/1999/xlink" width="26px" height="33px" xmlns="http://www.w3.org/2000/svg">
  <g transform="matrix(1 0 0 1 -448 -297 )">
    <path d="M 11.20830078125 30.638769531250006  C 11.20830078125 30.320800781250007  10.94814453125 30.064257812500003  10.63017578125 30.064257812499996  L 3 30.064257812499996  L 3 3  L 22.8033203125 3  L 22.8033203125 15.86767578125  C 22.8033203125 16.185644531250002  23.0634765625 16.44580078125  23.3814453125 16.44580078125  L 24.823144531249998 16.44580078125  C 25.141113281249996 16.44580078125  25.401269531249998 16.185644531250002  25 15.86767578125  L 25 1.49404296875  C 25.401269531249998 0.8581054687499998  24.88095703125 0.34140625000000036  24.2486328125 1  L 1.1633789062500002 1  C 0.5274414062500004 0.34140625000000036  0.0107421875 0.8617187500000005  0 1.4940429687500005  L 0 31.505957031250006  C 0.0107421875 32.14189453125  0.5310546875000002 32.65859375  1.1633789062500002 32.65859375  L 10.63017578125 32.65859375  C 10.94814453125 32.65859375  11.20830078125 32.3984375  11.20830078125 32.08046875  L 11.20830078125 30.638769531250006  Z " fill-rule="nonzero" fill="#000000" stroke="none" transform="matrix(1 0 0 1 448 297 )" />
  </g>
</svg>