<?xml version="1.0" encoding="utf-8"?>
<svg version="1.1" xmlns:xlink="http://www.w3.org/1999/xlink" width="18px" height="16px" xmlns="http://www.w3.org/2000/svg">
  <g transform="matrix(1 0 0 1 -458 -314 )">
    <path d="M 17.500585937500002 7.528710937500001  C 17.8908203125 7.264941406250003  17.82216796875 6.67236328125  17.3849609375 6.506152343749999  L 1.5985351562500014 0.5081054687499993  C 1.154101562500001 0.33828124999999787  0.7060546875000018 0.7538085937499979  0.8397460937500014 1.2090820312499986  L 5.031152343750001 15.445410156249999  C 5.143164062500002 15.824804687499999  5.594824218750002 15.980175781249997  5.916406250000001 15.752539062499999  L 9.20087890625 13.440039062499999  L 10.722070312500001 14.849218749999999  C 11.07978515625 15.181640625  11.661523437500001 14.94677734375  11.6904296875 14.458984375  L 11.87470703125 11.286523437500001  C 11.885546875 11.1203125  11.8205078125 10.95771484375  11.701269531250002 10.842089843750003  L 4.275976562500002 3.5902343750000014  L 13.17548828125 9.985742187500001  C 13.37060546875 10.12666015625  13.634375000000002 10.130273437500001  13.833105468750002 9.99658203125  L 17.500585937500002 7.528710937500001  Z " fill-rule="nonzero" fill="#000000" stroke="none" transform="matrix(1 0 0 1 458 314 )" />
  </g>
</svg>