<?xml version="1.0" encoding="utf-8"?>
<svg version="1.1" xmlns:xlink="http://www.w3.org/1999/xlink" width="16px" height="9px" xmlns="http://www.w3.org/2000/svg">
  <g transform="matrix(1 0 0 1 -439 -303 )">
    <path d="M 14.64892578125 2.619433593750001  C 14.88740234375 2.619433593750001  15.08251953125 2.4315429687500014  15.08251953125 2.2002929687500004  L 15.08251953125 0.7296875000000007  C 15.08251953125 0.4984375000000014  14.88740234375 0.3105468750000018  14.64892578125 0.3105468750000018  L 0.7269531249999996 0.3105468750000018  C 0.48847656249999893 0.3105468750000018  0.29335937499999964 0.4984375000000014  0.29335937499999964 0.7296875000000007  L 0.29335937499999964 2.2002929687500004  C 0.29335937499999964 2.4315429687499996  0.48847656249999893 2.619433593750001  0.7269531249999996 2.619433593750001  L 14.64892578125 2.619433593750001  Z M 7.183886718749999 6.11708984375  L 0.6908203124999996 6.11708984375  C 0.45234374999999893 6.11708984375  0.25722656249999964 6.304980468749999  0.25722656249999964 6.53623046875  L 0.25722656249999964 8.0068359375  C 0.25722656249999964 8.2380859375  0.45234374999999893 8.4259765625  0.6908203124999996 8.4259765625  L 7.183886718749999 8.4259765625  C 7.42236328125 8.4259765625  7.617480468749999 8.238085937500003  7.617480468749999 8.0068359375  L 7.617480468749999 6.53623046875  C 7.617480468749999 6.304980468750001  7.42236328125 6.11708984375  7.183886718749999 6.11708984375  Z " fill-rule="nonzero" fill="#000000" stroke="none" transform="matrix(1 0 0 1 439 303 )" />
  </g>
</svg>