<?xml version="1.0" encoding="utf-8"?>
<svg version="1.1" xmlns:xlink="http://www.w3.org/1999/xlink" width="34px" height="21px" xmlns="http://www.w3.org/2000/svg">
  <g transform="matrix(1 0 0 1 -539 -308 )">
    <path d="M 33.625 10.865234375  C 33.625 5.484375  29.24609375 1.10546875  23.8615234375 1.10546875  C 22.280664062499998 1.10546875  20.7888671875 1.4839843749999986  19.4640625 2.1556640625000014  L 18.606835937499998 0.2705078125  C 17.9537109375 0.7121093749999989  17.226367187499996 1.0460937500000007  16.443359374999996 1.2501953125000007  L 17.4638671875 3.4990234375  C 15.912695312499999 4.846093749999998  14.7919921875 6.675585937499999  14.3318359375 8.75  L 9.203320312499999 8.75  L 12.728710937499999 1.2093750000000014  C 11.953125 0.9867187499999996  11.2294921875 0.6378906250000007  10.5875 0.18144531250000107  L 6.5833984375 8.75  L 1 8.75  L 1 20.625  L 23.0859375 20.625  L 23.0859375 20.5953125  C 23.3419921875 20.6138671875  23.6017578125 20.625  23.8615234375 20.625  C 26.4703125 20.625  28.91953125 19.608203125000003  30.763867187499997 17.767578125  C 32.608203125 15.923242187499998  33.625 13.4740234375  33.625 10.865234375  Z M 17.482421875 18  L 2.75 18  L 2.75 11  L 14.1091796875 11  C 14.1759765625 13.63359375  15.181640625 15.986328125  16.962890625 17.767578125  C 17.1298828125 17.9345703125  17.304296875000002 18.097851562499997  17.482421875 18  Z M 31.25 10.865234375  C 31.25 14.936132812500002  27.936132812500006 18.25  23.8615234375 18.25  C 19.794335937499998 18.25  16.48046875 14.936132812500002  16.48046875 10.865234375  C 16.48046875 6.794335937499998  19.794335937499998 3.48046875  23.8615234375 3.48046875  C 27.936132812500006 3.48046875  31.25 6.794335937499998  31.25 10.865234375  Z " fill-rule="nonzero" fill="#727272" stroke="none" transform="matrix(1 0 0 1 539 308 )" />
  </g>
</svg>