<?xml version="1.0" encoding="utf-8"?>
<svg version="1.1" xmlns:xlink="http://www.w3.org/1999/xlink" width="15px" height="15px" xmlns="http://www.w3.org/2000/svg">
  <g transform="matrix(1 0 0 1 -546 -295 )">
    <path d="M 7.662109374999996 0.375  C 11.55859375 0.375  14.712890625 3.529296875  14.712890625 7.42578125  C 14.712890625 9.8564453125  13.4845703125 12.0013671875  11.610546875 13.266796874999999  C 10.957421874999998 13.708398437499998  10.230078124999999 14.042382812499998  9.4470703125 14.246484374999998  C 8.875585937499999 14.394921874999998  8.278125 14.4728515625  7.662109374999996 14.4728515625  C 6.990429687499997 14.4728515625  6.341015624999997 14.380078125  5.728710937499997 14.205664062499999  C 4.953124999999998 13.9830078125  4.229492187499998 13.6341796875  3.587499999999997 13.177734375  C 1.7876953124999968 11.9048828125  0.6113281249999982 9.80078125  0.6113281249999982 7.42578125  C 0.6113281249999982 3.529296875  3.7656249999999982 0.375  7.662109374999996 0.375  Z " fill-rule="nonzero" fill="#5280c1" stroke="none" transform="matrix(1 0 0 1 546 295 )" />
  </g>
</svg>