<?xml version="1.0" encoding="utf-8"?>
<svg version="1.1" xmlns:xlink="http://www.w3.org/1999/xlink" width="24px" height="20px" xmlns="http://www.w3.org/2000/svg">
  <g transform="matrix(1 0 0 1 -743 -302 )">
    <path d="M 17.698254931696088 18.134273645433616  L 17.698254931696088 18.127415060629318  C 17.698256461949693 18.126652996610012  17.698257227077075 18.125890931247945  17.698257227077075 18.12512886569224  C 17.698257227077075 17.49633943843471  17.18852268196315 16.986604893320788  16.559733254705623 16.986604893320788  C 16.559732489647274 16.986604893320788  16.559731724382978 16.986604893321562  16.559730959324632 17  L 1.5097244144282422 17  C 1.5097236492027077 16.986604893321562  1.5097228842727901 16.986604893320788  1.5097221190472556 16.986604893320788  C 0.8809326917897282 16.986604893320788  0.3711981466758054 17.49633943843471  0.3711981466758054 18.12512886569224  C 0.3711981466758054 18.12589093124727  0.3711989118031864 18.126652996610687  0.37120044205679203 18.127415060629318  L 0.37120044205679203 18.134273645433616  C 0.37120044205679203 18.762976638526474  0.8810214213353795 19.272797617805068  1.5097244144282422 19  L 16.559730959324636 19  C 17.18852037699139 19.272797593246352  17.698254918132687 18.76306306310037  17.698254931696088 18.134273645433616  Z M 10.839676831926324 12.418791883346124  L 10.839676831926324 12.411933298541825  C 10.83967836217993 12.411171234523366  10.839679127307312 12.410409169159614  10.839679127307312 12.409647103604748  C 10.839679127307312 11.780857676347217  10.329944582193388 11.271123131233296  9.701155154935863 11.271123131233296  L 1.5097244144282422 11.271123131235612  C 0.8809326917897282 11.271123131233296  0.3711981466758054 11.780857676347217  0.3711981466758054 12.409647103604748  C 0.3711981466758054 12.410409169159777  0.3711989118031864 12.411171234523195  0.37120044205679203 12.411933298541825  L 0.37120044205679203 12.418791883346124  C 0.37120044205679203 13.04749487643899  0.8810214213353795 13.557315855717576  1.5097244144282422 13.557315855717576  L 9.701152859554874 13.557315855717576  C 10.329942286812402 13.557315855717576  10.839676831926324 13.047581310603654  10.839676831926324 12.418791883346124  Z M 13.507663717574825 10.390938940905603  L 13.519094667689945 8.008726151957022  C 16.065913344589408 8.020157126630853  18.080049117421336 8.34708268303914  19.59808108058327 8.870620807367613  C 20.84176992171911 9.343862692248658  21.936856214888717 10.235477857252498  22.860478059861858 11.593476322333078  C 22.899824208881927 11.656906171758145  22.98060886528284 11.68055045446718  23.04794584804298 11.64834492709133  C 23.11456702004517 11.616476677086027  23.147676385580333 11.540519909020361  23.12567640214889 11.470021918649273  L 23.123390207214126 11.463163333844975  C 23.002221998465085 11.065365808135077  22.716447901765164 10.390938965464315  22.227202676899466 9.35986603223331  C 21.76315729789297 8.397131751672728  21.172677556598348 7.500648183833571  20.47140668610898 6.694165341519572  C 19.817555573292406 5.939721749808136  18.87564416884114 5.260722517267846  17.643386302379128 4.620588574059864  C 16.623744368380663 4.090191864927094  14.982258001534923 3.5026403315425974  14.028915646968535 3.315172543361477  C 13.75413551203928 3.289223578495225  13.54419975661137 3.058492301378422  13.544242787413662 2.7824896392939387  L 13.548815177283199 1.2667438710667724  C 13.54795203237056 0.9693759952461685  13.306645089772132 0.7287684576433744  13.00927596126482 0.7287684576433744  C 12.881087187628793 0.7287684576433744  12.757086232570213 0.7744094295674309  12.659486231772835 0.8575153952417516  L 7.414960159631619 5.39560789562548  C 7.298133914880776 5.498052787030478  7.231145476035543 5.645890882253724  7.231145476035543 5.801272114188491  C 7.231145476035543 5.95559018349158  7.297223750573835 6.102522291616518  7.412673964696852 6.204920116653875  L 12.616048552570987 10.793308856485034  C 12.618048415846747 11.087337372268738  12.856969960872817 11.324639395785486  13.151005277709228 11.324639395785486  C 13.446460552718921 11.324639395785486  13.685974376711531 11.085125571792872  13.685974376711531 10.789670296783182  C 13.685974376711531 10.63744401669571  13.62112333827568 10.492426648632641  13.507663717574825 10.390938940905603  Z M 3.9810987321565623 6.696451536454335  L 3.9810987321565623 6.687306781273982  C 3.9810987321565623 6.058517354016454  3.4713641870426395 5.548782808902532  2.842574759785112 5.548782808902532  L 1.5097244144282422 5.548782808902532  C 0.8809349871707148 5.548782808902532  0.37120044205679203 6.058517354016454  0.37120044205679203 6.687306781273982  L 0.37120044205679203 6.696451536454337  C 0.37120044205679203 7.3251545295471985  0.8810214213353795 7.834975508825785  1.5097244144282422 7.834975508825785  L 2.8425747597851103 7.834975508825785  C 3.4713641870426395 7.834975508825785  3.9810987321565623 7.325240963711863  3.9810987321565623 6.696451536454337  Z " fill-rule="nonzero" fill="#ffffff" stroke="none" transform="matrix(1 0 0 1 743 302 )" />
  </g>
</svg>