<?xml version="1.0" encoding="utf-8"?>
<svg version="1.1" xmlns:xlink="http://www.w3.org/1999/xlink" width="29px" height="29px" xmlns="http://www.w3.org/2000/svg">
  <g transform="matrix(1 0 0 1 -641 -297 )">
    <path d="M 28.6735 18.946749999999998  C 28.6735 20.802999999999997  27.1555 22.320999999999994  25.290999999999997 22  L 3.6677500000000007 22  C 1.8032500000000007 22.320999999999998  0.28525000000000045 20.802999999999997  0.28525000000000045 18.938499999999998  L 0.28525000000000045 3.8575  C 0.28525000000000045 1.9929999999999999  1.8032500000000007 0.47500000000000003  3.6677500000000007 1  L 25.290999999999997 1  C 27.1555 0.47500000000000003  28.6735 1.9929999999999999  28.6735 3.8575  L 28.6735 18.946749999999998  Z M 25.290999999999997 3  L 3.6677500000000007 3  C 2.8922500000000007 2.455  2.26525 3.082  2.26525 3.857500000000001  L 2.26525 18.94675  C 2.26525 19.72225  2.8922499999999998 20.34925  3.6677500000000007 20  L 25.290999999999997 20  C 26.066499999999998 20.34925  26.693499999999997 19.72225  26.693499999999997 18.94675  L 26.693499999999997 3.8575  C 26.693499999999997 3.082  26.066499999999998 2.454999999999999  25.290999999999997 3  Z M 25.323999999999998 27.51025  C 25.323999999999998 28.054750000000002  24.88675 28.50025  24.334000000000003 28  L 4.65775 28  C 4.113250000000001 28.50025  3.6677500000000007 28.054750000000002  3.6677500000000007 27.51025  C 3.6677500000000007 26.965749999999996  4.113250000000001 26.520249999999997  4.65775 26  L 24.333999999999996 26  C 24.878499999999995 26.520249999999997  25.323999999999998 26.965749999999996  25.323999999999998 27.51025  Z " fill-rule="nonzero" fill="#060001" stroke="none" transform="matrix(1 0 0 1 641 297 )" />
  </g>
</svg>