<?xml version="1.0" encoding="utf-8"?>
<svg version="1.1" xmlns:xlink="http://www.w3.org/1999/xlink" width="15px" height="13px" xmlns="http://www.w3.org/2000/svg">
  <g transform="matrix(1 0 0 1 -648 -302 )">
    <path d="M 2.57475 11.645  C 2.57475 12.189499999999995  2.129249999999999 12.634999999999998  1.5847499999999997 12.634999999999998  C 1.0402499999999986 12.634999999999998  0.5947499999999977 12.189499999999999  0.5947499999999977 11.645  L 0.5947499999999977 6.067999999999998  C 0.5947499999999977 5.523499999999997  1.0402499999999986 5.077999999999996  1.5847499999999997 5.077999999999996  C 2.129249999999999 5.077999999999996  2.57475 5.523499999999997  2.57475 6.067999999999998  L 2.57475 11.645  Z M 8.382750000000001 11.645  C 8.382750000000001 12.189499999999995  7.9372500000000015 12.634999999999998  7.3927499999999995 12.634999999999998  C 6.84825 12.634999999999998  6.402749999999999 12.189499999999999  6.402749999999999 11.645  L 6.402749999999999 3.9559999999999995  C 6.402749999999999 3.4114999999999984  6.84825 2.9659999999999975  7.3927499999999995 2.9659999999999975  C 7.937249999999999 2.9659999999999975  8.382750000000001 3.4114999999999984  8.382750000000001 3.9559999999999995  L 8.382750000000001 11.645  Z M 14.182500000000001 11.645  C 14.182500000000001 12.189499999999995  13.745250000000002 12.634999999999998  13.192499999999999 12.634999999999998  C 12.648 12.634999999999998  12.202499999999997 12.189499999999999  12.202499999999997 11.645  L 12.202499999999997 1.6872499999999986  C 12.202499999999997 1.1427499999999995  12.647999999999996 0.6972499999999995  13.192499999999999 0.6972499999999995  C 13.737000000000002 0.6972499999999995  14.182500000000001 1.1427499999999995  14.182500000000001 1.6872499999999986  L 14.182500000000001 11.645  Z " fill-rule="nonzero" fill="#060001" stroke="none" transform="matrix(1 0 0 1 648 302 )" />
  </g>
</svg>