<?xml version="1.0" encoding="utf-8"?>
<svg version="1.1" xmlns:xlink="http://www.w3.org/1999/xlink" width="31px" height="26px" xmlns="http://www.w3.org/2000/svg">
  <g transform="matrix(1 0 0 1 -739 -299 )">
    <path d="M 31 22.233932328472754  L 31 3.766067671527245  C 30.993914996610794 3.765305345496273  30.993915257771164 3.76454301930451  30.993915257771164 3.7637806930945987  C 30.993915257771164 1.9203418245140096  29.499512787902024 0.42593935464486865  27.656073919321432 0.42593935464486865  C 27.655311584929624 0.42593935464486865  27.654549250559757 0.4259396158108437  27.653786916346892 0.42594013814274767  L 3.470440521872602 0.42594013814274767  C 1.8358580101937738 0.42720090546935063  0.5110817466051909 1.7519771690579338  1 3.3865596807367613  L 1 22.61344031926324  C 0.5110817466051917 24.248022830942062  1.8358580101937736 25.57279909453065  3.470440521872602 25.57405986185725  L 27.653786916346892 25.57405986185725  C 27.6545492505612 25.57406038418916  27.65531158492818 25.574060645355125  27.656073919321432 25.574060645355125  C 29.499512787902024 25.574060645355125  30.993915257771164 24.07965817548599  30.993915257771164 22.236219306905397  C 30.993915257771164 22.235456980694046  30.993914996610794 22.23469465450517  31 22.233932328472754  Z " fill-rule="nonzero" fill="#c73a3a" stroke="none" transform="matrix(1 0 0 1 739 299 )" />
  </g>
</svg>