<?xml version="1.0" encoding="utf-8"?>
<svg version="1.1" xmlns:xlink="http://www.w3.org/1999/xlink" width="38px" height="18px" xmlns="http://www.w3.org/2000/svg">
  <g transform="matrix(1 0 0 1 -44 -397 )">
    <path d="M 34.70175833333334 14.934600000000001  L 36.54879583333334 14.934600000000001  C 36.55030462272662 14.934595126912967  36.55181341916727 14.934592690364575  36.5533222166133 14.934592690364575  C 37.31846671377472 14.934592690364575  37.93873888327997 15.54776792429196  37.93873888327997 16.304157907755872  C 37.93873888327997 16.990498687318894  37.424836873510884 17.570852838959183  36.73665833333333 17.661678260869564  L 36.54824166666667 17.673730434782613  L 34.70120416666668 17.673730434782613  C 33.93569114015328 17.673730483237335  33.31541897064803 17.06055524930994  33.31541897064803 16.304165265846024  C 33.31541897064803 15.619401873798358  33.82702548571643 15.039871764688916  34.51334166666667 14.947200000000002  L 34.70175833333334 14.934600000000001  Z M 34.70175833333334 7.630434782608695  L 36.54879583333334 7.630434782608695  C 37.31430885984676 7.630434734153976  37.934581029352 8.243609968081367  37.934581029352 8.99999995154528  C 37.934581029352 9.68476334359296  37.42297451428358 10.26429345270241  36.73665833333333 10.356965217391304  L 36.54824166666667 10.369565217391305  L 34.70120416666668 10.369565217391305  C 33.935691140153246 10.369565265846022  33.315418970648 9.756390031918635  33.315418970648 9.000000048454723  C 33.315418970648 8.315236656407038  33.827025485716426 7.735706547297592  34.51334166666667 7.643034782608697  L 34.70175833333334 7.630434782608695  Z M 34.70175833333334 0.32626956521739275  L 36.54879583333334 0.3262695652173913  C 37.31430885984676 0.3262695167626708  37.934581029352 0.9394447506900634  37.934581029352 1.6958347341539763  C 37.934581029352 2.3805981262016562  37.42297451428358 2.9601282353111054  36.73665833333333 3.0528  L 36.54824166666667 3.0654000000000017  L 34.70120416666668 3.0654000000000017  C 34.69969537727287 3.065404873087037  34.698186580833294 3.0654073096354306  34.69667778338675 3.0654073096354306  C 33.93153328622533 3.0654073096354306  33.311261116720075 2.4522320757080394  33.311261116720075 1.6958420922441262  C 33.311261116720075 1.0095013126811192  33.82516312648914 0.4291471610408449  34.51334166666667 0.3383217391304359  L 34.70175833333334 0.32626956521739275  Z M 1.4517583333333335 14.934600000000001  L 3.298795833333335 14.934600000000001  C 3.3003046227266246 14.934595126912967  3.301813419167263 14.934592690364575  3.303322216613297 14.934592690364575  C 4.0684667137747095 14.934592690364575  4.688738883279964 15.54776792429196  4.688738883279964 16.304157907755872  C 4.688738883279964 16.990498687318894  4.174836873510881 17.570852838959183  3.4866583333333345 17.661678260869564  L 3.2982416666666676 17.673730434782613  L 1.451204166666668 17.673730434782613  C 0.6856911401532828 17.673730483237335  0.0654189706480269 17.06055524930994  0.0654189706480269 16.304165265846024  C 0.0654189706480269 15.619401873798358  0.5770254857164352 15.039871764688916  1.263341666666667 14.947200000000002  L 1.4517583333333335 14.934600000000001  Z M 1.4517583333333335 7.630434782608695  L 3.298795833333335 7.630434782608695  C 4.064308859846758 7.630434734153976  4.684581029352012 8.243609968081367  4.684581029352012 8.99999995154528  C 4.684581029352012 9.684763343592962  4.172974514283585 10.264293452702411  3.4866583333333345 10.356965217391304  L 3.2982416666666676 10.369565217391305  L 1.451204166666668 10.369565217391305  C 0.6856911401532463 10.369565265846022  0.06541897064799032 9.756390031918635  0.06541897064799032 9.000000048454723  C 0.06541897064799032 8.315236656407038  0.5770254857164183 7.735706547297592  1.263341666666667 7.643034782608697  L 1.4517583333333335 7.630434782608695  Z M 1.4517583333333335 0.32626956521739275  L 3.298795833333335 0.3262695652173913  C 4.064308859846758 0.3262695167626708  4.684581029352012 0.9394447506900634  4.684581029352012 1.6958347341539763  C 4.684581029352012 2.3805981262016562  4.172974514283585 2.9601282353111085  3.4866583333333345 3.0528  L 3.2982416666666676 3.0654000000000017  L 1.451204166666668 3.0654000000000017  C 1.4496953772728636 3.065404873087037  1.4481865808332928 3.0654073096354306  1.4466777833867421 3.0654073096354306  C 0.6815332862253315 3.0654073096354306  0.06126111672007554 2.4522320757080394  0.06126111672007554 1.6958420922441262  C 0.06126111672007554 1.0095013126811192  0.5751631264891384 0.4291471610408449  1.263341666666667 0.3383217391304359  L 1.4517583333333335 0.32626956521739275  Z " fill-rule="nonzero" fill="#444444" stroke="none" transform="matrix(1 0 0 1 44 397 )" />
  </g>
</svg>