<?xml version="1.0" encoding="utf-8"?>
<svg version="1.1" xmlns:xlink="http://www.w3.org/1999/xlink" width="47px" height="28px" xmlns="http://www.w3.org/2000/svg">
  <g transform="matrix(1 0 0 1 -40 -392 )">
    <path d="M 1.566666666666666 1  L 45.43333333333334 1  C 46.11860977380346 0.44124081022342543  46.69863151506327 0.9300988171032714  46.79155500000001 1.586010810810811  L 46 1.7661189189189175  L 46 26.48648648648649  C 46.80422912145493 27.14833750982285  46.298495945311934 27.708615290229435  45.61976666666667 27.798627027027024  L 45.43333333333334 27.81081081081081  L 37.57407166666666 27.81081081081081  C 36.81606645874363 27.81081110573308  36.202323469970004 27.217890909563053  36.202323469970004 26.486486781408757  C 36.202323469970004 25.824342504187058  36.70854569008685 25.263955667436207  37.387638333333335 25.174345945945948  L 37.57407166666666 25.162162162162165  L 44 25.162162162162165  L 44 3  L 3 3  L 3 25.16216216216216  L 9.425928333333335 25.162162162162165  C 10.11123137197658 25.161836997543883  10.691497191492653 25.650477135614555  10.784698333333335 26.306378378378373  L 10.796761666666669 26.48648648648648  C 10.796824121454936 27.14833750982285  10.291090945311943 27.708615290229424  9.612361666666667 27.79862702702702  L 9.425928333333335 27.8108108108108  L 1.5666666666666667 27.810810810810807  C 0.8815720657250306 27.81087114666146  0.30161786326846357 27.32229625539048  0.20844500000000052 26.666594594594585  L 1 26.486486486486488  L 1 1.7655891891891893  C 0.1957708785450667 1.1037381658528205  0.7015040546880597 0.5434603854462422  1.380233333333333 0.45344864864864914  L 1.566666666666666 1  Z " fill-rule="nonzero" fill="#444444" stroke="none" transform="matrix(1 0 0 1 40 392 )" />
  </g>
</svg>