<?xml version="1.0" encoding="utf-8"?>
<svg version="1.1" xmlns:xlink="http://www.w3.org/1999/xlink" width="30px" height="29px" xmlns="http://www.w3.org/2000/svg">
  <g transform="matrix(1 0 0 1 -49 -408 )">
    <path d="M 23.23697368421053 15.866052631578949  L 19.40834210526316 15.866052631578949  C 18.578289473684208 15.540184210526315  19.075105263157894 14.245792105263156  19.075105263157894 14.245792105263156  C 19.075105263157894 14.245792105263156  24.236684210526317 10.361013157894734  26.06534210526316 7.933026315789471  C 27.896763157894735 5.342105263157895  27.563526315789478 0  27.563526315789478 0  L 13.747736842105263 12.628202631578947  C 14.08318421052632 12.302334210526316  14.580000000000004 12.142071052631579  15.078473684210524 12.142071052631579  C 16.408657894736844 12.142071052631579  17.573605263157898 13.277802631578947  17.573605263157898 14.571126315789478  C 17.573605263157898 15.864450000000005  16.408657894736844 16.999113157894737  15.078473684210524 16.999113157894737  C 13.748289473684208 16.999113157894737  12.581684210526314 15.864450000000001  12.581684210526314 14.571126315789478  C 12.581684210526314 14.086597368421053  12.748578947368422 13.597260526315791  13.079052631578948 13.114334210526316  L 10.086552631578947 15.864450000000001  L 6.92163157894737 15.864450000000001  C 3.2598947368421087 15.866052631578949  0.2629736842105277 18.61777105263158  0.2629736842105277 22.175613157894734  C 0.2629736842105277 25.737728947368417  3.2598947368421087 28.49105  6.924394736842106 28.49105  C 10.586684210526316 28.49105  13.583605263157894 25.737728947368417  13.583605263157894 22.175613157894734  C 13.583605263157894 21.043086842105264  13.248157894736842 20.07509736842105  12.749684210526317 19.264699999999998  C 14.24842105263158 18.454302631578948  16.079842105263157 18.61670263157895  17.41002631578947 18.938831578947365  C 16.75545124440314 19.899787155168962  16.407605511277062 21.02557737873393  16.40976315789474 22.176147368421052  C 16.40976315789474 25.739331578947365  19.40668421052632 28.49105  23.071736842105263 28.49105  C 26.733473684210534 28.49105  29.729842105263163 25.737728947368417  29.729842105263163 22.175613157894734  C 29.898394736842107 18.6151  26.901473684210533 15.863381578947365  23.236421052631584 15.863381578947365  L 23.236421052631584 15.867655263157891  L 23.236421052631584 15.866052631578949  Z M 6.924394736842106 26.06039210526315  L 6.9232894736842105 26.06039210526315  C 4.592842105263159 26.06039210526315  2.763078947368421 24.27773157894736  2.763078947368421 22.174010526315783  C 2.763078947368421 20.073494736842097  4.5928421052631565 18.290834210526313  6.924394736842106 18.290834210526313  C 9.254842105263158 18.290834210526313  11.08792105263158 20.06761842105262  11.08792105263158 22.1745447368421  C 11.08792105263158 24.44119999999999  9.253184210526316 26.06039210526315  6.924394736842106 26.06039210526315  Z M 27.401052631578953 22.012144736842107  C 27.401052631578953 24.441199999999995  25.56852631578948 26.06039210526315  23.23863157894737 26.06039210526315  C 20.908184210526315 26.06039210526315  19.076763157894735 24.27773157894736  19.076763157894735 22.174010526315783  C 19.076763157894735 21.204952631578937  19.411657894736837 20.395089473684205  19.90957894736842 19.74816052631579  L 20.07813157894737 19.58415789473684  C 20.908184210526322 18.775897368421052  21.907894736842106 18.127365789473682  23.23973684210526 18.127365789473682  C 25.568526315789477 18.127365789473682  27.401052631578953 19.91162894736842  27.401052631578953 22.012144736842107  Z " fill-rule="nonzero" fill="#444444" stroke="none" transform="matrix(1 0 0 1 49 408 )" />
  </g>
</svg>