<?xml version="1.0" encoding="utf-8"?>
<svg version="1.1" xmlns:xlink="http://www.w3.org/1999/xlink" width="44px" height="36px" xmlns="http://www.w3.org/2000/svg">
  <g transform="matrix(1 0 0 1 -134 -401 )">
    <path d="M 39.85086962833913 35.77091707317073  C 37.39073112659698 35.230142508710806  35.344804587688735 33.6807  34.12262601626016 31.594882578397215  L 27.865804297328687 26.10698675958188  L 33.07287340301974 21.100374564459933  L 34.469621080139376 22.346623693379794  C 34.725045296167245 21.98164390243903  35.0204099883856 21.647652961672474  35.326880081300814 21.326669686411147  L 33.518258420441356 19.711423693379796  C 33.25192363530779 19.471738327526143  32.835568524970974 19.478433449477354  32.575858013937285 19.731317770034845  L 26.858524970964 25.22801289198607  L 13.104973286875733 13.166272473867602  C 12.838638501742166 12.931178048780495  12.424426538908255 12.939786062717777  12.164716027874572 13.185975261324046  L 4 21.882938675958197  L 4 5.798960278745645  C 3.12316637630662 4.141821951219515  3.613557491289198 3.181358885017421  6.1206504065040646 3.181358885017421  L 38.49659523809524 3.181358885017421  C 40.455432055749135 3.181358885017421  41.216444250871085 3.9153355400696888  41 5.798960278745645  L 41 18.605772125435546  C 41.41127584204414 18.59257317073171  41.59695034843206 18.54857665505227  41.796263066202094 18.54857665505227  C 42.53935075493612 18.54857665505227  43.25146022067364 18.66507177700349  44 18.83417142857143  L 44 5.798960278745645  C 43.940969221835076 2.4735888501742145  41.95544047619048 0.5660529616724722  38.49679006968641 1  L 6.1206504065040646 1  C 2.4359953542392563 0.5660529616724738  0.40331736353077785 2.4253839721254344  1 5.798960278745645  L 1 30.658713240418113  C 0.40331736353077785 33.790691289198605  2.5904968060394884 35.88970766550523  5.843015389082463 35.88970766550523  L 38.49659523809524 35.88970766550523  C 38.97997241579559 35.88970766550523  39.42574709639953 35.84360696864112  39.85086962833913 35.77091707317073  Z M 34.01936527293844 33  L 5.843015389082463 33  C 3.3895011614401858 33.27631463414634  3.12316637630662 31.44758989547038  3.12316637630662 30.658521951219516  L 3.12316637630662 23.730983623693376  L 12.670498838559814 14.55292787456446  L 34.01936527293844 33  Z " fill-rule="nonzero" fill="#444444" stroke="none" transform="matrix(1 0 0 1 134 401 )" />
  </g>
</svg>