<?xml version="1.0" encoding="utf-8"?>
<svg version="1.1" xmlns:xlink="http://www.w3.org/1999/xlink" width="11px" height="11px" xmlns="http://www.w3.org/2000/svg">
  <g transform="matrix(1 0 0 1 -172 -423 )">
    <path d="M 10.631835365853657 5.339203252032526  C 10.632030197444838 5.0997552264808395  10.437198606271782 4.904923635307783  10.197555749128922 4.904923635307783  L 6.063034552845527 4.904923635307783  L 6.063034552845527 0.7702076074332164  C 6.063034552845527 0.5307595818815294  5.868202961672471 0.3337848432055672  5.630898083623697 0.3337848432055672  C 5.393593205574916 0.3337848432055672  5.196618466898954 0.5309544134727087  5.196618466898954 0.7702076074332164  L 5.196618466898954 4.904923635307783  L 1.0642404181184593 4.904923635307783  C 0.8226492450638728 4.904923635307783  0.6299608013937228 5.0997552264808395  0.6299608013937228 5.339203252032526  C 0.6299608013937228 5.5741701509872215  0.8224544134727001 5.771144889663184  1.0642404181184593 5.771144889663184  L 5.196618466898954 5.771144889663184  L 5.196618466898954 9.905860917537751  C 5.196618466898954 10.145308943089436  5.3937880371660825 10.340140534262492  5.630898083623697 10.340140534262492  C 5.8680081300813045 10.340140534262492  6.063034552845527 10.145503774680616  6.063034552845527 9.905860917537751  L 6.063034552845527 5.771144889663184  L 10.197555749128922 5.771144889663184  C 10.437003774680607 5.771144889663184  10.631835365853657 5.574170150987235  10.631835365853657 5.339203252032526  Z " fill-rule="nonzero" fill="#444444" stroke="none" transform="matrix(1 0 0 1 172 423 )" />
  </g>
</svg>