<?xml version="1.0" encoding="utf-8"?>
<svg version="1.1" xmlns:xlink="http://www.w3.org/1999/xlink" width="17px" height="16px" xmlns="http://www.w3.org/2000/svg">
  <g transform="matrix(1 0 0 1 -169 -421 )">
    <path d="M 16.656659891598927 7.844264808362368  C 16.656659891598913 3.6719876113046817  13.06550038714673 0.2922617111885428  8.635065427797139 0.2922617111885428  C 4.204630468447545 0.2922617111885428  0.6110621370499487 3.6719876113046817  0.6110621370499487 7.844264808362368  C 0.6110621370499487 12.012007742934568  4.204429732868761 15.39173364305072  8.635065427797144 15.39173364305072  C 13.065701122725523 15.39173364305072  16.656659891598927 12.011818815331013  16.656659891598927 7.844264808362368  Z M 15.55422009291522 7.844264808362368  C 15.554019357336431 11.436534262485477  12.456669376693771 14.354143244289592  8.635065427797139 14.354143244289592  C 4.813461478900498 14.354143244289592  1.7159107626790555 11.436723190089046  1.7159107626790555 7.844264808362368  C 1.7159107626790555 4.247272164150218  4.813461478900505 1.331930313588853  8.635065427797139 1.331930313588853  C 12.456669376693764 1.331930313588853  15.55422009291522 4.247272164150218  15.55422009291522 7.844264808362368  Z " fill-rule="nonzero" fill="#444444" stroke="none" transform="matrix(1 0 0 1 169 421 )" />
  </g>
</svg>