<?xml version="1.0" encoding="utf-8"?>
<svg version="1.1" xmlns:xlink="http://www.w3.org/1999/xlink" width="45px" height="33px" xmlns="http://www.w3.org/2000/svg">
  <g transform="matrix(1 0 0 1 -144 -392 )">
    <path d="M 44 5.665996515679444  C 44.38122200099552 2.3182632074583287  42.44139337268009 0.48004294189659996  38.92713752399914 1  L 6.170228614093719 1  C 2.70516141648297 0.48004294189659996  0.71809606769537 2.3707729541388076  0.71809606769537 5.665996515679444  L 0.71809606769537 6.961868820039553  L 3.445333499253357 6.961868820039553  L 3.445333499253357 5.665996515679444  C 3.445333499253357 3.7993413692438076  4.210099907558841 3.071787550616819  6.170228614093719 3  L 38.92694233093934 3  C 40.911665363009305 3.071787550616819  41.65417976249733 3.775266503437235  41 5.665996515679444  L 41 27.63137329315379  C 41.65417976249733 29.389028062906114  40.967685771172576 30.09042179112912  39.28356005119818 30.186342122610423  C 39.93609045011733 30.889821075430838  40.49453779421175 31.678225539127983  40.88238640403897 32.56482512477635  C 43.14311242266942 31.97243177323665  44.38102680793571 30.28643290328656  44 27.631562859026275  L 44 5.665996515679444  Z " fill-rule="nonzero" fill="#444444" stroke="none" transform="matrix(1 0 0 1 144 392 )" />
  </g>
</svg>