<?xml version="1.0" encoding="utf-8"?>
<svg version="1.1" xmlns:xlink="http://www.w3.org/1999/xlink" width="11px" height="11px" xmlns="http://www.w3.org/2000/svg">
  <g transform="matrix(1 0 0 1 -159 -408 )">
    <path d="M 10.110079558652725 5.486792973286874  C 10.11007955865273 2.916769454123113  7.972192508710797 0.8217453542392553  5.348785133565617 0.8217453542392553  C 2.7230397793263617 0.8217453542392553  0.587490708478513 2.9169642857142857  0.587490708478513 5.486792973286878  C 0.587490708478513 8.056426829268293  2.723234610917535 10.151840592334494  5.348785133565617 10.151840592334494  C 7.972387340301976 10.151840592334494  10.110079558652725 8.056426829268293  10.110079558652725 5.486792973286874  Z M 8.749180894308942 5.486792973286878  C 8.749180894308942 7.322301393728222  7.224623693379793 8.817633855981418  5.348785133565617 8.817633855981418  C 3.470608594657369 8.817633855981418  1.9462462253193926 7.322301393728225  1.9462462253193926 5.486792973286878  C 1.9462462253193926 3.6510897212543574  3.4706085946573757 2.1557572590011604  5.348785133565617 2.1557572590011604  C 7.224818524970959 2.1557572590011604  8.749180894308942 3.6510897212543543  8.749180894308942 5.486792973286878  Z " fill-rule="nonzero" fill="#444444" stroke="none" transform="matrix(1 0 0 1 159 408 )" />
  </g>
</svg>