<?xml version="1.0" encoding="utf-8"?>
<svg version="1.1" xmlns:xlink="http://www.w3.org/1999/xlink" width="21px" height="22px" xmlns="http://www.w3.org/2000/svg">
  <g transform="matrix(1 0 0 1 -249 -406 )">
    <path d="M 14.746012614040797 20.02867855496653  C 13.269137709926778 20.921485883464324  11.579962074388737 21.392333284212903  9.858845947374132 21.390946440917975  C 7.334448955413761 21.397347011561767  4.912337292639977 20.38371568576585  3.1319520039062483 18.575803550851006  C 1.340731850052124 16.77723804197109  0.3363176654481571 14.329450544133406  0.3426376140407959 11.778160710170203  C 0.3426376140407959 10.110883920340408  1.2739734522569417 7.739294638741632  3.110571949327256 4.728714289829803  L 1.4486641617838505 3.0498482142857193  C 1.1552260730072832 2.7534660669401063  0.9903700926161116 2.351455475460453  0.9903700926161116 1.9322723193708187  C 0.9903700926161116 1.5130891632811847  1.1552260730072832 1.111078571801531  1.4486641617838534 0.8146964244559176  C 1.7413219146025232 0.5173133946836015  2.139592466053247 0.35057502871779817  2.5546906647135414 0.35165176513672464  C 2.969788863373836 0.35057502871779817  3.3680594148245566 0.5173133946836015  3.660717167643229 0.8146964244559204  L 19.88504672124566 17.20458036125838  C 20.17947515960193 17.500191040692915  20.344538225088897 17.902547333937473  20.343414161783862 18.321892848911837  C 20.34456126346476 18.74139761236053  20.179505347101905 19.143926182344675  19.88504672124566 19.43973215108818  C 19.59223700844047 19.7368224708852  19.19402012751313 19.903348691586203  18.779020218315974 19.902249995884496  C 18.364020293596944 19.903348703677796  17.965803394320595 19.736822482050826  17.672993670572914 19.43973215108818  L 16.70202650292968 18.458330340680817  C 16.120903879195076 19.066046923835923  15.463273386096743 19.594012945121914  14.746012614040797 20.02867855496653  Z M 3.174190664713537 12.897580365373884  L 3.1762765029296864 12.896000012346537  C 3.7958522746019976 15.53623990248131  5.692180514119394 17.682513009689274  8.218839662760416 18.603196412109373  C 8.306240971084618 18.63466186744977  8.39826059512989 18.65104538601505  8.491044171549479 18.65166072251674  L 8.497301775824653 18.65166072251674  C 8.841662723371229 18.649366433173046  9.147989864022257 18.430161843456375  9.26437627484809 18.102750004115514  L 9.264376274848093 18.099062483537946  C 9.296198898716133 18.010188515934885  9.312776026243242 17.916480586725946  9.313393943467883 17.8219732101702  L 9.313393943467883 17.80985715520368  C 9.309965403265306 17.460770153348285  9.092956122929888 17.150290713654304  8.768463387912329 17.030214306291846  C 6.765204631287516 16.29954189679008  5.261550889971785 14.597924417507867  4.7693510019531224 12.50459823486328  C 4.680374704468512 12.133124413279088  4.35088544669972 11.871722774430411  3.9725530506727402 11.872455348911831  C 3.9070150704314033 11.87251410816938  3.8417181104847353 11.880472150673969  3.7780467212456545 11.896160734863283  C 3.566158535756317 11.94747664634062  3.3834318684894846 12.082362926179261  3.270661612087671 12.270705353027349  C 3.1569639535793197 12.458278724843368  3.1222287681023895 12.683990407141517  3.174190664713537 12.897580365373884  Z " fill-rule="nonzero" fill="#444444" stroke="none" transform="matrix(1 0 0 1 249 406 )" />
  </g>
</svg>