<?xml version="1.0" encoding="utf-8"?>
<svg version="1.1" xmlns:xlink="http://www.w3.org/1999/xlink" width="30px" height="25px" xmlns="http://www.w3.org/2000/svg">
  <g transform="matrix(1 0 0 1 -344 -405 )">
    <path d="M 20.016091086647727 24.5899097339527  C 25.76893199573864 22.575749577702698  29.908780184659097 17.14691986908784  29.90878018465909 10.74317725929054  C 29.90878018465909 6.709908150337837  28.255837180397723 3.062645164695946  25.599143288352273 0.40514146959459457  L 20.555419921875 0.40514146959459457  C 23.43683416193182 2.4440456081081083  25.324485085227273 5.7795344172297325  25.324485085227273 9.560414907094595  C 25.324485085227273 15.781052048141891  20.24081143465909 20.81397804054054  13.968616832386363 20.81397804054054  C 7.696422230113636 20.81397804054054  2.6127485795454546 15.77610325168919  2.6127485795454546 9.560414907094595  C 2.6127485795454546 5.7795344172297325  4.500399502840909 2.4440456081081083  7.3818137428977275 0.40514146959459457  L 4.5603249289772725 0.40514146959459457  C 1.9036310369318183 3.062645164695946  0.25068803267045453 6.704959353885137  0.25068803267045453 10.74317725929054  C 0.25068803267045453 17.141971072635133  4.390536221590909 22.5757495777027  10.153364701704545 24.5899097339527  L 20.016091086647727 24.5899097339527  Z " fill-rule="nonzero" fill="#444444" stroke="none" transform="matrix(1 0 0 1 344 405 )" />
  </g>
</svg>