<?xml version="1.0" encoding="utf-8"?>
<svg version="1.1" xmlns:xlink="http://www.w3.org/1999/xlink" width="48px" height="25px" xmlns="http://www.w3.org/2000/svg">
  <g transform="matrix(1 0 0 1 -340 -405 )">
    <path d="M 0.9666294642857145 12.940442884290546  C 0.9666294642857145 8.268779032939195  2.483370535714286 3.943530933277032  5.049776785714286 0.40514146959459457  L 4.246205357142857 0.40514146959459457  C 2.6039062499999996 2.528175147804054  1.3232142857142857 4.9332902238175675  1 7.536357157939191  L 1 21.99179159628379  C 0.7707589285714289 22.887523754222975  1.1223214285714285 23.74861433699325  1.5140625 24.59485853040541  L 4.452120535714286 24.59485853040541  C 2.257366071428572 21.229676942567572  0.9666294642857145 17.240947001689193  0.9666294642857145 12.940442884290546  Z M 47.558705357142856 14.756651182432437  C 47.55368303571427 9.362463048986491  45.7205357142857 4.393871410472981  42.646874999999994 0.40514146959459457  L 40.69319196428572 0.40514146959459457  C 42.34051339285714 2.6815878378378377  43.55591517857143 5.284654771959462  44.213839285714286 8.095571157094595  L 44.213839285714286 8.32321579391892  C 44.213839285714286 8.58055320945946  44.289174107142856 8.81809543918919  44.40970982142857 9.006149704391891  C 44.650781249999994 10.277990392736488  44.776339285714286 11.594370249155405  44.776339285714286 12.935494087837842  C 44.776339285714286 17.231049408783782  43.48560267857142 21.22472814611487  41.29084821428572 24.58990973395271  L 45.379017857142856 24.58990973395271  C 46.76517857142857 21.590939083614867  47.558705357142856 18.265347867398653  47.558705357142856 14.756651182432437  Z " fill-rule="nonzero" fill="#444444" stroke="none" transform="matrix(1 0 0 1 340 405 )" />
  </g>
</svg>