<?xml version="1.0" encoding="utf-8"?>
<svg version="1.1" xmlns:xlink="http://www.w3.org/1999/xlink" width="45px" height="25px" xmlns="http://www.w3.org/2000/svg">
  <g transform="matrix(1 0 0 1 -340 -405 )">
    <path d="M 44.50950270432692 12.945391680743242  C 44.50950270432692 11.599319045608109  44.38273737980769 10.28293918918919  44.13934795673077 9.011098500844595  C 44.01765324519231 8.81809543918919  43.94159405048077 8.585502005912163  43.94159405048077 8.328164590371621  L 43.94159405048077 8.100519953547295  C 43.27734375 5.28465477195946  42.05532602163461 2.6815878378378355  40.38709435096154 0.41009026604729487  L 35.60550631009615 0.41009026604729487  C 37.40050330528846 2.5430215371621596  38.71379206730769 5.076805320945944  39.37297175480769 7.862977723817566  L 39.37297175480769 8.05598078547297  C 39.37297175480769 8.273727829391888  39.438889723557686 8.471679687499996  39.540301983173066 8.630041173986484  C 39.74312650240384 9.69898120777027  39.84960937499999 10.807511613175675  39.84960937499999 11.930888407939184  C 39.84960937499999 16.859889674831077  37.82643479567307 21.32865287162162  34.55081881009615 24.59980732685811  L 40.990497295673066 24.59980732685811  C 43.211425781249986 21.23462573902027  44.50950270432692 17.24094700168919  44.50950270432692 12.945391680743242  Z M 2.676945612980769 11.920990815033784  C 2.6870868389423075 7.546254750844595  4.299541766826923 3.542678420608108  6.946401742788461 0.40514146959459457  L 4.4009540264423075 0.40514146959459457  C 1.8149414062500004 3.938582136824324  0.2785456730769237 8.263830236486488  0.2785456730769237 12.935494087837837  C 0.2785456730769237 17.23104940878378  1.5816932091346159 21.224728146114867  3.7975510817307696 24.5899097339527  L 7.975736177884617 24.5899097339527  C 4.705190805288462 21.318755278716218  2.676945612980769 16.85494087837838  2.676945612980769 11.920990815033784  Z " fill-rule="nonzero" fill="#444444" stroke="none" transform="matrix(1 0 0 1 340 405 )" />
  </g>
</svg>