<?xml version="1.0" encoding="utf-8"?>
<svg version="1.1" xmlns:xlink="http://www.w3.org/1999/xlink" width="38px" height="25px" xmlns="http://www.w3.org/2000/svg">
  <g transform="matrix(1 0 0 1 -343 -405 )">
    <path d="M 13.02707741477273 24.59485853040541  C 7.192471590909092 22.57574957770271  3.00754616477273 17.146919869087842  3.0075461647727275 10.74317725929054  C 3.0075461647727275 6.709908150337837  4.682528409090909 3.062645164695946  7.374644886363636 0.40514146959459457  L 4.859641335227273 0.40514146959459457  C 2.2181285511363638 3.542678420608108  0.608931107954546 7.546254750844597  0.608931107954546 11.925939611486488  C 0.608931107954546 16.85988967483108  2.628018465909092 21.323704075168923  5.897017045454545 24.59485853040541  L 13.02707741477273 24.59485853040541  Z M 37.69637784090909 11.920990815033784  C 37.69637784090909 10.802562816722968  37.59011008522727 9.694032411317567  37.3876953125 8.625092377533784  C 37.28648792613636 8.466730891047296  37.22070312500001 8.26877903293919  37.22070312500001 8.051031989020267  L 37.22070312500001 7.858028927364864  C 36.56791548295455 5.076805320945946  35.25727982954545 2.538072740709459  33.46590909090909 0.40514146959459457  L 28.7041015625 0.40514146959459457  C 31.396218039772727 3.062645164695946  33.07120028409091 6.704959353885137  33.07120028409091 10.74317725929054  C 33.07120028409091 17.141971072635133  28.87615411931818 22.5757495777027  23.036487926136363 24.5899097339527  L 32.40829190340909 24.5899097339527  C 35.67729048295455 21.31875527871621  37.69637784090909 16.85494087837838  37.69637784090909 11.920990815033784  Z " fill-rule="nonzero" fill="#444444" stroke="none" transform="matrix(1 0 0 1 343 405 )" />
  </g>
</svg>