<?xml version="1.0" encoding="utf-8"?>
<svg version="1.1" xmlns:xlink="http://www.w3.org/1999/xlink" width="24px" height="21px" xmlns="http://www.w3.org/2000/svg">
  <g transform="matrix(1 0 0 1 -347 -405 )">
    <path d="M 5.361830357142857 0.4111485635080669  C 2.4589285714285714 2.45531439012097  0.5655133928571441 5.79941091229839  0.5655133928571429 9.590048513104838  C 0.5655133928571429 15.826738911290322  5.678236607142857 20.872653099798388  11.986272321428572 20.872653099798388  C 18.299330357142857 20.872653099798388  23.407031250000003 15.821777343750005  23.407031250000003 9.590048513104838  C 23.407031250000003 5.79941091229839  21.508593750000003 2.45531439012097  18.610714285714284 0.4111485635080669  L 5.361830357142857 0.4111485635080669  Z M 2.9511160714285714 8.404233870967742  C 2.94609375 4.077746975806452  6.496874999999999 0.5699187247983871  10.876339285714286 0.5699187247983871  C 15.255803571428572 0.5699187247983871  18.806584821428572 4.077746975806449  18.806584821428572 8.40423387096774  C 18.806584821428572 11.202557963709673  17.294866071428565 13.78753465221774  14.843973214285715 15.186696698588708  C 12.388058035714284 16.585858744959676  9.369642857142857 16.585858744959676  6.913727678571428 15.186696698588708  C 4.462834821428571 13.78753465221774  2.9511160714285714 11.202557963709678  2.9511160714285714 8.404233870967742  Z " fill-rule="nonzero" fill="#444444" stroke="none" transform="matrix(1 0 0 1 347 405 )" />
  </g>
</svg>