<?xml version="1.0" encoding="utf-8"?>
<svg version="1.1" xmlns:xlink="http://www.w3.org/1999/xlink" width="52px" height="41px" xmlns="http://www.w3.org/2000/svg">
  <g transform="matrix(1 0 0 1 -338 -396 )">
    <path d="M 4.727734375 3  L 47.272265624999996 3  C 48.577343750000004 2.7433321593237707  49.633593749999996 3.772204789959017  49 5.032450691598361  L 49 35.96754930840164  C 49.633593749999996 37.23271804559427  48.572265625 38.25666784067623  47.272265624999996 38  L 4.727734375 38  C 3.4226562499999997 38.25666784067623  2.36640625 37.22779521004099  3 35.96754930840164  L 3 5.032450691598361  C 2.36640625 3.767281954405739  3.427734375 2.7433321593237707  4.727734375 3  Z M 52 5.032450691598361  C 52 2.5021132172131146  49.882421875 0.44929079149590223  47.272265624999996 1  L 4.727734375 1  C 2.117578125 0.4492907914959016  0 2.5021132172131146  0 5.032450691598361  L 0 35.96754930840164  C 0 38.497886782786885  2.117578125 40.550709208504095  4.727734375 40  L 47.272265624999996 40  C 49.882421875 40.550709208504095  52 38.497886782786885  52 35.96754930840164  L 52 5.032450691598361  Z " fill-rule="nonzero" fill="#444444" stroke="none" transform="matrix(1 0 0 1 338 396 )" />
  </g>
</svg>