<?xml version="1.0" encoding="utf-8"?>
<svg version="1.1" xmlns:xlink="http://www.w3.org/1999/xlink" width="10px" height="10px" xmlns="http://www.w3.org/2000/svg">
  <g transform="matrix(1 0 0 1 -343 -407 )">
    <path d="M 2.222981770833333 4.017252604166667  C 2.222981770833333 4.627604166666667  1.7298177083333333 5.115885416666667  1.1243489583333335 5.115885416666667  C 0.5188802083333328 5.115885416666667  0.025716145833333332 4.622721354166667  0.025716145833333332 4.017252604166667  L 0.025716145833333332 3.275065104166667  C 0.025716145833333332 1.6735026041666667  1.3294270833333333 0.3649088541666667  2.935872395833333 0.3649088541666667  L 8.614583333333334 0.3649088541666667  C 9.220052083333334 0.3649088541666667  9.713216145833334 0.8580729166666666  9.713216145833334 1.4635416666666667  C 9.713216145833334 2.069010416666667  9.220052083333334 2.562174479166667  8.614583333333334 2.562174479166667  L 2.935872395833333 2.562174479166667  C 2.540364583333333 2.562174479166667  2.222981770833333 2.884440104166667  2.222981770833333 3.275065104166667  L 2.222981770833333 4.017252604166667  Z M 2.222981770833333 8.260416666666666  C 2.222981770833333 8.870768229166666  1.7298177083333333 9.359049479166666  1.1243489583333335 9.359049479166666  C 0.5188802083333328 9.359049479166666  0.025716145833333332 8.865885416666666  0.025716145833333332 8.260416666666666  L 0.025716145833333332 7.620768229166667  C 0.025716145833333332 7.015299479166667  0.5188802083333328 6.522135416666667  1.1243489583333335 6.522135416666667  C 1.7298177083333333 6.522135416666667  2.222981770833333 7.015299479166667  2.222981770833333 7.620768229166667  L 2.222981770833333 8.260416666666666  Z " fill-rule="nonzero" fill="#444444" stroke="none" transform="matrix(1 0 0 1 343 407 )" />
  </g>
</svg>