<?xml version="1.0" encoding="utf-8"?>
<svg version="1.1" xmlns:xlink="http://www.w3.org/1999/xlink" width="50px" height="48px" xmlns="http://www.w3.org/2000/svg">
  <g transform="matrix(1 0 0 1 -430 -392 )">
    <path d="M 10.762547026288432 20.729841188524585  C 10.762547026288432 21.382993527231683  11.164952923544604 22.035102459016386  11.767491582740046 22.361678603915852  L 22.48047883064516 27.647412909836067  C 23.14937162306263 27.973989054735526  23.95311325596963 28.16910008460873  24.823209022098666 28.16910008460873  C 25.62695060483871 28.16910008460873  26.429621975806455 27.972945696721307  27.16700942532447 27.647412909836067  L 37.87892641129033 22.361678603915852  C 38.48146507048577 22.035102459016393  38.88387096774194 21.382993478323513  38.88387096774194 20.72984118852459  C 38.88387096774194 20.011999674772667  38.48146507048577 19.424579918032784  37.87892641129033 19.09800377313332  L 27.16700942532447 13.811226109198897  C 26.4485168630731 13.427186268511253  25.642602564586408 13.225202353618716  24.823209022098666 13.223806352459011  C 24.02053765113092 13.223806352459011  23.216796068390877 13.419960740346438  22.48047883064516 13.745493527231684  L 11.767491582740046 19.03331454918032  C 11.164952923544604 19.42457991803278  10.762547026288432 20.011999674772667  10.762547026288432 20.729841188524585  Z M 38.68266799403037 26.212773240346433  C 38.28026209677419 25.560664308561723  37.410166330645154 25.299820696721312  36.741273538227695 25.69108606557377  L 26.22948926403415 31.304439874407652  C 25.35939349790511 31.695705243260115  24.354448941453498 31.695705243260115  23.550707308546496 31.304439874407652  L 12.905144505969629 25.69108606557377  C 12.2351814516129 25.299820696721312  11.365085685483866 25.56066425965356  10.963749999999996 26.212773240346433  C 10.562414314516126 26.866968937067742  10.82997142144972 27.713145491803274  11.498864264034143 28.10649762559234  L 22.21078125 33.71880807641201  C 23.021358769215556 34.1132387123298  23.916234976375517 34.31489690663524  24.822138760159394 34.30727119116611  C 25.692234526288434 34.30727119116611  26.56447076612903 34.111116803278684  27.500920715647045 33.71880807641201  L 38.21390791338519 28.10649762559234  C 38.633928015198535 27.856331368166263  38.89011082044005 27.411071512974672  38.89011082044005 26.931219650977585  C 38.89011082044005 26.67768797108702  38.81832708657442 26.429076019398686  38.68266799403037 26.212773240346433  Z M 6.631465070485762 7.584368153096183  C 8.306372681294102 7.584368153096183  9.665562852743824 8.94597163670274  9.665562852743824 10.626847661292905  C 9.665562852743824 12.307723685883067  8.306372681294102 13.670370527503842  6.631465070485762 13.670370576412013  C 4.957627721616684 13.670370576412013  3.5984375000000006 12.307723734791239  3.5984375000000006 10.626847661292905  C 3.5984375000000006 8.947014994716959  4.957627671449723 7.584368153096183  6.631465070485762 7.584368153096183  Z M 43.37561995967742 31.263748276047004  C 45.05159778225806 31.263748276047004  46.41078795370779 32.626395117667776  46.41078795370779 34.306227784243724  C 46.41078795370779 35.98710380883389  45.05159778225806 37.348707292440444  43.37561995967742 37.348707292440444  C 41.70178261080834 37.348707292440444  40.34259238919166 35.987103808833886  40.34259238919166 34.306227784243724  C 40.34259238919166 32.626395117667776  41.701782560641384 31.263748276047004  43.37561995967742 31.263748276047004  Z M 15.815095766129032 4.765170781330046  C 15.815095766129032 5.681968186097056  15.052755991815658 6.425179327732773  14.112362222821634 6.425179327732773  C 13.171968453827613 6.425179327732773  12.40962867951424 5.681968186097056  12.40962867951424 4.765170781330046  C 12.40962867951424 3.8483733765630377  13.171968453827613 3.1051622349273194  14.112362222821634 3.1051622349273194  C 15.052755991815658 3.1051622349273194  15.815095766129032 3.8483733765630377  15.815095766129032 4.765170781330046  Z M 14.947140473711558 6.2060706967213095  L 13.196246623062624 3.3837431530961832  C 16.836858550625404 1.4609912302839825  20.927596697760368 0.4938102980363327  25.06722111887285 0.5770662731333246  C 31.414746320485765 0.7189651639344262  37.326688508064514 3.237670781330046  41.716765776288426 7.668881472768314  C 46.10577283274004 12.101135571128971  48.4431518649981 17.9116871258645  48.29867101822391 24.032120901639342  C 48.213052721931696 27.650543032786885  47.24021502031879 31.172974710473227  45.40477318548386 34.50029540719454  C 45.18751678435295 35.04076331967213  44.62457661290322 35.40907442094646  43.96210519145349 35.40907446985463  C 43.05669188500188 35.39029373214972  42.369605191453495 34.68914619116611  42.387799042417456 33.84505635245901  C 42.39207993967363 33.72924180327868  42.41669521177229 33.637424879690705  42.435959324675515 33.56960553278689  L 42.43809979838709 33.43814036885246  L 42.51515624999999 33.295198071128965  C 44.11942878016317 30.531299505555207  44.97240085693358 27.44082479508197  45.050527570485755 24.108287210473236  C 45.17467409258442 18.830899915391264  43.158363608713444 13.821659836065574  39.37403563500188 10.003953194079788  C 35.58542676403414 6.183116429143184  30.476155947423123 4.01185450819672  24.98695398177607 3.888736355100535  C 21.492619858732755 3.8158273118177974  18.03699912500184 4.613434617118747  14.947140473711558 6.2060706967213095  Z M 4.458901209677413 11.213224060018563  L 7.3581502016128955 12.88157959280545  C 5.248762936378822 15.952544460723036  4.081511814151859 19.546319636975632  3.993351814516121 23.241243153096182  C 3.869205292417455 28.520717213114754  5.8855157762884245 33.52891393442622  9.669843749999993 37.34766393442622  C 13.458452620967734 41.16745729244044  18.56772343757875 43.33871926229508  24.055855191453496 43.46079405737704  C 28.411685181294096 43.57139171866995  32.6155426914535 42.30160520755955  36.30247983870968 39.83402491539126  C 36.55612399193548 39.56587769963498  36.93070398177608 39.41980532786885  37.36628694564327 39.41980532786885  C 38.27170025209488 39.438586065573766  38.95878694564327 40.13973360655738  38.94059309467931 40.98382344526446  C 38.93475255909617 41.366194111926816  38.77663358869085 41.731368383721076  38.499658921449715 42.00215676229507  C 34.32897847790133 44.91525787149398  29.520441834834923 46.430237379690695  24.541738911290317 46.430237379690695  C 24.356589364998104 46.430237379690695  24.171439868872852 46.428150614754095  23.98522011080834 46.42397713378905  C 10.850305796292206 46.12870221839779  0.40487570548764673 35.60627221575627  0.7023991935483814 22.966835740346433  C 0.8040709172599492 18.655613079053527  2.173963356933588 14.629231557377043  4.458901209677413 11.213224060018563  Z " fill-rule="nonzero" fill="#444444" stroke="none" transform="matrix(1 0 0 1 430 392 )" />
  </g>
</svg>