<?xml version="1.0" encoding="utf-8"?>
<svg version="1.1" xmlns:xlink="http://www.w3.org/1999/xlink" width="49px" height="48px" xmlns="http://www.w3.org/2000/svg">
  <g transform="matrix(1 0 0 1 -727 -393 )">
    <path d="M 23.577956971238667 21.29032258064516  C 23.577956971238667 22.28799824801593  22.752331544849596 23.09677417590726  21.733870967741936 23.09677417590726  L 12.052419354838715 23.09677417590726  C 5.687040695699869 23.09677417590726  0.5268817384387628 18.041924585120874  0.5268817384387628 11.806451612903226  C 0.5268817384387628 5.57097864068558  5.687040695699869 0.5161290498991922  12.052419354838715 0.5161290498991922  C 18.417798013977563 0.5161290498991922  23.577956971238667 5.57097864068558  23.577956971238667 11.806451612903226  L 23.577956971238667 21.29032258064516  Z M 12.052419354838706 4.129032240423386  C 7.723961849915175 4.129032240423386  4.215053745432208 7.5663299754271085  4.215053745432208 11.806451612903224  C 4.215053745432208 16.046573250379335  7.723961849915175 19.48387098538306  12.052419354838706 19.48387098538306  L 19.889784964245212 19.483870985383064  L 19.88978496424521 11.806451612903224  C 19.88978496424521 7.566329975427109  16.380876859762243 4.1290322404233875  12.05241935483871 4.1290322404233875  Z M 36.94758064516129 23.09677417590726  L 27.26612903225808 23.09677417590726  C 26.247668455150418 23.09677417590726  25.422043028761347 22.28799824801593  25.422043028761347 21.29032258064516  L 25.422043028761355 11.806451612903231  C 25.422043028761355 5.570978640685587  30.582201986022454 0.5161290498991963  36.9475806451613 0.5161290498991963  C 43.31295930430015 0.5161290498991963  48.473118261561254 5.570978640685587  48.473118261561254 11.806451612903231  C 48.473118261561254 18.04192458512087  43.31295930430014 23.096774175907264  36.9475806451613 23.096774175907264  Z M 29.11021503575478 11.806451612903224  L 29.110215035754788 19.483870985383064  L 36.94758064516129 19.483870985383064  C 41.27603815008482 19.483870985383064  44.7849462545678 16.04657325037934  44.7849462545678 11.806451612903226  C 44.7849462545678 7.566329975427111  41.27603815008482 4.129032240423388  36.94758064516129 4.129032240423388  C 32.61912314023776 4.129032240423388  29.11021503575478 7.566329975427111  29.11021503575478 11.806451612903224  Z M 23.57795697123866 36.19354838709678  C 23.577956971238656 42.429021359314426  18.417798013977556 47.48387095010082  12.052419354838715 47.48387095010082  C 5.687040938582411 47.48387095010082  0.5268819813213059 42.429021359314426  0.5268819813213059 36.19354838709678  C 0.5268819813213059 29.958075414879133  5.687040938582411 24.90322582409275  12.052419597721254 24.90322582409275  L 21.733870967741936 24.90322582409275  C 22.752331544849596 24.90322582409275  23.57795697123866 25.712001751984076  23.57795697123866 26.709677419354836  L 23.57795697123866 36.19354838709678  Z M 19.889784964245212 28.516129014616936  L 12.052419354838706 28.51612901461693  C 32.95206097992273 28.516129014616922  -8.84722227024529 28.516129014616936  12.05241935483871 28.516129014616936  C 7.723961849915176 28.516129014616936  4.2150537454322095 31.953426749620665  4.2150537454322095 36.193548387096776  C 4.2150537454322095 40.43367002457289  7.723961849915176 43.870967759576615  12.05241935483871 43.870967759576615  C 16.380876859762243 43.870967759576615  19.88978496424521 40.43367002457289  19.88978496424521 36.193548387096776  L 19.889784964245212 28.516129014616936  Z M 36.947580645161295 47.48387095010082  C 30.582201986022447 47.48387095010082  25.422043028761337 42.429021359314426  25.422043028761337 36.193548387096776  L 25.422043028761337 26.709677419354854  C 25.422043028761337 25.712001751984076  26.247668455150404 24.90322582409275  27.266129032258057 24.90322582409275  L 36.94758064516128 24.903225824092754  C 43.312959061417594 24.90322582409275  48.47311801867868 29.958075414879133  48.47311801867868 36.19354838709678  C 48.47311801867868 42.429021359314426  43.31295906141757 47.48387095010082  36.947580402278746 47.48387095010082  Z M 36.94758064516129 28.51612901461693  L 29.110215035754788 28.516129014616936  L 29.11021503575478 36.193548387096776  C 29.11021503575478 40.43367002457289  32.619123140237754 43.870967759576615  36.94758064516129 43.870967759576615  C 41.27603815008482 43.870967759576615  44.7849462545678 40.43367002457289  44.7849462545678 36.193548387096776  C 44.7849462545678 31.953426749620665  41.27603815008482 28.516129014616936  36.94758064516129 28.516129014616936  Z " fill-rule="nonzero" fill="#444444" stroke="none" transform="matrix(1 0 0 1 727 393 )" />
  </g>
</svg>