<?xml version="1.0" encoding="utf-8"?>
<svg version="1.1" xmlns:xlink="http://www.w3.org/1999/xlink" width="50px" height="45px" xmlns="http://www.w3.org/2000/svg">
  <g transform="matrix(1 0 0 1 -523 -393 )">
    <path d="M 7.0612127130681825 0.234375  L 4.297984730113636 0.234375  L 4.297984730113636 5.632595486111111  L 0.15869140625 5.632595486111111  L 0.15869140625 8.334418402777775  L 7.0612127130681825 8.334418402777775  L 7.0612127130681825 0.234375  Z M 42.93878728693182 44.76562500000001  L 45.70201526988637 44.765625  L 45.70201526988637 39.367404513888886  L 49.84130859375 39.367404513888886  L 49.84130859375 36.66558159722222  L 42.93878728693182 36.66558159722222  L 42.93878728693182 44.76562500000001  Z M 36.691006747159086 33  L 24.944513494318183 33  L 13.09814453125 33  C 12.665349786931818 32.99262152777778  11.966219815340912 32.835286458333336  11.805308948863637 32.56944444444444  C 11.644398082386363 32.30360243055556  11.910733309659088 31.67426215277778  12.127130681818182 31.305338541666664  C 13.580877130681818 29.146050347222232  15.090110085227273 26.986762152777782  16.54385653409091 24.827473958333336  C 17.026589133522727 24.14388020833334  17.514870383522727 24.089626736111118  18.26948686079546 24.404296875000007  C 20.74418501420455 25.56532118055556  23.27991832386364 26.720920138888896  25.810102982954547 27.88194444444445  C 26.50923295454546 28.19661458333334  27.36927379261364 27.985026041666675  27.802068536931817 27.355685763888896  C 29.150390624999993 25.299479166666675  30.548650568181817 23.302951388888893  32.00239701704546 21.300998263888893  C 32.27428089488637 20.932074652777782  32.75701349431819 20.351562500000004  33.13432173295455 20.351562500000004  C 33.56711647727273 20.351562500000004  33.88893821022727 21.035156250000007  34.04984907670455 21.458333333333336  C 35.39817116477273 24.724392361111118  36.691006747159086 28.03927951388889  37.98384232954545 31.305338541666664  C 38.522061434659086 32.67252604166667  38.3056640625 32.992621527777786  36.691006747159086 33  Z M 17.731267755681817 14.036458333333332  C 19.23495205965909 14.085286458333334  20.583274147727273 15.34939236111111  20.583274147727273 16.825086805555557  C 20.583274147727273 18.40386284722222  19.185014204545457 19.667968749999996  17.564808238636363 19.613715277777775  C 15.950150923295455 19.55946180555555  14.712801846590912 18.349609374999996  14.712801846590912 16.825086805555557  C 14.712801846590912 15.246310763888884  16.06112393465909 13.982204861111112  17.731267755681817 14.036458333333332  Z " fill-rule="nonzero" fill="#444444" stroke="none" transform="matrix(1 0 0 1 523 393 )" />
  </g>
</svg>