<?xml version="1.0" encoding="utf-8"?>
<svg version="1.1" xmlns:xlink="http://www.w3.org/1999/xlink" width="41px" height="45px" xmlns="http://www.w3.org/2000/svg">
  <g transform="matrix(1 0 0 1 -630 -394 )">
    <path d="M 35.24132692076923 8.419783521951219  L 28.41695104692308 8.41978347804878  C 28.10745553358975 8.41978347804878  27.83664697076924 8.307512999999998  27.60452535846154 8.082972043902437  C 27.37240374615386 7.8584310878048775  27.178969054102577 7.596466624390243  27.0242212823077 7.297078653658535  C 26.869473510512822 6.997690682926828  26.753412704358976 6.690818019512196  26.676038863846152 6.376460663414633  C 26.59866502333334 6.062103307317073  26.559978087948725 5.800138843902437  26.55997805769231 5.590567273170731  L 26.55997805769231 0.06685941951219405  L 26.652826720769237 0.06685941951219405  C 26.90042312538462 0.06685941951219405  27.155756911025648 0.09679821951219406  27.418828077692314 0.15667581951219406  C 27.681899244358977 0.2165534195121941  27.991394742564108 0.35876269756097456  28.347314572307692 0.5833036536585356  C 28.703234402051283 0.8078446097560968  29.13652810256411 1.1222019658536577  29.64719567384616 1.5263757219512188  C 30.157863245128212 1.9305494780487802  30.800066414871807 2.461963112195122  31.573805183076928 3.120616624390243  C 32.4094430297436 3.839147736585366  33.06712097666668 4.445408356097561  33.54683902384616 4.939398482926828  C 34.02655707102565 5.433388609756097  34.39795167794872 5.852531751219511  34.66102284461539 6.196827907317073  C 34.92409401128206 6.541124063414634  35.086579148974366 6.833027326829268  35.14847825769231 7.072537697560975  C 35.210377366410256 7.312048068292682  35.24132692076923 7.52161963902439  35.24132692076923 7.701252409756098  L 35.24132692076923 8.419783521951219  Z M 9.104431713846159 33.748004941463414  L 17.692931913846156 33.74800489756098  C 17.692931913846156 35.45451626341464  18.048851743589747 37.04127244390244  18.760691403076923 38.508273439024386  C 19.472531062564105 39.97527443414635  20.44744188871795 41.23270387317073  21.68542388153846 42  L 6.365396516153845 42  C 5.777355074102563 42.28056175609756  5.135151904358972 42.11589838536586  4.438787006923075 41.78657164390245  C 3.7424221094871797 41.45724490243904  3.092481558717948 41.023132360975616  2.4889653546153823 40.48423401951219  C 1.8854491505128166 39.945335678048785  1.3825189602564083 39.324105658536595  0.9801747838461504 38.62054396097561  C 0.5778306074358962 37.91698226341464  0.3766585343589721 37.190966458536586  1 36.44249654634146  L 1 5.8600164292682875  C 0.3766585646153819 5.231301717073166  0.5314063212820487 4.572648204878044  0.8409018346153816 3.8840558926829214  C 1.150397347948714 3.1954635804878  1.5604788902564084 2.5742335609756046  2.0711464615384587 2.0203658341463364  C 2.5818140328205126 1.4664981073170678  3.1621180938461535 1.0024467658536533  3.8120586446153824 0.6282118097560923  C 4.461999195384614 0.25397685365853123  5.142889300512819 0.06685937560975078  5.8547289599999965 0  L 23.58882124769231 0  L 23.58882124769231 5.680383629268288  C 23.58882124769231 6.249220741463411  23.681669895641026 6.862966053658533  23.86736719153846 7.521619565853653  C 24.053064487435904 8.180273078048776  24.347085208461543 8.786533697560971  24.749429354615387 9.340401424390238  C 25.151773500769227 9.89426915121951  25.66244107205128 10.358320492682923  26.281432068461537 10.732555448780483  C 26.900423064871795 11.106790404878042  27.627737501538462 11.293907882926824  28.46337537846154 11.293907882926824  L 35 11.293907882926824  L 35 23.778385814634145  C 34.40568902871795 23.299365073170733  33.5004146923077 22.932614824390246  32.52550386615385 22.678135068292683  C 31.550593040000006 22.42365531219512  30.536995263333335 22.29641543414634  29.48471053615385 22.29641543414634  C 27.256342924871795 22.296415434146343  25.236884767692313 22.827829068292683  23.426336064615384 23.89065633658536  C 21.615787361538466 24.95348360487804  20.199845438717954 26.368091721951213  19.178510296153853 28  L 9.104431713846159 28  C 8.299743421538464 28.13448068780487  7.61111593538462 28.41141455121951  7.038549255384618 28.96528227804877  C 6.465982575384619 29.51915000487805  6.179699235384619 30.1852882097561  6.179699235384619 30.96369689268292  C 6.179699235384619 31.742105575609756  6.465982575384619 32.40075908780488  7.038549255384618 32.939657429268294  C 7.61111593538462 33.4785557707317  8.299743421538464 33.748004941463414  9.104431713846159 33.748004941463414  Z M 26.513553726153845 17  L 9.104431713846155 17  C 8.299743421538462 16.907432180487806  7.611115935384617 17.176881351219517  7.0385492553846145 17.715779692682926  C 6.465982575384614 18.25467803414634  6.179699235384613 18.913331546341464  6.179699235384615 19.69174022926829  C 6.179699235384619 20.47014891219512  6.465982575384619 21.136287117073174  7.0385492553846145 21.69015484390244  C 7.611115935384617 22.244022570731712  8.299743421538462 22.520956434146342  9.104431713846155 22  L 26.513553726153845 22  C 27.318242018461543 22.520956434146342  28.006869504615388 22.244022570731712  28.579436184615382 21.69015484390244  C 29.15200286461539 21.136287117073174  29.43828620461538 20.47014891219512  29.43828620461538 19.69174022926829  C 29.43828620461538 18.913331546341464  29.15200286461539 18.25467803414634  28.579436184615382 17.715779692682926  C 28.006869504615388 17.176881351219517  27.318242018461543 16.907432180487806  26.513553726153845 17  Z M 36.448359404615374 38.3735488390244  L 40.25515400076923 42.056020800000006  C 40.68844770128206 42.56498034146342  40.92830670974359 42.9916081902439  40.97473102615384 43.33590434634146  C 41.0211553425641 43.68020050243903  40.87414498205128 44.031981351219514  40.533699944615385 44.39124689268292  C 40.16230535282052 44.81039003414634  39.75996120666667 45.00499220487806  39.32666750615384 44.975053404878054  C 38.89337380564102 44.94511460487806  38.4600801051282 44.76548183414635  38.02678640461538 44.436155092682924  L 34.08071876846153 40.753683175609765  C 33.245080921794866 41.26264271707318  32.33980658538461 41.62939296585366  31.364895759230766 41.85393392195123  C 30.389984933076924 42.07847487804879  29.422811487948714 42.15332186341465  28.463375423846152 42.07847487804879  C 27.50393935974358 42.003627892682935  26.56771546897435 41.77160222926831  25.654703751538452 41.382397887804885  C 24.741692034102563 40.993193546341466  23.913791568461537 40.4243564195122  23.171002354615382 39.67588650731708  C 22.33536450794871 38.867539024390254  21.70089873435897 37.93943634146343  21.267605033846145 36.89157845853659  C 20.834311333333325 35.843720575609765  20.617664483076915 34.780893321951226  20.617664483076915 33.70309669756098  C 20.617664483076915 32.62530007317074  20.834311333333325 31.569957512195128  21.267605033846145 30.537069014634152  C 21.70089873435897 29.50418051707318  22.33536450794871 28.56859314146342  23.171002354615382 27.73030688780489  C 24.006640201282046 26.92195940487806  24.950601488205116 26.308214092682928  26.002886215384603 25.889070951219516  C 27.055170942564096 25.469927809756115  28.13840519384615 25.260356239024397  29.252588969230757 25.260356239024397  C 30.36677274461538 25.260356239024386  31.45774439205128 25.469927809756104  32.52550391153845 25.889070951219516  C 33.59326343102564 26.308214092682938  34.54496209897436 26.92195940487807  35.38059991538461 27.73030688780489  C 36.123389129230766 28.478776800000002  36.69595580923076 29.302093682926838  37.09829995538461 30.200257536585376  C 37.500644101538455 31.098421390243907  37.74050310999999 32.019039365853665  37.81787698076922 32.962111463414644  C 37.895250851538464 33.905183560975615  37.81787698076923 34.84077093658537  37.58575536846153 35.768873590243906  C 37.35363375615384 36.69697624390244  36.974501768205116 37.565201326829275  36.448359404615374 38.3735488390244  Z M 27.07064561384616 38.82263079512195  C 27.751535718974363 39.12201876585366  28.49432491769231 39.27171275121951  29.299013210000002 39.27171275121951  C 30.072751978205133 39.27171275121951  30.800066414871797 39.12201876585366  31.480956520000003 38.82263079512195  C 32.16184662512821 38.523242824390245  32.75762546333333 38.12655377560976  33.26829303461539 37.63256364878048  C 33.77896060589744 37.13857352195122  34.18130475205128 36.55476699512195  34.47532547307693 35.881144068292684  C 34.769346194102575 35.20752114146341  34.91635655461539 34.48150533658536  34.91635655461538 33.703096653658534  C 34.91635655461539 32.95462674146341  34.769346194102575 32.24358033658537  34.47532547307693 31.56995743902439  C 34.18130475205129 30.89633454146341  33.778960605897446 30.30504332195122  33.26829303461539 29.796083780487802  C 32.75762546333333 29.287124239024394  32.161846625128206 28.890435190243902  31.480956520000003 28.60601663414634  C 30.800066414871807 28.321598078048787  30.072751978205137 28.179388799999995  29.299013210000002 28.179388799999995  C 28.49432491769231 28.179388799999995  27.751535718974363 28.321598078048787  27.07064561384616 28.60601663414634  C 26.38975550871796 28.890435190243902  25.793976670512826 29.287124239024394  25.283309099230774 29.796083780487802  C 24.77264152794873 30.30504332195122  24.370297381794877 30.89633454146341  24.07627666076924 31.56995743902439  C 23.782255939743596 32.24358033658537  23.635245579230773 32.95462674146341  23.635245579230773 33.703096653658534  C 23.635245579230773 34.48150533658536  23.782255939743596 35.20752114146341  24.07627666076924 35.881144068292684  C 24.370297381794877 36.55476699512195  24.77264152794873 37.13857352195122  25.283309099230774 37.63256364878048  C 25.793976670512826 38.12655377560976  26.38975550871796 38.523242824390245  27.07064561384616 38.82263079512195  Z " fill-rule="nonzero" fill="#444444" stroke="none" transform="matrix(1 0 0 1 630 394 )" />
  </g>
</svg>