<?xml version="1.0" encoding="utf-8"?>
<svg version="1.1" xmlns:xlink="http://www.w3.org/1999/xlink" width="108px" height="56px" xmlns="http://www.w3.org/2000/svg">
  <g transform="matrix(1 0 0 1 -38 -106 )">
    <path d="M 38 106  L 146 106  L 146 162  L 38 162  L 38 106  " fill-rule="nonzero" fill="#cccccc" stroke="none" />
    <path d="M 42 110  L 142 110  L 142 158  L 42 158  L 42 110  " fill-rule="nonzero" fill="#ffffff" stroke="none" />
    <path d="M 98.36 122.80000000000001  C 96.008 122.80000000000001  94.16 120.95200000000001  94.16 118.60000000000001  C 94.16 116.248  96.008 114.4  98.36 114.4  C 100.712 114.4  102.56 116.248  102.56 118.60000000000001  C 102.56 120.95200000000001  100.712 122.80000000000001  98.36 122.80000000000001  " fill-rule="nonzero" fill="#cccccc" stroke="none" />
    <path d="M 44 157  L 44 132.25  L 68.25 121  L 102.19999999999999 143  L 121.60000000000001 127.75  L 141 143  L 141 157  L 44 157  " fill-rule="nonzero" fill="#169bd5" stroke="none" />
  </g>
</svg>