<?xml version="1.0" encoding="utf-8"?>
<svg version="1.1" xmlns:xlink="http://www.w3.org/1999/xlink" width="13px" height="13px" viewBox="8 214  13 13" xmlns="http://www.w3.org/2000/svg">
  <path d="M 14.5 214  C 18.14 214  21 216.86  21 220.5  C 21 224.14  18.14 227  14.5 227  C 10.86 227  8 224.14  8 220.5  C 8 216.86  10.86 214  14.5 214  Z " fill-rule="nonzero" fill="#ffffff" stroke="none" />
  <path d="M 14.5 214.5  C 17.86 214.5  20.5 217.14  20.5 220.5  C 20.5 223.86  17.86 226.5  14.5 226.5  C 11.14 226.5  8.5 223.86  8.5 220.5  C 8.5 217.14  11.14 214.5  14.5 214.5  Z " stroke-width="1" stroke="#797979" fill="none" />
  <path d="M 14.5 223.75  C 12.68 223.75  11.25 222.32  11.25 220.5  C 11.25 218.68  12.68 217.25  14.5 217.25  C 16.32 217.25  17.75 218.68  17.75 220.5  C 17.75 222.32  16.32 223.75  14.5 223.75  " fill-rule="nonzero" fill="#797979" stroke="none" />
</svg>