<?xml version="1.0" encoding="utf-8"?>
<svg version="1.1" xmlns:xlink="http://www.w3.org/1999/xlink" width="13px" height="13px" viewBox="760 430  13 13" xmlns="http://www.w3.org/2000/svg">
  <path d="M 766.5 430  C 770.14 430  773 432.86  773 436.5  C 773 440.14  770.14 443  766.5 443  C 762.86 443  760 440.14  760 436.5  C 760 432.86  762.86 430  766.5 430  Z " fill-rule="nonzero" fill="#ffffff" stroke="none" />
  <path d="M 766.5 430.5  C 769.86 430.5  772.5 433.14  772.5 436.5  C 772.5 439.86  769.86 442.5  766.5 442.5  C 763.14 442.5  760.5 439.86  760.5 436.5  C 760.5 433.14  763.14 430.5  766.5 430.5  Z " stroke-width="1" stroke="#797979" fill="none" />
  <path d="M 766.5 439.75  C 764.68 439.75  763.25 438.32  763.25 436.5  C 763.25 434.68  764.68 433.25  766.5 433.25  C 768.32 433.25  769.75 434.68  769.75 436.5  C 769.75 438.32  768.32 439.75  766.5 439.75  " fill-rule="nonzero" fill="#797979" stroke="none" />
</svg>