<?xml version="1.0" encoding="utf-8"?>
<svg version="1.1" xmlns:xlink="http://www.w3.org/1999/xlink" width="13px" height="13px" viewBox="362 111  13 13" xmlns="http://www.w3.org/2000/svg">
  <path d="M 368.5 111  C 372.14 111  375 113.86  375 117.5  C 375 121.14  372.14 124  368.5 124  C 364.86 124  362 121.14  362 117.5  C 362 113.86  364.86 111  368.5 111  Z " fill-rule="nonzero" fill="#ffffff" stroke="none" />
  <path d="M 368.5 111.5  C 371.86 111.5  374.5 114.14  374.5 117.5  C 374.5 120.86  371.86 123.5  368.5 123.5  C 365.14 123.5  362.5 120.86  362.5 117.5  C 362.5 114.14  365.14 111.5  368.5 111.5  Z " stroke-width="1" stroke="#797979" fill="none" />
  <path d="M 368.5 120.75  C 366.68 120.75  365.25 119.32  365.25 117.5  C 365.25 115.68  366.68 114.25  368.5 114.25  C 370.32 114.25  371.75 115.68  371.75 117.5  C 371.75 119.32  370.32 120.75  368.5 120.75  " fill-rule="nonzero" fill="#797979" stroke="none" />
</svg>