<?xml version="1.0" encoding="utf-8"?>
<svg version="1.1" xmlns:xlink="http://www.w3.org/1999/xlink" width="5px" height="11px" xmlns="http://www.w3.org/2000/svg">
  <g transform="matrix(1 0 0 1 -317 -112 )">
    <path d="M 3.0208333276367183 2.3359722222222223  C 2.951437784793509 2.401396762333449  2.8583666052638534 2.437285241779055  2.761979172363281 2.435787031467014  C 2.6645457706651565 2.4353915443069423  2.5713281288680347 2.3968790922054417  2.5031249999999994 2.3288425870225704  L 1.6682291723632814 1.4982407463107645  L 0.8333333276367183 2.3110185240885412  C 0.6911321737037723 2.4492348085815037  0.4614719815696655 2.4492348085815037  0.31927082763671844 2.3110185240885412  C 0.2502505854338033 2.244083208686015  0.21142768041744753 2.152968013854268  0.21142768041744753 2.0579166666666655  C 0.21142768041744753 1.9628653194790642  0.2502505854338033 1.8717501246473174  0.31927082763671844 1.8048148092447909  L 1.4312499999999995 0.7353703648003463  C 1.5729870503720755 0.6105556982291089  1.789161212129038 0.6136640873328911  1.9270833276367183 0.7424999999999999  L 3.0208333276367183 1.8333333333333333  C 3.1621908913227026 1.9723744616233254  3.1621908913227026 2.1969310939322293  3.0208333276367183 2.3359722222222223  Z M 3.1046875000000007 9.95041666666667  L 3.1046875000000007 9.964675920355905  C 2.829103120680052 9.96030963178249  2.5666721497034253 9.848688992999136  2.375520827636719 9.654537031467015  C 2.1732991319274575 9.46135837279641  2.059292768977472 9.196606697558499  2.059292768977472 8.920175315849479  C 2.059292768977472 8.354920684127627  2.5265917325209486 7.895997714202674  3.1046875000000007 7.893518524088543  C 3.661571906513208 7.925590082232249  4.096381022894107 8.376514709253033  4.096381022894107 8.921967595377604  C 4.096381022894107 9.467420481502174  3.661571906513209 9.91834510852296  3.1046875000000007 9.95041666666667  Z M 3.1083333276367187 8.62074074631076  L 3.1046875000000007 8.620740746310764  C 2.926896790801589 8.620729772550462  2.782205981912005 8.760615613308826  2.7802083276367195 8.934444444444445  C 2.783987479019795 9.106738216613072  2.924886082068393 9.24607127712605  3.1010416723632805 9.251712968532985  C 3.185880008780937 9.249055550160168  3.267111303463408 9.2175372308233  3.3307291723632804 9.16259258702257  C 3.3918953275993635 9.103219858517024  3.4260578685476073 9.022280905619098  3.425520827636719 8.938009253689234  C 3.4290983661184713 8.854941715470636  3.3958827082783505 8.774397434862667  3.3343749999999996 8.716990746310763  C 3.275145722319046 8.656751032756677  3.1937838974247845 8.622106643674796  3.1083333276367187 8.62074074631076  Z " fill-rule="nonzero" fill="#2c2c2c" stroke="none" transform="matrix(1 0 0 1 317 112 )" />
  </g>
</svg>