<?xml version="1.0" encoding="utf-8"?>
<svg version="1.1" xmlns:xlink="http://www.w3.org/1999/xlink" width="18px" height="18px" xmlns="http://www.w3.org/2000/svg">
  <g transform="matrix(1 0 0 1 -82 -513 )">
    <path d="M 91 513  C 96.04 513  100 516.96  100 522  C 100 527.04  96.04 531  91 531  C 85.96 531  82 527.04  82 522  C 82 516.96  85.96 513  91 513  Z " fill-rule="nonzero" fill="#ffffff" stroke="none" />
    <path d="M 91 513.5  C 95.76 513.5  99.5 517.24  99.5 522  C 99.5 526.76  95.76 530.5  91 530.5  C 86.24 530.5  82.5 526.76  82.5 522  C 82.5 517.24  86.24 513.5  91 513.5  Z " stroke-width="1" stroke="#797979" fill="none" />
  </g>
</svg>