<?xml version="1.0" encoding="utf-8"?>
<svg version="1.1" xmlns:xlink="http://www.w3.org/1999/xlink" width="15px" height="15px" xmlns="http://www.w3.org/2000/svg">
  <g transform="matrix(1 0 0 1 -229 -96 )">
    <path d="M 14.15625 14.109374999999996  C 14.343749999999998 13.921875  14.343749999999998 13.6875  14.15625 13.546875000000002  L 10.78125 10.218749999999998  C 11.671875 9.234374999999998  12.1875 7.921874999999999  12.1875 6.468749999999998  C 12.1875 3.2812499999999987  9.609375 0.749999999999999  6.468749999999999 0.749999999999999  C 3.281250000000001 0.749999999999999  0.7500000000000007 3.3281249999999987  0.7500000000000007 6.468749999999998  C 0.7500000000000007 9.656249999999998  3.328125000000001 12.187499999999998  6.468749999999999 12.187499999999998  C 7.921875000000001 12.187499999999998  9.234375000000002 11.671874999999998  10.21875 10.781249999999998  L 13.59375 14.109374999999996  C 13.734375 14.249999999999998  14.015625000000002 14.249999999999998  14.15625 14.109374999999996  Z M 6.515624999999999 11.390625  C 3.75 11.4375  1.5 9.1875  1.5 6.468749999999999  C 1.5 3.75  3.7031249999999996 1.5000000000000004  6.468749999999999 1.5000000000000004  C 9.234375000000002 1.5000000000000004  11.4375 3.7031250000000004  11.4375 6.468749999999999  C 11.4375 7.781250000000001  10.921874999999998 9.000000000000002  10.078125 9.890625  C 10.03125 9.890625  10.03125 9.937500000000002  9.984375 9.937500000000002  C 9.9375 9.984375000000002  9.9375 9.984375000000002  9.9375 10.031250000000002  C 9.046875 10.875000000000002  7.828125 11.390625  6.515624999999999 11.390625  Z " fill-rule="nonzero" fill="#2c2c2c" stroke="none" transform="matrix(1 0 0 1 229 96 )" />
  </g>
</svg>