<?xml version="1.0" encoding="utf-8"?>
<svg version="1.1" xmlns:xlink="http://www.w3.org/1999/xlink" width="14px" height="14px" xmlns="http://www.w3.org/2000/svg">
  <g transform="matrix(1 0 0 1 -248 -309 )">
    <path d="M 13.2125 13.168749999999998  C 13.3875 12.99375  13.3875 12.775  13.2125 12.64375  L 10.0625 9.537499999999998  C 10.893749999999999 8.618749999999999  11.375 7.393749999999999  11.375 6.037499999999999  C 11.375 3.0624999999999987  8.96875 0.6999999999999991  6.0375 0.6999999999999991  C 3.062500000000001 0.6999999999999991  0.7000000000000006 3.106249999999999  0.7000000000000006 6.037499999999999  C 0.7000000000000006 9.0125  3.1062500000000006 11.374999999999998  6.0375 11.374999999999998  C 7.393750000000001 11.374999999999998  8.618750000000002 10.893749999999997  9.5375 10.062499999999998  L 12.6875 13.168749999999998  C 12.81875 13.299999999999997  13.08125 13.299999999999997  13.2125 13.168749999999998  Z M 6.081249999999999 10.63125  C 3.5 10.674999999999999  1.4000000000000001 8.575000000000001  1.4000000000000001 6.0375  C 1.4000000000000001 3.5  3.45625 1.4000000000000004  6.0375 1.4000000000000004  C 8.618750000000002 1.4000000000000004  10.674999999999999 3.4562500000000007  10.674999999999999 6.0375  C 10.674999999999999 7.262500000000001  10.193749999999998 8.400000000000002  9.40625 9.231250000000001  C 9.362499999999999 9.231250000000001  9.362499999999999 9.275000000000002  9.31875 9.275000000000002  C 9.275 9.318750000000001  9.275 9.318750000000001  9.275 9.3625  C 8.44375 10.150000000000002  7.3062499999999995 10.63125  6.081249999999999 10.63125  Z " fill-rule="nonzero" fill="#2c2c2c" stroke="none" transform="matrix(1 0 0 1 248 309 )" />
  </g>
</svg>