<?xml version="1.0" encoding="utf-8"?>
<svg version="1.1" xmlns:xlink="http://www.w3.org/1999/xlink" width="23px" height="23px" xmlns="http://www.w3.org/2000/svg">
  <g transform="matrix(1 0 0 1 -597 -60 )">
    <path d="M 22.59375 22.515624999999996  C 22.90625 22.203125  22.90625 21.8125  22.59375 21.578125  L 16.96875 16.031249999999996  C 18.453125 14.390624999999996  19.3125 12.203124999999998  19.3125 9.781249999999998  C 19.3125 4.468749999999998  15.015625 0.24999999999999822  9.78125 0.24999999999999822  C 4.468750000000001 0.24999999999999822  0.2500000000000011 4.546874999999998  0.2500000000000011 9.781249999999998  C 0.2500000000000011 15.09375  4.546875000000001 19.312499999999996  9.78125 19.312499999999996  C 12.203125 19.312499999999996  14.390625000000002 18.453124999999996  16.03125 16.968749999999996  L 21.65625 22.515624999999996  C 21.890625 22.749999999999996  22.359375 22.749999999999996  22.59375 22.515624999999996  Z M 9.859374999999998 17.984375  C 5.25 18.0625  1.5 14.312500000000002  1.5 9.78125  C 1.5 5.25  5.171875 1.5000000000000009  9.78125 1.5000000000000009  C 14.390625000000002 1.5000000000000009  18.0625 5.171875000000001  18.0625 9.78125  C 18.0625 11.968750000000002  17.203124999999996 14  15.796875 15.484375  C 15.71875 15.484375  15.71875 15.562500000000004  15.640625 15.562500000000004  C 15.562499999999998 15.640625000000005  15.562499999999998 15.640625000000005  15.562499999999998 15.71875  C 14.078124999999998 17.125000000000004  12.046875 17.984375  9.859374999999998 17.984375  Z " fill-rule="nonzero" fill="#2c2c2c" stroke="none" transform="matrix(1 0 0 1 597 60 )" />
  </g>
</svg>