<svg t="1708305506548" class="icon" viewBox="0 0 1024 1024" version="1.1" xmlns="http://www.w3.org/2000/svg" p-id="8614" width="200" height="200"><path d="M513 832H282c-9.3 0-18-3.7-24.7-10.3-6.6-6.7-10.3-15.4-10.3-24.7V228c0-9.3 3.7-18 10.3-24.7 6.7-6.7 15.4-10.3 24.7-10.3h460c9.3 0 18 3.7 24.7 10.3 6.7 6.7 10.3 15.4 10.3 24.7v285.2h50V228c0-46.8-38.3-85-85-85H282c-46.8 0-85 38.3-85 85v569c0 46.8 38.3 85 85 85h231v-50z" fill="#ffffff" p-id="8615"></path><path d="M488.1 355.2H361.9c-16.8 0-29.1-4.1-29.5-24.2-0.4-17.6 9-27 29.1-27 84.8-0.4 169.6 0 254.4 0 17.2 0 28.3 7.4 28.7 25.8 0.4 19.3-11.1 25.4-28.3 25.4-42.6-0.4-85.2 0-128.2 0z m-1.3 105.2H362.7c-22.9 0-30.3-6.6-29.9-25.4 0-17.2 9.8-25.8 30.7-25.8h250.3c21.7 0 32 9.4 31.5 27.4-0.8 21.3-15.2 23.8-31.9 23.8-42.6-0.4-84.8 0-126.6 0z m0 0" fill="#ffffff" p-id="8616"></path><path d="M588.2 851.3h280.4v31.1H588.2v-31.1zM847.9 768h-68c-6.1-7.3-10.5-15.5-11.2-24.8-2.9-37.9 37.6-56 37.6-102.4 0-39.4-29.9-71.2-77.9-71.2s-77.9 31.8-77.9 71.2c0 46.4 40.6 64.6 37.7 102.4-0.7 9.3-5.1 17.5-11.2 24.8h-68c-11.5 0-20.7 9.3-20.7 20.8v41.9h280.4v-41.8c-0.1-11.5-9.4-20.8-20.8-20.9z" fill="#ffffff" p-id="8617"></path></svg>