<?xml version="1.0" encoding="utf-8"?>
<svg version="1.1" xmlns:xlink="http://www.w3.org/1999/xlink" width="25px" height="25px" xmlns="http://www.w3.org/2000/svg">
  <g transform="matrix(1 0 0 1 -580 -114 )">
    <path d="M 24.107640825432235 0  C 24.293548986800523 0  24.460866332031976 0.051153273809526056  24.609592861126604 0.15345982142857262  C 24.916341327384277 0.37667410714285754  25.04182933630787 0.6742931547619041  24.98605688789738 1.046316964285715  L 21.416620189626325 22.474888392857142  C 21.370143149284253 22.744605654761905  21.221416620189625 22.953869047619047  20.970440602342443 23.102678571428573  C 20.840304889384644 23.177083333333332  20.696226064324225 23.214285714285715  20.538204127161183 23.214285714285715  C 20.435954638408628 23.214285714285715  20.324409741587658 23.191034226190474  20.20356943669827 23.14453125  L 13.88733965421082 20.56361607142857  L 10.513106525376465 24.679129464285715  C 10.345789180145008 24.893043154761905  10.118051682468861 25  9.82989403234802 25  C 9.709053727458636 25  9.60680423870608 24.98139880952381  9.523145566090353 24.944196428571427  C 9.346532812790482 24.879092261904763  9.204777839747166 24.769810267857142  9.097880646960402 24.616350446428573  C 8.990983454173639 24.462890625  8.937534857780257 24.293154761904763  8.937534857780257 24.107142857142858  L 8.937534857780257 19.23828125  L 20.984383714445066 4.464285714285715  L 6.079196876742889 17.368861607142858  L 0.5716675962074735 15.108816964285715  C 0.22773749767614798 14.978608630952378  0.04182933630786392 14.722842261904761  0.013943112102621306 14.341517857142858  C -0.004647704034207103 13.969494047619047  0.14407882506042013 13.695126488095239  0.4601226993865031 13.51841517857143  L 23.661461238148355 0.12555803571428492  C 23.80089235917457 0.04185267857142738  23.949618888269196 0  24.107640825432235 0  Z " fill-rule="nonzero" fill="#f59a23" stroke="none" transform="matrix(1 0 0 1 580 114 )" />
  </g>
</svg>