<?xml version="1.0" encoding="utf-8"?>
<svg version="1.1" xmlns:xlink="http://www.w3.org/1999/xlink" width="28px" height="22px" xmlns="http://www.w3.org/2000/svg">
  <g transform="matrix(1 0 0 1 -344 -115 )">
    <path d="M 13.058295964125561 16.5  L 13.937219730941704 16.5  L 15.757847533632287 14.6875  L 13.37219730941704 12.312499999999998  L 11.551569506726459 14.125  L 11.551569506726459 15.000000000000002  L 13.058295964125561 15.000000000000002  L 13.058295964125561 16.5  Z M 20.827354260089685 5.765625  C 21.005231689088195 5.588541666666664  21.010463378176382 5.416666666666664  20.84304932735426 5.25  C 20.67563527653214 5.083333333333331  20.502989536621826 5.088541666666664  20.32511210762332 5.265625000000001  L 14.831838565022421 10.734375  C 14.653961136023916 10.911458333333334  14.648729446935725 11.08333333333333  14.816143497757846 11.25  C 14.983557548579972 11.416666666666666  15.156203288490286 11.41145833333333  15.33408071748879 11.234375000000002  L 20.827354260089685 5.765625  Z M 21.7847533632287 14.078125  C 21.994020926756356 14.16145833333333  22.09865470852018 14.312500000000002  22.09865470852018 14.53125  L 22.09865470852018 17.5  C 22.09865470852018 18.739583333333332  21.656576980568012 19.799479166666668  20.772421524663677 20.6796875  C 19.888266068759343 21.559895833333332  18.823617339312406 22  17.57847533632287 22  L 4.520179372197309 22  C 3.275037369207773 22  2.210388639760837 21.559895833333332  1.3262331838565022 20.6796875  C 0.4420777279521674 19.799479166666668  0 18.739583333333332  0 17.5  L 0 4.500000000000001  C 0 3.2604166666666643  0.4420777279521674 2.200520833333332  1.3262331838565022 1.3203125000000009  C 2.210388639760837 0.4401041666666645  3.275037369207773 0  4.520179372197309 0  L 17.57847533632287 0  C 18.23766816143498 0  18.849775784753362 0.13020833333333215  19.41479820627803 0.3906249999999989  C 19.571748878923767 0.4635416666666652  19.665919282511208 0.5833333333333328  19.69730941704036 0.7499999999999993  C 19.728699551569505 0.9270833333333328  19.681614349775785 1.078124999999999  19.55605381165919 1.203125  L 18.786995515695068 1.9687499999999998  C 18.640508221225712 2.114583333333332  18.473094170403588 2.15625  18.2847533632287 2.093750000000001  C 18.0440956651719 2.031249999999999  17.80866965620329 2.000000000000001  17.57847533632287 2  L 4.520179372197309 2  C 3.8295964125560538 2.000000000000001  3.238415545590434 2.2447916666666643  2.7466367713004485 2.7343749999999996  C 2.254857997010464 3.223958333333332  2.008968609865471 3.812500000000001  2 4.500000000000001  L 2 17.5  C 2.008968609865471 18.1875  2.254857997010464 18.776041666666664  2.7466367713004485 19.265625  C 3.238415545590434 19.755208333333332  3.8295964125560538 20  4.520179372197309 20  L 17.57847533632287 20  C 18.269058295964125 20  18.860239162929744 19.755208333333332  19.35201793721973 19.265625  C 19.843796711509718 18.776041666666664  20.089686098654706 18.1875  20.089686098654706 17.5  L 20.089686098654706 15.531250000000002  C 20.089686098654706 15.395833333333332  20.13677130044843 15.28125  20.230941704035875 15.187500000000002  L 21.23542600896861 14.1875  C 21.392376681614348 14.031249999999998  21.57548579970105 13.994791666666666  21.7847533632287 14.078125  Z M 10.044843049327353 13.5  L 20.591928251121075 3  L 25.112107623318387 7.500000000000001  L 14.565022421524663 18  L 10.044843049327353 18  L 10.044843049327353 13.5  Z M 28 3.999999999999999  C 28 4.416666666666665  27.853512705530644 4.770833333333332  27.56053811659193 5.0625  L 26.116591928251122 6.499999999999999  L 21.596412556053814 2.000000000000001  L 23.04035874439462 0.5624999999999989  C 23.333333333333336 0.27083333333333126  23.689088191330345 0.1250000000000011  24.107623318385652 0.1250000000000011  C 24.52615844544096 0.1250000000000011  24.88191330343797 0.27083333333333126  25.17488789237668 0.5624999999999989  L 27.56053811659193 2.9375000000000004  C 27.853512705530644 3.2291666666666634  28 3.5833333333333326  28 3.999999999999999  Z " fill-rule="nonzero" fill="#02a7f0" stroke="none" transform="matrix(1 0 0 1 344 115 )" />
  </g>
</svg>