<?xml version="1.0" encoding="utf-8"?>
<svg version="1.1" xmlns:xlink="http://www.w3.org/1999/xlink" width="24px" height="23px" xmlns="http://www.w3.org/2000/svg">
  <g transform="matrix(1 0 0 1 -105 -114 )">
    <path d="M 6.4 8.214285714285714  C 6.4 9.403645833333332  6.737499999999999 10.498883928571429  7.4125 11.5  C 6.0625 11.542782738095239  4.958333333333334 12.090401785714285  4.1 13.142857142857142  L 2.425 13.142857142857142  C 1.7416666666666665 13.142857142857142  1.166666666666667 12.969587053571429  0.7 12.623046875  C 0.23333333333333328 12.276506696428571  0 11.76953125  0 11.102120535714286  C 0 8.081659226190474  0.5166666666666666 6.571428571428571  1.5500000000000003 6.571428571428571  C 1.6 6.571428571428571  1.78125 6.661272321428571  2.09375 6.840959821428571  C 2.40625 7.020647321428571  2.8125 7.202473958333332  3.3125 7.386439732142858  C 3.8125 7.5704055059523805  4.308333333333334 7.662388392857142  4.800000000000001 7.662388392857142  C 5.358333333333333 7.662388392857142  5.9125000000000005 7.563988095238094  6.4625 7.3671875  C 6.420833333333334 7.683779761904759  6.4 7.966145833333332  6.4 8.214285714285714  Z M 20.75625 18.347377232142858  C 20.78541666666667 18.779482886904763  20.8 19.222284226190478  20.8 19.67578125  C 20.8 20.70256696428571  20.495833333333334 21.513299851190478  19.8875 22.10797991071429  C 19.27916666666667 22.702659970238095  18.470833333333335 23  17.462500000000002 23  L 6.5375 23  C 5.529166666666667 23  4.720833333333335 22.702659970238095  4.1125 22.10797991071429  C 3.504166666666667 21.513299851190478  3.2 20.70256696428571  3.2 19.67578125  C 3.2 19.222284226190478  3.2145833333333336 18.779482886904763  3.2437500000000004 18.347377232142858  C 3.272916666666667 17.915271577380953  3.33125 17.448939732142858  3.41875 16.94838169642857  C 3.5062499999999996 16.447823660714285  3.616666666666667 15.983630952380953  3.75 15.555803571428571  C 3.8833333333333337 15.127976190476188  4.0625 14.710844494047617  4.2875 14.304408482142858  C 4.5125 13.897972470238093  4.770833333333334 13.551432291666664  5.0625 13.264787946428571  C 5.354166666666667 12.978143601190478  5.710416666666667 12.749255952380953  6.1312500000000005 12.578125  C 6.552083333333334 12.406994047619046  7.0166666666666675 12.321428571428571  7.525 12.321428571428571  C 7.608333333333334 12.321428571428571  7.7875 12.413411458333332  8.0625 12.597377232142858  C 8.3375 12.781343005952381  8.641666666666666 12.986700148809522  8.975 13.213448660714285  C 9.308333333333335 13.440197172619046  9.754166666666666 13.645554315476188  10.3125 13.829520089285715  C 10.870833333333334 14.013485863095239  11.433333333333334 14.10546875  12 14.10546875  C 12.566666666666666 14.10546875  13.129166666666666 14.013485863095239  13.6875 13.829520089285715  C 14.245833333333335 13.645554315476188  14.69166666666667 13.440197172619046  15.025000000000002 13.213448660714285  C 15.358333333333334 12.986700148809522  15.6625 12.781343005952381  15.9375 12.597377232142858  C 16.2125 12.413411458333332  16.39166666666667 12.321428571428571  16.474999999999998 12.321428571428571  C 16.983333333333334 12.321428571428571  17.44791666666667 12.406994047619046  17.86875 12.578125  C 18.289583333333333 12.749255952380953  18.645833333333332 12.978143601190478  18.9375 13.264787946428571  C 19.22916666666667 13.551432291666664  19.4875 13.897972470238093  19.712500000000002 14.304408482142858  C 19.9375 14.710844494047617  20.11666666666667 15.127976190476188  20.25 15.555803571428571  C 20.383333333333336 15.983630952380953  20.49375 16.447823660714285  20.58125 16.94838169642857  C 20.66875 17.448939732142858  20.727083333333333 17.915271577380953  20.75625 18.347377232142858  Z M 7.0625 0.9626116071428579  C 7.6875 1.6043526785714288  8 2.378720238095236  8 3.285714285714287  C 8 4.192708333333332  7.6875 4.967075892857142  7.0625 5.6088169642857135  C 6.4375 6.2505580357142865  5.683333333333334 6.571428571428571  4.800000000000001 6.571428571428571  C 3.9166666666666674 6.571428571428571  3.1625 6.2505580357142865  2.5375 5.6088169642857135  C 1.9124999999999999 4.967075892857142  1.6 4.192708333333332  1.6 3.285714285714287  C 1.6 2.378720238095236  1.9124999999999999 1.6043526785714288  2.5375 0.9626116071428579  C 3.1625 0.3208705357142868  3.9166666666666674 0  4.800000000000001 0  C 5.683333333333334 0  6.4375 0.3208705357142868  7.0625 0.9626116071428579  Z M 15.393749999999999 4.729631696428571  C 16.331249999999997 5.692243303571429  16.799999999999997 6.853794642857142  16.799999999999997 8.214285714285714  C 16.799999999999997 9.574776785714286  16.331249999999997 10.736328125  15.393749999999999 11.698939732142858  C 14.456249999999999 12.661551339285715  13.325 13.142857142857142  12 13.142857142857142  C 10.675000000000002 13.142857142857142  9.543750000000001 12.661551339285715  8.60625 11.698939732142858  C 7.668749999999999 10.736328125  7.199999999999999 9.574776785714286  7.199999999999999 8.214285714285714  C 7.199999999999999 6.853794642857142  7.668749999999999 5.692243303571429  8.60625 4.729631696428571  C 9.543750000000001 3.767020089285713  10.675000000000002 3.285714285714287  12 3.285714285714287  C 13.325 3.285714285714287  14.456249999999999 3.767020089285713  15.393749999999999 4.729631696428571  Z M 22.45 6.571428571428571  C 23.483333333333338 6.571428571428571  24.000000000000007 8.081659226190474  24 11.102120535714286  C 24.000000000000007 11.76953125  23.766666666666666 12.276506696428571  23.3 12.623046875  C 22.833333333333336 12.969587053571429  22.258333333333336 13.142857142857142  21.575 13.142857142857142  L 19.900000000000002 13.142857142857142  C 19.04166666666667 12.090401785714285  17.9375 11.542782738095239  16.5875 11.5  C 17.2625 10.498883928571429  17.599999999999998 9.403645833333332  17.599999999999998 8.214285714285714  C 17.599999999999998 7.966145833333332  17.579166666666666 7.683779761904759  17.5375 7.3671875  C 18.0875 7.563988095238094  18.64166666666667 7.662388392857142  19.200000000000003 7.662388392857142  C 19.691666666666666 7.662388392857142  20.1875 7.5704055059523805  20.6875 7.386439732142858  C 21.1875 7.202473958333332  21.59375 7.020647321428571  21.90625 6.840959821428571  C 22.21875 6.661272321428571  22.4 6.571428571428571  22.45 6.571428571428571  Z M 21.4625 0.9626116071428579  C 22.0875 1.6043526785714288  22.4 2.378720238095236  22.4 3.285714285714287  C 22.4 4.192708333333332  22.0875 4.967075892857142  21.4625 5.6088169642857135  C 20.837500000000002 6.2505580357142865  20.083333333333336 6.571428571428571  19.200000000000003 6.571428571428571  C 18.31666666666667 6.571428571428571  17.5625 6.2505580357142865  16.9375 5.6088169642857135  C 16.3125 4.967075892857142  16 4.192708333333332  16 3.285714285714287  C 16 2.378720238095236  16.3125 1.6043526785714288  16.9375 0.9626116071428579  C 17.5625 0.3208705357142868  18.31666666666667 0  19.200000000000003 0  C 20.083333333333336 0  20.837500000000002 0.3208705357142868  21.4625 0.9626116071428579  Z " fill-rule="nonzero" fill="#21a355" stroke="none" fill-opacity="0.996078431372549" transform="matrix(1 0 0 1 105 114 )" />
  </g>
</svg>