<?xml version="1.0" encoding="utf-8"?>
<svg version="1.1" xmlns:xlink="http://www.w3.org/1999/xlink" width="16px" height="16px" xmlns="http://www.w3.org/2000/svg">
  <g transform="matrix(1 0 0 1 -764 -385 )">
    <path d="M 772 385  C 776.48 385  780 388.52  780 393  C 780 397.48  776.48 401  772 401  C 767.52 401  764 397.48  764 393  C 764 388.52  767.52 385  772 385  Z " fill-rule="nonzero" fill="#ffffff" stroke="none" />
    <path d="M 772 385.5  C 776.2 385.5  779.5 388.8  779.5 393  C 779.5 397.2  776.2 400.5  772 400.5  C 767.8 400.5  764.5 397.2  764.5 393  C 764.5 388.8  767.8 385.5  772 385.5  Z " stroke-width="1" stroke="#797979" fill="none" />
  </g>
</svg>