<?xml version="1.0" encoding="utf-8"?>
<svg version="1.1" xmlns:xlink="http://www.w3.org/1999/xlink" width="13px" height="13px" viewBox="192 72  13 13" xmlns="http://www.w3.org/2000/svg">
  <path d="M 198.5 72  C 202.14 72  205 74.86  205 78.5  C 205 82.14  202.14 85  198.5 85  C 194.86 85  192 82.14  192 78.5  C 192 74.86  194.86 72  198.5 72  Z " fill-rule="nonzero" fill="#ffffff" stroke="none" />
  <path d="M 198.5 72.5  C 201.86 72.5  204.5 75.14  204.5 78.5  C 204.5 81.86  201.86 84.5  198.5 84.5  C 195.14 84.5  192.5 81.86  192.5 78.5  C 192.5 75.14  195.14 72.5  198.5 72.5  Z " stroke-width="1" stroke="#797979" fill="none" />
  <path d="M 198.5 81.75  C 196.68 81.75  195.25 80.32  195.25 78.5  C 195.25 76.68  196.68 75.25  198.5 75.25  C 200.32 75.25  201.75 76.68  201.75 78.5  C 201.75 80.32  200.32 81.75  198.5 81.75  " fill-rule="nonzero" fill="#797979" stroke="none" />
</svg>