<?xml version="1.0" encoding="utf-8"?>
<svg version="1.1" xmlns:xlink="http://www.w3.org/1999/xlink" width="13px" height="13px" viewBox="67 72  13 13" xmlns="http://www.w3.org/2000/svg">
  <path d="M 73.5 72  C 77.14 72  80 74.86  80 78.5  C 80 82.14  77.14 85  73.5 85  C 69.86 85  67 82.14  67 78.5  C 67 74.86  69.86 72  73.5 72  Z " fill-rule="nonzero" fill="#f0f0f0" stroke="none" />
  <path d="M 73.5 72.5  C 76.86 72.5  79.5 75.14  79.5 78.5  C 79.5 81.86  76.86 84.5  73.5 84.5  C 70.14 84.5  67.5 81.86  67.5 78.5  C 67.5 75.14  70.14 72.5  73.5 72.5  Z " stroke-width="1" stroke="#797979" fill="none" />
  <path d="M 73.5 81.75  C 71.68 81.75  70.25 80.32  70.25 78.5  C 70.25 76.68  71.68 75.25  73.5 75.25  C 75.32 75.25  76.75 76.68  76.75 78.5  C 76.75 80.32  75.32 81.75  73.5 81.75  " fill-rule="nonzero" fill="#797979" stroke="none" />
</svg>