<?xml version="1.0" encoding="utf-8"?>
<svg version="1.1" xmlns:xlink="http://www.w3.org/1999/xlink" width="13px" height="13px" viewBox="146 45  13 13" xmlns="http://www.w3.org/2000/svg">
  <path d="M 152.5 45  C 156.14 45  159 47.86  159 51.5  C 159 55.14  156.14 58  152.5 58  C 148.86 58  146 55.14  146 51.5  C 146 47.86  148.86 45  152.5 45  Z " fill-rule="nonzero" fill="#ffffff" stroke="none" />
  <path d="M 152.5 45.5  C 155.86 45.5  158.5 48.14  158.5 51.5  C 158.5 54.86  155.86 57.5  152.5 57.5  C 149.14 57.5  146.5 54.86  146.5 51.5  C 146.5 48.14  149.14 45.5  152.5 45.5  Z " stroke-width="1" stroke="#64cce1" fill="none" />
  <path d="M 152.5 54.75  C 150.68 54.75  149.25 53.32  149.25 51.5  C 149.25 49.68  150.68 48.25  152.5 48.25  C 154.32 48.25  155.75 49.68  155.75 51.5  C 155.75 53.32  154.32 54.75  152.5 54.75  " fill-rule="nonzero" fill="#64cce1" stroke="none" />
</svg>