<?xml version="1.0" encoding="utf-8"?>
<svg version="1.1" xmlns:xlink="http://www.w3.org/1999/xlink" width="13px" height="13px" viewBox="224 45  13 13" xmlns="http://www.w3.org/2000/svg">
  <path d="M 230.5 45  C 234.14 45  237 47.86  237 51.5  C 237 55.14  234.14 58  230.5 58  C 226.86 58  224 55.14  224 51.5  C 224 47.86  226.86 45  230.5 45  Z " fill-rule="nonzero" fill="#ffffff" stroke="none" />
  <path d="M 230.5 45.5  C 233.86 45.5  236.5 48.14  236.5 51.5  C 236.5 54.86  233.86 57.5  230.5 57.5  C 227.14 57.5  224.5 54.86  224.5 51.5  C 224.5 48.14  227.14 45.5  230.5 45.5  Z " stroke-width="1" stroke="#64cce1" fill="none" />
  <path d="M 230.5 54.75  C 228.68 54.75  227.25 53.32  227.25 51.5  C 227.25 49.68  228.68 48.25  230.5 48.25  C 232.32 48.25  233.75 49.68  233.75 51.5  C 233.75 53.32  232.32 54.75  230.5 54.75  " fill-rule="nonzero" fill="#64cce1" stroke="none" />
</svg>