<?xml version="1.0" encoding="utf-8"?>
<svg version="1.1" xmlns:xlink="http://www.w3.org/1999/xlink" width="13px" height="13px" viewBox="766 235  13 13" xmlns="http://www.w3.org/2000/svg">
  <path d="M 772.5 235  C 776.14 235  779 237.86  779 241.5  C 779 245.14  776.14 248  772.5 248  C 768.86 248  766 245.14  766 241.5  C 766 237.86  768.86 235  772.5 235  Z " fill-rule="nonzero" fill="#f0f0f0" stroke="none" />
  <path d="M 772.5 235.5  C 775.86 235.5  778.5 238.14  778.5 241.5  C 778.5 244.86  775.86 247.5  772.5 247.5  C 769.14 247.5  766.5 244.86  766.5 241.5  C 766.5 238.14  769.14 235.5  772.5 235.5  Z " stroke-width="1" stroke="#797979" fill="none" />
  <path d="M 772.5 244.75  C 770.68 244.75  769.25 243.32  769.25 241.5  C 769.25 239.68  770.68 238.25  772.5 238.25  C 774.32 238.25  775.75 239.68  775.75 241.5  C 775.75 243.32  774.32 244.75  772.5 244.75  " fill-rule="nonzero" fill="#797979" stroke="none" />
</svg>