<?xml version="1.0" encoding="utf-8"?>
<svg version="1.1" xmlns:xlink="http://www.w3.org/1999/xlink" width="13px" height="13px" viewBox="764 143  13 13" xmlns="http://www.w3.org/2000/svg">
  <path d="M 770.5 143  C 774.14 143  777 145.86  777 149.5  C 777 153.14  774.14 156  770.5 156  C 766.86 156  764 153.14  764 149.5  C 764 145.86  766.86 143  770.5 143  Z " fill-rule="nonzero" fill="#f0f0f0" stroke="none" />
  <path d="M 770.5 143.5  C 773.86 143.5  776.5 146.14  776.5 149.5  C 776.5 152.86  773.86 155.5  770.5 155.5  C 767.14 155.5  764.5 152.86  764.5 149.5  C 764.5 146.14  767.14 143.5  770.5 143.5  Z " stroke-width="1" stroke="#797979" fill="none" />
  <path d="M 770.5 152.75  C 768.68 152.75  767.25 151.32  767.25 149.5  C 767.25 147.68  768.68 146.25  770.5 146.25  C 772.32 146.25  773.75 147.68  773.75 149.5  C 773.75 151.32  772.32 152.75  770.5 152.75  " fill-rule="nonzero" fill="#797979" stroke="none" />
</svg>