<?xml version="1.0" encoding="utf-8"?>
<svg version="1.1" xmlns:xlink="http://www.w3.org/1999/xlink" width="13px" height="13px" viewBox="723 31  13 13" xmlns="http://www.w3.org/2000/svg">
  <path d="M 729.5 31  C 733.14 31  736 33.86  736 37.5  C 736 41.14  733.14 44  729.5 44  C 725.86 44  723 41.14  723 37.5  C 723 33.86  725.86 31  729.5 31  Z " fill-rule="nonzero" fill="#f0f0f0" stroke="none" />
  <path d="M 729.5 31.5  C 732.86 31.5  735.5 34.14  735.5 37.5  C 735.5 40.86  732.86 43.5  729.5 43.5  C 726.14 43.5  723.5 40.86  723.5 37.5  C 723.5 34.14  726.14 31.5  729.5 31.5  Z " stroke-width="1" stroke="#797979" fill="none" />
  <path d="M 729.5 40.75  C 727.68 40.75  726.25 39.32  726.25 37.5  C 726.25 35.68  727.68 34.25  729.5 34.25  C 731.32 34.25  732.75 35.68  732.75 37.5  C 732.75 39.32  731.32 40.75  729.5 40.75  " fill-rule="nonzero" fill="#797979" stroke="none" />
</svg>