<?xml version="1.0" encoding="utf-8"?>
<svg version="1.1" xmlns:xlink="http://www.w3.org/1999/xlink" width="13px" height="13px" viewBox="342 39  13 13" xmlns="http://www.w3.org/2000/svg">
  <path d="M 348.5 39  C 352.14 39  355 41.86  355 45.5  C 355 49.14  352.14 52  348.5 52  C 344.86 52  342 49.14  342 45.5  C 342 41.86  344.86 39  348.5 39  Z " fill-rule="nonzero" fill="#ffffff" stroke="none" />
  <path d="M 348.5 39.5  C 351.86 39.5  354.5 42.14  354.5 45.5  C 354.5 48.86  351.86 51.5  348.5 51.5  C 345.14 51.5  342.5 48.86  342.5 45.5  C 342.5 42.14  345.14 39.5  348.5 39.5  Z " stroke-width="1" stroke="#797979" fill="none" />
  <path d="M 348.5 48.75  C 346.68 48.75  345.25 47.32  345.25 45.5  C 345.25 43.68  346.68 42.25  348.5 42.25  C 350.32 42.25  351.75 43.68  351.75 45.5  C 351.75 47.32  350.32 48.75  348.5 48.75  " fill-rule="nonzero" fill="#797979" stroke="none" />
</svg>