<?xml version="1.0" encoding="utf-8"?>
<svg version="1.1" xmlns:xlink="http://www.w3.org/1999/xlink" width="13px" height="13px" viewBox="83 39  13 13" xmlns="http://www.w3.org/2000/svg">
  <path d="M 89.5 39  C 93.14 39  96 41.86  96 45.5  C 96 49.14  93.14 52  89.5 52  C 85.86 52  83 49.14  83 45.5  C 83 41.86  85.86 39  89.5 39  Z " fill-rule="nonzero" fill="#ffffff" stroke="none" />
  <path d="M 89.5 39.5  C 92.86 39.5  95.5 42.14  95.5 45.5  C 95.5 48.86  92.86 51.5  89.5 51.5  C 86.14 51.5  83.5 48.86  83.5 45.5  C 83.5 42.14  86.14 39.5  89.5 39.5  Z " stroke-width="1" stroke="#797979" fill="none" />
  <path d="M 89.5 48.75  C 87.68 48.75  86.25 47.32  86.25 45.5  C 86.25 43.68  87.68 42.25  89.5 42.25  C 91.32 42.25  92.75 43.68  92.75 45.5  C 92.75 47.32  91.32 48.75  89.5 48.75  " fill-rule="nonzero" fill="#797979" stroke="none" />
</svg>