<?xml version="1.0" encoding="utf-8"?>
<svg version="1.1" xmlns:xlink="http://www.w3.org/1999/xlink" width="17px" height="19px" xmlns="http://www.w3.org/2000/svg">
  <g transform="matrix(1 0 0 1 -884 -80 )">
    <path d="M 17 3.3634982638888897  C 16.998058296783626 1.5386067708333335  15.683661138523393 0.07172309027777818  14.050844069809942 0  L 3.00944581505848 0  C 1.3766481633771932 0.07172309027777778  0.06223158808479603 1.5407769097222217  0 3.365668402777778  L 0 15.706054687499996  C 0.06223158808479603 17.530967881944445  1.3766481633771932 18.999999999999996  3.00944581505848 19  L 14.050844069809942 19  C 15.683661138523393 18.999999999999996  16.998058296783626 17.530967881944445  17 15.706054687499996  L 17 3.3634982638888897  Z M 15.506985562865493 3.3634982638888897  L 15.506985562865493 15.703884548611112  C 15.506985562865493 16.617426215277778  14.833272797880115 17.33133680555555  14.050844069809942 17  L 3.00944581505848 17  C 2.1920664290935674 17.33133680555555  1.5533237390350876 16.578363715277774  1.5533237390350876 15.703884548611112  L 1.5533237390350876 3.3634982638888897  C 1.5533237390350876 2.4499565972222226  2.2270170869883037 1.7360677083333331  3.00944581505848 2  L 14.050844069809942 2  C 14.868223455774855 1.7360677083333331  15.506985562865493 2.4890190972222217  15.506985562865493 3.3634982638888897  Z " fill-rule="nonzero" fill="#00aaa6" stroke="none" transform="matrix(1 0 0 1 884 80 )" />
  </g>
</svg>