<?xml version="1.0" encoding="utf-8"?>
<svg version="1.1" xmlns:xlink="http://www.w3.org/1999/xlink" width="27px" height="26px" xmlns="http://www.w3.org/2000/svg">
  <defs>
    <filter x="843px" y="76px" width="27px" height="26px" filterUnits="userSpaceOnUse" id="filter401">
      <feOffset dx="0" dy="1" in="SourceAlpha" result="shadowOffsetInner" />
      <feGaussianBlur stdDeviation="1" in="shadowOffsetInner" result="shadowGaussian" />
      <feComposite in2="shadowGaussian" operator="atop" in="SourceAlpha" result="shadowComposite" />
      <feColorMatrix type="matrix" values="0 0 0 0 0  0 0 0 0 0  0 0 0 0 0  0 0 0 0.3137254901960784 0  " in="shadowComposite" />
    </filter>
    <g id="widget402">
      <path d="M 23 3.7298013245033115  C 22.95430463576159 1.7181681297553884  21.249428683130507 0.08741721854304657  19.14635761589404 0  L 3.9145695364238424 0  C 1.811498469187378 0.08741721854304657  0.1066225165562929 1.7181681297553884  0.1066225165562929 3.7298013245033115  L 0.1066225165562929 18.29933774834437  C 0.1066225165562929 20.310970943092293  1.811498469187378 21.941721854304635  3.9145695364238424 22  L 19.14635761589404 22  C 21.249428683130507 21.941721854304635  22.95430463576159 20.310970943092293  23 18.29933774834437  L 23 3.7298013245033115  Z M 21 3.7298013245033115  L 21 18.29933774834437  C 21.43112582781457 19.506317665193123  20.40820025623592 20.48476821192053  19.14635761589404 20.48476821192053  L 3.9145695364238424 20.48476821192053  C 2.652726896081963 20.48476821192053  1.6298013245033127 19.506317665193123  2 18.29933774834437  L 2 3.7298013245033115  C 1.6298013245033127 2.5228214076545576  2.652726896081963 1.5443708609271525  3.9145695364238424 1.5443708609271525  L 19.14635761589404 1.5443708609271525  C 20.40820025623592 1.5443708609271525  21.43112582781457 2.5228214076545576  21 3.7298013245033115  Z " fill-rule="nonzero" fill="#d57a6f" stroke="none" transform="matrix(1 0 0 1 845 77 )" />
    </g>
  </defs>
  <g transform="matrix(1 0 0 1 -843 -76 )">
    <use xlink:href="#widget402" filter="url(#filter401)" />
    <use xlink:href="#widget402" />
  </g>
</svg>