<?xml version="1.0" encoding="utf-8"?>
<svg version="1.1" xmlns:xlink="http://www.w3.org/1999/xlink" width="13px" height="13px" xmlns="http://www.w3.org/2000/svg">
  <defs>
    <filter x="850px" y="82px" width="13px" height="13px" filterUnits="userSpaceOnUse" id="filter403">
      <feOffset dx="0" dy="1" in="SourceAlpha" result="shadowOffsetInner" />
      <feGaussianBlur stdDeviation="1" in="shadowOffsetInner" result="shadowGaussian" />
      <feComposite in2="shadowGaussian" operator="atop" in="SourceAlpha" result="shadowComposite" />
      <feColorMatrix type="matrix" values="0 0 0 0 0  0 0 0 0 0  0 0 0 0 0  0 0 0 0.3137254901960784 0  " in="shadowComposite" />
    </filter>
    <g id="widget404">
      <path d="M 8.12903225806452 0.9435483870967784  C 7.314972881627712 0.01342522352888684  5.951800432216249 -0.20052560933838331  4.891935483870966 0.43548387096774194  C 4.742086718497755 0.5232467607522449  4.601104017993837 0.625337681806807  4.470967741935481 0.7403225806451604  C 4.340831465877127 0.625337681806805  4.199848765373211 0.5232467607522449  4.049999999999999 0.43548387096774194  C 3.016837966235754 -0.15933086167779145  1.7096333793890537 0.039460619271244744  0.9000000000000005 0.9145161290322577  C 0.36322333624074765 1.48612179605645  0.08048969355169261 2.250549792956485  0.11612903225806204 3.0338709677419367  C 0.16391857278126057 3.878122701689608  0.4564679063415974 4.690199300020894  0.9580645161290314 5.370967741935488  C 1.2865760047450427 5.8797022876685086  1.6503722464571644 6.364763943284676  2.0467741935483845 6.822580645161292  C 2.424193548387095 7.258064516129035  2.8306451612903207 7.679032258064517  3.237096774193546 8.070967741935487  L 3.7887096774193516 8.593548387096778  C 4.193662508877178 8.984374153781529  4.835369749187333 8.984374153781529  5.24032258064516 8.593548387096778  L 5.791935483870967 8.085483870967746  C 6.198387096774193 7.69354838709678  6.59032258064516 7.2725806451612955  6.982258064516131 6.837096774193552  C 7.379188255779207 6.3797062334933115  7.743013276416916 5.8946062059763635  8.070967741935483 5.385483870967745  C 8.572564351722914 4.704715429053153  8.865113685283255 3.8926388307218653  8.912903225806456 3.0483870967741957  C 8.944585670397473 2.2700227054174182  8.662131283073746 1.5115803690851863  8.12903225806452 0.9435483870967784  Z " fill-rule="nonzero" fill="#d57a6f" stroke="none" transform="matrix(1 0 0 1 852 83 )" />
    </g>
  </defs>
  <g transform="matrix(1 0 0 1 -850 -82 )">
    <use xlink:href="#widget404" filter="url(#filter403)" />
    <use xlink:href="#widget404" />
  </g>
</svg>