<?xml version="1.0" encoding="utf-8"?>
<svg version="1.1" xmlns:xlink="http://www.w3.org/1999/xlink" width="13px" height="13px" viewBox="17 31  13 13" xmlns="http://www.w3.org/2000/svg">
  <path d="M 23.5 31  C 27.14 31  30 33.86  30 37.5  C 30 41.14  27.14 44  23.5 44  C 19.86 44  17 41.14  17 37.5  C 17 33.86  19.86 31  23.5 31  Z " fill-rule="nonzero" fill="#ffffff" stroke="none" />
  <path d="M 23.5 31.5  C 26.86 31.5  29.5 34.14  29.5 37.5  C 29.5 40.86  26.86 43.5  23.5 43.5  C 20.14 43.5  17.5 40.86  17.5 37.5  C 17.5 34.14  20.14 31.5  23.5 31.5  Z " stroke-width="1" stroke="#797979" fill="none" />
  <path d="M 23.5 40.75  C 21.68 40.75  20.25 39.32  20.25 37.5  C 20.25 35.68  21.68 34.25  23.5 34.25  C 25.32 34.25  26.75 35.68  26.75 37.5  C 26.75 39.32  25.32 40.75  23.5 40.75  " fill-rule="nonzero" fill="#797979" stroke="none" />
</svg>