<?xml version="1.0" encoding="utf-8"?>
<svg version="1.1" xmlns:xlink="http://www.w3.org/1999/xlink" width="13px" height="13px" viewBox="147 39  13 13" xmlns="http://www.w3.org/2000/svg">
  <path d="M 153.5 39  C 157.14 39  160 41.86  160 45.5  C 160 49.14  157.14 52  153.5 52  C 149.86 52  147 49.14  147 45.5  C 147 41.86  149.86 39  153.5 39  Z " fill-rule="nonzero" fill="#ffffff" stroke="none" />
  <path d="M 153.5 39.5  C 156.86 39.5  159.5 42.14  159.5 45.5  C 159.5 48.86  156.86 51.5  153.5 51.5  C 150.14 51.5  147.5 48.86  147.5 45.5  C 147.5 42.14  150.14 39.5  153.5 39.5  Z " stroke-width="1" stroke="#797979" fill="none" />
  <path d="M 153.5 48.75  C 151.68 48.75  150.25 47.32  150.25 45.5  C 150.25 43.68  151.68 42.25  153.5 42.25  C 155.32 42.25  156.75 43.68  156.75 45.5  C 156.75 47.32  155.32 48.75  153.5 48.75  " fill-rule="nonzero" fill="#797979" stroke="none" />
</svg>