<?xml version="1.0" encoding="utf-8"?>
<svg version="1.1" xmlns:xlink="http://www.w3.org/1999/xlink" width="13px" height="13px" viewBox="527 39  13 13" xmlns="http://www.w3.org/2000/svg">
  <path d="M 533.5 39  C 537.14 39  540 41.86  540 45.5  C 540 49.14  537.14 52  533.5 52  C 529.86 52  527 49.14  527 45.5  C 527 41.86  529.86 39  533.5 39  Z " fill-rule="nonzero" fill="#f0f0f0" stroke="none" />
  <path d="M 533.5 39.5  C 536.86 39.5  539.5 42.14  539.5 45.5  C 539.5 48.86  536.86 51.5  533.5 51.5  C 530.14 51.5  527.5 48.86  527.5 45.5  C 527.5 42.14  530.14 39.5  533.5 39.5  Z " stroke-width="1" stroke="#797979" fill="none" />
  <path d="M 533.5 48.75  C 531.68 48.75  530.25 47.32  530.25 45.5  C 530.25 43.68  531.68 42.25  533.5 42.25  C 535.32 42.25  536.75 43.68  536.75 45.5  C 536.75 47.32  535.32 48.75  533.5 48.75  " fill-rule="nonzero" fill="#797979" stroke="none" />
</svg>