<?xml version="1.0" encoding="utf-8"?>
<svg version="1.1" xmlns:xlink="http://www.w3.org/1999/xlink" width="13px" height="13px" viewBox="210 39  13 13" xmlns="http://www.w3.org/2000/svg">
  <path d="M 216.5 39  C 220.14 39  223 41.86  223 45.5  C 223 49.14  220.14 52  216.5 52  C 212.86 52  210 49.14  210 45.5  C 210 41.86  212.86 39  216.5 39  Z " fill-rule="nonzero" fill="#ffffff" stroke="none" />
  <path d="M 216.5 39.5  C 219.86 39.5  222.5 42.14  222.5 45.5  C 222.5 48.86  219.86 51.5  216.5 51.5  C 213.14 51.5  210.5 48.86  210.5 45.5  C 210.5 42.14  213.14 39.5  216.5 39.5  Z " stroke-width="1" stroke="#797979" fill="none" />
  <path d="M 216.5 48.75  C 214.68 48.75  213.25 47.32  213.25 45.5  C 213.25 43.68  214.68 42.25  216.5 42.25  C 218.32 42.25  219.75 43.68  219.75 45.5  C 219.75 47.32  218.32 48.75  216.5 48.75  " fill-rule="nonzero" fill="#797979" stroke="none" />
</svg>