<?xml version="1.0" encoding="utf-8"?>
<svg version="1.1" xmlns:xlink="http://www.w3.org/1999/xlink" width="13px" height="13px" viewBox="16 475  13 13" xmlns="http://www.w3.org/2000/svg">
  <path d="M 22.5 475  C 26.14 475  29 477.86  29 481.5  C 29 485.14  26.14 488  22.5 488  C 18.86 488  16 485.14  16 481.5  C 16 477.86  18.86 475  22.5 475  Z " fill-rule="nonzero" fill="#ffffff" stroke="none" />
  <path d="M 22.5 475.5  C 25.86 475.5  28.5 478.14  28.5 481.5  C 28.5 484.86  25.86 487.5  22.5 487.5  C 19.14 487.5  16.5 484.86  16.5 481.5  C 16.5 478.14  19.14 475.5  22.5 475.5  Z " stroke-width="1" stroke="#797979" fill="none" />
  <path d="M 22.5 484.75  C 20.68 484.75  19.25 483.32  19.25 481.5  C 19.25 479.68  20.68 478.25  22.5 478.25  C 24.32 478.25  25.75 479.68  25.75 481.5  C 25.75 483.32  24.32 484.75  22.5 484.75  " fill-rule="nonzero" fill="#797979" stroke="none" />
</svg>