<?xml version="1.0" encoding="utf-8"?>
<svg version="1.1" xmlns:xlink="http://www.w3.org/1999/xlink" width="13px" height="13px" viewBox="14 383  13 13" xmlns="http://www.w3.org/2000/svg">
  <path d="M 20.5 383  C 24.14 383  27 385.86  27 389.5  C 27 393.14  24.14 396  20.5 396  C 16.86 396  14 393.14  14 389.5  C 14 385.86  16.86 383  20.5 383  Z " fill-rule="nonzero" fill="#f0f0f0" stroke="none" />
  <path d="M 20.5 383.5  C 23.86 383.5  26.5 386.14  26.5 389.5  C 26.5 392.86  23.86 395.5  20.5 395.5  C 17.14 395.5  14.5 392.86  14.5 389.5  C 14.5 386.14  17.14 383.5  20.5 383.5  Z " stroke-width="1" stroke="#797979" fill="none" />
  <path d="M 20.5 392.75  C 18.68 392.75  17.25 391.32  17.25 389.5  C 17.25 387.68  18.68 386.25  20.5 386.25  C 22.32 386.25  23.75 387.68  23.75 389.5  C 23.75 391.32  22.32 392.75  20.5 392.75  " fill-rule="nonzero" fill="#797979" stroke="none" />
</svg>