<?xml version="1.0" encoding="utf-8"?>
<svg version="1.1" xmlns:xlink="http://www.w3.org/1999/xlink" width="13px" height="13px" viewBox="100 69  13 13" xmlns="http://www.w3.org/2000/svg">
  <path d="M 106.5 69  C 110.14 69  113 71.86  113 75.5  C 113 79.14  110.14 82  106.5 82  C 102.86 82  100 79.14  100 75.5  C 100 71.86  102.86 69  106.5 69  Z " fill-rule="nonzero" fill="#ffffff" stroke="none" />
  <path d="M 106.5 69.5  C 109.86 69.5  112.5 72.14  112.5 75.5  C 112.5 78.86  109.86 81.5  106.5 81.5  C 103.14 81.5  100.5 78.86  100.5 75.5  C 100.5 72.14  103.14 69.5  106.5 69.5  Z " stroke-width="1" stroke="#797979" fill="none" />
  <path d="M 106.5 78.75  C 104.68 78.75  103.25 77.32  103.25 75.5  C 103.25 73.68  104.68 72.25  106.5 72.25  C 108.32 72.25  109.75 73.68  109.75 75.5  C 109.75 77.32  108.32 78.75  106.5 78.75  " fill-rule="nonzero" fill="#797979" stroke="none" />
</svg>