<?xml version="1.0" encoding="utf-8"?>
<svg version="1.1" xmlns:xlink="http://www.w3.org/1999/xlink" width="13px" height="13px" viewBox="313 347  13 13" xmlns="http://www.w3.org/2000/svg">
  <path d="M 319.5 347  C 323.14 347  326 349.86  326 353.5  C 326 357.14  323.14 360  319.5 360  C 315.86 360  313 357.14  313 353.5  C 313 349.86  315.86 347  319.5 347  Z " fill-rule="nonzero" fill="#f0f0f0" stroke="none" />
  <path d="M 319.5 347.5  C 322.86 347.5  325.5 350.14  325.5 353.5  C 325.5 356.86  322.86 359.5  319.5 359.5  C 316.14 359.5  313.5 356.86  313.5 353.5  C 313.5 350.14  316.14 347.5  319.5 347.5  Z " stroke-width="1" stroke="#797979" fill="none" />
  <path d="M 319.5 356.75  C 317.68 356.75  316.25 355.32  316.25 353.5  C 316.25 351.68  317.68 350.25  319.5 350.25  C 321.32 350.25  322.75 351.68  322.75 353.5  C 322.75 355.32  321.32 356.75  319.5 356.75  " fill-rule="nonzero" fill="#797979" stroke="none" />
</svg>