<?xml version="1.0" encoding="utf-8"?>
<svg version="1.1" xmlns:xlink="http://www.w3.org/1999/xlink" width="13px" height="13px" viewBox="405 347  13 13" xmlns="http://www.w3.org/2000/svg">
  <path d="M 411.5 347  C 415.14 347  418 349.86  418 353.5  C 418 357.14  415.14 360  411.5 360  C 407.86 360  405 357.14  405 353.5  C 405 349.86  407.86 347  411.5 347  Z " fill-rule="nonzero" fill="#f0f0f0" stroke="none" />
  <path d="M 411.5 347.5  C 414.86 347.5  417.5 350.14  417.5 353.5  C 417.5 356.86  414.86 359.5  411.5 359.5  C 408.14 359.5  405.5 356.86  405.5 353.5  C 405.5 350.14  408.14 347.5  411.5 347.5  Z " stroke-width="1" stroke="#797979" fill="none" />
  <path d="M 411.5 356.75  C 409.68 356.75  408.25 355.32  408.25 353.5  C 408.25 351.68  409.68 350.25  411.5 350.25  C 413.32 350.25  414.75 351.68  414.75 353.5  C 414.75 355.32  413.32 356.75  411.5 356.75  " fill-rule="nonzero" fill="#797979" stroke="none" />
</svg>