<?xml version="1.0" encoding="utf-8"?>
<svg version="1.1" xmlns:xlink="http://www.w3.org/1999/xlink" width="11px" height="11px" xmlns="http://www.w3.org/2000/svg">
  <g transform="matrix(1 0 0 1 -471 -146 )">
    <path d="M 10.83605769230769 10.112980769230766  L 6.199038461538461 5.472596153846154  L 10.836057692307692 0.8317307692307693  C 10.926205797267576 0.7415826642708854  10.976850475287392 0.6193155957334234  10.976850475287392 0.4918269230769229  C 10.976850475287392 0.22634550551139707  10.761635263719375 0.011130293943375263  10.496153846153847 0.011130293943375263  C 10.368665173497345 0.011130293943375263  10.246398104959884 0.06177497196319292  10.156249999999998 0.1519230769230765  L 5.519711538461537 4.792788461538461  L 0.8826923076923061 0.1514423076923077  C 0.7925442027324229 0.06129420273242385  0.6702771341949614 0.010649524712606469  0.5427884615384603 0.010649524712606469  C 0.2773070439729332 0.010649524712606469  0.06209183240491301 0.2258647362806272  0.06209183240491301 0.4913461538461535  C 0.06209183240491301 0.6188348265026545  0.11273651042473039 0.741101895040116  0.20288461538461394 0.8312499999999999  L 4.839903846153844 5.4721153846153845  L 0.20288461538461394 10.112980769230772  C 0.11273651042473094 10.203128874190655  0.06209183240491274 10.325395942728116  0.06209183240491274 10.452884615384615  C 0.06209183240491274 10.718366032950145  0.2773070439729332 10.933581244518162  0.5427884615384603 10.933581244518162  C 0.6702771341949597 10.933581244518162  0.7925442027324233 10.882936566498348  0.8826923076923061 10.792788461538462  L 5.519711538461537 6.151923076923077  L 10.15625 10.792788461538462  C 10.246398104959884 10.882936566498344  10.368665173497345 10.933581244518162  10.496153846153847 10.933581244518162  C 10.761635263719375 10.933581244518162  10.976850475287394 10.718366032950144  10.976850475287394 10.452884615384615  C 10.976850475287394 10.325395942728115  10.926205797267576 10.203128874190652  10.83605769230769 10.112980769230766  Z " fill-rule="nonzero" fill="#000000" stroke="none" transform="matrix(1 0 0 1 471 146 )" />
  </g>
</svg>