<?xml version="1.0" encoding="utf-8"?>
<svg version="1.1" xmlns:xlink="http://www.w3.org/1999/xlink" width="20px" height="10px" xmlns="http://www.w3.org/2000/svg">
  <g transform="matrix(1 0 0 1 -308 -400 )">
    <path d="M 14.849330357142858 7.834201388888888  C 16.341145833333336 7.131076388888888  17.58184523809524 6.186342592592591  18.571428571428573 5  C 17.44047619047619 3.6342592592592595  16.023065476190478 2.6128472222222223  14.319196428571427 1.9357638888888884  C 14.773065476190476 2.5376157407407396  15 3.188657407407407  15 3.8888888888888884  C 15 4.95949074074074  14.51078869047619 5.875289351851851  13.532366071428573 6.636284722222222  C 12.553943452380953 7.397280092592591  11.376488095238095 7.777777777777778  10 7.777777777777778  C 8.623511904761905 7.777777777777778  7.446056547619049 7.397280092592591  6.467633928571429 6.636284722222222  C 5.48921130952381 5.875289351851851  5 4.95949074074074  5 3.8888888888888884  C 5 3.188657407407407  5.226934523809525 2.5376157407407396  5.680803571428571 1.9357638888888884  C 3.9769345238095246 2.6128472222222223  2.5595238095238098 3.6342592592592595  1.4285714285714284 5  C 2.4181547619047623 6.186342592592591  3.658854166666667 7.131076388888888  5.150669642857143 7.834201388888888  C 6.6424851190476195 8.53732638888889  8.258928571428571 8.88888888888889  10 8.88888888888889  C 11.741071428571427 8.88888888888889  13.357514880952383 8.53732638888889  14.849330357142858 7.834201388888888  Z M 10.379464285714286 1.9618055555555558  C 10.483630952380953 1.8807870370370372  10.535714285714286 1.782407407407407  10.535714285714286 1.6666666666666663  C 10.535714285714286 1.5509259259259256  10.483630952380953 1.4525462962962954  10.379464285714286 1.371527777777778  C 10.27529761904762 1.2905092592592582  10.148809523809524 1.249999999999999  10 1.25  C 9.069940476190476 1.249999999999999  8.271949404761905 1.508969907407407  7.6060267857142865 2.0269097222222223  C 6.940104166666668 2.544849537037037  6.607142857142857 3.1655092592592595  6.607142857142857 3.8888888888888884  C 6.607142857142857 4.004629629629629  6.659226190476192 4.1030092592592595  6.763392857142857 4.184027777777778  C 6.867559523809525 4.265046296296296  6.9940476190476195 4.305555555555555  7.142857142857143 4.305555555555555  C 7.291666666666668 4.305555555555555  7.418154761904763 4.265046296296296  7.522321428571429 4.184027777777778  C 7.626488095238095 4.1030092592592595  7.678571428571429 4.004629629629629  7.678571428571429 3.8888888888888884  C 7.678571428571429 3.3912037037037033  7.9055059523809526 2.9658564814814814  8.359375 2.6128472222222223  C 8.81324404761905 2.259837962962963  9.36011904761905 2.0833333333333326  10 2.083333333333334  C 10.148809523809524 2.0833333333333326  10.27529761904762 2.0428240740740735  10.379464285714286 1.9618055555555558  Z M 19.776785714285715 4.401041666666666  C 19.92559523809524 4.603587962962963  20 4.80324074074074  20 5  C 20 5.196759259259258  19.92559523809524 5.396412037037037  19.776785714285715 5.598958333333332  C 18.73511904761905 6.929976851851851  17.33444940476191 7.9962384259259265  15.574776785714286 8.797743055555555  C 13.815104166666668 9.599247685185185  11.956845238095239 10  10 10  C 8.043154761904763 10  6.184895833333334 9.597800925925927  4.425223214285714 8.793402777777779  C 2.6655505952380953 7.989004629629629  1.2648809523809526 6.924189814814814  0.22321428571428573 5.598958333333332  C 0.0744047619047619 5.396412037037037  0 5.196759259259258  0 5  C 0 4.80324074074074  0.0744047619047619 4.603587962962963  0.22321428571428573 4.401041666666666  C 1.2648809523809526 3.075810185185185  2.6655505952380953 2.01099537037037  4.425223214285714 1.206597222222222  C 6.184895833333334 0.4021990740740733  8.043154761904763 0  10 0  C 11.956845238095239 0  13.815104166666668 0.4021990740740733  15.574776785714286 1.206597222222222  C 17.33444940476191 2.01099537037037  18.73511904761905 3.075810185185185  19.776785714285715 4.401041666666666  Z " fill-rule="nonzero" fill="#000000" stroke="none" transform="matrix(1 0 0 1 308 400 )" />
  </g>
</svg>