<?xml version="1.0" encoding="utf-8"?>
<svg version="1.1" xmlns:xlink="http://www.w3.org/1999/xlink" width="13px" height="13px" viewBox="228 432  13 13" xmlns="http://www.w3.org/2000/svg">
  <path d="M 234.5 432  C 238.14 432  241 434.86  241 438.5  C 241 442.14  238.14 445  234.5 445  C 230.86 445  228 442.14  228 438.5  C 228 434.86  230.86 432  234.5 432  Z " fill-rule="nonzero" fill="#ffffff" stroke="none" />
  <path d="M 234.5 432.5  C 237.86 432.5  240.5 435.14  240.5 438.5  C 240.5 441.86  237.86 444.5  234.5 444.5  C 231.14 444.5  228.5 441.86  228.5 438.5  C 228.5 435.14  231.14 432.5  234.5 432.5  Z " stroke-width="1" stroke="#797979" fill="none" />
  <path d="M 234.5 441.75  C 232.68 441.75  231.25 440.32  231.25 438.5  C 231.25 436.68  232.68 435.25  234.5 435.25  C 236.32 435.25  237.75 436.68  237.75 438.5  C 237.75 440.32  236.32 441.75  234.5 441.75  " fill-rule="nonzero" fill="#797979" stroke="none" />
</svg>