<?xml version="1.0" encoding="utf-8"?>
<svg version="1.1" xmlns:xlink="http://www.w3.org/1999/xlink" width="16px" height="18px" xmlns="http://www.w3.org/2000/svg">
  <g transform="matrix(1 0 0 1 -949 -21 )">
    <path d="M 3.2294836956521737 1.6375606560559022  L 15.225601708074535 1.6375606560559004  C 15.615702639751552 1.6375606560559004  15.970885093167702 1.2772855201863351  15.970885093167702 0.7991168478260868  C 15.934006211180124 0.36025329968944103  15.615683229813664 0  15.225601708074535 0  L 3.1945458074534154 0  C 1.41875 0  0 1.5960719138198758  0 3.593885869565218  L 0 17.089518633540376  C 0 17.5261985636646  0.3202251552795031 17.92575698757764  0.7452639751552795 17.92575698757764  C 1.135364906832298 17.92575698757764  1.4905473602484474 17.565481851708075  1.4905473602484474 17.08733501552795  L 1.4905473602484474 3.5938858695652183  C 1.4905473602484474 2.515287752329194  2.2707492236024844 1.6375606560559022  3.2294836956521737 1.6375606560559022  Z M 15.11884704968944 12.017454386645962  L 12.137810559006212 12.017454386645962  L 12.137810559006212 8.663744662267082  C 12.137810559006212 8.224881114130437  11.817585403726708 7.825322690217391  11.392546583850933 7.825322690217391  C 11.002445652173916 7.825322690217391  10.647263198757765 8.185575989906832  10.647263198757765 8.663744662267082  L 10.647263198757765 12.017454386645962  L 7.666168478260869 12.017454386645962  C 7.276067546583851 12.017454386645962  6.92090450310559 12.377729522515528  6.92090450310559 12.855898194875778  C 6.92090450310559 13.334066867236025  7.241149068322982 13.694320166925465  7.666168478260869 13.694320166925465  L 10.647243788819877 13.694320166925465  L 10.647243788819877 17.04802989130435  C 10.647243788819877 17.486893439440994  10.967488354037268 17.886451863354036  11.392527173913045 17.886451863354036  C 11.782628105590064 17.886451863354036  12.137791149068324 17.526198563664593  12.137791149068324 17.04802989130435  L 12.137791149068324 13.694320166925465  L 15.11886645962733 13.694320166925465  C 15.50896739130435 13.694320166925465  15.86413043478261 13.3340450310559  15.86413043478261 12.855898194875778  C 15.86413043478261 12.377751358695656  15.50896739130435 12.017454386645962  15.11886645962733 12.017454386645962  Z " fill-rule="nonzero" fill="#00aaa6" stroke="none" transform="matrix(1 0 0 1 949 21 )" />
  </g>
</svg>