<?xml version="1.0" encoding="utf-8"?>
<svg version="1.1" xmlns:xlink="http://www.w3.org/1999/xlink" width="12px" height="10px" xmlns="http://www.w3.org/2000/svg">
  <g transform="matrix(1 0 0 1 -800 -368 )">
    <path d="M 11.879759519038076 1.030927835051546  C 11.959919839679358 1.145475372279493  12 1.2772050400916368  12 1.426116838487973  C 12 1.5750286368843058  11.959919839679358 1.7067583046964474  11.879759519038076 1.8213058419243988  L 6.2765531062124245 9.828178694158074  C 6.196392785571143 9.942726231386022  6.104208416833668 10  6 10  C 5.895791583166334 10  5.803607214428858 9.942726231386022  5.723446893787575 9.828178694158074  L 0.12024048096192384 1.8213058419243988  C 0.0400801603206414 1.7067583046964474  0 1.5750286368843058  0 1.426116838487973  C 0 1.2772050400916368  0.0400801603206414 1.145475372279493  0.12024048096192384 1.030927835051546  L 0.721442885771543 0.1718213058419249  C 0.8016032064128259 0.057273768613973486  0.8937875751503007 0  0.9979959919839679 0  C 1.1022044088176355 0  1.1943887775551103 0.057273768613973486  1.2745490981963927 0.1718213058419249  L 6 6.9243986254295535  L 10.725450901803608 0.1718213058419249  C 10.80561122244489 0.057273768613973486  10.897795591182366 0  11.002004008016032 0  C 11.106212424849701 0  11.198396793587175 0.057273768613973486  11.278557114228457 0.1718213058419249  L 11.879759519038076 1.030927835051546  Z " fill-rule="nonzero" fill="#000000" stroke="none" transform="matrix(1 0 0 1 800 368 )" />
  </g>
</svg>