<?xml version="1.0" encoding="utf-8"?>
<svg version="1.1" xmlns:xlink="http://www.w3.org/1999/xlink" width="27px" height="21px" xmlns="http://www.w3.org/2000/svg">
  <g transform="matrix(1 0 0 1 -221 -207 )">
    <path d="M 17.86640625 11.312855113636363  C 17.95546875 11.218394886363637  18 11.10653409090909  18 10.977272727272727  C 18 10.838068181818182  17.957812500000003 10.723721590909093  17.8734375 10.634232954545453  L 12.9234375 5.384232954545453  C 12.8390625 5.2947443181818175  12.731250000000001 5.25  12.6 5.25  C 12.46875 5.25  12.360937500000002 5.2947443181818175  12.2765625 5.384232954545453  L 7.340624999999999 10.61931818181818  C 7.246875000000001 10.738636363636363  7.2 10.857954545454547  7.2 10.977272727272727  C 7.2 11.116477272727272  7.242187500000001 11.230823863636363  7.3265625000000005 11.3203125  C 7.4109375 11.409801136363637  7.518750000000002 11.454545454545453  7.6499999999999995 11.454545454545453  L 10.8 11.454545454545453  L 10.8 16.704545454545453  C 10.8 16.833806818181817  10.84453125 16.945667613636363  10.93359375 17.04012784090909  C 11.02265625 17.134588068181817  11.128125 17.18181818181818  11.25 17.18181818181818  L 13.950000000000001 17.18181818181818  C 14.071875000000002 17.18181818181818  14.177343750000002 17.134588068181817  14.266406250000001 17.04012784090909  C 14.35546875 16.945667613636363  14.4 16.833806818181817  14.4 16.704545454545453  L 14.4 11.454545454545453  L 17.55 11.454545454545453  C 17.671875 11.454545454545453  17.77734375 11.407315340909092  17.86640625 11.312855113636363  Z M 25.825781250000002 11.715553977272727  C 26.608593750000004 12.754616477272728  27.000000000000007 13.940340909090907  27 15.272727272727273  C 27.000000000000007 16.85369318181818  26.472656250000004 18.203480113636363  25.41796875 19.32208806818182  C 24.363281250000004 20.440696022727273  23.090625000000003 21  21.6 21  L 6.3 21  C 4.565625 21  3.0820312500000004 20.346235795454547  1.8492187500000001 19.038707386363637  C 0.6164062499999999 17.731178977272727  0 16.157670454545457  0 14.31818181818182  C 0 13.02556818181818  0.328125 11.832386363636363  0.9843750000000001 10.738636363636363  C 1.640625 9.64488636363636  2.521875 8.82457386363636  3.628125 8.277698863636363  C 3.609375 7.97940340909091  3.6 7.765624999999999  3.6 7.636363636363637  C 3.6 5.52840909090909  4.303125 3.728693181818183  5.709375 2.2372159090909096  C 7.1156250000000005 0.7457386363636366  8.812500000000002 0  10.8 0  C 12.262500000000001 0  13.600781250000002 0.4325284090909097  14.81484375 1.2975852272727268  C 16.028906250000002 2.1626420454545463  16.9125 3.3110795454545463  17.465625 4.742897727272727  C 18.13125 4.126420454545453  18.909375 3.818181818181817  19.799999999999997 3.818181818181817  C 20.793750000000003 3.818181818181817  21.6421875 4.191051136363637  22.345312500000002 4.936789772727273  C 23.0484375 5.68252840909091  23.400000000000002 6.5823863636363615  23.400000000000002 7.636363636363637  C 23.400000000000002 8.392045454545453  23.2078125 9.078125  22.8234375 9.694602272727273  C 24.0421875 10.002840909090908  25.04296875 10.676491477272725  25.825781250000002 11.715553977272727  Z " fill-rule="nonzero" fill="#000000" stroke="none" transform="matrix(1 0 0 1 221 207 )" />
  </g>
</svg>