<?xml version="1.0" encoding="utf-8"?>
<svg version="1.1" xmlns:xlink="http://www.w3.org/1999/xlink" width="13px" height="13px" xmlns="http://www.w3.org/2000/svg">
  <g transform="matrix(1 0 0 1 -226 -604 )">
    <path d="M 12.741477272727273 4.985795454545455  C 12.913825757575758 5.158143939393938  13 5.367424242424242  13 5.613636363636363  L 13 7.386363636363636  C 13 7.632575757575758  12.913825757575758 7.84185606060606  12.741477272727273 8.014204545454545  C 12.569128787878789 8.18655303030303  12.359848484848486 8.272727272727273  12.113636363636363 8.272727272727273  L 8.272727272727273 8.272727272727273  L 8.272727272727273 12.113636363636365  C 8.272727272727273 12.359848484848486  8.186553030303031 12.569128787878787  8.014204545454545 12.741477272727273  C 7.841856060606062 12.913825757575758  7.632575757575758 13  7.386363636363637 13  L 5.613636363636363 13  C 5.367424242424243 13  5.15814393939394 12.913825757575758  4.985795454545455 12.741477272727273  C 4.81344696969697 12.569128787878787  4.7272727272727275 12.359848484848486  4.7272727272727275 12.113636363636365  L 4.7272727272727275 8.272727272727273  L 0.8863636363636362 8.272727272727273  C 0.6401515151515152 8.272727272727273  0.4308712121212122 8.18655303030303  0.2585227272727273 8.014204545454545  C 0.08617424242424242 7.84185606060606  0 7.632575757575758  0 7.386363636363636  L 0 5.613636363636363  C 0 5.367424242424242  0.08617424242424242 5.158143939393938  0.2585227272727273 4.985795454545455  C 0.4308712121212122 4.81344696969697  0.6401515151515152 4.7272727272727275  0.8863636363636362 4.7272727272727275  L 4.7272727272727275 4.7272727272727275  L 4.7272727272727275 0.886363636363637  C 4.7272727272727275 0.6401515151515146  4.81344696969697 0.4308712121212114  4.985795454545455 0.2585227272727274  C 5.15814393939394 0.08617424242424199  5.367424242424243 0  5.613636363636363 0  L 7.386363636363637 0  C 7.632575757575758 0  7.841856060606062 0.08617424242424199  8.014204545454545 0.2585227272727274  C 8.186553030303031 0.4308712121212114  8.272727272727273 0.6401515151515146  8.272727272727273 0.886363636363637  L 8.272727272727273 4.7272727272727275  L 12.113636363636363 4.7272727272727275  C 12.359848484848486 4.7272727272727275  12.569128787878789 4.81344696969697  12.741477272727273 4.985795454545455  Z " fill-rule="nonzero" fill="#000000" stroke="none" transform="matrix(1 0 0 1 226 604 )" />
  </g>
</svg>