<?xml version="1.0" encoding="utf-8"?>
<svg version="1.1" xmlns:xlink="http://www.w3.org/1999/xlink" width="5px" height="7px" xmlns="http://www.w3.org/2000/svg">
  <g transform="matrix(1 0 0 1 -342 -211 )">
    <path d="M 3.0833333378906254 6.268749999999999  L 2.567083337890624 6.51375  L 0.4291666621093757 1.92875  C 0.20780968137479583 1.4527439246540004  0.4140970803869184 0.8874120096755593  0.8899999999999997 0.6658333378906249  C 1.1191476187181042 0.5524364661732832  1.3847016351427754 0.5376834636142616  1.625 0.625  C 1.8624185587049986 0.7112387164691132  2.0555979703469394 0.8886698063760758  2.1616666621093756 1.117916662109375  L 4.299583337890624 5.700000000000001  L 3.771666662109375 5.9479166621093755  L 1.625 1.3716666621093756  C 1.583018863540934 1.2841202801898226  1.5088199358555343 1.216191689182204  1.417916662109377 1.1820833378906253  C 1.3248565670648986 1.1418514550423544  1.2193100950444773 1.1418514550423544  1.1262500000000006 1.1820833378906253  C 0.942598349405257 1.2689823724573368  0.8632203662550353 1.4875971513232846  0.9483333378906256 1.6720833378906255  L 3.0833333378906254 6.268749999999999  Z " fill-rule="nonzero" fill="#2c2c2c" stroke="none" transform="matrix(1 0 0 1 342 211 )" />
  </g>
</svg>