<?xml version="1.0" encoding="utf-8"?>
<svg version="1.1" xmlns:xlink="http://www.w3.org/1999/xlink" width="18px" height="18px" xmlns="http://www.w3.org/2000/svg">
  <g transform="matrix(1 0 0 1 -110 -397 )">
    <path d="M 119 397  C 124.04 397  128 400.96  128 406  C 128 411.04  124.04 415  119 415  C 113.96 415  110 411.04  110 406  C 110 400.96  113.96 397  119 397  Z " fill-rule="nonzero" fill="#ffffff" stroke="none" />
    <path d="M 119 397.5  C 123.76 397.5  127.5 401.24  127.5 406  C 127.5 410.76  123.76 414.5  119 414.5  C 114.24 414.5  110.5 410.76  110.5 406  C 110.5 401.24  114.24 397.5  119 397.5  Z " stroke-width="1" stroke="#797979" fill="none" />
  </g>
</svg>