<?xml version="1.0" encoding="utf-8"?>
<svg version="1.1" xmlns:xlink="http://www.w3.org/1999/xlink" width="13px" height="13px" viewBox="360 426  13 13" xmlns="http://www.w3.org/2000/svg">
  <path d="M 366.5 426  C 370.14 426  373 428.86  373 432.5  C 373 436.14  370.14 439  366.5 439  C 362.86 439  360 436.14  360 432.5  C 360 428.86  362.86 426  366.5 426  Z " fill-rule="nonzero" fill="#f0f0f0" stroke="none" />
  <path d="M 366.5 426.5  C 369.86 426.5  372.5 429.14  372.5 432.5  C 372.5 435.86  369.86 438.5  366.5 438.5  C 363.14 438.5  360.5 435.86  360.5 432.5  C 360.5 429.14  363.14 426.5  366.5 426.5  Z " stroke-width="1" stroke="#797979" fill="none" />
  <path d="M 366.5 435.75  C 364.68 435.75  363.25 434.32  363.25 432.5  C 363.25 430.68  364.68 429.25  366.5 429.25  C 368.32 429.25  369.75 430.68  369.75 432.5  C 369.75 434.32  368.32 435.75  366.5 435.75  " fill-rule="nonzero" fill="#797979" stroke="none" />
</svg>