<?xml version="1.0" encoding="utf-8"?>
<svg version="1.1" xmlns:xlink="http://www.w3.org/1999/xlink" width="13px" height="13px" viewBox="760 458  13 13" xmlns="http://www.w3.org/2000/svg">
  <path d="M 766.5 458  C 770.14 458  773 460.86  773 464.5  C 773 468.14  770.14 471  766.5 471  C 762.86 471  760 468.14  760 464.5  C 760 460.86  762.86 458  766.5 458  Z " fill-rule="nonzero" fill="#f0f0f0" stroke="none" />
  <path d="M 766.5 458.5  C 769.86 458.5  772.5 461.14  772.5 464.5  C 772.5 467.86  769.86 470.5  766.5 470.5  C 763.14 470.5  760.5 467.86  760.5 464.5  C 760.5 461.14  763.14 458.5  766.5 458.5  Z " stroke-width="1" stroke="#797979" fill="none" />
  <path d="M 766.5 467.75  C 764.68 467.75  763.25 466.32  763.25 464.5  C 763.25 462.68  764.68 461.25  766.5 461.25  C 768.32 461.25  769.75 462.68  769.75 464.5  C 769.75 466.32  768.32 467.75  766.5 467.75  " fill-rule="nonzero" fill="#797979" stroke="none" />
</svg>