<?xml version="1.0" encoding="utf-8"?>
<svg version="1.1" xmlns:xlink="http://www.w3.org/1999/xlink" width="20px" height="20px" xmlns="http://www.w3.org/2000/svg">
  <g transform="matrix(1 0 0 1 -27 -78 )">
    <path d="M 37 78  C 42.6 78  47 82.4  47 88  C 47 93.6  42.6 98  37 98  C 31.4 98  27 93.6  27 88  C 27 82.4  31.4 78  37 78  Z " fill-rule="nonzero" fill="#ffffff" stroke="none" />
    <path d="M 37 78.5  C 42.32 78.5  46.5 82.68  46.5 88  C 46.5 93.32  42.32 97.5  37 97.5  C 31.68 97.5  27.5 93.32  27.5 88  C 27.5 82.68  31.68 78.5  37 78.5  Z " stroke-width="1" stroke="#797979" fill="none" />
  </g>
</svg>