<?xml version="1.0" encoding="utf-8"?>
<svg version="1.1" xmlns:xlink="http://www.w3.org/1999/xlink" width="9px" height="5px" xmlns="http://www.w3.org/2000/svg">
  <g transform="matrix(1 0 0 1 -268 -16 )">
    <path d="M 8.1787109375 0.15393518518518334  C 8.281792534722285 0.2565586419753032  8.333333333333371 0.37808641975308177  8.333333333333371 0.518518518518519  C 8.333333333333371 0.6589506172839492  8.281792534722285 0.7804783950617242  8.1787109375 0.8831018518518476  L 4.5328776041667425 4.512731481481488  C 4.429796006944457 4.615354938271608  4.307725694444457 4.666666666666671  4.1666666666667425 4.666666666666671  C 4.025607638888914 4.666666666666671  3.903537326388914 4.615354938271608  3.8004557291666288 4.512731481481488  L 0.15462239583337123 0.8831018518518476  C 0.05154079861114269 0.7804783950617242  0 0.6589506172839492  0 0.518518518518519  C 0 0.37808641975308177  0.05154079861114269 0.2565586419753032  0.15462239583337123 0.15393518518518334  C 0.2577039930555429 0.05131172839506348  0.3797743055555429 0  0.5208333333333712 0  L 7.8125 0  C 7.9535590277777715 0  8.075629340277771 0.05131172839506348  8.1787109375 0.15393518518518334  Z " fill-rule="nonzero" fill="#cccccc" stroke="none" transform="matrix(1 0 0 1 268 16 )" />
  </g>
</svg>