<?xml version="1.0" encoding="utf-8"?>
<svg version="1.1" xmlns:xlink="http://www.w3.org/1999/xlink" width="19px" height="19px" xmlns="http://www.w3.org/2000/svg">
  <g transform="matrix(1 0 0 1 -122 -16 )">
    <path d="M 131.5 16  C 136.82 16  141 20.18  141 25.5  C 141 30.82  136.82 35  131.5 35  C 126.18 35  122 30.82  122 25.5  C 122 20.18  126.18 16  131.5 16  Z " fill-rule="nonzero" fill="#ffffff" stroke="none" />
    <path d="M 131.5 16.5  C 136.54 16.5  140.5 20.46  140.5 25.5  C 140.5 30.54  136.54 34.5  131.5 34.5  C 126.46 34.5  122.5 30.54  122.5 25.5  C 122.5 20.46  126.46 16.5  131.5 16.5  Z " stroke-width="1" stroke="#f59a23" fill="none" />
  </g>
</svg>