<?xml version="1.0" encoding="utf-8"?>
<svg version="1.1" xmlns:xlink="http://www.w3.org/1999/xlink" width="13px" height="13px" viewBox="23 27  13 13" xmlns="http://www.w3.org/2000/svg">
  <path d="M 29.5 27  C 33.14 27  36 29.86  36 33.5  C 36 37.14  33.14 40  29.5 40  C 25.86 40  23 37.14  23 33.5  C 23 29.86  25.86 27  29.5 27  Z " fill-rule="nonzero" fill="#ffffff" stroke="none" />
  <path d="M 29.5 27.5  C 32.86 27.5  35.5 30.14  35.5 33.5  C 35.5 36.86  32.86 39.5  29.5 39.5  C 26.14 39.5  23.5 36.86  23.5 33.5  C 23.5 30.14  26.14 27.5  29.5 27.5  Z " stroke-width="1" stroke="#797979" fill="none" />
  <path d="M 29.5 36.75  C 27.68 36.75  26.25 35.32  26.25 33.5  C 26.25 31.68  27.68 30.25  29.5 30.25  C 31.32 30.25  32.75 31.68  32.75 33.5  C 32.75 35.32  31.32 36.75  29.5 36.75  " fill-rule="nonzero" fill="#797979" stroke="none" />
</svg>