<?xml version="1.0" encoding="utf-8"?>
<svg version="1.1" xmlns:xlink="http://www.w3.org/1999/xlink" width="13px" height="13px" viewBox="717 192  13 13" xmlns="http://www.w3.org/2000/svg">
  <path d="M 723.5 192  C 727.14 192  730 194.86  730 198.5  C 730 202.14  727.14 205  723.5 205  C 719.86 205  717 202.14  717 198.5  C 717 194.86  719.86 192  723.5 192  Z " fill-rule="nonzero" fill="#f0f0f0" stroke="none" />
  <path d="M 723.5 192.5  C 726.86 192.5  729.5 195.14  729.5 198.5  C 729.5 201.86  726.86 204.5  723.5 204.5  C 720.14 204.5  717.5 201.86  717.5 198.5  C 717.5 195.14  720.14 192.5  723.5 192.5  Z " stroke-width="1" stroke="#797979" fill="none" />
  <path d="M 723.5 201.75  C 721.68 201.75  720.25 200.32  720.25 198.5  C 720.25 196.68  721.68 195.25  723.5 195.25  C 725.32 195.25  726.75 196.68  726.75 198.5  C 726.75 200.32  725.32 201.75  723.5 201.75  " fill-rule="nonzero" fill="#797979" stroke="none" />
</svg>