<?xml version="1.0" encoding="utf-8"?>
<svg version="1.1" xmlns:xlink="http://www.w3.org/1999/xlink" width="52px" height="48px" xmlns="http://www.w3.org/2000/svg">
  <g transform="matrix(1 0 0 1 -104 -227 )">
    <path d="M 104 227  L 156 227  L 156 275  L 104 275  L 104 227  " fill-rule="nonzero" fill="#cccccc" stroke="none" />
    <path d="M 107 230  L 153 230  L 153 272  L 107 272  L 107 230  " fill-rule="nonzero" fill="#ffffff" stroke="none" />
    <path d="M 134.64 241.39999999999998  C 132.624 241.39999999999998  131.04 239.81599999999997  131.04 237.79999999999998  C 131.04 235.784  132.624 234.2  134.64 234.2  C 136.65599999999998 234.2  138.23999999999998 235.784  138.23999999999998 237.79999999999998  C 138.23999999999998 239.81599999999997  136.65599999999998 241.39999999999998  134.64 241.39999999999998  " fill-rule="nonzero" fill="#cccccc" stroke="none" />
    <path d="M 108 271  L 108 249  L 119 239  L 134.4 248.84615384615384  L 143.2 245  L 152 248.84615384615384  L 152 271  L 108 271  " fill-rule="nonzero" fill="#169bd5" stroke="none" />
  </g>
</svg>