<?xml version="1.0" encoding="utf-8"?>
<svg version="1.1" xmlns:xlink="http://www.w3.org/1999/xlink" width="16px" height="14px" xmlns="http://www.w3.org/2000/svg">
  <g transform="matrix(1 0 0 1 -262 -209 )">
    <path d="M 15.91139240506329 7.138449367088608  C 15.91139240506329 7.062302215189874  15.840189873417721 7  15.753164556962025 7  L 14.645569620253164 7  C 14.558544303797468 7  14.487341772151899 7.062302215189874  14.487341772151899 7.138449367088608  L 14.487341772151899 12.676424050632912  L 1.5126582278481013 12.676424050632912  L 1.5126582278481013 1.3235759493670887  L 7.841772151898734 1.3235759493670887  C 7.92879746835443 1.3235759493670887  8 1.2612737341772151  8 1.185126582278481  L 8 0.21598101265822786  C 8 0.13983386075949367  7.92879746835443 0.07753164556962025  7.841772151898734 0.07753164556962025  L 0.7215189873417721 0.07753164556962025  C 0.3714398734177215 0.07753164556962025  0.08860759493670886 0.32500988924050633  0 0.6313291139240506  L 0 13.368670886075948  C 0.08860759493670886 13.674990110759495  0.3714398734177215 13.922468354430379  0.7215189873417721 14  L 15.278481012658228 14  C 15.628560126582279 13.922468354430379  15.91139240506329 13.674990110759495  15.91139240506329 13.368670886075948  L 15.91139240506329 7.138449367088608  Z " fill-rule="nonzero" fill="#1e98d7" stroke="none" transform="matrix(1 0 0 1 262 209 )" />
  </g>
</svg>