<?xml version="1.0" encoding="utf-8"?>
<svg version="1.1" xmlns:xlink="http://www.w3.org/1999/xlink" width="13px" height="13px" viewBox="320 343  13 13" xmlns="http://www.w3.org/2000/svg">
  <path d="M 326.5 343  C 330.14 343  333 345.86  333 349.5  C 333 353.14  330.14 356  326.5 356  C 322.86 356  320 353.14  320 349.5  C 320 345.86  322.86 343  326.5 343  Z " fill-rule="nonzero" fill="#f0f0f0" stroke="none" />
  <path d="M 326.5 343.5  C 329.86 343.5  332.5 346.14  332.5 349.5  C 332.5 352.86  329.86 355.5  326.5 355.5  C 323.14 355.5  320.5 352.86  320.5 349.5  C 320.5 346.14  323.14 343.5  326.5 343.5  Z " stroke-width="1" stroke="#797979" fill="none" />
  <path d="M 326.5 352.75  C 324.68 352.75  323.25 351.32  323.25 349.5  C 323.25 347.68  324.68 346.25  326.5 346.25  C 328.32 346.25  329.75 347.68  329.75 349.5  C 329.75 351.32  328.32 352.75  326.5 352.75  " fill-rule="nonzero" fill="#797979" stroke="none" />
</svg>