<?xml version="1.0" encoding="utf-8"?>
<svg version="1.1" xmlns:xlink="http://www.w3.org/1999/xlink" width="13px" height="13px" viewBox="228 288  13 13" xmlns="http://www.w3.org/2000/svg">
  <path d="M 234.5 288  C 238.14 288  241 290.86  241 294.5  C 241 298.14  238.14 301  234.5 301  C 230.86 301  228 298.14  228 294.5  C 228 290.86  230.86 288  234.5 288  Z " fill-rule="nonzero" fill="#ffffff" stroke="none" />
  <path d="M 234.5 288.5  C 237.86 288.5  240.5 291.14  240.5 294.5  C 240.5 297.86  237.86 300.5  234.5 300.5  C 231.14 300.5  228.5 297.86  228.5 294.5  C 228.5 291.14  231.14 288.5  234.5 288.5  Z " stroke-width="1" stroke="#797979" fill="none" />
  <path d="M 234.5 297.75  C 232.68 297.75  231.25 296.32  231.25 294.5  C 231.25 292.68  232.68 291.25  234.5 291.25  C 236.32 291.25  237.75 292.68  237.75 294.5  C 237.75 296.32  236.32 297.75  234.5 297.75  " fill-rule="nonzero" fill="#797979" stroke="none" />
</svg>