<?xml version="1.0" encoding="utf-8"?>
<svg version="1.1" xmlns:xlink="http://www.w3.org/1999/xlink" width="13px" height="13px" viewBox="764 108  13 13" xmlns="http://www.w3.org/2000/svg">
  <path d="M 770.5 108  C 774.14 108  777 110.86  777 114.5  C 777 118.14  774.14 121  770.5 121  C 766.86 121  764 118.14  764 114.5  C 764 110.86  766.86 108  770.5 108  Z " fill-rule="nonzero" fill="#ffffff" stroke="none" />
  <path d="M 770.5 108.5  C 773.86 108.5  776.5 111.14  776.5 114.5  C 776.5 117.86  773.86 120.5  770.5 120.5  C 767.14 120.5  764.5 117.86  764.5 114.5  C 764.5 111.14  767.14 108.5  770.5 108.5  Z " stroke-width="1" stroke="#797979" fill="none" />
  <path d="M 770.5 117.75  C 768.68 117.75  767.25 116.32  767.25 114.5  C 767.25 112.68  768.68 111.25  770.5 111.25  C 772.32 111.25  773.75 112.68  773.75 114.5  C 773.75 116.32  772.32 117.75  770.5 117.75  " fill-rule="nonzero" fill="#797979" stroke="none" />
</svg>