<?xml version="1.0" encoding="utf-8"?>
<svg version="1.1" xmlns:xlink="http://www.w3.org/1999/xlink" width="13px" height="13px" viewBox="207 24  13 13" xmlns="http://www.w3.org/2000/svg">
  <path d="M 213.5 24  C 217.14 24  220 26.86  220 30.5  C 220 34.14  217.14 37  213.5 37  C 209.86 37  207 34.14  207 30.5  C 207 26.86  209.86 24  213.5 24  Z " fill-rule="nonzero" fill="#f0f0f0" stroke="none" />
  <path d="M 213.5 24.5  C 216.86 24.5  219.5 27.14  219.5 30.5  C 219.5 33.86  216.86 36.5  213.5 36.5  C 210.14 36.5  207.5 33.86  207.5 30.5  C 207.5 27.14  210.14 24.5  213.5 24.5  Z " stroke-width="1" stroke="#797979" fill="none" />
  <path d="M 213.5 33.75  C 211.68 33.75  210.25 32.32  210.25 30.5  C 210.25 28.68  211.68 27.25  213.5 27.25  C 215.32 27.25  216.75 28.68  216.75 30.5  C 216.75 32.32  215.32 33.75  213.5 33.75  " fill-rule="nonzero" fill="#797979" stroke="none" />
</svg>