<?xml version="1.0" encoding="utf-8"?>
<svg version="1.1" xmlns:xlink="http://www.w3.org/1999/xlink" width="25px" height="25px" xmlns="http://www.w3.org/2000/svg">
  <g transform="matrix(1 0 0 1 -983 -221 )">
    <path d="M 11.264822110262752 22.233201571377815  L 13.73517788973725 22.233201571377815  L 13.73517788973725 24.703557295365773  L 11.264822110262752 24.703557295365773  L 11.264822110262752 22.233201571377815  Z M 0.14822132457381218 12.351778675426123  C 0.14822132457381218 5.529891301935341  5.678112626509217 0  12.5 0  C 19.321887373490785 0  24.851778675426186 5.529891301935341  24.851778675426186 12.351778675426123  C 24.854704036616358 16.317808995067004  22.950561204318763 20.043365759153627  19.734436756480857 22.36413041548298  L 19.41205533114343 22.590167957652728  L 18.028656116832373 20.543478282581678  C 20.750888569541683 18.706374585486753  22.382524636706915 15.636839861312913  22.382524636706915 12.352711435008116  C 22.382524636706915 6.895352232300795  17.958460887975942 2.4712884835698836  12.501101685268685 2.4712884835698836  C 7.043742482561428 2.4712884835698836  2.619678733830452 6.895352232300795  2.619678733830452 12.352711435008116  C 2.619678733830452 15.556242387743877  4.172688772818844 18.56098562918508  6.786067171963789 20.413784568093003  L 7.076334006569596 20.613883389559685  L 5.718873512961667 22.676630415482954  C 2.240042368942919 20.394290830788915  0.14565042652492366 16.512467740826185  0.14822132457381218 12.351778675426123  Z M 7.25914029208096 11.11660078568894  L 12.5 5.875741133256375  L 17.74085970791904 11.11660078568894  L 15.993082996715202 12.863142311789746  L 13.73517788973725 10.604001964222286  L 13.73517788973725 19.762845847389922  L 11.264822110262752 19.762845847389922  L 11.264822110262752 10.604001964222286  L 9.006917003284798 12.864377496892779  L 7.25914029208096 11.11660078568894  Z " fill-rule="nonzero" fill="#1296db" stroke="none" transform="matrix(1 0 0 1 983 221 )" />
  </g>
</svg>