<?xml version="1.0" encoding="utf-8"?>
<svg version="1.1" xmlns:xlink="http://www.w3.org/1999/xlink" width="17px" height="24px" xmlns="http://www.w3.org/2000/svg">
  <g transform="matrix(1 0 0 1 -1192 -221 )">
    <path d="M 15.389544035598467 23.989473684210527  L 15.396226415094338 24  L 1.8269653983637981 24  C 0.8900787157276572 23.992459450714886  0.12977701952585535 23.328667873218603  0.12830188679245352 22.50877192982456  C 0.12903761714915254 21.68978843057435  0.8871136621273346 21.025850898678826  1.8229559644015323 21  L 13.881996865787146 21  C 14.0532650399248 22.117927340852752  14.576092221465892 23.146178238919106  15.389544035598467 23.989473684210527  Z M 13.868632075471696 19.548538020833327  L 13.869968563900352 19.54736842105263  L 0.840644643646816 19.54736842105263  C 0.44796671949426164 19.547368405913247  0.12963837522110863 19.26879002837344  0.12963837522110863 18.925146189692985  L 0.12963837522110863 17.566081880482457  C 0.12963628044263278 17.56525615683558  0.12963523305242652 17.564430431407896  0.12963523305242652 17.56360470572606  C 0.12963523305242652 16.947371195388545  0.7004721770181646 16.44781523204185  1.4046352330524274 16.44781523204185  C 1.4113189803152368 16.44781523204185  1.4180026242618513 16.447861225195364  1.4246855450324292 16.447953207236843  C 3.1806426170106468 16.379536233063483  4.891154421024689 15.937967362226242  6.408411960126769 15.161403508771933  C 7.452201278744104 14.63040934758772  9.204323920253536 13.512280701754392  9.204323888929835 11.98245614035088  L 9.204323888929835 11.822222231359653  C 9.204323888929835 10.694736842105266  9.204323888929835 10.426900603070179  7.422798752579598 8.886549698464915  C 6.0795414598730435 7.990002948698098  5.299560543047788 6.590575833532621  5.319182379495873 5.112280701754385  C 5.313901600010972 3.7726382231112874  5.928033006614064 2.4880875336651913  7.02185535635318 1.550877192982456  C 8.122863955354907 0.6024635972550904  9.60802840114979 0.07391747139906196  11.152908794590212 0.08070175438596532  C 12.697246067404226 0.07285508092061407  14.182384840445888 0.6001306414632994  15.28396226415094 1.5473684210526317  C 16.377935837006962 2.485450940003078  16.99202843072919 3.7707641247965062  16.986635209684554 5.111111101973684  C 17.004242897685227 6.58927684319551  16.22409661042206 7.988111973404994  14.881682379495873 8.885380126096491  C 13.277908794590212 10.405847971491228  13.097484266288324 10.687719298245613  13.097484266288324 11.679532154605262  L 13.097484266288324 11.978947368421052  C 13.097484266288324 13.259649122807014  14.372484266288323 14.536842105263156  16.596383658239976 15.487719298245612  C 15.077963184987563 16.447725228921687  14.088620186571982 17.920565569811465  13.868632075471696 19.548538020833327  Z " fill-rule="nonzero" fill="#13227a" stroke="none" transform="matrix(1 0 0 1 1192 221 )" />
  </g>
</svg>