<?xml version="1.0" encoding="utf-8"?>
<svg version="1.1" xmlns:xlink="http://www.w3.org/1999/xlink" width="11px" height="10px" xmlns="http://www.w3.org/2000/svg">
  <g transform="matrix(1 0 0 1 -1206 -236 )">
    <path d="M 10.870588235294111 5.013480382582718  C 10.870588235294111 7.720758573315436  8.456437371823451 9.915441176470585  5.4784313620174565 9.915441176470585  C 2.500425364549954 9.915441160607628  0.0862745203354743 7.720758562098629  0.0862745203354743 5.013480382582718  C 0.08627453778472868 2.306202214283614  2.500425376888442 0.11151963328023588  5.4784313620174565 0.11151961741727737  C 8.456437359484969 0.11151961741727737  10.870588217844858 2.306202203066807  10.870588235294111 5.013480382582718  Z M 2.9292892262178234 3.7683823529411766  C 2.7845520609887293 3.6327598913104375  2.5857975073226704 3.5558910500628245  2.3779411764705864 3.5551470588235268  C 2.1905756218266537 3.5541054506725587  2.010519901336436 3.6211685937359093  1.8778186379825312 3.741421559053305  C 1.7457008278023376 3.8625600545819756  1.6724005726964184 4.026724374200374  1.6742647058823497 4.197303911994485  C 1.6748864699720767 4.3854531880743215  1.7583945911361845 4.56553411771167  1.906127461511945 4.697303911994486  L 4.4930147058823495 7.050245088465074  C 4.639107428941338 7.182852426609702  4.83657578492884 7.258091038182482  5.043014705882346 7.259803911994483  C 5.230652192907566 7.261498586149946  5.4112329438489954 7.194862001177849  5.544485294117643 7.074754911534924  C 5.587815175671197 7.04930584280573  5.6280346283388205 7.019726671750929  5.664460773782163 6.986519617417278  L 9.073651950252755 3.88725491153493  C 9.209536604519682 3.76430434153501  9.285734696580779 3.597083287398361  9.285294117647055 3.4227941176470593  C 9.285734696580779 3.2485049478957584  9.209536604519673 3.081283893759114  9.073651950252755 2.958333323759193  C 8.937992031038721 2.834615142766799  8.753552408286012 2.7653399789255544  8.561397058823527 2.7659313821231613  C 8.369241709361027 2.7653399789255504  8.18480208660833 2.8346151427667907  8.049142167394294 2.958333323759193  L 5.044362755629586 5.689950970818015  L 2.9292892262178234 3.7683823529411766  Z " fill-rule="nonzero" fill="#13227a" stroke="none" transform="matrix(1 0 0 1 1206 236 )" />
  </g>
</svg>