<?xml version="1.0" encoding="utf-8"?>
<svg version="1.1" xmlns:xlink="http://www.w3.org/1999/xlink" width="25px" height="25px" xmlns="http://www.w3.org/2000/svg">
  <g transform="matrix(1 0 0 1 -1091 -221 )">
    <path d="M 24.996815557065215 7.309384889240507  C 24.997523211050723 6.880748121044304  24.806102807971016 6.4771434928797476  24.458290874094203 6.173358386075949  L 18.076667232789855 0.6016984770569621  C 17.729209125905797 0.29822240901898733  17.267111073369566 0.13134147547468356  16.775999207427535 0.13134147547468356  L 1.9131425498188404 0.13134147547468356  C 1.4216768568840565 0.13134147547468356  0.959578804347826 0.2985314477848101  0.6117668704710145 0.6023165545886076  C 0.2643087635869565 0.9061016613924056  0.07288836050724637 1.309706289556962  0 1.73896113528481  L 0 23.263820213607595  C 0.08208786231884058 24.149525316455698  0.9075662364130435 24.870203718354432  1.9216343976449275 24.870203718354432  L 14.803767549818842 24.870203718354432  C 15.428979846014492 24.870203718354432  15.936013926630435 24.427351166930382  15.936013926630435 23.881279667721518  C 15.936013926630435 23.335208168512658  15.428979846014492 22.892355617088608  14.803767549818842 22.892355617088608  L 2.3462267889492754 22.892355617088608  L 2.338088768115942 2.1091895767405062  L 15.90204653532609 2.1091895767405062  L 15.900277400362322 2.13514883306962  L 15.903461843297107 6.457055973101265  C 15.904169497282613 7.342452037183545  16.72964787137682 8.062821400316455  17.74336220561595 8.062821400316455  L 22.695170969202906 8.062821400316455  L 22.732322803442027 8.061585245253163  L 22.73090749547102 14.97014685522152  C 22.73090749547102 15.516218354430379  23.237587749094207 15.95907090585443  23.863153872282613 15.95907090585443  C 24.48836616847826 15.95907090585443  24.995400249094207 15.5165273931962  24.995400249094207 14.97014685522152  L 24.996815557065215 7.309384889240507  Z M 21.15390058876812 6.085282337816455  L 18.167954596920293 6.085282337816455  L 18.165831634963773 3.476377076740505  L 21.15390058876812 6.085282337816455  Z " fill-rule="nonzero" fill="#8eeb94" stroke="none" transform="matrix(1 0 0 1 1091 221 )" />
  </g>
</svg>