<?xml version="1.0" encoding="utf-8"?>
<svg version="1.1" xmlns:xlink="http://www.w3.org/1999/xlink" width="10px" height="16px" xmlns="http://www.w3.org/2000/svg">
  <g transform="matrix(1 0 0 1 -1095 -225 )">
    <path d="M 0.7489346590909091 1.0191140776699008  C 0.7507102272727273 1.5543082524271823  1.2592329545454546 1.987257281553398  1.8852982954545454 1.987257281553398  L 1.888494318181817 1.987257281553398  L 6.460582386363633 1.9766383495145632  C 7.0880681818181825 1.975121359223301  7.595525568181816 1.5394417475728155  7.59375 1.0030339805825232  C 7.591974431818182 0.4678398058252427  7.083451704545455 0.03489077669902802  6.457386363636363 0.03489077669902802  L 6.454190340909091 0.03489077669902802  L 1.8821022727272727 0.045509708737862975  C 1.2546164772727273 0.047026699029126214  0.7471590909090922 0.48270631067961167  0.7489346590909091 1.0191140776699008  Z M 8.703480113636367 5.870449029126213  C 9.331321022727273 5.870449029126213  9.839843750000002 5.435679611650485  9.839843750000002 4.899575242718447  C 9.839843750000002 4.363470873786408  9.33096590909091 3.9287014563106797  8.703480113636367 3.9287014563106797  L 1.911221590909091 3.9287014563106797  C 1.2837357954545456 3.9287014563106797  0.7748579545454546 4.363470873786408  0.7748579545454546 4.899575242718447  C 0.7748579545454546 5.435679611650485  1.2837357954545456 5.870449029126213  1.911221590909091 5.870449029126213  L 8.703480113636367 5.870449029126213  Z M 3.3533380681818183 10.416262135922333  C 1.584872159090909 10.416262135922333  0.14666193181818182 11.645327669902912  0.14666193181818182 13.155643203883495  C 0.14666193181818182 14.66626213592233  1.5852272727272725 15.89502427184466  3.3533380681818183 15.89502427184466  C 5.121448863636363 15.89502427184466  6.559659090909092 14.665958737864077  6.559659090909092 13.155643203883495  C 6.559659090909092 11.645327669902912  5.1210937500000036 10.416262135922333  3.3533380681818183 10.416262135922333  Z M 3.3533380681818183 11.023058252427187  C 4.729403409090909 11.023058252427187  5.849431818181818 11.979672330097088  5.849431818181818 13.155643203883495  C 5.849431818181818 14.331614077669903  4.729758522727275 15.288228155339805  3.3533380681818183 15.288228155339805  C 1.9769176136363622 15.288228155339805  0.8568892045454546 14.331614077669903  0.8568892045454546 13.155643203883495  C 0.8568892045454546 11.979672330097088  1.9765624999999987 11.023058252427187  3.3533380681818183 11.023058252427187  Z " fill-rule="nonzero" fill="#8eeb94" stroke="none" transform="matrix(1 0 0 1 1095 225 )" />
  </g>
</svg>