<?xml version="1.0" encoding="utf-8"?>
<svg version="1.1" xmlns:xlink="http://www.w3.org/1999/xlink" width="4px" height="3px" xmlns="http://www.w3.org/2000/svg">
  <g transform="matrix(1 0 0 1 -1097 -238 )">
    <path d="M 2.8234375 2.9024414062500004  L 2.8234375 1.3318359375000002  C 3.059765625000003 1.5120117187500002  3.28515625 1.6921874999999957  3.498828125000003 1.8726562500000001  L 3.914453125 1.5635742187500001  C 3.6449218750000028 1.36318359375  3.343359375 1.1545898437500002  3.010546875000003 0.9369140625000001  L 2.8234375 1.06142578125  L 2.8234375 0.0814453125  L 2.2703125 0.0814453125  L 2.2703125 2.9024414062500004  L 2.8234375 2.9024414062500004  Z M 1.3652343750000029 1.57470703125  C 1.3152343750000057 1.5500976562500002  1.2632812500000028 1.5257812499999999  1.209765625 1.5020507812500001  L 1.209765625 1.367578125  C 1.3609375 1.2292968750000002  1.4945312500000028 1.09423828125  1.61015625 0.9626953125000001  L 1.61015625 0.6193359374999958  L 0.98828125 0.6193359374999958  L 1.323828125 0.47050781249999574  C 1.194140625 0.3331054687499957  1.04296875 0.18837890624999576  0.869921875 0.035742187499995734  L 0.43124999999999714 0.22177734374999572  C 0.5812499999999972 0.3659179687499957  0.7105468749999971 0.49833984374999574  0.818359375 0.6193359374999958  L 0.13359375 0.6193359374999958  L 0.13359375 0.9914062499999999  L 0.9917968750000028 0.9914062499999999  C 0.7375000000000028 1.241308593749996  0.42734375000000285 1.4768554687500002  0.060937500000002844 1.6980468750000002  C 0.12460937500000142 1.8333984374999999  0.18164062500000142 1.9775390624999956  0.23242187500000142 2.13017578125  C 0.39023437500000285 2.0206054687500004  0.538671875 1.9127929687499998  0.6789062500000028 1.8067382812500001  L 0.6789062500000028 2.9024414062500004  L 1.2089843750000029 2.9024414062500004  L 1.2089843750000029 1.8996093749999998  C 1.382031250000003 1.9968750000000002  1.563671875 2.1023437499999957  1.754296875 2.215722656249996  L 2.07109375 1.9180664062500001  L 1.6992187500000029 1.7334960937500001  C 1.844140625 1.6028320312500002  1.9871093750000028 1.46689453125  2.128515625000003 1.32568359375  L 1.7468750000000028 1.1455078125  C 1.626171875000003 1.2884765625  1.4988281250000028 1.43173828125  1.3652343750000029 1.57470703125  Z " fill-rule="nonzero" fill="#8eeb94" stroke="none" transform="matrix(1 0 0 1 1097 238 )" />
  </g>
</svg>