<?xml version="1.0" encoding="utf-8"?>
<svg version="1.1" xmlns:xlink="http://www.w3.org/1999/xlink" width="8px" height="9px" xmlns="http://www.w3.org/2000/svg">
  <g transform="matrix(1 0 0 1 -1107 -236 )">
    <path d="M 4.958899456521739 0.7493489583333357  C 4.587296195652169 0.2734375000000024  3.8811141304347827 0.17643229166666902  3.3848505434782608 0.5328776041666666  L 0.45584239130434534 2.6354166666666665  C -0.017663043478265812 2.975260416666667  -0.11413043478261117 3.620768229166667  0.24048913043478012 4.07421875  C 0.5978260869565168 4.531575520833334  1.27683423913043 4.625  1.7540760869565217 4.2822265625  L 1.846467391304348 4.215820312500004  L 4.9650135869565215 8.206054687500005  C 5.077445652173908 8.349934895833337  5.290421195652174 8.379231770833337  5.440557065217392 8.271484375000005  L 5.689198369565218 8.093098958333337  L 6.078125 8.5908203125  C 6.388247282608695 8.98763020833334  6.977241847826087 9.068684895833332  7.391304347826087 8.771484375  L 7.547554347826087 8.659505208333334  C 7.990149456521739 8.341796875  8.080842391304348 7.737955729166666  7.748980978260869 7.313802083333333  L 7.414402173913044 6.8857421875  L 7.663043478260869 6.707356770833333  C 7.813179347826087 6.599609375  7.84375 6.395507812499996  7.731317934782608 6.251627604166667  L 4.597146739130435 2.2415364583333335  L 4.752038043478261 2.1302083333333335  C 5.206182065217392 1.8040364583333335  5.298913043478261 1.1848958333333357  4.958899456521739 0.7493489583333357  Z M 4.054008152173913 2.631184895833338  L 6.984375 6.381184895833334  L 6.735733695652169 6.5595703125  C 6.585597826086956 6.667317708333329  6.555027173913039 6.871419270833333  6.667459239130435 7.015299479166667  L 7.205502717391305 7.703776041666666  C 7.3125 7.8408203125  7.283288043478261 8.035481770833334  7.140625 8.138020833333334  L 6.984375 8.25  C 6.870244565217392 8.33203125  6.707880434782608 8.3095703125  6.622282608695652 8.2001953125  L 6.029551630434782 7.441731770833338  C 5.917119565217392 7.297851562500004  5.7041440217391255 7.2685546875  5.554008152173913 7.376302083333338  L 5.305366847826082 7.554687500000005  L 2.3902853260869565 3.8251953125000044  L 4.054008152173913 2.631184895833338  Z M 4.415760869565218 1.1389973958333262  C 4.530910326086956 1.287434895833324  4.499660326086956 1.4980468749999907  4.345108695652174 1.6087239583333333  L 3.9181385869565166 1.9150390624999951  L 1.7109374999999951 3.4993489583333286  L 1.3464673913043428 3.7610677083333286  C 1.1691576086956448 3.888346354166662  0.9167798913043429 3.853515624999995  0.7839673913043453 3.683593749999995  C 0.6538722826086907 3.517252604166662  0.6895380434782584 3.2805989583333286  0.8631114130434758 3.1559244791666616  L 3.7924592391304346 1.0533854166666594  C 3.98879076086956 0.9124348958333239  4.268682065217392 0.9508463541666596  4.415760869565218 1.1389973958333262  Z M 1.9840353260869565 0.23079427083334042  C 1.814538043478261 0.013671875000009473  1.4932065217391304 -0.03059895833332386  1.2669836956521738 0.13216145833333331  L 0.8203125000000024 0.45279947916666907  C 0.5689538043478286 0.6331380208333334  0.5176630434782633 0.9749348958333333  0.7061820652173938 1.2158203125000049  L 1.3216711956521763 2.0035807291666714  L 2.633491847826087 1.0618489583333404  L 1.9840353260869565 0.23079427083334042  Z " fill-rule="nonzero" fill="#8eeb94" stroke="none" transform="matrix(1 0 0 1 1107 236 )" />
  </g>
</svg>