<?xml version="1.0" encoding="utf-8"?>
<svg version="1.1" xmlns:xlink="http://www.w3.org/1999/xlink" width="12px" height="12px" xmlns="http://www.w3.org/2000/svg">
  <g transform="matrix(1 0 0 1 -892 -309 )">
    <path d="M 11.667057291666667 5.646533203125001  C 11.927213541666667 5.448706054687502  11.881445312500002 5.0042724609375  11.589973958333335 4.8796142578124995  L 1.0656901041666675 0.38107910156249947  C 0.7694010416666675 0.2537109374999984  0.4707031250000012 0.5653564453124984  0.5598307291666677 0.9068115234374989  L 3.3541015625000012 11.584057617187499  C 3.4287760416666684 11.868603515624999  3.7298828125000014 11.985131835937498  3.9442708333333343 11.814404296874999  L 6.133919270833333 10.080029296874999  L 7.148046875 11.136914062499999  C 7.386523437500001 11.38623046875  7.774348958333334 11.2100830078125  7.793619791666666 10.84423828125  L 7.916471354166667 8.464892578125001  C 7.923697916666667 8.340234375000001  7.880338541666667 8.218286132812501  7.8008463541666675 8.131567382812502  L 2.850651041666668 2.692675781250001  L 8.783658854166667 7.489306640625001  C 8.913736979166668 7.5949951171875005  9.089583333333335 7.597705078125001  9.222070312500001 7.4974365234375  L 11.667057291666667 5.646533203125001  Z " fill-rule="nonzero" fill="#000000" stroke="none" transform="matrix(1 0 0 1 892 309 )" />
  </g>
</svg>