<?xml version="1.0" encoding="utf-8"?>
<svg version="1.1" xmlns:xlink="http://www.w3.org/1999/xlink" width="11px" height="7px" xmlns="http://www.w3.org/2000/svg">
  <g transform="matrix(1 0 0 1 -879 -301 )">
    <path d="M 10.071136474609375 2.0373372395833345  C 10.235089111328126 2.0373372395833345  10.369232177734375 1.8912000868055567  10.369232177734375 1.7113389756944448  L 10.369232177734375 0.5675347222222227  C 10.369232177734375 0.3876736111111122  10.235089111328126 0.2415364583333347  10.071136474609375 0.2415364583333347  L 0.49978027343749976 0.2415364583333347  C 0.33582763671874927 0.2415364583333347  0.20168457031249976 0.3876736111111122  0.20168457031249976 0.5675347222222227  L 0.20168457031249976 1.7113389756944448  C 0.20168457031249976 1.8912000868055552  0.33582763671874927 2.0373372395833345  0.49978027343749976 2.0373372395833345  L 10.071136474609375 2.0373372395833345  Z M 4.938922119140624 4.757736545138888  L 0.47493896484374976 4.757736545138888  C 0.31098632812499927 4.757736545138888  0.17684326171874976 4.903873697916666  0.17684326171874976 5.083734809027778  L 0.17684326171874976 6.2275390625  C 0.17684326171874976 6.40740017361111  0.31098632812499927 6.55353732638889  0.47493896484374976 6.55353732638889  L 4.938922119140624 6.55353732638889  C 5.102874755859375 6.55353732638889  5.237017822265624 6.407400173611114  5.237017822265624 6.2275390625  L 5.237017822265624 5.083734809027778  C 5.237017822265624 4.9038736979166675  5.102874755859375 4.757736545138888  4.938922119140624 4.757736545138888  Z " fill-rule="nonzero" fill="#000000" stroke="none" transform="matrix(1 0 0 1 879 301 )" />
  </g>
</svg>