<?xml version="1.0" encoding="utf-8"?>
<svg version="1.1" xmlns:xlink="http://www.w3.org/1999/xlink" width="18px" height="25px" xmlns="http://www.w3.org/2000/svg">
  <g transform="matrix(1 0 0 1 -885 -296 )">
    <path d="M 7.759592848557692 23.21118903882576  C 7.759592848557692 22.970303622159097  7.579484675480769 22.775952888257578  7.359352463942307 22.77595288825757  L 2 22.77595288825757  L 2 2.226784446022727  L 15.7869140625 2.226784446022727  L 15.7869140625 12.020966500946969  C 15.7869140625 12.261851917613638  15.967022235576923 12.458939985795455  16.187154447115383 12.458939985795455  L 17.185253906249997 12.458939985795455  C 17.40538611778846 12.458939985795455  17.585494290865384 12.261851917613638  17.585494290865384 12.020966500946969  L 17.585494290865384 1.1318507339015154  C 17.585494290865384 0.6500799005681817  17.225277944711536 0.25864109848484873  16.78751502403846 0.25864109848484873  L 0.8054161658653848 0.25864109848484873  C 0.36515174278846174 0.25864109848484873  0.007436899038461538 0.6528172348484853  0 1.1318507339015156  L 0 23.86814926609849  C 0.007436899038461538 24.34992009943182  0.3676532451923078 24.741358901515152  0.8054161658653848 24.741358901515152  L 7.359352463942307 24.741358901515152  C 7.579484675480769 24.741358901515152  7.759592848557692 24.544270833333336  7.759592848557692 24.303385416666668  L 7.759592848557692 23.21118903882576  Z " fill-rule="nonzero" fill="#000000" stroke="none" transform="matrix(1 0 0 1 885 296 )" />
  </g>
</svg>