<?xml version="1.0" encoding="utf-8"?>
<svg version="1.1" xmlns:xlink="http://www.w3.org/1999/xlink" width="25px" height="25px" xmlns="http://www.w3.org/2000/svg">
  <g transform="matrix(1 0 0 1 -1089 -298 )">
    <path d="M 24.71853448275862 16.33340517241379  C 24.71853448275862 17.933620689655168  23.40991379310345 19.24224137931034  21.80258620689655 19  L 3.161853448275863 19  C 1.5545258620689661 19.242241379310343  0.24590517241379348 17.933620689655168  0.24590517241379348 16.326293103448275  L 0.24590517241379348 3.3254310344827585  C 0.24590517241379348 1.718103448275862  1.5545258620689661 0.40948275862068967  3.161853448275863 0.40948275862068967  L 21.80258620689655 0.40948275862068967  C 23.40991379310345 0.40948275862068967  24.71853448275862 1.718103448275862  24.71853448275862 3.3254310344827585  L 24.71853448275862 16.33340517241379  Z M 21.80258620689655 2.116379310344827  L 3.161853448275863 2.116379310344828  C 2.4933189655172416 2.116379310344828  1.952801724137931 2.6568965517241376  2 3.3254310344827593  L 2 16.333405172413794  C 1.952801724137931 17.001939655172414  2.493318965517241 17.542456896551727  3.161853448275863 17.542456896551727  L 21.80258620689655 17.542456896551727  C 22.471120689655173 17.542456896551727  23.01163793103448 17.001939655172414  23 16.333405172413794  L 23 3.3254310344827585  C 23.01163793103448 2.6568965517241376  22.471120689655173 2.116379310344827  21.80258620689655 2.116379310344827  Z M 21.831034482758618 23.71573275862069  C 21.831034482758618 24.18512931034483  21.454094827586207 24.56918103448276  20.977586206896554 24.56918103448276  L 4.015301724137931 24.56918103448276  C 3.5459051724137938 24.56918103448276  3.161853448275863 24.18512931034483  3.161853448275863 23.71573275862069  C 3.161853448275863 23.246336206896547  3.5459051724137938 22.862284482758618  4.015301724137931 22.862284482758618  L 20.977586206896547 22.862284482758618  C 21.446982758620685 22.862284482758618  21.831034482758618 23.246336206896547  21.831034482758618 23.71573275862069  Z " fill-rule="nonzero" fill="#060001" stroke="none" transform="matrix(1 0 0 1 1089 298 )" />
  </g>
</svg>