<?xml version="1.0" encoding="utf-8"?>
<svg version="1.1" xmlns:xlink="http://www.w3.org/1999/xlink" width="25px" height="15px" xmlns="http://www.w3.org/2000/svg">
  <g transform="matrix(1 0 0 1 -978 -306 )">
    <path d="M 24.724264705882355 7.760881696428572  C 24.724264705882355 3.9174107142857144  21.504480698529413 0.7896205357142857  17.545237821691178 0.7896205357142857  C 16.38284122242647 0.7896205357142857  15.285931755514707 1.0599888392857133  14.311810661764707 1.539760044642858  L 13.681497012867647 0.19321986607142855  C 13.20125804227941 0.5086495535714278  12.666446461397054 0.7472098214285718  12.090705422794116 0.8929966517857149  L 12.841078814338236 2.499302455357143  C 11.700511259191176 3.461495535714284  10.87646484375 4.768275669642857  10.538114659926471 6.25  L 6.76714728860294 6.25  L 9.359346277573529 0.8638392857142867  C 8.7890625 0.704799107142857  8.256979549632353 0.45563616071428625  7.7849264705882355 0.1296037946428579  L 4.840734145220588 6.25  L 0.2757352941176471 6.25  L 0.2757352941176471 14.732142857142856  L 16.974954044117645 14.732142857142856  L 16.974954044117645 14.7109375  C 17.16322954963235 14.724190848214285  17.354233685661764 14.732142857142856  17.545237821691178 14.732142857142856  C 19.46346507352941 14.732142857142856  21.264361213235293 14.005859375000002  22.620490579044116 12.691127232142858  C 23.976619944852942 11.373744419642854  24.724264705882355 9.624302455357142  24.724264705882355 7.760881696428572  Z M 12.854721966911764 13  L 2.0220588235294117 13  L 2.0220588235294117 7.946428571428571  L 10.374396829044118 7.946428571428571  C 10.423512178308824 9.73828125  11.162971047794118 11.418805803571429  12.47271369485294 12.691127232142858  C 12.595502068014705 12.810407366071429  12.723747702205884 12.92703683035714  12.854721966911764 13  Z M 22.977941176470587 7.760881696428572  C 22.977941176470587 10.668666294642858  20.54127412683824 13.035714285714286  17.545237821691178 13.035714285714286  C 14.554658777573529 13.035714285714286  12.117991727941178 10.668666294642858  12.117991727941178 7.760881696428572  C 12.117991727941178 4.853097098214284  14.554658777573529 2.486049107142857  17.545237821691178 2.486049107142857  C 20.54127412683824 2.486049107142857  22.977941176470587 4.853097098214284  22.977941176470587 7.760881696428572  Z " fill-rule="nonzero" fill="#727272" stroke="none" transform="matrix(1 0 0 1 978 306 )" />
  </g>
</svg>