<?xml version="1.0" encoding="utf-8"?>
<svg version="1.1" xmlns:xlink="http://www.w3.org/1999/xlink" width="11px" height="11px" xmlns="http://www.w3.org/2000/svg">
  <g transform="matrix(1 0 0 1 -983 -296 )">
    <path d="M 5.61888020833333 0.275  C 8.476302083333334 0.275  10.789453125 2.588151041666667  10.789453125 5.445572916666666  C 10.789453125 7.228059895833334  9.888684895833334 8.801002604166666  8.514401041666666 9.728984375  C 8.035442708333331 10.05282552083333  7.502057291666666 10.297747395833332  6.9278515625 10.447421874999998  C 6.508763020833332 10.556276041666665  6.070625 10.613424479166667  5.61888020833333 10.613424479166667  C 5.126315104166665 10.613424479166667  4.6500781249999985 10.545390625000001  4.201054687499998 10.417486979166664  C 3.6322916666666654 10.254205729166667  3.1016276041666657 9.9983984375  2.6308333333333307 9.663671875  C 1.3109765624999976 8.730247395833334  0.4483072916666654 7.187239583333334  0.4483072916666654 5.445572916666666  C 0.4483072916666654 2.588151041666667  2.7614583333333322 0.275  5.61888020833333 0.275  Z " fill-rule="nonzero" fill="#5280c1" stroke="none" transform="matrix(1 0 0 1 983 296 )" />
  </g>
</svg>