<?xml version="1.0" encoding="utf-8"?>
<svg version="1.1" xmlns:xlink="http://www.w3.org/1999/xlink" width="13px" height="11px" xmlns="http://www.w3.org/2000/svg">
  <g transform="matrix(1 0 0 1 -1095 -302 )">
    <path d="M 2.23145 9.853461538461538  C 2.23145 10.314192307692304  1.8453499999999992 10.691153846153844  1.3734499999999998 10.691153846153844  C 0.9015499999999986 10.691153846153844  0.515449999999998 10.314192307692307  0.515449999999998 9.853461538461538  L 0.515449999999998 5.134461538461537  C 0.515449999999998 4.673730769230766  0.9015499999999986 4.296769230769227  1.3734499999999998 4.296769230769227  C 1.8453499999999992 4.296769230769227  2.23145 4.673730769230766  2.23145 5.134461538461537  L 2.23145 9.853461538461538  Z M 7.2650500000000005 9.853461538461538  C 7.2650500000000005 10.314192307692304  6.8789500000000015 10.691153846153844  6.407049999999999 10.691153846153844  C 5.93515 10.691153846153844  5.549049999999999 10.314192307692307  5.549049999999999 9.853461538461538  L 5.549049999999999 3.347384615384615  C 5.549049999999999 2.886653846153845  5.93515 2.5096923076923057  6.407049999999999 2.5096923076923057  C 6.878949999999999 2.5096923076923057  7.2650500000000005 2.886653846153845  7.2650500000000005 3.347384615384615  L 7.2650500000000005 9.853461538461538  Z M 12.291500000000001 9.853461538461538  C 12.291500000000001 10.314192307692304  11.912550000000001 10.691153846153844  11.433499999999999 10.691153846153844  C 10.961599999999999 10.691153846153844  10.575499999999996 10.314192307692307  10.575499999999996 9.853461538461538  L 10.575499999999996 1.4276730769230759  C 10.575499999999996 0.9669423076923072  10.961599999999997 0.5899807692307688  11.433499999999999 0.5899807692307688  C 11.905400000000002 0.5899807692307688  12.291500000000001 0.9669423076923072  12.291500000000001 1.4276730769230759  L 12.291500000000001 9.853461538461538  Z " fill-rule="nonzero" fill="#060001" stroke="none" transform="matrix(1 0 0 1 1095 302 )" />
  </g>
</svg>