<?xml version="1.0" encoding="utf-8"?>
<svg version="1.1" xmlns:xlink="http://www.w3.org/1999/xlink" width="24px" height="24px" xmlns="http://www.w3.org/2000/svg">
  <g transform="matrix(1 0 0 1 -881 -221 )">
    <path d="M 5.571037418713873 0  L 15.79312443099711 0  L 15.79312443099711 1.7698091260302198  L 20.90416793713873 1.7698091260302198  C 21.080493329896512 1.7697532528428779  21.231662725477207 1.8894982537450433  21.26340127348266 2.0543666981456044  L 21.269242467485547 2.1168305460164833  L 21.269242467485547 8.900404867788462  C 22.891319361207593 9.757481211339602  23.896972400312343 11.383187841251633  23.896318840317917 13.147252747252747  C 23.897119742388867 14.911171460050387  22.891767728321707 16.536843282828972  21.26997260657515 17.39410062671703  L 21.269242467485554 23.632157323145606  C 21.269301249762222 23.79976332025336  21.143326754074337 23.94345730327696  20.969881349349713 23.973626373626377  L 20.90416793713873 24  L 0.45999391257225425 24  C 0.28366852833172673 23.97923459283717  0.1324991357866669 23.8594896051778  0.10076057622832373 23.694621171016482  L 0 23.632157323145606  L 0 2.1168305460164833  C 0.09486058685950156 1.9492245391984953  0.22083508558302312 1.8055305418740741  0.3942805003612717 1.7753614697802198  L 0.45999391257225425 1.7698091260302198  L 5.571037418713873 1.7698091260302198  L 5.571037418713873 0  Z M 5.571037418713873 4.198958937156593  L 5.571037418713873 2.463851940247253  L 1 2.463851940247253  L 1 23  L 20.539093406791906 23  L 20.539093406791906 17.711972235576923  C 19.97804537926661 17.906418923134964  19.385488320956256 18.00589936040522  18.788311069831288 18.00589936040522  C 15.965559685667564 18.00589936040522  13.677267563689671 15.830764541162495  13.677267563689671 13.147599763907968  C 13.677267563689671 10.464434986653437  15.965559685667564 8.289300167410714  18.788311069831288 8.289300167410714  C 19.38548832095626 8.289300167410714  19.978045379266604 8.388780604680964  20.539093406791906 8.58322729223901  L 20.539093406791906 2.463851940247253  L 15.79312443099711 2.463851940247253  L 15.79312443099711 4.198958937156593  L 5.571037418713873 4.198958937156593  Z M 2.650441121748556 13.56853673592033  L 7.761484627890175 13.56853673592033  C 7.963109750647737 13.56853673592033  8.126559185332368 13.723903506252427  8.126559185332368 13.915558130151101  L 8.126559185332368 18.77385772664835  C 8.126559185332372 18.88953152472528  8.126559185332368 18.658183928571432  8.126559185332368 18.773857726648355  C 8.126559185332368 18.965512350547034  7.963109750647737 19.120879120879124  7.761484654985548 19.120879120879124  L 2.650441121748556 19.120879120879124  C 2.4488160260863645 19.120879120879124  2.2853665914017345 18.965512350547026  2.2853665914017345 18.77385772664835  L 2.2853665914017345 13.915558130151101  C 2.2853665914017345 13.723903506252427  2.4488160260863676 13.56853673592033  2.650441121748556 13.56853673592033  Z M 7.396410097543352 18.426836332417583  L 7.396410097543352 14.262579524381868  L 3.0155156791907523 14.262579524381868  L 3.0155156791907523 18.426836332417583  L 7.396410097543352 18.426836332417583  Z M 9.221782776372832 16.691729335508246  L 14.02908427565029 16.691729335508246  L 14.02908427565029 17.385772123969783  L 9.221782776372832 17.385772123969783  L 9.221782776372832 16.691729335508246  Z M 18.785275334176298 8.982995939217036  C 16.365774141336953 8.982995939217036  14.404380888728323 10.847397217795567  14.404380888728323 13.147252747252749  C 14.404380888728323 15.447108276709933  16.365774141336953 17.311509555288463  18.785275334176298 17.311509555288463  C 21.204776527015646 17.311509555288463  23.166169779624276 15.447108276709933  23.166169779624276 13.147252747252749  C 23.166169779624276 10.847397217795567  21.204776527015646 8.982995939217036  18.785275334176298 8.982995939217036  Z M 21.043626399927746 11.496818973214285  L 21.552540308887284 11.941700403502747  L 18.00255552745665 15.37235395776099  L 18.00109522218208 15.371659924450553  L 15.782902348265896 13.374204730425827  L 16.308609673049133 12.892539045329674  L 17.985762084537576 14.412492779876374  L 21.043626399927746 11.497513006524727  Z M 9.221782776372832 14.609600918612637  L 12.601642846820813 14.609600918612637  L 12.601642846820813 15.303643732829668  L 9.221782776372832 15.303643732829668  L 9.221782776372832 14.609600918612637  Z M 2.650441121748556 6.628108722527472  L 7.761484627890175 6.628108722527472  C 7.963109750647737 6.628108722527472  8.126559185332368 6.7834754928595675  8.126559185332368 6.975130116758242  L 8.126559185332368 11.83342973901099  C 8.126559185332372 11.717755940934065  8.126559185332368 11.949103537087911  8.126559185332368 11.833429739010985  C 8.126559185332368 12.02508436290966  7.963109750647737 12.180451133241753  7.761484654985548 12.180451133241753  L 2.650441121748556 12.180451133241753  C 2.4488160260863685 12.180451133241753  2.2853665914017354 12.02508436290966  2.2853665914017345 11.833429739010986  L 2.2853665914017345 6.975130142513736  C 2.2853665914017336 6.783475492859569  2.4488160260863654 6.6281087225274735  2.650441121748554 6.6281087225274735  C 2.4070581015173405 6.6281087225274735  2.8938241419797697 6.6281087225274735  2.650441121748556 6.628108722527472  Z M 7.396410097543352 11.486408319024724  L 7.396410097543352 7.322151536744505  L 3.0155156791907523 7.322151536744505  L 3.0155156791907523 11.486408319024724  L 7.396410097543352 11.486408319024724  Z M 9.221782776372832 9.751301322115383  L 14.02908427565029 9.751301322115383  L 14.02908427565029 10.445344136332416  L 9.221782776372832 10.445344136332416  L 9.221782776372832 9.751301322115383  Z M 9.221782776372832 7.669172930975275  L 15.79312443099711 7.669172930975275  L 15.79312443099711 8.363215719436813  L 9.221782776372832 8.363215719436813  L 9.221782776372832 7.669172930975275  Z M 15.06297537030347 3.504916148695055  L 15.06297537030347 0.728744943337912  L 6.301186479407514 0.728744943337912  L 6.301186479407514 3.504916148695055  L 15.06297537030347 3.504916148695055  Z " fill-rule="nonzero" fill="#76a4f5" stroke="none" transform="matrix(1 0 0 1 881 221 )" />
  </g>
</svg>