<?xml version="1.0" encoding="utf-8"?>
<svg version="1.1" xmlns:xlink="http://www.w3.org/1999/xlink" width="25px" height="25px" xmlns="http://www.w3.org/2000/svg">
  <g transform="matrix(1 0 0 1 -1188 -301 )">
    <path d="M 25 21.378781085069956  L 25 3.621218914930043  C 24.995092739202253 3.6204859091310317  24.995092949815454 3.619752903177414  24.995092949815454 3.619019897206345  C 24.995092949815454 1.846482523571163  23.789929667662925 0.40955707177391215  22.303285418807604 0.40955707177391215  C 22.30267063300776 0.40955707177391215  22.30205584722561 0.40955732289504204  22.301441061570074 0.40955782513725736  L 2.7987423563488725 0.40955782513725736  C 1.4805306533820757 0.41077010141283715  0.41216269887515394 1.6845934317864748  0.41114595103111923 3.256307385323809  L 0.41114595103111923 21.743692614676196  C 0.41216269887515455 23.315406568213522  1.4805306533820755 24.589229898587163  2.7987423563488725 24.59044217486274  L 22.301441061570074 24.59044217486274  C 22.30205584722677 24.590442677104964  22.3026706330066 24.590442928226082  22.303285418807604 24.590442928226082  C 23.789929667662925 24.590442928226082  24.995092949815454 23.153517476428835  24.995092949815454 21.38098010279365  C 24.995092949815454 21.380247096821197  24.995092739202253 21.379514090870355  25 21.378781085069956  Z " fill-rule="nonzero" fill="#c73a3a" stroke="none" transform="matrix(1 0 0 1 1188 301 )" />
  </g>
</svg>