<?xml version="1.0" encoding="utf-8"?>
<svg version="1.1" xmlns:xlink="http://www.w3.org/1999/xlink" width="20px" height="19px" xmlns="http://www.w3.org/2000/svg">
  <g transform="matrix(1 0 0 1 -1191 -304 )">
    <path d="M 14.748545776413406 17.227559963161937  L 14.748545776413406 17.22104430759785  C 14.748547051624746 17.220320346779513  14.748547689230895 17.21959638468555  14.748547689230895 17.218872422407628  C 14.748547689230895 16.621522466512975  14.323768901635958 16.13727464865475  13.799777712254686 16.13727464865475  C 13.79977707470606 16.13727464865475  13.799776436985816 16.137274648655485  13.799775799437192 16  L 1.258103678690202 16  C 1.2581030410022565 16.137274648655485  1.2581024035606583 16.13727464865475  1.2581017658727132 16.13727464865475  C 0.7341105764914402 16.13727464865475  0.30933178889650453 16.621522466512975  0.30933178889650453 17.218872422407628  C 0.30933178889650453 17.219596384684905  0.30933242650265536 17.220320346780152  0.3093337017139934 17.22104430759785  L 0.3093337017139934 17.227559963161937  C 0.3093337017139934 17.82482780660015  0.734184517779483 18.309157736914816  1.258103678690202 18  L 13.799775799437198 18  C 14.32376698082616 18.309157713584035  14.748545765110572 17.82490990994535  14.748545776413406 17.227559963161937  Z M 9.03306402660527 11.797852289178817  L 9.03306402660527 11.791336633614735  C 9.033065301816608 11.790612672797197  9.033065939422759 11.789888710701632  9.033065939422759 11.789164748424511  C 9.033065939422759 11.191814792529858  8.608287151827824 10.70756697467163  8.084295962446554 10.70756697467163  L 1.258103678690202 10.707566974673831  C 0.7341105764914402 10.70756697467163  0.30933178889650453 11.191814792529858  0.30933178889650453 11.789164748424511  C 0.30933178889650453 11.789888710701788  0.30933242650265536 11.790612672797035  0.3093337017139934 11.791336633614735  L 0.3093337017139934 11.797852289178817  C 0.3093337017139934 12.39512013261704  0.734184517779483 12.879450062931697  1.258103678690202 12.879450062931697  L 8.084294049629062 12.879450062931697  C 8.608285239010335 12.879450062931697  9.03306402660527 12.39520224507347  9.03306402660527 11.797852289178817  Z M 11.256386431312356 9.871391993860323  L 11.265912223074954 7.608289844359171  C 13.388261120491174 7.61914927029931  15.066707597851112 7.929728548887183  16.331734233819393 8.427089766999233  C 17.36814160143259 8.876669557636225  18.280713512407264 9.723703964389873  19.050398383218216 11.013802506216425  C 19.08318684073494 11.074060863170239  19.1505073877357 11.096522931743822  19.206621540035815 11.065927680736763  C 19.262139183370973 11.035652843231725  19.289730321316945 10.963493913569343  19.271397001790742 10.896520822716809  L 19.269491839345104 10.890005167152726  C 19.168518332054237 10.512097517728323  18.93037325147097 9.8713920171911  18.52266889741622 8.891872730621644  C 18.13596441491081 7.977275164089091  17.643897963831957 7.125615774641892  17.059505571757484 6.3594570744435925  C 16.514629644410338 5.642735662317729  15.729703474034284 4.997686391404454  14.702821918649274 4.389559145356871  C 13.853120306983886 3.8856822716807393  12.485215001279101 3.3275083149654674  11.690763039140446 3.1494139161934034  C 11.461779593366066 3.124762399570464  11.286833130509475 2.905567686309501  11.286868989511385 2.643365157329242  L 11.290679314402665 1.2034066775134338  C 11.289960026975468 0.92090719548386  11.088870908143445 0.6923300347612057  10.841063301054017 0.6923300347612057  C 10.734239323023996 0.6923300347612057  10.63090519380851 0.7356889580890593  10.549571859810696 0.8146396254796641  L 6.179133466359682 5.125827500844205  C 6.081778262400647 5.223150147678954  6.025954563362953 5.363596338141037  6.025954563362953 5.511208508479066  C 6.025954563362953 5.657810674317001  6.081019792144863 5.797396177035692  6.177228303914043 5.894674110821182  L 10.513373793809155 10.253643413660782  C 10.515040346538955 10.532970503655301  10.714141634060681 10.75840742599621  10.959171064757689 10.75840742599621  C 11.205383793932436 10.75840742599621  11.40497864725961 10.53086929320323  11.40497864725961 10.250186781944024  C 11.40497864725961 10.105571815860925  11.350936115229732 9.967805316201009  11.256386431312356 9.871391993860323  Z M 3.3175822767971352 6.361628959631618  L 3.3175822767971352 6.352941442210283  C 3.3175822767971352 5.755591486315631  2.8928034892022 5.271343668457405  2.368812299820927 5.271343668457405  L 1.258103678690202 5.271343668457405  C 0.734112489308929 5.271343668457405  0.3093337017139934 5.755591486315631  0.3093337017139934 6.352941442210283  L 0.3093337017139934 6.36162895963162  C 0.3093337017139934 6.958896803069838  0.734184517779483 7.443226733384496  1.258103678690202 7.443226733384496  L 2.368812299820925 7.443226733384496  C 2.8928034892022 7.443226733384496  3.3175822767971352 6.95897891552627  3.3175822767971352 6.36162895963162  Z " fill-rule="nonzero" fill="#ffffff" stroke="none" transform="matrix(1 0 0 1 1191 304 )" />
  </g>
</svg>