<?xml version="1.0" encoding="utf-8"?>
<svg version="1.1" xmlns:xlink="http://www.w3.org/1999/xlink" width="16px" height="15px" xmlns="http://www.w3.org/2000/svg">
  <g transform="matrix(1 0 0 1 -398 -87 )">
    <path d="M 14.48925170134829 14.814285714285715  L 0.3715192776588517 14.814285714285713  C 0.16633484633971424 14.814285714285718  0 14.646351494349245  0 14.439194135714288  C 0 14.23203677707933  0.16633484633971582 14.064102557142856  0.3715192776588517 14.064102557142856  C 0.3715192776588517 14.064102557142856  0.3715192776588517 14.064102557142856  0.37151927765885173 14  L 14.489251701348289 14  C 14.489251701348289 14.064102557142856  14.489251701348289 14.064102557142856  14.489251701348289 14.064102557142856  C 14.694436132667427 14.064102557142856  14.86077097900714 14.232036777079326  14.86077097900714 14.439194135714288  C 14.86077097900714 14.646351494349243  14.694436132667422 14.814285714285718  14.489251701348289 14.814285714285718  Z M 13.877730979986039 5.351475457142857  L 8.91646258598932 12.86380952857143  L 8.619247169522103 13.313919414285715  L 3.71519275536403 13.313919414285715  L 1.1621122928194736 11.099378757142858  L 0.5201269858924606 10.613260071428574  L 0.965950124742947 10.013113557142857  L 7.117566266784749 0.35825641428571403  L 7.627290712817865 0.24272819999999973  L 13.671909291913781 4.311721614285714  L 14.314637639928902 4.7445772857142865  L 13.877730979986039 5.351475457142857  Z M 13.259522902980484 4.935123814285714  L 7.53886912047601 1.0859340714285712  L 1.5648391900563632 10.463223442857144  L 3.71519275536403 12.582490842857144  L 3.71519275536403 12.563736257142859  L 8.222464586840408 12.563736257142859  L 13.259522902980484 4.935123814285714  Z " fill-rule="nonzero" fill="#81d3f8" stroke="none" fill-opacity="0.49019607843137253" transform="matrix(1 0 0 1 398 87 )" />
  </g>
</svg>