<?xml version="1.0" encoding="utf-8"?>
<svg version="1.1" xmlns:xlink="http://www.w3.org/1999/xlink" width="10px" height="11px" xmlns="http://www.w3.org/2000/svg">
  <g transform="matrix(1 0 0 1 -353 -56 )">
    <path d="M 9.985754982972757 0.6876608162006583  L 9.273504269330928 0.6876608162006579  L 9.273504269330928 5.833859645353619  C 9.273504269330928 7.965485051009322  7.360191236288261 9.693508821904704  5 9.693508821904704  C 2.6398087637117396 9.693508821904704  0.7264957306690707 7.965485051009322  0.7264957306690707 5.8338597028668735  L 0.7264957306690716 0.6876608162006583  L 0.01424501702724357 0.6876608162006583  L 0.01424501702724357 0.0443859611430926  L 2.8632478590745194 0.0443859611430926  L 2.8632478590745194 0.6876608162006583  L 2.150997145432692 0.6876608162006583  L 2.150997145432692 5.833859645353619  C 2.150997145432692 7.254943214945249  3.426539171198077 8.40695906558388  4.999999999999999 8.40695906558388  C 6.573460828801922 8.40695906558388  7.849002854567306 7.254943214945249  7.849002854567306 5.833859645353619  L 7.849002854567308 0.6876608162006583  L 7.136752140925481 0.6876608162006583  L 7.136752140925481 0.0443859611430926  L 9.985754982972757 0.0443859611430926  L 9.985754982972757 0.6876608162006583  Z M 0.7264957306690702 10.980058474506578  L 0.7264957306690716 10.33678363075658  L 9.273504269330928 10.33678363075658  L 9.273504269330928 10.980058474506578  L 0.7264957306690702 10.980058474506578  Z " fill-rule="nonzero" fill="#212121" stroke="none" transform="matrix(1 0 0 1 353 56 )" />
  </g>
</svg>