<?xml version="1.0" encoding="utf-8"?>
<svg version="1.1" xmlns:xlink="http://www.w3.org/1999/xlink" width="15px" height="7px" xmlns="http://www.w3.org/2000/svg">
  <g transform="matrix(1 0 0 1 -264 -68 )">
    <path d="M 14.849699398797595 0.7216494845360822  C 14.9498997995992 0.8018327605956451  15 0.8940435280641458  15 0.9982817869415811  C 15 1.102520045819014  14.9498997995992 1.1947308132875132  14.849699398797595 1.2749140893470792  L 7.845691382765531 6.8797250859106525  C 7.745490981963928 6.959908361970215  7.630260521042085 7  7.5 7  C 7.369739478957917 7  7.254509018036074 6.959908361970215  7.154308617234468 6.8797250859106525  L 0.1503006012024048 1.2749140893470792  C 0.05010020040080175 1.1947308132875132  0 1.102520045819014  0 0.9982817869415811  C 0 0.8940435280641458  0.05010020040080175 0.8018327605956451  0.1503006012024048 0.7216494845360822  L 0.9018036072144289 0.12027491408934743  C 1.0020040080160324 0.04009163802978144  1.117234468937876 0  1.24749498997996 0  C 1.3777555110220443 0  1.4929859719438878 0.04009163802978144  1.593186372745491 0.12027491408934743  L 7.5 4.847079037800687  L 13.40681362725451 0.12027491408934743  C 13.507014028056114 0.04009163802978144  13.622244488977957 0  13.75250501002004 0  C 13.882765531062127 0  13.99799599198397 0.04009163802978144  14.098196392785573 0.12027491408934743  L 14.849699398797595 0.7216494845360822  Z " fill-rule="nonzero" fill="#000000" stroke="none" transform="matrix(1 0 0 1 264 68 )" />
  </g>
</svg>